<svg width="724" height="555" viewBox="0 0 724 555" fill="none" xmlns="http://www.w3.org/2000/svg">
<path d="M562.101 352.437C562.101 344.902 555.992 338.794 548.457 338.794H418.392C410.857 338.794 404.749 344.902 404.749 352.437V408.829C404.749 416.364 410.857 422.472 418.392 422.472H472.055C479.59 422.472 485.699 428.581 485.699 436.116V540.714C485.699 548.248 491.807 554.357 499.342 554.357H629.407C636.942 554.357 643.05 548.248 643.05 540.714V436.116C643.05 428.581 636.942 422.472 629.407 422.472H575.744C568.209 422.472 562.101 416.364 562.101 408.829V352.437Z" fill="#414040"/>
<rect x="323.799" y="427.02" width="157.352" height="127.337" rx="15" fill="#414040"/>
<rect x="404.749" y="206" width="76.402" height="128.246" rx="15" fill="#FF3E1B"/>
<path d="M400.201 307.869C400.201 300.334 394.093 294.226 386.558 294.226H256.492C248.957 294.226 242.849 300.334 242.849 307.869V368.809C242.849 376.344 236.741 382.452 229.206 382.452H175.543C168.008 382.452 161.899 388.561 161.899 396.095V540.714C161.899 548.249 168.008 554.357 175.543 554.357H305.608C313.143 554.357 319.251 548.249 319.251 540.714V436.116C319.251 428.581 325.359 422.472 332.894 422.472H386.558C394.093 422.472 400.201 416.364 400.201 408.829V307.869Z" fill="#212121"/>
<path d="M399.701 309.811H400.201V313.694H399.701V317.577H400.201V321.46H399.701V325.343H400.201V329.226H399.701V333.109H400.201V336.992H399.701V340.875H400.201V344.759H399.701V348.642H400.201V352.525H399.701V356.408H400.201V360.291H399.701V364.174H400.201V368.057H399.701V371.94H400.201V375.823H399.701V379.706H400.201V383.589H399.701V387.472H400.201V391.355H399.701V395.238H400.201V399.121H399.701V403.005H400.201V406.888H399.701V408.829C399.701 409.411 399.663 409.985 399.59 410.546L400.086 410.611C399.929 411.814 399.615 412.968 399.166 414.052L398.704 413.86C398.261 414.928 397.681 415.926 396.986 416.83L397.382 417.135C396.656 418.08 395.809 418.927 394.863 419.654L394.559 419.257C393.654 419.952 392.657 420.532 391.589 420.975L391.78 421.437C390.697 421.886 389.543 422.2 388.34 422.357L388.275 421.861C387.713 421.935 387.14 421.972 386.558 421.972H384.641V422.472H380.808V421.972H376.975V422.472H373.142V421.972H369.309V422.472H365.476V421.972H361.643V422.472H357.81V421.972H353.976V422.472H350.143V421.972H346.31V422.472H342.477V421.972H338.644V422.472H334.811V421.972H332.894C332.269 421.972 331.652 422.013 331.048 422.092L331.112 422.588C329.909 422.745 328.755 423.058 327.672 423.508L327.48 423.046C326.33 423.523 325.257 424.147 324.284 424.895L324.589 425.291C323.643 426.017 322.796 426.865 322.07 427.81L321.673 427.505C320.926 428.478 320.301 429.552 319.825 430.702L320.286 430.893C319.837 431.977 319.523 433.13 319.366 434.334L318.871 434.269C318.792 434.874 318.751 435.49 318.751 436.116V438.127H319.251V442.15H318.751V446.173H319.251V450.196H318.751V454.219H319.251V458.242H318.751V462.265H319.251V466.288H318.751V470.311H319.251V474.334H318.751V478.357H319.251V482.38H318.751V486.403H319.251V490.426H318.751V494.449H319.251V498.472H318.751V502.495H319.251V506.518H318.751V510.541H319.251V514.564H318.751V518.587H319.251V522.61H318.751V526.633H319.251V530.656H318.751V534.679H319.251V538.702H318.751V540.714C318.751 541.296 318.713 541.869 318.64 542.431L319.136 542.495C318.979 543.699 318.665 544.853 318.216 545.936L317.754 545.744C317.311 546.813 316.731 547.81 316.036 548.715L316.432 549.019C315.706 549.964 314.859 550.812 313.914 551.538L313.609 551.142C312.704 551.837 311.707 552.417 310.639 552.86L310.83 553.322C309.747 553.771 308.593 554.085 307.39 554.241L307.325 553.746C306.763 553.819 306.19 553.857 305.608 553.857H303.576V554.357H299.511V553.857H295.447V554.357H291.382V553.857H287.318V554.357H283.253V553.857H279.188V554.357H275.124V553.857H271.059V554.357H266.995V553.857H262.93V554.357H258.866V553.857H254.801V554.357H250.737V553.857H246.672V554.357H242.608V553.857H238.543V554.357H234.478V553.857H230.414V554.357H226.349V553.857H222.285V554.357H218.22V553.857H214.156V554.357H210.091V553.857H206.027V554.357H201.962V553.857H197.898V554.357H193.833V553.857H189.769V554.357H185.704V553.857H181.639V554.357H177.575V553.857H175.543C174.96 553.857 174.387 553.819 173.825 553.746L173.761 554.241C172.558 554.085 171.404 553.771 170.32 553.322L170.512 552.86C169.443 552.417 168.446 551.837 167.542 551.142L167.237 551.538C166.292 550.812 165.444 549.964 164.718 549.019L165.115 548.715C164.419 547.81 163.84 546.813 163.397 545.744L162.935 545.936C162.485 544.853 162.172 543.699 162.015 542.495L162.511 542.431C162.437 541.869 162.399 541.296 162.399 540.714V538.705H161.899V534.688H162.399V530.671H161.899V526.653H162.399V522.636H161.899V518.619H162.399V514.602H161.899V510.585H162.399V506.568H161.899V502.55H162.399V498.533H161.899V494.516H162.399V490.499H161.899V486.482H162.399V482.465H161.899V478.447H162.399V474.43H161.899V470.413H162.399V466.396H161.899V462.379H162.399V458.362H161.899V454.344H162.399V450.327H161.899V446.31H162.399V442.293H161.899V438.276H162.399V434.259H161.899V430.241H162.399V426.224H161.899V422.207H162.399V418.19H161.899V414.173H162.399V410.156H161.899V406.138H162.399V402.121H161.899V398.104H162.399V396.095C162.399 395.513 162.437 394.94 162.511 394.378L162.015 394.314C162.172 393.11 162.485 391.956 162.935 390.873L163.397 391.065C163.84 389.996 164.419 388.999 165.115 388.094L164.718 387.79C165.444 386.845 166.292 385.997 167.237 385.271L167.542 385.667C168.446 384.972 169.443 384.392 170.512 383.949L170.32 383.488C171.404 383.038 172.558 382.725 173.761 382.568L173.825 383.063C174.387 382.99 174.96 382.952 175.543 382.952H177.459V382.452H181.292V382.952H185.125V382.452H188.958V382.952H192.792V382.452H196.625V382.952H200.458V382.452H204.291V382.952H208.124V382.452H211.957V382.952H215.79V382.452H219.623V382.952H223.456V382.452H227.289V382.952H229.206C229.832 382.952 230.448 382.912 231.053 382.833L230.988 382.337C232.191 382.18 233.345 381.866 234.428 381.417L234.62 381.879C235.77 381.402 236.843 380.778 237.816 380.03L237.512 379.634C238.457 378.907 239.304 378.06 240.03 377.115L240.427 377.419C241.175 376.446 241.799 375.373 242.276 374.223L241.814 374.032C242.263 372.948 242.577 371.794 242.734 370.591L243.23 370.656C243.309 370.051 243.349 369.435 243.349 368.809V366.905H242.849V363.096H243.349V359.287H242.849V355.478H243.349V351.67H242.849V347.861H243.349V344.052H242.849V340.244H243.349V336.435H242.849V332.626H243.349V328.817H242.849V325.009H243.349V321.2H242.849V317.391H243.349V313.582H242.849V309.774H243.349V307.869C243.349 307.287 243.387 306.714 243.46 306.152L242.964 306.087C243.121 304.884 243.435 303.73 243.884 302.647L244.346 302.838C244.789 301.77 245.369 300.773 246.064 299.868L245.668 299.564C246.394 298.618 247.241 297.771 248.187 297.045L248.491 297.441C249.396 296.746 250.393 296.166 251.461 295.723L251.27 295.261C252.353 294.812 253.507 294.498 254.71 294.341L254.775 294.837C255.337 294.764 255.91 294.726 256.492 294.726H258.525V294.226H262.589V294.726H266.654V294.226H270.718V294.726H274.783V294.226H278.847V294.726H282.912V294.226H286.976V294.726H291.041V294.226H295.106V294.726H299.17V294.226H303.235V294.726H307.299V294.226H311.364V294.726H315.428V294.226H319.493V294.726H323.557V294.226H327.622V294.726H331.686V294.226H335.751V294.726H339.815V294.226H343.88V294.726H347.945V294.226H352.009V294.726H356.074V294.226H360.138V294.726H364.203V294.226H368.267V294.726H372.332V294.226H376.396V294.726H380.461V294.226H384.525V294.726H386.558C387.14 294.726 387.713 294.764 388.275 294.837L388.34 294.341C389.543 294.498 390.697 294.812 391.78 295.261L391.589 295.723C392.657 296.166 393.654 296.746 394.559 297.441L394.863 297.045C395.809 297.771 396.656 298.618 397.382 299.564L396.986 299.868C397.681 300.773 398.261 301.77 398.704 302.838L399.166 302.647C399.615 303.73 399.929 304.884 400.086 306.087L399.59 306.152C399.663 306.714 399.701 307.287 399.701 307.869V309.811Z" stroke="#F6F6F6" stroke-opacity="0.5" stroke-dasharray="4 4"/>
<path d="M156.442 440.663C156.442 433.128 150.334 427.02 142.799 427.02H94.593C87.058 427.02 80.9498 433.128 80.9498 440.663V457.035C80.9498 464.57 74.8415 470.678 67.3065 470.678H13.6432C6.10828 470.678 0 476.787 0 484.322V540.714C0 548.248 6.10828 554.357 13.6432 554.357H142.799C150.334 554.357 156.442 548.248 156.442 540.714V440.663Z" fill="#414040"/>
<path d="M499.342 250.568C491.807 250.568 485.698 256.676 485.698 264.211V320.603C485.698 328.138 491.807 334.246 499.342 334.246H553.005C560.54 334.246 566.648 340.355 566.648 347.889V404.281C566.648 411.816 572.757 417.925 580.291 417.925H629.407C636.942 417.925 643.05 411.816 643.05 404.281V347.889C643.05 340.355 649.159 334.246 656.693 334.246H710.357C717.892 334.246 724 328.138 724 320.603V264.211C724 256.676 717.892 250.568 710.357 250.568H499.342Z" fill="#414040"/>
<rect x="647.598" y="338.794" width="76.402" height="215.563" rx="15" fill="#F6F6F6"/>
<path d="M723 0V239" stroke="#FF3E1B"/>
<path d="M724 239H545" stroke="#FF3E1B"/>
<path d="M724 130L624 130" stroke="#FF3E1B"/>
<path d="M114 404H148.957V370H181" stroke="#FF3E1B"/>
<path d="M591.864 141.528H588.28V127.576H591.864V128.728H589.656V140.376H591.864V141.528ZM597.418 127.576L593.162 139H591.786L596.042 127.576H597.418ZM602.091 126.84L601.771 129.912L604.843 129.048L605.067 130.52L602.123 130.76L604.027 133.288L602.651 134.04L601.291 131.24L600.059 134.04L598.635 133.288L600.507 130.76L597.595 130.52L597.819 129.048L600.859 129.912L600.523 126.84H602.091ZM605.511 140.376H607.719V128.728H605.511V127.576H609.095V141.528H605.511V140.376Z" fill="#FF3E1B"/>
<path d="M378.68 275.024L378.184 277.584H380.376V278.656H377.976L377.32 282H376.184L376.84 278.656H374.552L373.928 282H372.808L373.416 278.656H371.4V277.584H373.624L374.136 275.024H371.992V273.968H374.328L374.968 270.576H376.12L375.48 273.968H377.784L378.424 270.576H379.528L378.888 273.968H380.92V275.024H378.68ZM374.76 277.584H377.048L377.544 275.024H375.256L374.76 277.584ZM388.384 275.024L387.888 277.584H390.08V278.656H387.68L387.024 282H385.888L386.544 278.656H384.256L383.632 282H382.512L383.12 278.656H381.104V277.584H383.328L383.84 275.024H381.696V273.968H384.032L384.672 270.576H385.824L385.184 273.968H387.488L388.128 270.576H389.232L388.592 273.968H390.624V275.024H388.384ZM384.464 277.584H386.752L387.248 275.024H384.96L384.464 277.584Z" fill="#FF3E1B"/>
<path d="M61.792 450.576L57.536 462H56.16L60.416 450.576H61.792ZM67.1051 450.576L62.8491 462H61.4731L65.7291 450.576H67.1051Z" fill="#FF3E1B"/>
</svg>
