<svg width="355" height="517" viewBox="0 0 355 517" fill="none" xmlns="http://www.w3.org/2000/svg">
<path d="M211.386 337.048C211.386 330.364 205.968 324.945 199.284 324.945H83.9089C77.225 324.945 71.8066 330.364 71.8066 337.048V387.07C71.8066 393.754 77.225 399.173 83.9089 399.173H131.511C138.195 399.173 143.613 404.591 143.613 411.275V504.059C143.613 510.743 149.032 516.161 155.716 516.161H271.091C277.775 516.161 283.193 510.743 283.193 504.059V411.275C283.193 404.591 277.775 399.173 271.091 399.173H223.488C216.805 399.173 211.386 393.754 211.386 387.07V337.048Z" fill="#414040"/>
<rect y="403.207" width="139.58" height="112.955" rx="15" fill="#414040"/>
<rect y="285" width="67.7727" height="113.761" rx="15" fill="#FF3E1B"/>
<path d="M155.716 246.684C149.032 246.684 143.614 252.102 143.614 258.786V308.809C143.614 315.493 149.032 320.911 155.716 320.911H203.318C210.002 320.911 215.42 326.33 215.42 333.014V383.036C215.42 389.72 220.839 395.139 227.523 395.139H271.091C277.775 395.139 283.193 389.72 283.193 383.036V333.014C283.193 326.33 288.611 320.911 295.295 320.911H342.898C349.581 320.911 355 315.493 355 308.809V258.786C355 252.102 349.581 246.684 342.898 246.684H155.716Z" fill="#414040"/>
<rect x="287.227" y="324.945" width="67.7727" height="191.216" rx="15" fill="#F6F6F6"/>
<path d="M354 0V239" stroke="#FF3E1B" stroke-width="0.8"/>
<path d="M355 239H176" stroke="#FF3E1B" stroke-width="0.8"/>
<path d="M355 130L255 130" stroke="#FF3E1B" stroke-width="0.8"/>
<path d="M233.648 135.896H230.96V125.432H233.648V126.296H231.992V135.032H233.648V135.896ZM238.293 125.432L235.101 134H234.069L237.261 125.432H238.293ZM242.278 124.88L242.038 127.184L244.342 126.536L244.51 127.64L242.302 127.82L243.73 129.716L242.698 130.28L241.678 128.18L240.754 130.28L239.686 129.716L241.09 127.82L238.906 127.64L239.074 126.536L241.354 127.184L241.102 124.88H242.278ZM245.323 135.032H246.979V126.296H245.323V125.432H248.011V135.896H245.323V135.032Z" fill="#FF3E1B"/>
<path d="M123.76 309.768L123.388 311.688H125.032V312.492H123.232L122.74 315H121.888L122.38 312.492H120.664L120.196 315H119.356L119.812 312.492H118.3V311.688H119.968L120.352 309.768H118.744V308.976H120.496L120.976 306.432H121.84L121.36 308.976H123.088L123.568 306.432H124.396L123.916 308.976H125.44V309.768H123.76ZM120.82 311.688H122.536L122.908 309.768H121.192L120.82 311.688ZM131.518 309.768L131.146 311.688H132.79V312.492H130.99L130.498 315H129.646L130.138 312.492H128.422L127.954 315H127.114L127.57 312.492H126.058V311.688H127.726L128.11 309.768H126.502V308.976H128.254L128.734 306.432H129.598L129.118 308.976H130.846L131.326 306.432H132.154L131.674 308.976H133.198V309.768H131.518ZM128.578 311.688H130.294L130.666 309.768H128.95L128.578 311.688Z" fill="#FF3E1B"/>
</svg>
