<svg width="997" height="674" viewBox="0 0 997 674" fill="none" xmlns="http://www.w3.org/2000/svg">
<path d="M818 451C818 442.716 811.284 436 803 436H660C651.716 436 645 442.716 645 451V513C645 521.284 651.716 528 660 528H719C727.284 528 734 534.716 734 543V658C734 666.284 740.716 673 749 673H892C900.284 673 907 666.284 907 658V543C907 534.716 900.284 528 892 528H833C824.716 528 818 521.284 818 513V451Z" fill="#414040"/>
<rect x="556" y="533" width="173" height="140" rx="15" fill="#414040"/>
<rect x="645" y="290" width="84" height="141" rx="15" fill="#FF3E1B"/>
<path d="M640 402C640 393.716 633.284 387 625 387H482C473.716 387 467 393.716 467 402V469C467 477.284 460.284 484 452 484H393C384.716 484 378 490.716 378 499V658C378 666.284 384.716 673 393 673H536C544.284 673 551 666.284 551 658V543C551 534.716 557.716 528 566 528H625C633.284 528 640 521.284 640 513V402Z" fill="#212121"/>
<path d="M639.5 403.982H640V407.946H639.5V411.911H640V415.875H639.5V419.839H640V423.804H639.5V427.768H640V431.732H639.5V435.696H640V439.661H639.5V443.625H640V447.589H639.5V451.554H640V455.518H639.5V459.482H640V463.446H639.5V467.411H640V471.375H639.5V475.339H640V479.304H639.5V483.268H640V487.232H639.5V491.196H640V495.161H639.5V499.125H640V503.089H639.5V507.054H640V511.018H639.5V513C639.5 513.642 639.458 514.275 639.377 514.894L639.873 514.959C639.701 516.282 639.356 517.551 638.862 518.742L638.4 518.55C637.911 519.729 637.271 520.829 636.505 521.827L636.901 522.132C636.102 523.171 635.171 524.102 634.132 524.901L633.827 524.505C632.829 525.271 631.729 525.911 630.55 526.4L630.742 526.862C629.551 527.356 628.282 527.701 626.959 527.873L626.894 527.377C626.275 527.458 625.642 527.5 625 527.5H622.893V528H618.679V527.5H614.464V528H610.25V527.5H606.036V528H601.821V527.5H597.607V528H593.393V527.5H589.179V528H584.964V527.5H580.75V528H576.536V527.5H572.321V528H568.107V527.5H566C565.314 527.5 564.639 527.545 563.976 527.631L564.041 528.127C562.718 528.299 561.449 528.644 560.258 529.138L560.067 528.676C558.806 529.199 557.63 529.883 556.564 530.703L556.868 531.099C555.829 531.898 554.898 532.829 554.099 533.868L553.703 533.564C552.883 534.63 552.199 535.806 551.676 537.067L552.138 537.258C551.644 538.449 551.299 539.718 551.127 541.041L550.631 540.976C550.545 541.639 550.5 542.314 550.5 543V545.054H551V549.161H550.5V553.268H551V557.375H550.5V561.482H551V565.589H550.5V569.696H551V573.804H550.5V577.911H551V582.018H550.5V586.125H551V590.232H550.5V594.339H551V598.446H550.5V602.554H551V606.661H550.5V610.768H551V614.875H550.5V618.982H551V623.089H550.5V627.196H551V631.304H550.5V635.411H551V639.518H550.5V643.625H551V647.732H550.5V651.839H551V655.946H550.5V658C550.5 658.642 550.458 659.275 550.377 659.894L550.873 659.959C550.701 661.282 550.356 662.551 549.862 663.742L549.4 663.55C548.911 664.729 548.271 665.829 547.505 666.827L547.901 667.132C547.102 668.171 546.171 669.102 545.132 669.901L544.827 669.505C543.829 670.271 542.729 670.911 541.55 671.4L541.742 671.862C540.551 672.356 539.282 672.701 537.959 672.873L537.894 672.377C537.275 672.458 536.642 672.5 536 672.5H534.014V673H530.042V672.5H526.069V673H522.097V672.5H518.125V673H514.153V672.5H510.181V673H506.208V672.5H502.236V673H498.264V672.5H494.292V673H490.319V672.5H486.347V673H482.375V672.5H478.403V673H474.431V672.5H470.458V673H466.486V672.5H462.514V673H458.542V672.5H454.569V673H450.597V672.5H446.625V673H442.653V672.5H438.681V673H434.708V672.5H430.736V673H426.764V672.5H422.792V673H418.819V672.5H414.847V673H410.875V672.5H406.903V673H402.931V672.5H398.958V673H394.986V672.5H393C392.358 672.5 391.725 672.458 391.106 672.377L391.041 672.873C389.718 672.701 388.449 672.356 387.258 671.862L387.45 671.4C386.271 670.911 385.171 670.271 384.173 669.505L383.868 669.901C382.829 669.102 381.898 668.171 381.099 667.132L381.495 666.827C380.729 665.829 380.089 664.729 379.6 663.55L379.138 663.742C378.644 662.551 378.299 661.282 378.127 659.959L378.623 659.894C378.542 659.275 378.5 658.642 378.5 658V656.013H378V652.038H378.5V648.062H378V644.087H378.5V640.112H378V636.137H378.5V632.162H378V628.187H378.5V624.212H378V620.237H378.5V616.262H378V612.287H378.5V608.312H378V604.337H378.5V600.362H378V596.387H378.5V592.412H378V588.437H378.5V584.462H378V580.487H378.5V576.512H378V572.537H378.5V568.562H378V564.587H378.5V560.612H378V556.637H378.5V552.662H378V548.688H378.5V544.712H378V540.738H378.5V536.762H378V532.788H378.5V528.812H378V524.837H378.5V520.863H378V516.887H378.5V512.912H378V508.938H378.5V504.963H378V500.988H378.5V499C378.5 498.358 378.542 497.725 378.623 497.106L378.127 497.041C378.299 495.718 378.644 494.449 379.138 493.258L379.6 493.45C380.089 492.271 380.729 491.171 381.495 490.173L381.099 489.868C381.898 488.829 382.829 487.898 383.868 487.099L384.173 487.495C385.171 486.729 386.271 486.089 387.45 485.6L387.258 485.138C388.449 484.644 389.718 484.299 391.041 484.127L391.106 484.623C391.725 484.542 392.358 484.5 393 484.5H395.107V484H399.321V484.5H403.536V484H407.75V484.5H411.964V484H416.179V484.5H420.393V484H424.607V484.5H428.821V484H433.036V484.5H437.25V484H441.464V484.5H445.679V484H449.893V484.5H452C452.686 484.5 453.361 484.455 454.024 484.369L453.959 483.873C455.282 483.701 456.551 483.356 457.742 482.862L457.933 483.324C459.194 482.801 460.37 482.117 461.436 481.297L461.132 480.901C462.171 480.102 463.102 479.171 463.901 478.132L464.297 478.436C465.117 477.37 465.801 476.194 466.324 474.933L465.862 474.742C466.356 473.551 466.701 472.282 466.873 470.959L467.369 471.024C467.455 470.361 467.5 469.686 467.5 469V466.906H467V462.719H467.5V458.531H467V454.344H467.5V450.156H467V445.969H467.5V441.781H467V437.594H467.5V433.406H467V429.219H467.5V425.031H467V420.844H467.5V416.656H467V412.469H467.5V408.281H467V404.094H467.5V402C467.5 401.358 467.542 400.725 467.623 400.106L467.127 400.041C467.299 398.718 467.644 397.449 468.138 396.258L468.6 396.45C469.089 395.271 469.729 394.171 470.495 393.173L470.099 392.868C470.898 391.829 471.829 390.898 472.868 390.099L473.173 390.495C474.171 389.729 475.271 389.089 476.45 388.6L476.258 388.138C477.449 387.644 478.718 387.299 480.041 387.127L480.106 387.623C480.725 387.542 481.358 387.5 482 387.5H483.986V387H487.958V387.5H491.931V387H495.903V387.5H499.875V387H503.847V387.5H507.819V387H511.792V387.5H515.764V387H519.736V387.5H523.708V387H527.681V387.5H531.653V387H535.625V387.5H539.597V387H543.569V387.5H547.542V387H551.514V387.5H555.486V387H559.458V387.5H563.431V387H567.403V387.5H571.375V387H575.347V387.5H579.319V387H583.292V387.5H587.264V387H591.236V387.5H595.208V387H599.181V387.5H603.153V387H607.125V387.5H611.097V387H615.069V387.5H619.042V387H623.014V387.5H625C625.642 387.5 626.275 387.542 626.894 387.623L626.959 387.127C628.282 387.299 629.551 387.644 630.742 388.138L630.55 388.6C631.729 389.089 632.829 389.729 633.827 390.495L634.132 390.099C635.171 390.898 636.102 391.829 636.901 392.868L636.505 393.173C637.271 394.171 637.911 395.271 638.4 396.45L638.862 396.258C639.356 397.449 639.701 398.718 639.873 400.041L639.377 400.106C639.458 400.725 639.5 401.358 639.5 402V403.982Z" stroke="#F6F6F6" stroke-opacity="0.5" stroke-dasharray="4 4"/>
<path d="M372 548C372 539.716 365.284 533 357 533H304C295.716 533 289 539.716 289 548V566C289 574.284 282.284 581 274 581H215C206.716 581 200 587.716 200 596V658C200 666.284 206.716 673 215 673H357C365.284 673 372 666.284 372 658V548Z" fill="#414040"/>
<path d="M749 339C740.716 339 734 345.716 734 354V416C734 424.284 740.716 431 749 431H808C816.284 431 823 437.716 823 446V508C823 516.284 829.716 523 838 523H892C900.284 523 907 516.284 907 508V446C907 437.716 913.716 431 922 431H981C989.284 431 996 424.284 996 416V354C996 345.716 989.284 339 981 339H749Z" fill="#414040"/>
<rect x="912" y="436" width="84" height="237" rx="15" fill="#F6F6F6"/>
<path d="M996 0V329" stroke="#FF3E1B"/>
<path d="M996.5 329H750" stroke="#FF3E1B"/>
<path d="M997 181L860 181" stroke="#FF3E1B"/>
<path d="M316.5 520.5H364.5V473H408.5" stroke="#FF3E1B"/>
<path d="M812.864 189.528H809.28V175.576H812.864V176.728H810.656V188.376H812.864V189.528ZM818.418 175.576L814.162 187H812.786L817.042 175.576H818.418ZM823.091 174.84L822.771 177.912L825.843 177.048L826.067 178.52L823.123 178.76L825.027 181.288L823.651 182.04L822.291 179.24L821.059 182.04L819.635 181.288L821.507 178.76L818.595 178.52L818.819 177.048L821.859 177.912L821.523 174.84H823.091ZM826.511 188.376H828.719V176.728H826.511V175.576H830.095V189.528H826.511V188.376Z" fill="#FF3E1B"/>
<path d="M622.68 368.024L622.184 370.584H624.376V371.656H621.976L621.32 375H620.184L620.84 371.656H618.552L617.928 375H616.808L617.416 371.656H615.4V370.584H617.624L618.136 368.024H615.992V366.968H618.328L618.968 363.576H620.12L619.48 366.968H621.784L622.424 363.576H623.528L622.888 366.968H624.92V368.024H622.68ZM618.76 370.584H621.048L621.544 368.024H619.256L618.76 370.584ZM632.384 368.024L631.888 370.584H634.08V371.656H631.68L631.024 375H629.888L630.544 371.656H628.256L627.632 375H626.512L627.12 371.656H625.104V370.584H627.328L627.84 368.024H625.696V366.968H628.032L628.672 363.576H629.824L629.184 366.968H631.488L632.128 363.576H633.232L632.592 366.968H634.624V368.024H632.384ZM628.464 370.584H630.752L631.248 368.024H628.96L628.464 370.584Z" fill="#FF3E1B"/>
<path d="M261.792 559.576L257.536 571H256.16L260.416 559.576H261.792ZM267.105 559.576L262.849 571H261.473L265.729 559.576H267.105Z" fill="#FF3E1B"/>
<path d="M190 592V673H0" stroke="#FF3E1B"/>
</svg>
