<svg width="433" height="433" viewBox="0 0 433 433" fill="none" xmlns="http://www.w3.org/2000/svg">
<path d="M216.646 141.354C216.842 141.549 217.158 141.549 217.354 141.354L220.536 138.172C220.731 137.976 220.731 137.66 220.536 137.464C220.34 137.269 220.024 137.269 219.828 137.464L217 140.293L214.172 137.464C213.976 137.269 213.66 137.269 213.464 137.464C213.269 137.66 213.269 137.976 213.464 138.172L216.646 141.354ZM216.5 118L216.5 141L217.5 141L217.5 118L216.5 118Z" fill="#FF3E1B"/>
<path d="M216.646 245.354C216.842 245.549 217.158 245.549 217.354 245.354L220.536 242.172C220.731 241.976 220.731 241.66 220.536 241.464C220.34 241.269 220.024 241.269 219.828 241.464L217 244.293L214.172 241.464C213.976 241.269 213.66 241.269 213.464 241.464C213.269 241.66 213.269 241.976 213.464 242.172L216.646 245.354ZM216.5 222L216.5 245L217.5 245L217.5 222L216.5 222Z" fill="#FF3E1B"/>
<rect x="129.5" y="161.5" width="178" height="40" stroke="#FF3E1B"/>
<path d="M173.676 187.217C171.157 187.217 169.883 185.436 169.883 181.933C169.883 178.429 171.201 176.648 173.807 176.648C175.95 176.648 177.296 178.154 177.296 180.485H176.051C176.051 178.834 175.182 177.806 173.807 177.806C171.997 177.806 171.157 179.109 171.157 181.933C171.157 184.756 171.954 186.059 173.662 186.059C175.052 186.059 175.892 185.06 175.892 183.38H177.137C177.137 185.668 175.732 187.217 173.676 187.217ZM182.032 187.217C179.556 187.217 178.21 185.364 178.21 181.933C178.21 178.501 179.556 176.648 182.032 176.648C184.508 176.648 185.854 178.501 185.854 181.933C185.854 185.364 184.508 187.217 182.032 187.217ZM179.484 181.933C179.484 184.683 180.338 186.059 182.032 186.059C183.726 186.059 184.58 184.683 184.58 181.933C184.58 179.182 183.726 177.806 182.032 177.806C180.338 177.806 179.484 179.182 179.484 181.933ZM187.405 187V176.865H190.098C192.69 176.865 194.239 178.762 194.239 181.933C194.239 185.103 192.69 187 190.098 187H187.405ZM188.621 185.842H190.2C191.894 185.842 192.965 184.35 192.965 181.933C192.965 179.515 191.894 178.023 190.2 178.023H188.621V185.842ZM196.311 187V176.865H202.291V178.023H197.527V181.339H202.146V182.497H197.527V185.842H202.291V187H196.311ZM215.86 187.217C213.688 187.217 212.443 185.335 212.443 181.947C212.443 178.429 213.804 176.648 216.468 176.648C218.568 176.648 219.957 178.154 219.943 180.398H218.698C218.698 178.776 217.858 177.806 216.468 177.806C214.601 177.806 213.717 179.109 213.717 181.947C213.717 184.741 214.528 186.059 216.15 186.059C217.511 186.059 218.336 184.944 218.466 182.975H215.904V181.831H219.624V187H218.408L218.712 184.64H218.524C218.177 186.334 217.308 187.217 215.86 187.217ZM221.943 187V176.865H227.922V178.023H223.159V181.339H227.777V182.497H223.159V185.842H227.922V187H221.943ZM234.671 187L231.616 179.312L231.399 178.052H231.196V187H229.98V176.865H231.92L234.975 184.539L235.192 185.827H235.395V176.865H236.611V187H234.671ZM239.03 187V176.865H245.01V178.023H240.247V181.339H244.865V182.497H240.247V185.842H245.01V187H239.03ZM247.357 187V176.865H250.76C252.801 176.865 254.046 177.734 254.046 179.645C254.046 181.527 252.685 182.28 250.76 182.28V182.483L251.093 182.685L254.046 187H252.497L249.428 182.396H248.573V187H247.357ZM248.573 181.31H250.875C252.092 181.31 252.801 180.76 252.801 179.645C252.801 178.516 252.063 178.023 250.89 178.023H248.573V181.31ZM254.844 187L257.986 176.865H259.883L263.024 187H261.707L260.621 183.337H257.247L256.162 187H254.844ZM257.595 182.179H260.273L259.13 178.328L259.028 177.618H258.826L258.739 178.328L257.595 182.179ZM266.863 187V178.023H263.46V176.865H271.481V178.023H268.079V187H266.863ZM272.714 187V185.9H275.407V177.966H272.714V176.865H279.316V177.966H276.623V185.9H279.316V187H272.714ZM284.559 187.217C282.083 187.217 280.736 185.364 280.736 181.933C280.736 178.501 282.083 176.648 284.559 176.648C287.034 176.648 288.381 178.501 288.381 181.933C288.381 185.364 287.034 187.217 284.559 187.217ZM282.01 181.933C282.01 184.683 282.865 186.059 284.559 186.059C286.253 186.059 287.107 184.683 287.107 181.933C287.107 179.182 286.253 177.806 284.559 177.806C282.865 177.806 282.01 179.182 282.01 181.933ZM294.478 187L291.423 179.312L291.206 178.052H291.003V187H289.787V176.865H291.727L294.782 184.539L294.999 185.827H295.202V176.865H296.418V187H294.478Z" fill="#FF3E1B"/>
<g clip-path="url(#clip0_2030_252)">
<path d="M148.024 191.454C147.933 191.454 147.844 191.422 147.774 191.364C147.703 191.306 147.655 191.225 147.638 191.135C146.518 185.299 145.721 184.501 139.884 183.381C139.794 183.363 139.713 183.315 139.655 183.245C139.596 183.174 139.565 183.086 139.565 182.994C139.565 182.903 139.596 182.814 139.655 182.743C139.713 182.673 139.794 182.625 139.884 182.608C145.721 181.487 146.518 180.691 147.638 174.854C147.655 174.764 147.703 174.683 147.774 174.625C147.844 174.566 147.933 174.535 148.024 174.535C148.116 174.535 148.205 174.566 148.275 174.625C148.346 174.683 148.394 174.764 148.411 174.854C149.531 180.691 150.328 181.487 156.165 182.608C156.255 182.625 156.336 182.673 156.394 182.743C156.453 182.814 156.484 182.903 156.484 182.994C156.484 183.086 156.453 183.174 156.394 183.245C156.336 183.315 156.255 183.363 156.165 183.381C150.328 184.501 149.531 185.299 148.411 191.135C148.394 191.225 148.346 191.306 148.275 191.364C148.205 191.422 148.116 191.454 148.024 191.454ZM141.868 182.994C145.876 183.943 147.076 185.144 148.024 189.152C148.973 185.144 150.174 183.943 154.182 182.994C150.174 182.046 148.973 180.845 148.024 176.837C147.076 180.845 145.876 182.046 141.868 182.994Z" fill="#FF3E1B"/>
<path d="M158.794 174.542C156.738 174.147 156.513 173.922 156.118 171.865C156.1 171.776 156.052 171.695 155.982 171.636C155.911 171.578 155.823 171.546 155.731 171.546C155.64 171.546 155.551 171.578 155.48 171.636C155.41 171.695 155.362 171.776 155.344 171.865C154.95 173.922 154.725 174.147 152.668 174.542C152.578 174.559 152.497 174.607 152.439 174.677C152.381 174.748 152.349 174.837 152.349 174.928C152.349 175.02 152.381 175.108 152.439 175.179C152.497 175.249 152.578 175.297 152.668 175.315C154.725 175.709 154.95 175.934 155.344 177.991C155.362 178.081 155.41 178.162 155.48 178.22C155.551 178.278 155.64 178.31 155.731 178.31C155.823 178.31 155.911 178.278 155.982 178.22C156.052 178.162 156.1 178.081 156.118 177.991C156.513 175.934 156.738 175.709 158.794 175.315C158.884 175.297 158.965 175.249 159.023 175.179C159.082 175.108 159.114 175.02 159.114 174.928C159.114 174.837 159.082 174.748 159.023 174.677C158.965 174.607 158.884 174.559 158.794 174.542Z" fill="#FF3E1B"/>
</g>
<rect x="43.5" y="265.5" width="109" height="109" stroke="#FF3E1B"/>
<path d="M89.6435 317.217C87.1243 317.217 85.8502 315.436 85.8502 311.933C85.8502 308.429 87.1677 306.648 89.7738 306.648C91.9166 306.648 93.2631 308.154 93.2631 310.485H92.0179C92.0179 308.834 91.1492 307.806 89.7738 307.806C87.964 307.806 87.1243 309.109 87.1243 311.933C87.1243 314.756 87.9206 316.059 89.629 316.059C91.0189 316.059 91.8587 315.06 91.8587 313.38H93.1038C93.1038 315.668 91.6994 317.217 89.6435 317.217ZM95.1325 317V306.865H98.6362C100.591 306.865 101.821 307.98 101.821 309.761C101.821 311.527 100.591 312.657 98.6362 312.657H96.3486V317H95.1325ZM96.3486 311.498H98.6072C99.9248 311.498 100.576 310.803 100.576 309.761C100.576 308.704 99.9248 308.023 98.6072 308.023H96.3486V311.498ZM106.543 317.217C104.56 317.217 103.228 315.885 103.228 313.873V306.865H104.444V313.873C104.444 315.234 105.254 316.059 106.543 316.059C107.861 316.059 108.642 315.248 108.642 313.873V306.865H109.859V313.873C109.859 315.885 108.527 317.217 106.543 317.217ZM68.824 330.033C68.824 329.241 68.8964 328.469 69.0412 327.716C69.1957 326.964 69.4321 326.244 69.7507 325.559C70.0692 324.874 70.4697 324.242 70.9523 323.663H72.154C71.71 324.261 71.3336 324.908 71.0247 325.603C70.7255 326.298 70.4987 327.017 70.3443 327.76C70.1898 328.503 70.1126 329.256 70.1126 330.018C70.1126 330.762 70.1898 331.5 70.3443 332.234C70.4987 332.967 70.7255 333.672 71.0247 334.347C71.324 335.033 71.6956 335.679 72.1396 336.288H70.9523C70.4697 335.718 70.0692 335.096 69.7507 334.42C69.4321 333.754 69.1957 333.049 69.0412 332.306C68.8964 331.563 68.824 330.805 68.824 330.033ZM73.6135 334V323.865H77.0159C79.0573 323.865 80.3025 324.734 80.3025 326.645C80.3025 328.527 78.9415 329.28 77.0159 329.28V329.483L77.3489 329.685L80.3025 334H78.7533L75.6839 329.396H74.8297V334H73.6135ZM74.8297 328.31H77.1317C78.3479 328.31 79.0573 327.76 79.0573 326.645C79.0573 325.516 78.319 325.023 77.1462 325.023H74.8297V328.31ZM81.8823 334V332.9H84.5753V324.966H81.8823V323.865H88.4844V324.966H85.7914V332.9H88.4844V334H81.8823ZM93.6983 334.217C91.3962 334.217 90.1366 333.015 90.1366 330.656H91.4252C91.4252 332.248 92.207 333.073 93.7562 333.073C95.0882 333.073 95.899 332.378 95.899 331.278C95.899 330.409 95.3922 329.845 94.0602 329.599L92.9164 329.381C91.179 329.048 90.2814 328.122 90.2814 326.66C90.2814 324.85 91.6713 323.648 93.7996 323.648C96.0582 323.648 97.3033 324.864 97.3033 327.166H96.0148C96.0148 325.588 95.2909 324.792 93.7562 324.792C92.3373 324.792 91.57 325.516 91.57 326.573C91.57 327.441 92.1201 327.977 93.4521 328.252L94.5814 328.469C96.2899 328.802 97.1875 329.714 97.1875 331.22C97.1875 333.03 95.8845 334.217 93.6983 334.217ZM102.459 334.217C99.9401 334.217 98.666 332.436 98.666 328.933C98.666 325.429 99.9835 323.648 102.59 323.648C104.732 323.648 106.079 325.154 106.079 327.485H104.834C104.834 325.834 103.965 324.806 102.59 324.806C100.78 324.806 99.9401 326.109 99.9401 328.933C99.9401 331.756 100.736 333.059 102.445 333.059C103.835 333.059 104.674 332.06 104.674 330.38H105.92C105.92 332.668 104.515 334.217 102.459 334.217ZM108.643 330.308V329.193H112.987V330.308H108.643ZM118.418 334L115.421 323.865H116.709L119.185 332.523L119.257 333.233H119.46L119.547 332.523L122.023 323.865H123.311L120.314 334H118.418ZM127.179 330.033C127.179 330.805 127.102 331.563 126.947 332.306C126.802 333.049 126.571 333.754 126.252 334.42C125.943 335.096 125.543 335.718 125.05 336.288H123.863C124.307 335.679 124.679 335.033 124.978 334.347C125.277 333.672 125.504 332.967 125.659 332.234C125.813 331.5 125.89 330.762 125.89 330.018C125.89 329.256 125.813 328.503 125.659 327.76C125.504 327.017 125.277 326.298 124.978 325.603C124.679 324.908 124.302 324.261 123.849 323.663H125.05C125.543 324.242 125.943 324.874 126.252 325.559C126.571 326.244 126.802 326.964 126.947 327.716C127.102 328.469 127.179 329.241 127.179 330.033Z" fill="#FF3E1B"/>
<rect x="162.5" y="265.5" width="109" height="109" stroke="#FF3E1B"/>
<path d="M169.905 325.5L173.047 315.365H174.944L178.086 325.5H176.768L175.682 321.837H172.309L171.223 325.5H169.905ZM172.656 320.679H175.335L174.191 316.828L174.09 316.118H173.887L173.8 316.828L172.656 320.679ZM182.72 325.717C180.201 325.717 178.927 323.936 178.927 320.433C178.927 316.929 180.245 315.148 182.851 315.148C184.993 315.148 186.34 316.654 186.34 318.985H185.095C185.095 317.334 184.226 316.306 182.851 316.306C181.041 316.306 180.201 317.609 180.201 320.433C180.201 323.256 180.997 324.559 182.706 324.559C184.096 324.559 184.936 323.56 184.936 321.88H186.181C186.181 324.168 184.776 325.717 182.72 325.717ZM191.264 325.717C188.745 325.717 187.471 323.936 187.471 320.433C187.471 316.929 188.788 315.148 191.395 315.148C193.537 315.148 194.884 316.654 194.884 318.985H193.639C193.639 317.334 192.77 316.306 191.395 316.306C189.585 316.306 188.745 317.609 188.745 320.433C188.745 323.256 189.541 324.559 191.25 324.559C192.64 324.559 193.479 323.56 193.479 321.88H194.725C194.725 324.168 193.32 325.717 191.264 325.717ZM196.811 325.5V315.365H202.791V316.523H198.027V319.839H202.646V320.997H198.027V324.342H202.791V325.5H196.811ZM205.746 325.5V315.365H206.948V324.342H212.044V325.5H205.746ZM213.899 325.5V315.365H219.878V316.523H215.115V319.839H219.734V320.997H215.115V324.342H219.878V325.5H213.899ZM222.226 325.5V315.365H225.628C227.669 315.365 228.914 316.234 228.914 318.145C228.914 320.027 227.554 320.78 225.628 320.78V320.983L225.961 321.185L228.914 325.5H227.365L224.296 320.896H223.442V325.5H222.226ZM223.442 319.81H225.744C226.96 319.81 227.669 319.26 227.669 318.145C227.669 317.016 226.931 316.523 225.758 316.523H223.442V319.81ZM229.712 325.5L232.854 315.365H234.751L237.893 325.5H236.575L235.489 321.837H232.116L231.03 325.5H229.712ZM232.463 320.679H235.142L233.998 316.828L233.897 316.118H233.694L233.607 316.828L232.463 320.679ZM241.731 325.5V316.523H238.329V315.365H246.35V316.523H242.947V325.5H241.731ZM250.883 325.717C248.407 325.717 247.061 323.864 247.061 320.433C247.061 317.001 248.407 315.148 250.883 315.148C253.359 315.148 254.705 317.001 254.705 320.433C254.705 323.864 253.359 325.717 250.883 325.717ZM248.335 320.433C248.335 323.183 249.189 324.559 250.883 324.559C252.577 324.559 253.431 323.183 253.431 320.433C253.431 317.682 252.577 316.306 250.883 316.306C249.189 316.306 248.335 317.682 248.335 320.433ZM256.401 325.5V315.365H259.803C261.845 315.365 263.09 316.234 263.09 318.145C263.09 320.027 261.729 320.78 259.803 320.78V320.983L260.136 321.185L263.09 325.5H261.541L258.471 320.896H257.617V325.5H256.401ZM257.617 319.81H259.919C261.135 319.81 261.845 319.26 261.845 318.145C261.845 317.016 261.106 316.523 259.934 316.523H257.617V319.81Z" fill="#FF3E1B"/>
<rect x="281.5" y="265.5" width="109" height="109" stroke="#FF3E1B"/>
<path d="M326.177 325.5V323.734H327.799V325.5H326.177ZM334.721 325.5V323.734H336.343V325.5H334.721ZM343.265 325.5V323.734H344.887V325.5H343.265Z" fill="#FF3E1B"/>
<path d="M29.56 79L33.9 65H36.52L40.86 79H39.04L37.54 73.94H32.88L31.38 79H29.56ZM33.36 72.34H37.06L35.48 67.02L35.34 66.04H35.06L34.94 67.02L33.36 72.34ZM47.8823 79.28C45.8423 79.28 44.7423 78.14 44.7423 75.98V70.94H41.9423V69.5H44.7423V67.52L46.3423 66.74V69.5H51.7623V70.94H46.3423V75.98C46.3423 77.14 46.9223 77.84 47.8823 77.84C49.0223 77.84 49.5223 77.1 49.5223 75.5V74.42H51.1223V75.52C51.1223 77.98 49.9223 79.28 47.8823 79.28ZM59.6847 79.28C57.6447 79.28 56.5447 78.14 56.5447 75.98V70.94H53.7447V69.5H56.5447V67.52L58.1447 66.74V69.5H63.5647V70.94H58.1447V75.98C58.1447 77.14 58.7247 77.84 59.6847 77.84C60.8247 77.84 61.3247 77.1 61.3247 75.5V74.42H62.9247V75.52C62.9247 77.98 61.7247 79.28 59.6847 79.28ZM70.867 79.28C67.767 79.28 66.107 77.32 66.107 74.3C66.107 71.4 67.887 69.22 70.687 69.22C73.427 69.22 75.047 71 75.047 73.98V74.68H67.787C67.907 76.58 68.947 77.84 70.847 77.84C72.107 77.84 73.087 77.2 73.427 76.1H75.027C74.687 77.94 72.987 79.28 70.867 79.28ZM67.827 73.36H73.347C73.267 71.6 72.307 70.64 70.687 70.64C69.067 70.64 68.087 71.74 67.827 73.36ZM78.4494 79V69.5H80.0494L79.6094 72.16H79.8894C80.4294 70.2 81.6094 69.22 83.2494 69.22C85.5094 69.22 86.7294 70.6 86.7294 73.14V79H85.0894V73.34C85.0894 71.6 84.3094 70.7 82.8494 70.7C81.1294 70.7 80.0494 72.04 80.0494 74.1V79H78.4494ZM95.0917 79.28C93.0517 79.28 91.9517 78.14 91.9517 75.98V70.94H89.1517V69.5H91.9517V67.52L93.5517 66.74V69.5H98.9717V70.94H93.5517V75.98C93.5517 77.14 94.1317 77.84 95.0917 77.84C96.2317 77.84 96.7317 77.1 96.7317 75.5V74.42H98.3317V75.52C98.3317 77.98 97.1317 79.28 95.0917 79.28ZM101.614 79V77.56H105.794V70.94H101.534V69.5H107.394V77.56H111.494V79H101.614ZM105.614 67.36V65.04H107.574V67.36H105.614ZM117.816 79.28C114.956 79.28 112.936 77.26 112.936 74.24C112.936 71.24 114.956 69.22 117.816 69.22C120.676 69.22 122.696 71.24 122.696 74.24C122.696 77.26 120.676 79.28 117.816 79.28ZM114.596 74.24C114.596 76.4 115.896 77.84 117.816 77.84C119.736 77.84 121.036 76.4 121.036 74.24C121.036 72.1 119.736 70.66 117.816 70.66C115.896 70.66 114.596 72.1 114.596 74.24ZM125.659 79V69.5H127.259L126.819 72.16H127.099C127.639 70.2 128.819 69.22 130.459 69.22C132.719 69.22 133.939 70.6 133.939 73.14V79H132.299V73.34C132.299 71.6 131.519 70.7 130.059 70.7C128.339 70.7 127.259 72.04 127.259 74.1V79H125.659ZM147.823 73.52C147.823 72.4267 147.923 71.36 148.123 70.32C148.337 69.28 148.663 68.2867 149.103 67.34C149.543 66.3933 150.097 65.52 150.763 64.72H152.423C151.81 65.5467 151.29 66.44 150.863 67.4C150.45 68.36 150.137 69.3533 149.923 70.38C149.71 71.4067 149.603 72.4467 149.603 73.5C149.603 74.5267 149.71 75.5467 149.923 76.56C150.137 77.5733 150.45 78.5467 150.863 79.48C151.277 80.4267 151.79 81.32 152.403 82.16H150.763C150.097 81.3733 149.543 80.5133 149.103 79.58C148.663 78.66 148.337 77.6867 148.123 76.66C147.923 75.6333 147.823 74.5867 147.823 73.52ZM158.62 77.7C160.96 77.7 162.14 75.8 162.14 72C162.14 68.2 160.96 66.3 158.62 66.3C156.28 66.3 155.1 68.2 155.1 72C155.1 75.8 156.28 77.7 158.62 77.7ZM153.34 72C153.34 67.26 155.2 64.7 158.62 64.7C162.04 64.7 163.9 67.26 163.9 72C163.9 76.26 162.4 78.76 159.6 79.22V80.08H163.12V81.7H160.3C158.82 81.7 158.02 81.2 158.02 79.62V79.28C154.98 78.98 153.34 76.46 153.34 72ZM169.282 80.54C170.062 80.54 170.322 80.06 170.322 79H169.282V76.56H171.602V78.74C171.602 80.8 170.842 81.82 169.282 81.82V80.54ZM178.024 79V65H179.704V72.36L179.284 73.42H179.564L185.964 65H187.884L183.164 71.42L187.784 79H185.764L182.044 72.72L179.704 75.82V79H178.024ZM192.887 80.54C193.667 80.54 193.927 80.06 193.927 79H192.887V76.56H195.207V78.74C195.207 80.8 194.447 81.82 192.887 81.82V80.54ZM204.529 79L200.389 65H202.169L205.589 76.96L205.689 77.94H205.969L206.089 76.96L209.509 65H211.289L207.149 79H204.529ZM216.631 73.52C216.631 74.5867 216.525 75.6333 216.311 76.66C216.111 77.6867 215.791 78.66 215.351 79.58C214.925 80.5133 214.371 81.3733 213.691 82.16H212.051C212.665 81.32 213.178 80.4267 213.591 79.48C214.005 78.5467 214.318 77.5733 214.531 76.56C214.745 75.5467 214.851 74.5267 214.851 73.5C214.851 72.4467 214.745 71.4067 214.531 70.38C214.318 69.3533 214.005 68.36 213.591 67.4C213.178 66.44 212.658 65.5467 212.031 64.72H213.691C214.371 65.52 214.925 66.3933 215.351 67.34C215.791 68.2867 216.111 69.28 216.311 70.32C216.525 71.36 216.631 72.4267 216.631 73.52ZM229.75 70.68V69.26H238.91V70.68H229.75ZM229.75 74.66V73.24H238.91V74.66H229.75Z" fill="#FF3E1B"/>
<path d="M257.18 79.28C254.58 79.28 253.06 78.06 253.06 75.9H254.66C254.66 77.28 255.52 77.9 257.26 77.9C258.72 77.9 259.6 77.4 259.6 76.52C259.6 75.7 259.16 75.42 257.9 75.16L256.06 74.78C254.16 74.4 253.22 73.62 253.22 72.14C253.22 70.34 254.76 69.22 257.26 69.22C259.84 69.22 261.36 70.44 261.36 72.6H259.76C259.76 71.2 258.92 70.58 257.18 70.58C255.7 70.58 254.82 71.1 254.82 71.98C254.82 72.74 255.3 73.06 256.46 73.3L258.34 73.7C260.34 74.08 261.2 74.86 261.2 76.34C261.2 78.14 259.66 79.28 257.18 79.28ZM269.002 79.28C266.142 79.28 264.122 77.26 264.122 74.24C264.122 71.24 266.142 69.22 269.002 69.22C271.862 69.22 273.882 71.24 273.882 74.24C273.882 77.26 271.862 79.28 269.002 79.28ZM265.782 74.24C265.782 76.4 267.082 77.84 269.002 77.84C270.922 77.84 272.222 76.4 272.222 74.24C272.222 72.1 270.922 70.66 269.002 70.66C267.082 70.66 265.782 72.1 265.782 74.24ZM278.445 68.66C278.445 65.98 280.045 64.72 282.365 64.72C284.865 64.72 286.085 65.92 286.085 67.96H284.485C284.465 66.78 283.705 66.16 282.365 66.16C280.905 66.16 280.045 66.96 280.045 68.66V69.5H285.005V70.94H280.045V79H278.445V70.94H275.645V69.5H278.445V68.66ZM293.487 79.28C291.447 79.28 290.347 78.14 290.347 75.98V70.94H287.547V69.5H290.347V67.52L291.947 66.74V69.5H297.367V70.94H291.947V75.98C291.947 77.14 292.527 77.84 293.487 77.84C294.627 77.84 295.127 77.1 295.127 75.5V74.42H296.727V75.52C296.727 77.98 295.527 79.28 293.487 79.28ZM299.409 79V69.5H300.929L300.489 71.9H300.769C301.129 70.16 301.969 69.22 303.169 69.22C304.669 69.22 305.049 70.48 304.789 71.9H305.069C305.289 70.24 306.189 69.22 307.409 69.22C308.809 69.22 309.529 70.18 309.529 72.04V79H308.009V72.2C308.009 71.24 307.609 70.74 306.869 70.74C305.829 70.74 305.229 71.66 305.229 73.1V79H303.709V72.2C303.709 71.24 303.349 70.74 302.569 70.74C301.569 70.74 300.929 71.68 300.929 73.1V79H299.409ZM315.092 79.28C313.232 79.28 312.112 78.26 312.112 76.56C312.112 74.82 313.332 73.86 315.652 73.74L318.692 73.54V73.14C318.692 71.38 317.932 70.66 316.112 70.66C314.432 70.66 313.532 71.4 313.532 72.82H311.912C311.912 70.46 313.532 69.22 316.112 69.22C318.972 69.22 320.232 70.44 320.232 73.14V79H318.632L319.012 76.34H318.752C318.192 78.22 316.892 79.28 315.092 79.28ZM313.772 76.58C313.772 77.42 314.392 77.9 315.452 77.9C317.212 77.9 318.572 76.62 318.692 74.82L315.732 75.1C314.352 75.22 313.772 75.68 313.772 76.58ZM323.274 79L326.934 74.24L323.274 69.5H325.274L327.714 72.76L327.874 73.42H328.154L328.294 72.76L330.754 69.5H332.734L329.094 74.24L332.734 79H330.734L328.294 75.78L328.154 75.16H327.874L327.714 75.78L325.274 79H323.274Z" fill="#FF3E1B"/>
<path d="M339.8 73.52C339.8 72.4267 339.9 71.36 340.1 70.32C340.313 69.28 340.64 68.2867 341.08 67.34C341.52 66.3933 342.073 65.52 342.74 64.72H344.4C343.787 65.5467 343.267 66.44 342.84 67.4C342.427 68.36 342.113 69.3533 341.9 70.38C341.687 71.4067 341.58 72.4467 341.58 73.5C341.58 74.5267 341.687 75.5467 341.9 76.56C342.113 77.5733 342.427 78.5467 342.84 79.48C343.253 80.4267 343.767 81.32 344.38 82.16H342.74C342.073 81.3733 341.52 80.5133 341.08 79.58C340.64 78.66 340.313 77.6867 340.1 76.66C339.9 75.6333 339.8 74.5867 339.8 73.52Z" fill="#FF3E1B"/>
<path d="M353.2 63.7C355.54 63.7 356.72 61.8 356.72 58C356.72 54.2 355.54 52.3 353.2 52.3C350.86 52.3 349.68 54.2 349.68 58C349.68 61.8 350.86 63.7 353.2 63.7ZM347.92 58C347.92 53.26 349.78 50.7 353.2 50.7C356.62 50.7 358.48 53.26 358.48 58C358.48 62.26 356.98 64.76 354.18 65.22V66.08H357.7V67.7H354.88C353.4 67.7 352.6 67.2 352.6 65.62V65.28C349.56 64.98 347.92 62.46 347.92 58ZM360.802 65V51H362.482V58.36L362.062 59.42H362.342L368.742 51H370.662L365.942 57.42L370.562 65H368.542L364.822 58.72L362.482 61.82V65H360.802ZM373.821 59V51.56H371.001V50.6H377.649V51.56H374.829V59H373.821Z" fill="#FF3E1B"/>
<path d="M347 72H377.5" stroke="#FF3E1B" stroke-width="1.5"/>
<path d="M352.241 91.2457L357.419 78.4545H358.925L353.001 93H352.05L352.241 91.2457ZM350.217 85.1875L352.597 91.2457L352.845 93H351.886L348.733 85.1875H350.217ZM347.54 86.3807V85.1875H350.146V86.3807H347.54ZM364.224 93.28C361.644 93.28 359.864 91.36 359.864 88.24C359.864 85.16 361.624 83.22 364.224 83.22C366.024 83.22 367.344 84.22 367.864 86.16H368.144L367.704 83.5V79H369.304V93H367.704L368.144 90.34H367.864C367.344 92.28 366.024 93.28 364.224 93.28ZM361.524 88.24C361.524 90.44 362.704 91.84 364.624 91.84C366.544 91.84 367.744 90.46 367.744 88.24C367.744 86.06 366.564 84.66 364.624 84.66C362.704 84.66 361.524 86.04 361.524 88.24ZM372.039 97V88.6H372.999V93.88L372.747 94.444H372.915L376.083 91.3H377.271L374.655 93.928L377.199 97H375.987L373.971 94.528L372.999 95.5V97H372.039Z" fill="#FF3E1B"/>
<path d="M386.2 73.52C386.2 74.5867 386.093 75.6333 385.88 76.66C385.68 77.6867 385.36 78.66 384.92 79.58C384.493 80.5133 383.94 81.3733 383.26 82.16H381.62C382.233 81.32 382.747 80.4267 383.16 79.48C383.573 78.5467 383.887 77.5733 384.1 76.56C384.313 75.5467 384.42 74.5267 384.42 73.5C384.42 72.4467 384.313 71.4067 384.1 70.38C383.887 69.3533 383.573 68.36 383.16 67.4C382.747 66.44 382.227 65.5467 381.6 64.72H383.26C383.94 65.52 384.493 66.3933 384.92 67.34C385.36 68.2867 385.68 69.28 385.88 70.32C386.093 71.36 386.2 72.4267 386.2 73.52Z" fill="#FF3E1B"/>
<path d="M395.9 79L391.76 65H393.54L396.96 76.96L397.06 77.94H397.34L397.46 76.96L400.88 65H402.66L398.52 79H395.9Z" fill="#FF3E1B"/>
<defs>
<clipPath id="clip0_2030_252">
<rect width="21" height="21" fill="white" transform="translate(139 171)"/>
</clipPath>
</defs>
</svg>
