<svg width="433" height="433" viewBox="0 0 433 433" fill="none" xmlns="http://www.w3.org/2000/svg">
<path d="M291.026 233.011L310.507 235.346" stroke="#FF3E1B" stroke-dasharray="1 1"/>
<path d="M290.98 244.597L310.509 247.446" stroke="#FF3E1B" stroke-dasharray="1 1"/>
<path d="M298.397 226.251L315.132 230.72" stroke="#FF3E1B" stroke-dasharray="1 1"/>
<path d="M291.026 233.164V244.685L298.399 237.773V226.251L291.026 233.164Z" stroke="#FF3E1B"/>
<path d="M184.106 235.557V249.602L195.167 240.239V225.023L184.106 235.557Z" stroke="#FF3E1B"/>
<path d="M310.687 235.151V247.768H404.208M310.687 235.151H404.208M310.687 235.151L315.483 230.563H409.003M404.208 247.768V235.151M404.208 247.768L409.003 243.18V230.563M404.208 235.151L409.003 230.563" stroke="#FF3E1B"/>
<path d="M105.453 209.46L130.269 184.467H136.177M105.453 209.46V297.531H112.543M105.453 209.46H112.543M136.177 184.467V273.728L112.543 297.531M136.177 184.467L112.543 209.46M112.543 297.531V209.46" stroke="#FF3E1B"/>
<path d="M152.155 224.605L176.134 200.443H201.313M152.155 224.605V271.722H178.532M152.155 224.605H178.532M201.313 200.443V248.768L178.532 271.722M201.313 200.443L178.532 224.605M178.532 271.722V224.605" stroke="#FF3E1B"/>
<path d="M216.058 230.723L231.591 215.191H302.085M216.058 230.723V258.204H287.747M216.058 230.723H287.747M302.085 215.191V243.866L287.747 258.204M302.085 215.191L287.747 230.723M287.747 258.204V230.723" stroke="#FF3E1B"/>
<path d="M118.969 228.248V245.914L128.801 234.137V217.648L118.969 228.248Z" stroke="#FF3E1B"/>
<path d="M128.808 217.648L164.447 231.167" stroke="#FF3E1B" stroke-dasharray="1 1"/>
<path d="M118.969 245.914H157.067" stroke="#FF3E1B" stroke-dasharray="1 1"/>
<path d="M118.969 228.709L158.296 237.311" stroke="#FF3E1B" stroke-dasharray="1 1"/>
<path d="M164.445 231.168L158.3 237.313V245.916L164.445 239.771V231.168Z" stroke="#FF3E1B"/>
<path d="M195.163 225.023L227.116 234.855" stroke="#FF3E1B" stroke-dasharray="1 1"/>
<path d="M184.106 250.83L219.746 253.288" stroke="#FF3E1B" stroke-dasharray="1 1"/>
<path d="M184.106 234.854L219.746 240.999" stroke="#FF3E1B" stroke-dasharray="1 1"/>
<path d="M227.117 234.854L219.744 240.999V253.288L227.117 247.143V234.854Z" stroke="#FF3E1B"/>
<circle cx="8.82134" cy="8.82134" r="8.32134" transform="matrix(-1 0 0 1 80.1719 208.324)" stroke="#FF3E1B"/>
<circle cx="8.82134" cy="8.82134" r="8.32134" transform="matrix(-1 0 0 1 80.1719 232.177)" stroke="#FF3E1B"/>
<circle cx="8.82134" cy="8.82134" r="8.32134" transform="matrix(-1 0 0 1 80.1719 256.029)" stroke="#FF3E1B"/>
<circle cx="8.82134" cy="8.82134" r="8.32134" transform="matrix(-1 0 0 1 42.6461 184.467)" stroke="#FF3E1B"/>
<circle cx="8.82134" cy="8.82134" r="8.32134" transform="matrix(-1 0 0 1 42.6461 208.324)" stroke="#FF3E1B"/>
<circle cx="8.82134" cy="8.82134" r="8.32134" transform="matrix(-1 0 0 1 42.6461 232.177)" stroke="#FF3E1B"/>
<circle cx="8.82134" cy="8.82134" r="8.32134" transform="matrix(-1 0 0 1 42.6461 256.029)" stroke="#FF3E1B"/>
<circle cx="8.82134" cy="8.82134" r="8.32134" transform="matrix(-1 0 0 1 42.6461 279.888)" stroke="#FF3E1B"/>
<path d="M62.536 217.268H42.5327" stroke="#FF3E1B"/>
<path d="M62.536 241.123H42.5327" stroke="#FF3E1B"/>
<path d="M62.536 264.978H42.5327" stroke="#FF3E1B"/>
<path d="M62.536 264.978L42.6569 288.833" stroke="#FF3E1B"/>
<path d="M62.536 264.978L42.4084 241.123" stroke="#FF3E1B"/>
<path d="M62.536 264.978L42.4084 217.268" stroke="#FF3E1B"/>
<path d="M62.536 264.978L42.6569 193.413" stroke="#FF3E1B"/>
<path d="M62.536 217.25L42.6569 193.415" stroke="#FF3E1B"/>
<path d="M62.536 241.123L42.6569 217.268" stroke="#FF3E1B"/>
<path d="M62.536 241.123L42.6569 193.413" stroke="#FF3E1B"/>
<path d="M62.536 241.123L42.4084 264.978" stroke="#FF3E1B"/>
<path d="M62.536 217.268L42.4084 241.122" stroke="#FF3E1B"/>
<path d="M62.536 217.288L42.6569 264.979" stroke="#FF3E1B"/>
<path d="M62.536 241.123L42.6569 288.813" stroke="#FF3E1B"/>
<path d="M62.536 217.307L42.6569 288.833" stroke="#FF3E1B"/>
<circle cx="0.745466" cy="0.745466" r="0.745466" transform="matrix(-1 0 0 1 43.1564 192.67)" fill="#FF3E1B"/>
<circle cx="0.745466" cy="0.745466" r="0.745466" transform="matrix(-1 0 0 1 43.1564 216.523)" fill="#FF3E1B"/>
<circle cx="0.745466" cy="0.745466" r="0.745466" transform="matrix(-1 0 0 1 43.1564 240.376)" fill="#FF3E1B"/>
<circle cx="0.745466" cy="0.745466" r="0.745466" transform="matrix(-1 0 0 1 43.1564 264.232)" fill="#FF3E1B"/>
<circle cx="0.745466" cy="0.745466" r="0.745466" transform="matrix(-1 0 0 1 63.2671 264.232)" fill="#FF3E1B"/>
<circle cx="0.745466" cy="0.745466" r="0.745466" transform="matrix(-1 0 0 1 63.2671 240.376)" fill="#FF3E1B"/>
<circle cx="0.745466" cy="0.745466" r="0.745466" transform="matrix(-1 0 0 1 63.2671 216.523)" fill="#FF3E1B"/>
</svg>
