<svg width="433" height="433" viewBox="0 0 433 433" fill="none" xmlns="http://www.w3.org/2000/svg">
<path d="M103.289 135H93.5V207H105.5" stroke="#FF3E1B"/>
<path d="M103.06 166L107.4 152H110.02L114.36 166H112.54L111.04 160.94H106.38L104.88 166H103.06ZM106.86 159.34H110.56L108.98 154.02L108.84 153.04H108.56L108.44 154.02L106.86 159.34ZM128.085 166V152H132.805C135.465 152 137.105 153.48 137.105 155.72C137.105 157.56 136.005 158.64 134.385 158.86V159.14C136.005 159.36 137.105 160.44 137.105 162.22C137.105 164.52 135.465 166 132.805 166H128.085ZM129.745 164.4H132.645C134.365 164.4 135.405 163.64 135.405 162.06C135.405 160.52 134.365 159.76 132.645 159.76H129.745V164.4ZM129.745 158.24H132.645C134.365 158.24 135.405 157.48 135.405 155.94C135.405 154.36 134.365 153.6 132.645 153.6H129.745V158.24ZM108.96 190.3C105.48 190.3 103.72 187.84 103.72 183C103.72 178.16 105.54 175.7 109.14 175.7C112.1 175.7 113.96 177.78 113.96 181H112.24C112.24 178.72 111.04 177.3 109.14 177.3C106.64 177.3 105.48 179.1 105.48 183C105.48 186.9 106.58 188.7 108.94 188.7C110.86 188.7 112.02 187.32 112.02 185H113.74C113.74 188.16 111.8 190.3 108.96 190.3ZM127.925 190V176H131.645C135.225 176 137.365 178.62 137.365 183C137.365 187.38 135.225 190 131.645 190H127.925ZM129.605 188.4H131.785C134.125 188.4 135.605 186.34 135.605 183C135.605 179.66 134.125 177.6 131.785 177.6H129.605V188.4Z" fill="#FF3E1B"/>
<path d="M138.711 135H148.5V207H136.5" stroke="#FF3E1B"/>
<path d="M160.04 170.7C160.04 170.1 160.133 169.62 160.32 169.26C160.52 168.887 160.787 168.62 161.12 168.46C161.467 168.3 161.847 168.22 162.26 168.22C162.673 168.22 163.047 168.3 163.38 168.46C163.713 168.62 163.98 168.887 164.18 169.26C164.38 169.62 164.48 170.1 164.48 170.7C164.48 171.287 164.38 171.767 164.18 172.14C163.98 172.5 163.713 172.767 163.38 172.94C163.047 173.1 162.673 173.18 162.26 173.18C161.847 173.18 161.467 173.1 161.12 172.94C160.787 172.767 160.52 172.5 160.32 172.14C160.133 171.767 160.04 171.287 160.04 170.7Z" fill="#FF3E1B"/>
<path d="M186.289 135H176.5V207H188.5" stroke="#FF3E1B"/>
<path d="M186.36 166L190.48 158.98L186.36 152H188.24L191.28 157.1L191.56 158.12H191.84L192.1 157.1L195.16 152H197.04L192.9 158.98L197.04 166H195.14L192.02 160.62L191.86 159.76H191.58L191.4 160.62L188.26 166H186.36ZM190.86 190V184.72L186.08 176H188.04L191.5 182.64L191.56 183.42H191.84L191.92 182.64L195.38 176H197.34L192.54 184.72V190H190.86Z" fill="#FF3E1B"/>
<path d="M197.711 135H207.5V207H195.5" stroke="#FF3E1B"/>
<path d="M218.62 169.68V168.26H227.78V169.68H218.62ZM218.62 173.66V172.24H227.78V173.66H218.62Z" fill="#FF3E1B"/>
<path d="M249.289 135H239.5V207H251.5" stroke="#FF3E1B"/>
<path d="M249.06 166L253.4 152H256.02L260.36 166H258.54L257.04 160.94H252.38L250.88 166H249.06ZM252.86 159.34H256.56L254.98 154.02L254.84 153.04H254.56L254.44 154.02L252.86 159.34ZM261.162 166L265.282 158.98L261.162 152H263.042L266.082 157.1L266.362 158.12H266.642L266.902 157.1L269.962 152H271.842L267.702 158.98L271.842 166H269.942L266.822 160.62L266.662 159.76H266.382L266.202 160.62L263.062 166H261.162ZM290.327 158.24H294.307V159.66H290.327V163.78H288.887V159.66H284.907V158.24H288.887V154.1H290.327V158.24ZM308.535 166V152H313.255C315.915 152 317.555 153.48 317.555 155.72C317.555 157.56 316.455 158.64 314.835 158.86V159.14C316.455 159.36 317.555 160.44 317.555 162.22C317.555 164.52 315.915 166 313.255 166H308.535ZM310.195 164.4H313.095C314.815 164.4 315.855 163.64 315.855 162.06C315.855 160.52 314.815 159.76 313.095 159.76H310.195V164.4ZM310.195 158.24H313.095C314.815 158.24 315.855 157.48 315.855 155.94C315.855 154.36 314.815 153.6 313.095 153.6H310.195V158.24ZM323.717 166V160.72L318.937 152H320.897L324.357 158.64L324.417 159.42H324.697L324.777 158.64L328.237 152H330.197L325.397 160.72V166H323.717ZM254.96 190.3C251.48 190.3 249.72 187.84 249.72 183C249.72 178.16 251.54 175.7 255.14 175.7C258.1 175.7 259.96 177.78 259.96 181H258.24C258.24 178.72 257.04 177.3 255.14 177.3C252.64 177.3 251.48 179.1 251.48 183C251.48 186.9 252.58 188.7 254.94 188.7C256.86 188.7 258.02 187.32 258.02 185H259.74C259.74 188.16 257.8 190.3 254.96 190.3ZM261.162 190L265.282 182.98L261.162 176H263.042L266.082 181.1L266.362 182.12H266.642L266.902 181.1L269.962 176H271.842L267.702 182.98L271.842 190H269.942L266.822 184.62L266.662 183.76H266.382L266.202 184.62L263.062 190H261.162ZM290.327 182.24H294.307V183.66H290.327V187.78H288.887V183.66H284.907V182.24H288.887V178.1H290.327V182.24ZM308.375 190V176H312.095C315.675 176 317.815 178.62 317.815 183C317.815 187.38 315.675 190 312.095 190H308.375ZM310.055 188.4H312.235C314.575 188.4 316.055 186.34 316.055 183C316.055 179.66 314.575 177.6 312.235 177.6H310.055V188.4ZM323.717 190V184.72L318.937 176H320.897L324.357 182.64L324.417 183.42H324.697L324.777 182.64L328.237 176H330.197L325.397 184.72V190H323.717Z" fill="#FF3E1B"/>
<path d="M330.711 135H340.5V207H328.5" stroke="#FF3E1B"/>
<path d="M29.56 280L33.9 266H36.52L40.86 280H39.04L37.54 274.94H32.88L31.38 280H29.56ZM33.36 273.34H37.06L35.48 268.02L35.34 267.04H35.06L34.94 268.02L33.36 273.34ZM47.8823 280.28C45.8423 280.28 44.7423 279.14 44.7423 276.98V271.94H41.9423V270.5H44.7423V268.52L46.3423 267.74V270.5H51.7623V271.94H46.3423V276.98C46.3423 278.14 46.9223 278.84 47.8823 278.84C49.0223 278.84 49.5223 278.1 49.5223 276.5V275.42H51.1223V276.52C51.1223 278.98 49.9223 280.28 47.8823 280.28ZM59.6847 280.28C57.6447 280.28 56.5447 279.14 56.5447 276.98V271.94H53.7447V270.5H56.5447V268.52L58.1447 267.74V270.5H63.5647V271.94H58.1447V276.98C58.1447 278.14 58.7247 278.84 59.6847 278.84C60.8247 278.84 61.3247 278.1 61.3247 276.5V275.42H62.9247V276.52C62.9247 278.98 61.7247 280.28 59.6847 280.28ZM70.867 280.28C67.767 280.28 66.107 278.32 66.107 275.3C66.107 272.4 67.887 270.22 70.687 270.22C73.427 270.22 75.047 272 75.047 274.98V275.68H67.787C67.907 277.58 68.947 278.84 70.847 278.84C72.107 278.84 73.087 278.2 73.427 277.1H75.027C74.687 278.94 72.987 280.28 70.867 280.28ZM67.827 274.36H73.347C73.267 272.6 72.307 271.64 70.687 271.64C69.067 271.64 68.087 272.74 67.827 274.36ZM78.4494 280V270.5H80.0494L79.6094 273.16H79.8894C80.4294 271.2 81.6094 270.22 83.2494 270.22C85.5094 270.22 86.7294 271.6 86.7294 274.14V280H85.0894V274.34C85.0894 272.6 84.3094 271.7 82.8494 271.7C81.1294 271.7 80.0494 273.04 80.0494 275.1V280H78.4494ZM95.0917 280.28C93.0517 280.28 91.9517 279.14 91.9517 276.98V271.94H89.1517V270.5H91.9517V268.52L93.5517 267.74V270.5H98.9717V271.94H93.5517V276.98C93.5517 278.14 94.1317 278.84 95.0917 278.84C96.2317 278.84 96.7317 278.1 96.7317 276.5V275.42H98.3317V276.52C98.3317 278.98 97.1317 280.28 95.0917 280.28ZM101.614 280V278.56H105.794V271.94H101.534V270.5H107.394V278.56H111.494V280H101.614ZM105.614 268.36V266.04H107.574V268.36H105.614ZM117.816 280.28C114.956 280.28 112.936 278.26 112.936 275.24C112.936 272.24 114.956 270.22 117.816 270.22C120.676 270.22 122.696 272.24 122.696 275.24C122.696 278.26 120.676 280.28 117.816 280.28ZM114.596 275.24C114.596 277.4 115.896 278.84 117.816 278.84C119.736 278.84 121.036 277.4 121.036 275.24C121.036 273.1 119.736 271.66 117.816 271.66C115.896 271.66 114.596 273.1 114.596 275.24ZM125.659 280V270.5H127.259L126.819 273.16H127.099C127.639 271.2 128.819 270.22 130.459 270.22C132.719 270.22 133.939 271.6 133.939 274.14V280H132.299V274.34C132.299 272.6 131.519 271.7 130.059 271.7C128.339 271.7 127.259 273.04 127.259 275.1V280H125.659ZM147.823 274.52C147.823 273.427 147.923 272.36 148.123 271.32C148.337 270.28 148.663 269.287 149.103 268.34C149.543 267.393 150.097 266.52 150.763 265.72H152.423C151.81 266.547 151.29 267.44 150.863 268.4C150.45 269.36 150.137 270.353 149.923 271.38C149.71 272.407 149.603 273.447 149.603 274.5C149.603 275.527 149.71 276.547 149.923 277.56C150.137 278.573 150.45 279.547 150.863 280.48C151.277 281.427 151.79 282.32 152.403 283.16H150.763C150.097 282.373 149.543 281.513 149.103 280.58C148.663 279.66 148.337 278.687 148.123 277.66C147.923 276.633 147.823 275.587 147.823 274.52ZM158.62 278.7C160.96 278.7 162.14 276.8 162.14 273C162.14 269.2 160.96 267.3 158.62 267.3C156.28 267.3 155.1 269.2 155.1 273C155.1 276.8 156.28 278.7 158.62 278.7ZM153.34 273C153.34 268.26 155.2 265.7 158.62 265.7C162.04 265.7 163.9 268.26 163.9 273C163.9 277.26 162.4 279.76 159.6 280.22V281.08H163.12V282.7H160.3C158.82 282.7 158.02 282.2 158.02 280.62V280.28C154.98 279.98 153.34 277.46 153.34 273ZM169.282 281.54C170.062 281.54 170.322 281.06 170.322 280H169.282V277.56H171.602V279.74C171.602 281.8 170.842 282.82 169.282 282.82V281.54ZM178.024 280V266H179.704V273.36L179.284 274.42H179.564L185.964 266H187.884L183.164 272.42L187.784 280H185.764L182.044 273.72L179.704 276.82V280H178.024ZM192.887 281.54C193.667 281.54 193.927 281.06 193.927 280H192.887V277.56H195.207V279.74C195.207 281.8 194.447 282.82 192.887 282.82V281.54ZM204.529 280L200.389 266H202.169L205.589 277.96L205.689 278.94H205.969L206.089 277.96L209.509 266H211.289L207.149 280H204.529ZM216.631 274.52C216.631 275.587 216.525 276.633 216.311 277.66C216.111 278.687 215.791 279.66 215.351 280.58C214.925 281.513 214.371 282.373 213.691 283.16H212.051C212.665 282.32 213.178 281.427 213.591 280.48C214.005 279.547 214.318 278.573 214.531 277.56C214.745 276.547 214.851 275.527 214.851 274.5C214.851 273.447 214.745 272.407 214.531 271.38C214.318 270.353 214.005 269.36 213.591 268.4C213.178 267.44 212.658 266.547 212.031 265.72H213.691C214.371 266.52 214.925 267.393 215.351 268.34C215.791 269.287 216.111 270.28 216.311 271.32C216.525 272.36 216.631 273.427 216.631 274.52ZM229.75 271.68V270.26H238.91V271.68H229.75ZM229.75 275.66V274.24H238.91V275.66H229.75Z" fill="#FF3E1B"/>
<path d="M257.18 280.28C254.58 280.28 253.06 279.06 253.06 276.9H254.66C254.66 278.28 255.52 278.9 257.26 278.9C258.72 278.9 259.6 278.4 259.6 277.52C259.6 276.7 259.16 276.42 257.9 276.16L256.06 275.78C254.16 275.4 253.22 274.62 253.22 273.14C253.22 271.34 254.76 270.22 257.26 270.22C259.84 270.22 261.36 271.44 261.36 273.6H259.76C259.76 272.2 258.92 271.58 257.18 271.58C255.7 271.58 254.82 272.1 254.82 272.98C254.82 273.74 255.3 274.06 256.46 274.3L258.34 274.7C260.34 275.08 261.2 275.86 261.2 277.34C261.2 279.14 259.66 280.28 257.18 280.28ZM269.002 280.28C266.142 280.28 264.122 278.26 264.122 275.24C264.122 272.24 266.142 270.22 269.002 270.22C271.862 270.22 273.882 272.24 273.882 275.24C273.882 278.26 271.862 280.28 269.002 280.28ZM265.782 275.24C265.782 277.4 267.082 278.84 269.002 278.84C270.922 278.84 272.222 277.4 272.222 275.24C272.222 273.1 270.922 271.66 269.002 271.66C267.082 271.66 265.782 273.1 265.782 275.24ZM278.445 269.66C278.445 266.98 280.045 265.72 282.365 265.72C284.865 265.72 286.085 266.92 286.085 268.96H284.485C284.465 267.78 283.705 267.16 282.365 267.16C280.905 267.16 280.045 267.96 280.045 269.66V270.5H285.005V271.94H280.045V280H278.445V271.94H275.645V270.5H278.445V269.66ZM293.487 280.28C291.447 280.28 290.347 279.14 290.347 276.98V271.94H287.547V270.5H290.347V268.52L291.947 267.74V270.5H297.367V271.94H291.947V276.98C291.947 278.14 292.527 278.84 293.487 278.84C294.627 278.84 295.127 278.1 295.127 276.5V275.42H296.727V276.52C296.727 278.98 295.527 280.28 293.487 280.28ZM299.409 280V270.5H300.929L300.489 272.9H300.769C301.129 271.16 301.969 270.22 303.169 270.22C304.669 270.22 305.049 271.48 304.789 272.9H305.069C305.289 271.24 306.189 270.22 307.409 270.22C308.809 270.22 309.529 271.18 309.529 273.04V280H308.009V273.2C308.009 272.24 307.609 271.74 306.869 271.74C305.829 271.74 305.229 272.66 305.229 274.1V280H303.709V273.2C303.709 272.24 303.349 271.74 302.569 271.74C301.569 271.74 300.929 272.68 300.929 274.1V280H299.409ZM315.092 280.28C313.232 280.28 312.112 279.26 312.112 277.56C312.112 275.82 313.332 274.86 315.652 274.74L318.692 274.54V274.14C318.692 272.38 317.932 271.66 316.112 271.66C314.432 271.66 313.532 272.4 313.532 273.82H311.912C311.912 271.46 313.532 270.22 316.112 270.22C318.972 270.22 320.232 271.44 320.232 274.14V280H318.632L319.012 277.34H318.752C318.192 279.22 316.892 280.28 315.092 280.28ZM313.772 277.58C313.772 278.42 314.392 278.9 315.452 278.9C317.212 278.9 318.572 277.62 318.692 275.82L315.732 276.1C314.352 276.22 313.772 276.68 313.772 277.58ZM323.274 280L326.934 275.24L323.274 270.5H325.274L327.714 273.76L327.874 274.42H328.154L328.294 273.76L330.754 270.5H332.734L329.094 275.24L332.734 280H330.734L328.294 276.78L328.154 276.16H327.874L327.714 276.78L325.274 280H323.274Z" fill="#FF3E1B"/>
<path d="M339.8 274.52C339.8 273.427 339.9 272.36 340.1 271.32C340.313 270.28 340.64 269.287 341.08 268.34C341.52 267.393 342.073 266.52 342.74 265.72H344.4C343.787 266.547 343.267 267.44 342.84 268.4C342.427 269.36 342.113 270.353 341.9 271.38C341.687 272.407 341.58 273.447 341.58 274.5C341.58 275.527 341.687 276.547 341.9 277.56C342.113 278.573 342.427 279.547 342.84 280.48C343.253 281.427 343.767 282.32 344.38 283.16H342.74C342.073 282.373 341.52 281.513 341.08 280.58C340.64 279.66 340.313 278.687 340.1 277.66C339.9 276.633 339.8 275.587 339.8 274.52Z" fill="#FF3E1B"/>
<path d="M353.2 264.7C355.54 264.7 356.72 262.8 356.72 259C356.72 255.2 355.54 253.3 353.2 253.3C350.86 253.3 349.68 255.2 349.68 259C349.68 262.8 350.86 264.7 353.2 264.7ZM347.92 259C347.92 254.26 349.78 251.7 353.2 251.7C356.62 251.7 358.48 254.26 358.48 259C358.48 263.26 356.98 265.76 354.18 266.22V267.08H357.7V268.7H354.88C353.4 268.7 352.6 268.2 352.6 266.62V266.28C349.56 265.98 347.92 263.46 347.92 259ZM360.802 266V252H362.482V259.36L362.062 260.42H362.342L368.742 252H370.662L365.942 258.42L370.562 266H368.542L364.822 259.72L362.482 262.82V266H360.802ZM373.821 260V252.56H371.001V251.6H377.649V252.56H374.829V260H373.821Z" fill="#FF3E1B"/>
<path d="M347 273H377.5" stroke="#FF3E1B" stroke-width="1.5"/>
<path d="M352.241 292.246L357.419 279.455H358.925L353.001 294H352.05L352.241 292.246ZM350.217 286.188L352.597 292.246L352.845 294H351.886L348.733 286.188H350.217ZM347.54 287.381V286.188H350.146V287.381H347.54ZM364.224 294.28C361.644 294.28 359.864 292.36 359.864 289.24C359.864 286.16 361.624 284.22 364.224 284.22C366.024 284.22 367.344 285.22 367.864 287.16H368.144L367.704 284.5V280H369.304V294H367.704L368.144 291.34H367.864C367.344 293.28 366.024 294.28 364.224 294.28ZM361.524 289.24C361.524 291.44 362.704 292.84 364.624 292.84C366.544 292.84 367.744 291.46 367.744 289.24C367.744 287.06 366.564 285.66 364.624 285.66C362.704 285.66 361.524 287.04 361.524 289.24ZM372.039 298V289.6H372.999V294.88L372.747 295.444H372.915L376.083 292.3H377.271L374.655 294.928L377.199 298H375.987L373.971 295.528L372.999 296.5V298H372.039Z" fill="#FF3E1B"/>
<path d="M386.2 274.52C386.2 275.587 386.093 276.633 385.88 277.66C385.68 278.687 385.36 279.66 384.92 280.58C384.493 281.513 383.94 282.373 383.26 283.16H381.62C382.233 282.32 382.747 281.427 383.16 280.48C383.573 279.547 383.887 278.573 384.1 277.56C384.313 276.547 384.42 275.527 384.42 274.5C384.42 273.447 384.313 272.407 384.1 271.38C383.887 270.353 383.573 269.36 383.16 268.4C382.747 267.44 382.227 266.547 381.6 265.72H383.26C383.94 266.52 384.493 267.393 384.92 268.34C385.36 269.287 385.68 270.28 385.88 271.32C386.093 272.36 386.2 273.427 386.2 274.52Z" fill="#FF3E1B"/>
<path d="M395.9 280L391.76 266H393.54L396.96 277.96L397.06 278.94H397.34L397.46 277.96L400.88 266H402.66L398.52 280H395.9Z" fill="#FF3E1B"/>
</svg>
