<svg width="433" height="433" viewBox="0 0 433 433" fill="none" xmlns="http://www.w3.org/2000/svg">
<rect x="43.5" y="67.5" width="114" height="79" stroke="#FF3E1B"/>
<path d="M92.1435 104.217C89.6243 104.217 88.3502 102.436 88.3502 98.9326C88.3502 95.4289 89.6677 93.648 92.2738 93.648C94.4166 93.648 95.7631 95.1538 95.7631 97.4848H94.5179C94.5179 95.8343 93.6492 94.8063 92.2738 94.8063C90.464 94.8063 89.6243 96.1093 89.6243 98.9326C89.6243 101.756 90.4206 103.059 92.129 103.059C93.5189 103.059 94.3587 102.06 94.3587 100.38H95.6038C95.6038 102.668 94.1994 104.217 92.1435 104.217ZM97.6325 104V93.8652H101.136C103.091 93.8652 104.321 94.98 104.321 96.7609C104.321 98.5272 103.091 99.6565 101.136 99.6565H98.8486V104H97.6325ZM98.8486 98.4983H101.107C102.425 98.4983 103.076 97.8033 103.076 96.7609C103.076 95.704 102.425 95.0235 101.107 95.0235H98.8486V98.4983ZM109.043 104.217C107.06 104.217 105.728 102.885 105.728 100.873V93.8652H106.944V100.873C106.944 102.234 107.754 103.059 109.043 103.059C110.361 103.059 111.142 102.248 111.142 100.873V93.8652H112.359V100.873C112.359 102.885 111.027 104.217 109.043 104.217ZM71.324 117.033C71.324 116.241 71.3964 115.469 71.5412 114.716C71.6957 113.964 71.9321 113.244 72.2507 112.559C72.5692 111.874 72.9697 111.242 73.4523 110.663H74.654C74.21 111.261 73.8336 111.908 73.5247 112.603C73.2255 113.298 72.9987 114.017 72.8443 114.76C72.6898 115.503 72.6126 116.256 72.6126 117.018C72.6126 117.762 72.6898 118.5 72.8443 119.234C72.9987 119.967 73.2255 120.672 73.5247 121.347C73.824 122.033 74.1956 122.679 74.6396 123.288H73.4523C72.9697 122.718 72.5692 122.096 72.2507 121.42C71.9321 120.754 71.6957 120.049 71.5412 119.306C71.3964 118.563 71.324 117.805 71.324 117.033ZM76.1135 121V110.865H79.5159C81.5573 110.865 82.8025 111.734 82.8025 113.645C82.8025 115.527 81.4415 116.28 79.5159 116.28V116.483L79.8489 116.685L82.8025 121H81.2533L78.1839 116.396H77.3297V121H76.1135ZM77.3297 115.31H79.6317C80.8479 115.31 81.5573 114.76 81.5573 113.645C81.5573 112.516 80.819 112.023 79.6462 112.023H77.3297V115.31ZM84.3823 121V119.9H87.0753V111.966H84.3823V110.865H90.9844V111.966H88.2914V119.9H90.9844V121H84.3823ZM96.1983 121.217C93.8962 121.217 92.6366 120.015 92.6366 117.656H93.9252C93.9252 119.248 94.707 120.073 96.2562 120.073C97.5882 120.073 98.399 119.378 98.399 118.278C98.399 117.409 97.8922 116.845 96.5602 116.599L95.4164 116.381C93.679 116.048 92.7814 115.122 92.7814 113.66C92.7814 111.85 94.1713 110.648 96.2996 110.648C98.5582 110.648 99.8033 111.864 99.8033 114.166H98.5148C98.5148 112.588 97.7909 111.792 96.2562 111.792C94.8373 111.792 94.07 112.516 94.07 113.573C94.07 114.441 94.6201 114.977 95.9521 115.252L97.0814 115.469C98.7899 115.802 99.6875 116.714 99.6875 118.22C99.6875 120.03 98.3845 121.217 96.1983 121.217ZM104.959 121.217C102.44 121.217 101.166 119.436 101.166 115.933C101.166 112.429 102.484 110.648 105.09 110.648C107.232 110.648 108.579 112.154 108.579 114.485H107.334C107.334 112.834 106.465 111.806 105.09 111.806C103.28 111.806 102.44 113.109 102.44 115.933C102.44 118.756 103.236 120.059 104.945 120.059C106.335 120.059 107.174 119.06 107.174 117.38H108.42C108.42 119.668 107.015 121.217 104.959 121.217ZM111.143 117.308V116.193H115.487V117.308H111.143ZM120.918 121L117.921 110.865H119.209L121.685 119.523L121.757 120.233H121.96L122.047 119.523L124.523 110.865H125.811L122.814 121H120.918ZM129.679 117.033C129.679 117.805 129.602 118.563 129.447 119.306C129.302 120.049 129.071 120.754 128.752 121.42C128.443 122.096 128.043 122.718 127.55 123.288H126.363C126.807 122.679 127.179 122.033 127.478 121.347C127.777 120.672 128.004 119.967 128.159 119.234C128.313 118.5 128.39 117.762 128.39 117.018C128.39 116.256 128.313 115.503 128.159 114.76C128.004 114.017 127.777 113.298 127.478 112.603C127.179 111.908 126.802 111.261 126.349 110.663H127.55C128.043 111.242 128.443 111.874 128.752 112.559C129.071 113.244 129.302 113.964 129.447 114.716C129.602 115.469 129.679 116.241 129.679 117.033Z" fill="#FF3E1B"/>
<rect x="43.5" y="177.5" width="114" height="79" stroke="#FF3E1B"/>
<path d="M91.6078 222.717C89.4361 222.717 88.1909 220.835 88.1909 217.447C88.1909 213.929 89.5519 212.148 92.2159 212.148C94.3152 212.148 95.7052 213.654 95.6907 215.898H94.4455C94.4455 214.276 93.6058 213.306 92.2159 213.306C90.3482 213.306 89.465 214.609 89.465 217.447C89.465 220.241 90.2758 221.559 91.8974 221.559C93.2583 221.559 94.0836 220.444 94.2139 218.475H91.6512V217.331H95.3722V222.5H94.156L94.46 220.14H94.2718C93.9243 221.834 93.0556 222.717 91.6078 222.717ZM97.6325 222.5V212.365H101.136C103.091 212.365 104.321 213.48 104.321 215.261C104.321 217.027 103.091 218.157 101.136 218.157H98.8486V222.5H97.6325ZM98.8486 216.998H101.107C102.425 216.998 103.076 216.303 103.076 215.261C103.076 214.204 102.425 213.523 101.107 213.523H98.8486V216.998ZM109.043 222.717C107.059 222.717 105.727 221.385 105.727 219.373V212.365H106.944V219.373C106.944 220.734 107.754 221.559 109.043 221.559C110.361 221.559 111.142 220.748 111.142 219.373V212.365H112.359V219.373C112.359 221.385 111.027 222.717 109.043 222.717Z" fill="#FF3E1B"/>
<rect x="43.5" y="287.5" width="114" height="79" stroke="#FF3E1B"/>
<path d="M53.6969 332.5L56.8387 322.365H58.7354L61.8771 332.5H60.5596L59.4738 328.837H56.1003L55.0145 332.5H53.6969ZM56.4478 327.679H59.1263L57.9825 323.828L57.8811 323.118H57.6785L57.5916 323.828L56.4478 327.679ZM66.5119 332.717C63.9927 332.717 62.7186 330.936 62.7186 327.433C62.7186 323.929 64.0361 322.148 66.6422 322.148C68.785 322.148 70.1315 323.654 70.1315 325.985H68.8863C68.8863 324.334 68.0176 323.306 66.6422 323.306C64.8324 323.306 63.9927 324.609 63.9927 327.433C63.9927 330.256 64.789 331.559 66.4974 331.559C67.8873 331.559 68.7271 330.56 68.7271 328.88H69.9722C69.9722 331.168 68.5678 332.717 66.5119 332.717ZM75.0558 332.717C72.5365 332.717 71.2625 330.936 71.2625 327.433C71.2625 323.929 72.58 322.148 75.1861 322.148C77.3288 322.148 78.6753 323.654 78.6753 325.985H77.4302C77.4302 324.334 76.5615 323.306 75.1861 323.306C73.3763 323.306 72.5365 324.609 72.5365 327.433C72.5365 330.256 73.3328 331.559 75.0413 331.559C76.4312 331.559 77.2709 330.56 77.2709 328.88H78.5161C78.5161 331.168 77.1117 332.717 75.0558 332.717ZM80.6026 332.5V322.365H86.5821V323.523H81.8188V326.839H86.4374V327.997H81.8188V331.342H86.5821V332.5H80.6026ZM89.5374 332.5V322.365H90.7391V331.342H95.8355V332.5H89.5374ZM97.6904 332.5V322.365H103.67V323.523H98.9065V326.839H103.525V327.997H98.9065V331.342H103.67V332.5H97.6904ZM106.017 332.5V322.365H109.419C111.461 322.365 112.706 323.234 112.706 325.145C112.706 327.027 111.345 327.78 109.419 327.78V327.983L109.752 328.185L112.706 332.5H111.157L108.087 327.896H107.233V332.5H106.017ZM107.233 326.81H109.535C110.751 326.81 111.461 326.26 111.461 325.145C111.461 324.016 110.722 323.523 109.55 323.523H107.233V326.81ZM113.504 332.5L116.646 322.365H118.542L121.684 332.5H120.367L119.281 328.837H115.907L114.822 332.5H113.504ZM116.255 327.679H118.933L117.79 323.828L117.688 323.118H117.486L117.399 323.828L116.255 327.679ZM125.523 332.5V323.523H122.12V322.365H130.141V323.523H126.739V332.5H125.523ZM134.675 332.717C132.199 332.717 130.852 330.864 130.852 327.433C130.852 324.001 132.199 322.148 134.675 322.148C137.15 322.148 138.497 324.001 138.497 327.433C138.497 330.864 137.15 332.717 134.675 332.717ZM132.126 327.433C132.126 330.183 132.981 331.559 134.675 331.559C136.369 331.559 137.223 330.183 137.223 327.433C137.223 324.682 136.369 323.306 134.675 323.306C132.981 323.306 132.126 324.682 132.126 327.433ZM140.193 332.5V322.365H143.595C145.636 322.365 146.882 323.234 146.882 325.145C146.882 327.027 145.521 327.78 143.595 327.78V327.983L143.928 328.185L146.882 332.5H145.332L142.263 327.896H141.409V332.5H140.193ZM141.409 326.81H143.711C144.927 326.81 145.636 326.26 145.636 325.145C145.636 324.016 144.898 323.523 143.725 323.523H141.409V326.81Z" fill="#FF3E1B"/>
<rect x="275.5" y="177.5" width="114" height="79" stroke="#FF3E1B"/>
<path d="M323.42 219.604L322.117 214.754L322.001 213.523H321.798V222.5H320.64V212.365H322.478L323.825 217.824L323.854 218.475H324.057L324.1 217.824L325.447 212.365H327.271V222.5H326.113V213.523H325.924L325.808 214.754L324.505 219.604H323.42ZM329.632 222.5V212.365H333.136C335.091 212.365 336.321 213.48 336.321 215.261C336.321 217.027 335.091 218.157 333.136 218.157H330.849V222.5H329.632ZM330.849 216.998H333.107C334.425 216.998 335.076 216.303 335.076 215.261C335.076 214.204 334.425 213.523 333.107 213.523H330.849V216.998ZM341.043 222.717C339.059 222.717 337.727 221.385 337.727 219.373V212.365H338.944V219.373C338.944 220.734 339.754 221.559 341.043 221.559C342.361 221.559 343.142 220.748 343.142 219.373V212.365H344.359V219.373C344.359 221.385 343.027 222.717 341.043 222.717Z" fill="#FF3E1B"/>
<rect x="275.5" y="287.5" width="114" height="79" stroke="#FF3E1B"/>
<path d="M323.144 332.5V330.734H324.766V332.5H323.144ZM331.688 332.5V330.734H333.31V332.5H331.688ZM340.232 332.5V330.734H341.854V332.5H340.232Z" fill="#FF3E1B"/>
<rect x="275.5" y="67.5" width="114" height="79" stroke="#FF3E1B"/>
<path d="M324.143 104.217C321.624 104.217 320.35 102.436 320.35 98.9326C320.35 95.4289 321.668 93.648 324.274 93.648C326.417 93.648 327.763 95.1538 327.763 97.4848H326.518C326.518 95.8343 325.649 94.8063 324.274 94.8063C322.464 94.8063 321.624 96.1093 321.624 98.9326C321.624 101.756 322.421 103.059 324.129 103.059C325.519 103.059 326.359 102.06 326.359 100.38H327.604C327.604 102.668 326.199 104.217 324.143 104.217ZM329.632 104V93.8652H333.136C335.091 93.8652 336.321 94.98 336.321 96.7609C336.321 98.5272 335.091 99.6565 333.136 99.6565H330.849V104H329.632ZM330.849 98.4983H333.107C334.425 98.4983 335.076 97.8033 335.076 96.7609C335.076 95.704 334.425 95.0235 333.107 95.0235H330.849V98.4983ZM341.043 104.217C339.059 104.217 337.727 102.885 337.727 100.873V93.8652H338.944V100.873C338.944 102.234 339.754 103.059 341.043 103.059C342.361 103.059 343.142 102.248 343.142 100.873V93.8652H344.359V100.873C344.359 102.885 343.027 104.217 341.043 104.217ZM316.14 117.033C316.14 116.241 316.212 115.469 316.357 114.716C316.511 113.964 316.748 113.244 317.066 112.559C317.385 111.874 317.786 111.242 318.268 110.663H319.47C319.026 111.261 318.649 111.908 318.341 112.603C318.041 113.298 317.815 114.017 317.66 114.76C317.506 115.503 317.428 116.256 317.428 117.018C317.428 117.762 317.506 118.5 317.66 119.234C317.815 119.967 318.041 120.672 318.341 121.347C318.64 122.033 319.011 122.679 319.455 123.288H318.268C317.786 122.718 317.385 122.096 317.066 121.42C316.748 120.754 316.511 120.049 316.357 119.306C316.212 118.563 316.14 117.805 316.14 117.033ZM319.872 121L323.014 110.865H324.911L328.053 121H326.735L325.649 117.337H322.276L321.19 121H319.872ZM322.623 116.179H325.302L324.158 112.328L324.057 111.618H323.854L323.767 112.328L322.623 116.179ZM329.473 121V110.865H332.876C334.917 110.865 336.162 111.734 336.162 113.645C336.162 115.527 334.801 116.28 332.876 116.28V116.483L333.209 116.685L336.162 121H334.613L331.544 116.396H330.689V121H329.473ZM330.689 115.31H332.991C334.208 115.31 334.917 114.76 334.917 113.645C334.917 112.516 334.179 112.023 333.006 112.023H330.689V115.31ZM340.507 118.104L339.204 113.254L339.088 112.023H338.886V121H337.728V110.865H339.566L340.913 116.324L340.942 116.975H341.144L341.188 116.324L342.534 110.865H344.359V121H343.2V112.023H343.012L342.896 113.254L341.593 118.104H340.507ZM348.863 117.033C348.863 117.805 348.786 118.563 348.631 119.306C348.487 120.049 348.255 120.754 347.936 121.42C347.628 122.096 347.227 122.718 346.735 123.288H345.547C345.991 122.679 346.363 122.033 346.662 121.347C346.962 120.672 347.188 119.967 347.343 119.234C347.497 118.5 347.574 117.762 347.574 117.018C347.574 116.256 347.497 115.503 347.343 114.76C347.188 114.017 346.962 113.298 346.662 112.603C346.363 111.908 345.987 111.261 345.533 110.663H346.735C347.227 111.242 347.628 111.874 347.936 112.559C348.255 113.244 348.487 113.964 348.631 114.716C348.786 115.469 348.863 116.241 348.863 117.033Z" fill="#FF3E1B"/>
<path d="M217 68L217 111.5L217 367" stroke="#FF3E1B"/>
<path d="M158 107H275" stroke="#FF3E1B"/>
<path d="M158 217H275" stroke="#FF3E1B"/>
<path d="M158 327H275" stroke="#FF3E1B"/>
<path d="M216.646 48.3536C216.842 48.5488 217.158 48.5488 217.354 48.3536L220.536 45.1716C220.731 44.9763 220.731 44.6597 220.536 44.4645C220.34 44.2692 220.024 44.2692 219.828 44.4645L217 47.2929L214.172 44.4645C213.976 44.2692 213.66 44.2692 213.464 44.4645C213.269 44.6597 213.269 44.9763 213.464 45.1716L216.646 48.3536ZM216.5 25L216.5 48L217.5 48L217.5 25L216.5 25Z" fill="#FF3E1B"/>
</svg>
