<svg width="433" height="433" viewBox="0 0 433 433" fill="none" xmlns="http://www.w3.org/2000/svg">
<circle cx="349.657" cy="153.331" r="20.3316" stroke="#FF3E1B"/>
<circle cx="349.657" cy="209.669" r="20.3316" stroke="#FF3E1B"/>
<circle cx="83.8316" cy="125.169" r="20.3316" stroke="#FF3E1B"/>
<circle cx="83.8316" cy="181.499" r="20.3316" stroke="#FF3E1B"/>
<circle cx="83.8316" cy="237.831" r="20.3316" stroke="#FF3E1B"/>
<circle cx="172.447" cy="68.8316" r="20.3316" stroke="#FF3E1B"/>
<circle cx="261.041" cy="68.8316" r="20.3316" stroke="#FF3E1B"/>
<circle cx="172.447" cy="125.169" r="20.3316" stroke="#FF3E1B"/>
<circle cx="261.041" cy="125.169" r="20.3316" stroke="#FF3E1B"/>
<circle cx="172.447" cy="181.499" r="20.3316" stroke="#FF3E1B"/>
<circle cx="261.041" cy="181.499" r="20.3316" stroke="#FF3E1B"/>
<circle cx="172.447" cy="237.831" r="20.3316" stroke="#FF3E1B"/>
<circle cx="261.041" cy="237.831" r="20.3316" stroke="#FF3E1B"/>
<circle cx="172.447" cy="294.168" r="20.3316" stroke="#FF3E1B"/>
<circle cx="261.041" cy="294.168" r="20.3316" stroke="#FF3E1B"/>
<path d="M104.653 125.462H151.891" stroke="#FF3E1B"/>
<path d="M192.683 124.871H239.921" stroke="#FF3E1B"/>
<path d="M193.269 124.871L240.213 293.871" stroke="#FF3E1B"/>
<path d="M104.653 181.794H151.891" stroke="#FF3E1B"/>
<path d="M192.683 181.794H239.921" stroke="#FF3E1B"/>
<path d="M192.683 180.031L240.215 293.871" stroke="#FF3E1B"/>
<path d="M104.653 238.124H151.891" stroke="#FF3E1B"/>
<path d="M192.683 238.124H240.801" stroke="#FF3E1B"/>
<path d="M104.653 238.124L151.598 294.457" stroke="#FF3E1B"/>
<path d="M104.653 238.124L152.185 181.791" stroke="#FF3E1B"/>
<path d="M104.653 238.124L152.185 125.458" stroke="#FF3E1B"/>
<path d="M104.653 238.124L151.598 69.1244" stroke="#FF3E1B"/>
<path d="M104.653 125.415L151.598 69.1274" stroke="#FF3E1B"/>
<path d="M104.653 181.794L151.598 125.461" stroke="#FF3E1B"/>
<path d="M104.653 181.794L151.598 69.1273" stroke="#FF3E1B"/>
<path d="M104.653 181.794L152.185 238.127" stroke="#FF3E1B"/>
<path d="M104.653 125.462L152.185 181.795" stroke="#FF3E1B"/>
<path d="M104.653 125.507L151.598 238.128" stroke="#FF3E1B"/>
<path d="M193.269 293.871H240.506" stroke="#FF3E1B"/>
<path d="M193.269 295.634L240.213 237.54" stroke="#FF3E1B"/>
<path d="M193.269 295.634L240.213 180.62" stroke="#FF3E1B"/>
<path d="M193.269 295.634L240.8 124.873" stroke="#FF3E1B"/>
<path d="M193.269 295.634L240.8 68.5401" stroke="#FF3E1B"/>
<path d="M193.269 237.539L240.213 294.459" stroke="#FF3E1B"/>
<path d="M193.269 237.539L240.213 180.032" stroke="#FF3E1B"/>
<path d="M193.269 237.539L240.8 124.872" stroke="#FF3E1B"/>
<path d="M193.269 237.539L240.213 68.5392" stroke="#FF3E1B"/>
<path d="M193.269 124.83L240.213 69.129" stroke="#FF3E1B"/>
<path d="M193.861 68.5393L240.218 68.5393" stroke="#FF3E1B"/>
<path d="M193.861 68.5393L240.218 126.633" stroke="#FF3E1B"/>
<path d="M193.861 68.5393L240.805 181.206" stroke="#FF3E1B"/>
<path d="M193.861 68.5393L240.805 237.539" stroke="#FF3E1B"/>
<path d="M193.861 68.5393L240.218 293.872" stroke="#FF3E1B"/>
<path d="M193.269 181.207L240.213 124.874" stroke="#FF3E1B"/>
<path d="M193.269 181.207L240.213 68.5404" stroke="#FF3E1B"/>
<path d="M193.269 181.207L240.8 237.54" stroke="#FF3E1B"/>
<path d="M193.269 124.871L240.8 181.205" stroke="#FF3E1B"/>
<path d="M193.269 124.917L240.213 237.537" stroke="#FF3E1B"/>
<path d="M104.653 181.794L151.598 294.415" stroke="#FF3E1B"/>
<path d="M104.653 125.554L151.598 294.462" stroke="#FF3E1B"/>
<circle cx="240.807" cy="68.5424" r="1.76041" fill="#FF3E1B"/>
<circle cx="281.875" cy="68.5424" r="1.76041" fill="#FF3E1B"/>
<circle cx="281.875" cy="126.632" r="1.76041" fill="#FF3E1B"/>
<circle cx="328.809" cy="153.037" r="1.76041" fill="#FF3E1B"/>
<circle cx="328.809" cy="209.959" r="1.76041" fill="#FF3E1B"/>
<circle cx="281.875" cy="181.792" r="1.76041" fill="#FF3E1B"/>
<circle cx="281.875" cy="236.952" r="1.76041" fill="#FF3E1B"/>
<circle cx="281.875" cy="292.111" r="1.76041" fill="#FF3E1B"/>
<circle cx="193.26" cy="68.5424" r="1.76041" fill="#FF3E1B"/>
<circle cx="152.191" cy="69.1276" r="1.76041" fill="#FF3E1B"/>
<circle cx="152.191" cy="125.46" r="1.76041" fill="#FF3E1B"/>
<circle cx="152.191" cy="181.792" r="1.76041" fill="#FF3E1B"/>
<circle cx="152.191" cy="238.129" r="1.76041" fill="#FF3E1B"/>
<circle cx="104.665" cy="238.129" r="1.76041" fill="#FF3E1B"/>
<circle cx="104.665" cy="181.792" r="1.76041" fill="#FF3E1B"/>
<circle cx="104.665" cy="125.46" r="1.76041" fill="#FF3E1B"/>
<circle cx="193.26" cy="124.874" r="1.76041" fill="#FF3E1B"/>
<circle cx="240.215" cy="124.874" r="1.76041" fill="#FF3E1B"/>
<circle cx="240.215" cy="181.792" r="1.76041" fill="#FF3E1B"/>
<circle cx="240.215" cy="238.129" r="1.76041" fill="#FF3E1B"/>
<circle cx="240.215" cy="293.874" r="1.76041" fill="#FF3E1B"/>
<circle cx="193.26" cy="181.792" r="1.76041" fill="#FF3E1B"/>
<circle cx="193.26" cy="238.129" r="1.76041" fill="#FF3E1B"/>
<circle cx="193.26" cy="293.874" r="1.76041" fill="#FF3E1B"/>
<path d="M328.825 153.624L281.881 181.791" stroke="#FF3E1B"/>
<path d="M328.825 209.962L281.881 181.795" stroke="#FF3E1B"/>
<path d="M328.825 153.039L281.294 125.459" stroke="#FF3E1B"/>
<path d="M328.825 153.624L281.881 68.5376" stroke="#FF3E1B"/>
<path d="M328.825 210.547L281.881 69.1268" stroke="#FF3E1B"/>
<path d="M328.825 209.962L281.294 125.462" stroke="#FF3E1B"/>
<path d="M328.825 209.962L281.881 238.128" stroke="#FF3E1B"/>
<path d="M328.825 153.624L281.881 238.124" stroke="#FF3E1B"/>
<path d="M328.825 209.962L281.881 293.875" stroke="#FF3E1B"/>
<path d="M328.825 153.039L281.881 293.872" stroke="#FF3E1B"/>
<g clip-path="url(#clip0_533_2325)">
<path d="M225.971 379.942L225.969 379.944C220 385.912 210.179 385.917 204.099 379.941C198.026 373.972 198.026 364.332 204.099 358.363L214.518 348.123V352.259L213.604 353.157L206.13 360.503C206.129 360.504 206.129 360.504 206.128 360.505C201.212 365.265 201.216 373.04 206.125 377.867C210.964 382.694 218.86 382.69 223.766 377.869C228.56 373.226 228.675 365.715 224.122 360.87L226.28 358.749C232.008 364.77 231.892 374.089 225.971 379.942Z" stroke="#FF3E1B"/>
<path d="M222.243 355.324C222.243 356.175 221.539 356.879 220.652 356.879C219.766 356.879 219.062 356.175 219.062 355.324C219.062 354.474 219.766 353.769 220.652 353.769C221.539 353.769 222.243 354.474 222.243 355.324Z" stroke="#FF3E1B"/>
</g>
<path d="M142 358.875L162.872 347H163.441L179 355.587M142 358.875L147.313 361.615M142 358.875V364.538L147.313 367.462M179 355.587L173.687 358.692M179 355.587V361.433L173.687 364.356M173.687 358.692V364.356M173.687 358.692L163.251 352.846M173.687 364.356L163.156 358.692M163.251 352.846L147.313 361.615M163.251 352.846L163.156 358.692M147.313 361.615V367.462M147.313 367.462L152.531 364.538M157.749 367.462V361.615L152.531 364.538M157.749 367.462L163.062 364.538M157.749 367.462L163.251 370.385M163.062 364.538L168.564 367.462M163.062 364.538L163.156 358.692M152.531 364.538V382.184L157.749 385H157.938M163.251 376.231V382.077L158.128 385H157.938M163.251 376.231L157.938 373.49V385M163.251 376.231L168.564 373.308V367.462M163.251 376.231V370.385M168.564 367.462L163.251 370.385" stroke="#FF3E1B"/>
<path d="M289.012 364.852C288.938 364.852 288.863 364.852 288.789 364.852L282.191 352.852C282.34 352.63 282.34 352.407 282.34 352.111C282.34 351.222 281.598 350.556 280.783 350.556C280.338 350.556 279.893 350.778 279.671 351.074L266.623 348.407C266.549 347.593 265.882 347 265.066 347C264.177 347 263.51 347.741 263.51 348.556C263.51 348.852 263.584 349.074 263.658 349.296L253.502 363.889C253.353 363.889 253.205 363.815 253.057 363.815C252.167 363.815 251.5 364.556 251.5 365.37C251.5 366.259 252.241 366.926 253.057 366.926H253.131L258.617 380.481C258.543 380.704 258.469 380.926 258.469 381.148C258.469 382.037 259.21 382.704 260.025 382.704C260.47 382.704 260.915 382.481 261.137 382.185L277.595 383.815C277.743 384.481 278.411 385 279.152 385C280.042 385 280.709 384.259 280.709 383.444C280.709 383.074 280.56 382.704 280.338 382.407L288.641 367.963C288.715 367.963 288.789 367.963 288.938 367.963C289.827 367.963 290.494 367.222 290.494 366.407C290.569 365.593 289.901 364.852 289.012 364.852ZM279.523 353.074C279.745 353.296 279.967 353.519 280.264 353.593L277.743 372.407C277.595 372.407 277.447 372.481 277.299 372.556L263.584 360.704C263.584 360.556 263.658 360.407 263.658 360.259C263.658 360.185 263.658 360.037 263.658 359.963L279.523 353.074ZM287.455 366.926L279.004 372.704C278.93 372.63 278.855 372.63 278.781 372.556L281.376 353.593L287.826 365.444C287.603 365.741 287.455 366.111 287.455 366.481C287.381 366.63 287.455 366.778 287.455 366.926ZM261.879 358.704C261.137 358.852 260.544 359.444 260.544 360.259V360.333L254.91 363.667L263.658 351.148L261.879 358.704ZM262.472 361.815C262.694 361.741 262.917 361.667 263.065 361.593L276.631 373.37C276.557 373.519 276.557 373.741 276.557 373.963V374.037L261.36 380.259C261.137 379.963 260.767 379.667 260.396 379.593L262.472 361.815ZM276.928 375C277.15 375.222 277.447 375.37 277.743 375.444L278.485 382.037C278.188 382.185 277.892 382.481 277.743 382.778L261.805 381.222L276.928 375ZM278.855 375.37C279.374 375.148 279.745 374.556 279.745 373.963C279.745 373.815 279.745 373.667 279.671 373.593L287.381 368.333L279.597 381.815L278.855 375.37ZM279.226 352.037L263.139 359.074C263.065 359 262.991 359 262.991 358.926L265.066 350.185H265.141C265.734 350.185 266.178 349.889 266.475 349.444L279.226 352.037ZM254.688 365.37C254.688 365.296 254.688 365.148 254.688 365.074L261.063 361.296C261.212 361.444 261.36 361.519 261.508 361.593L259.432 379.37L254.243 366.556C254.465 366.259 254.688 365.889 254.688 365.37Z" fill="#FF3E1B"/>
<defs>
<clipPath id="clip0_533_2325">
<rect width="32" height="38" fill="white" transform="translate(199 347)"/>
</clipPath>
</defs>
</svg>
