<svg width="433" height="433" viewBox="0 0 433 433" fill="none" xmlns="http://www.w3.org/2000/svg">
<rect x="177.312" y="68.3138" width="78.5038" height="78.5038" rx="0.5" stroke="#FF3E1B"/>
<rect x="191.766" y="82.7679" width="49.5933" height="49.5933" rx="0.5" stroke="#FF3E1B"/>
<rect x="192.8" y="42.5" width="10.3577" height="25.8454" rx="0.5" stroke="#FF3E1B"/>
<rect x="192.8" y="146.784" width="10.3577" height="25.8454" rx="0.5" stroke="#FF3E1B"/>
<rect x="281.625" y="83.8016" width="10.3577" height="25.8454" rx="0.5" transform="rotate(90 281.625 83.8016)" stroke="#FF3E1B"/>
<rect x="177.345" y="83.8016" width="10.3577" height="25.8454" rx="0.5" transform="rotate(90 177.345 83.8016)" stroke="#FF3E1B"/>
<rect x="211.379" y="42.5" width="10.3577" height="25.8454" rx="0.5" stroke="#FF3E1B"/>
<rect x="211.379" y="146.784" width="10.3577" height="25.8454" rx="0.5" stroke="#FF3E1B"/>
<rect x="281.625" y="102.386" width="10.3577" height="25.8454" rx="0.5" transform="rotate(90 281.625 102.386)" stroke="#FF3E1B"/>
<rect x="177.345" y="102.386" width="10.3577" height="25.8454" rx="0.5" transform="rotate(90 177.345 102.386)" stroke="#FF3E1B"/>
<rect x="229.969" y="42.5" width="10.3577" height="25.8454" rx="0.5" stroke="#FF3E1B"/>
<rect x="229.969" y="146.784" width="10.3577" height="25.8454" rx="0.5" stroke="#FF3E1B"/>
<rect x="281.625" y="120.971" width="10.3577" height="25.8454" rx="0.5" transform="rotate(90 281.625 120.971)" stroke="#FF3E1B"/>
<rect x="177.345" y="120.971" width="10.3577" height="25.8454" rx="0.5" transform="rotate(90 177.345 120.971)" stroke="#FF3E1B"/>
<path d="M210.465 198.895H208.861C208.799 198.552 208.684 198.25 208.516 197.99C208.348 197.729 208.143 197.508 207.899 197.326C207.656 197.145 207.383 197.008 207.082 196.915C206.784 196.823 206.467 196.776 206.131 196.776C205.524 196.776 204.981 196.929 204.501 197.234C204.024 197.539 203.647 197.986 203.37 198.576C203.096 199.165 202.958 199.885 202.958 200.735C202.958 201.592 203.096 202.315 203.37 202.905C203.647 203.494 204.026 203.94 204.506 204.242C204.986 204.543 205.526 204.694 206.126 204.694C206.458 204.694 206.773 204.65 207.072 204.56C207.373 204.468 207.646 204.332 207.889 204.154C208.132 203.976 208.338 203.758 208.506 203.501C208.677 203.241 208.796 202.943 208.861 202.607L210.465 202.612C210.379 203.129 210.213 203.606 209.966 204.041C209.723 204.473 209.409 204.847 209.025 205.162C208.645 205.474 208.21 205.716 207.719 205.887C207.229 206.058 206.695 206.144 206.115 206.144C205.203 206.144 204.391 205.928 203.678 205.496C202.965 205.061 202.403 204.439 201.992 203.63C201.584 202.821 201.38 201.856 201.38 200.735C201.38 199.611 201.586 198.646 201.997 197.841C202.408 197.032 202.97 196.411 203.683 195.979C204.396 195.544 205.207 195.326 206.115 195.326C206.674 195.326 207.195 195.407 207.678 195.568C208.165 195.726 208.602 195.959 208.989 196.267C209.377 196.572 209.697 196.946 209.951 197.388C210.204 197.827 210.376 198.329 210.465 198.895ZM213.345 201.311V206H211.808V195.47H213.325V199.388H213.423C213.608 198.963 213.89 198.625 214.271 198.375C214.651 198.125 215.148 198 215.762 198C216.304 198 216.777 198.111 217.181 198.334C217.589 198.557 217.904 198.889 218.127 199.332C218.353 199.77 218.466 200.319 218.466 200.977V206H216.929V201.162C216.929 200.583 216.78 200.134 216.482 199.815C216.184 199.493 215.769 199.332 215.238 199.332C214.874 199.332 214.549 199.409 214.261 199.563C213.976 199.717 213.752 199.943 213.587 200.242C213.426 200.536 213.345 200.893 213.345 201.311ZM220.083 206V198.103H221.621V206H220.083ZM220.86 196.884C220.592 196.884 220.363 196.795 220.171 196.617C219.982 196.435 219.888 196.219 219.888 195.969C219.888 195.715 219.982 195.499 220.171 195.321C220.363 195.14 220.592 195.049 220.86 195.049C221.127 195.049 221.355 195.14 221.544 195.321C221.736 195.499 221.832 195.715 221.832 195.969C221.832 196.219 221.736 196.435 221.544 196.617C221.355 196.795 221.127 196.884 220.86 196.884ZM223.255 208.961V198.103H224.756V199.383H224.884C224.973 199.218 225.102 199.028 225.27 198.812C225.438 198.596 225.671 198.408 225.969 198.247C226.267 198.082 226.662 198 227.152 198C227.789 198 228.358 198.161 228.859 198.483C229.359 198.805 229.752 199.27 230.036 199.877C230.324 200.483 230.468 201.213 230.468 202.067C230.468 202.92 230.326 203.652 230.041 204.262C229.757 204.869 229.366 205.337 228.869 205.666C228.372 205.991 227.805 206.154 227.167 206.154C226.687 206.154 226.295 206.074 225.99 205.913C225.688 205.751 225.452 205.563 225.28 205.347C225.109 205.131 224.977 204.939 224.884 204.771H224.792V208.961H223.255ZM224.761 202.051C224.761 202.607 224.841 203.093 225.003 203.512C225.164 203.93 225.397 204.257 225.702 204.494C226.007 204.727 226.38 204.843 226.823 204.843C227.282 204.843 227.666 204.721 227.974 204.478C228.283 204.231 228.516 203.897 228.674 203.476C228.835 203.054 228.915 202.579 228.915 202.051C228.915 201.53 228.836 201.063 228.679 200.648C228.524 200.233 228.291 199.906 227.979 199.666C227.671 199.426 227.285 199.306 226.823 199.306C226.377 199.306 226 199.421 225.692 199.65C225.386 199.88 225.155 200.2 224.997 200.612C224.84 201.023 224.761 201.503 224.761 202.051Z" fill="#FF3E1B"/>
<path d="M188.462 380.611C188.407 380.125 188.181 379.748 187.784 379.48C187.386 379.21 186.886 379.074 186.282 379.074C185.85 379.074 185.477 379.143 185.161 379.28C184.846 379.413 184.601 379.599 184.426 379.835C184.255 380.068 184.169 380.334 184.169 380.632C184.169 380.882 184.227 381.098 184.344 381.28C184.464 381.461 184.62 381.614 184.812 381.737C185.007 381.857 185.216 381.958 185.439 382.041C185.662 382.12 185.876 382.185 186.082 382.236L187.11 382.503C187.446 382.586 187.79 382.697 188.144 382.838C188.497 382.978 188.824 383.163 189.126 383.393C189.427 383.623 189.671 383.907 189.856 384.246C190.044 384.586 190.138 384.992 190.138 385.465C190.138 386.061 189.984 386.591 189.676 387.054C189.371 387.516 188.927 387.881 188.344 388.149C187.765 388.416 187.064 388.55 186.241 388.55C185.453 388.55 184.771 388.425 184.195 388.174C183.619 387.924 183.168 387.57 182.843 387.11C182.517 386.647 182.337 386.099 182.303 385.465H183.897C183.928 385.845 184.051 386.162 184.267 386.416C184.486 386.666 184.766 386.853 185.105 386.977C185.448 387.096 185.823 387.156 186.231 387.156C186.68 387.156 187.079 387.086 187.429 386.946C187.782 386.802 188.06 386.603 188.262 386.349C188.464 386.092 188.565 385.792 188.565 385.45C188.565 385.138 188.476 384.882 188.298 384.683C188.123 384.485 187.885 384.32 187.583 384.19C187.285 384.06 186.947 383.945 186.57 383.845L185.326 383.506C184.483 383.276 183.814 382.939 183.321 382.493C182.831 382.048 182.586 381.458 182.586 380.725C182.586 380.118 182.75 379.588 183.079 379.136C183.408 378.683 183.854 378.332 184.416 378.082C184.978 377.828 185.612 377.701 186.318 377.701C187.031 377.701 187.66 377.827 188.205 378.077C188.754 378.327 189.186 378.671 189.501 379.11C189.816 379.545 189.981 380.046 189.994 380.611H188.462ZM191.479 388.375V380.478H193.016V388.375H191.479ZM192.255 379.259C191.988 379.259 191.758 379.17 191.567 378.992C191.378 378.81 191.284 378.594 191.284 378.344C191.284 378.09 191.378 377.874 191.567 377.696C191.758 377.515 191.988 377.424 192.255 377.424C192.523 377.424 192.751 377.515 192.939 377.696C193.131 377.874 193.227 378.09 193.227 378.344C193.227 378.594 193.131 378.81 192.939 378.992C192.751 379.17 192.523 379.259 192.255 379.259ZM194.65 388.375V380.478H196.126V381.763H196.223C196.388 381.328 196.657 380.988 197.031 380.745C197.404 380.498 197.852 380.375 198.373 380.375C198.9 380.375 199.343 380.498 199.699 380.745C200.059 380.992 200.325 381.331 200.496 381.763H200.578C200.767 381.342 201.067 381.006 201.478 380.755C201.889 380.502 202.379 380.375 202.948 380.375C203.665 380.375 204.249 380.599 204.702 381.048C205.158 381.497 205.386 382.174 205.386 383.079V388.375H203.848V383.223C203.848 382.689 203.703 382.301 203.411 382.061C203.12 381.821 202.772 381.701 202.367 381.701C201.867 381.701 201.478 381.856 201.2 382.164C200.923 382.469 200.784 382.862 200.784 383.342V388.375H199.252V383.126C199.252 382.697 199.118 382.353 198.851 382.092C198.583 381.832 198.235 381.701 197.807 381.701C197.516 381.701 197.247 381.779 197 381.933C196.756 382.084 196.559 382.294 196.409 382.565C196.261 382.836 196.187 383.15 196.187 383.506V388.375H194.65ZM212.014 385.1V380.478H213.557V388.375H212.045V387.007H211.963C211.781 387.429 211.49 387.78 211.089 388.061C210.691 388.339 210.196 388.478 209.603 388.478C209.096 388.478 208.647 388.366 208.256 388.144C207.868 387.917 207.563 387.583 207.341 387.141C207.121 386.699 207.012 386.152 207.012 385.501V380.478H208.549V385.316C208.549 385.854 208.698 386.282 208.996 386.601C209.294 386.92 209.682 387.079 210.158 387.079C210.446 387.079 210.732 387.007 211.017 386.863C211.305 386.719 211.543 386.502 211.731 386.21C211.923 385.919 212.018 385.549 212.014 385.1ZM216.725 377.845V388.375H215.188V377.845H216.725ZM220.657 388.55C220.157 388.55 219.704 388.457 219.3 388.272C218.895 388.084 218.575 387.811 218.338 387.455C218.105 387.098 217.989 386.661 217.989 386.144C217.989 385.698 218.074 385.331 218.246 385.043C218.417 384.755 218.649 384.527 218.94 384.36C219.231 384.192 219.557 384.065 219.917 383.979C220.277 383.893 220.643 383.828 221.017 383.784C221.49 383.729 221.874 383.684 222.169 383.65C222.464 383.612 222.678 383.552 222.811 383.47C222.945 383.388 223.012 383.254 223.012 383.069V383.033C223.012 382.584 222.885 382.236 222.631 381.989C222.381 381.743 222.008 381.619 221.511 381.619C220.993 381.619 220.585 381.734 220.287 381.964C219.992 382.19 219.788 382.442 219.675 382.719L218.23 382.39C218.402 381.911 218.652 381.523 218.981 381.228C219.314 380.93 219.696 380.714 220.128 380.581C220.559 380.443 221.014 380.375 221.49 380.375C221.805 380.375 222.14 380.413 222.493 380.488C222.849 380.56 223.182 380.694 223.49 380.889C223.802 381.084 224.057 381.364 224.256 381.727C224.455 382.087 224.554 382.555 224.554 383.131V388.375H223.053V387.295H222.991C222.892 387.494 222.743 387.689 222.544 387.881C222.345 388.073 222.09 388.233 221.778 388.36C221.466 388.486 221.092 388.55 220.657 388.55ZM220.991 387.316C221.416 387.316 221.78 387.232 222.081 387.064C222.386 386.896 222.618 386.677 222.775 386.406C222.937 386.132 223.017 385.839 223.017 385.527V384.509C222.962 384.563 222.856 384.615 222.698 384.663C222.544 384.707 222.368 384.747 222.169 384.781C221.97 384.812 221.776 384.841 221.588 384.869C221.399 384.893 221.242 384.913 221.115 384.93C220.817 384.968 220.544 385.031 220.297 385.12C220.054 385.21 219.859 385.338 219.711 385.506C219.567 385.671 219.495 385.89 219.495 386.164C219.495 386.545 219.636 386.833 219.917 387.028C220.198 387.22 220.556 387.316 220.991 387.316ZM229.854 380.478V381.712H225.54V380.478H229.854ZM226.697 378.586H228.234V386.056C228.234 386.354 228.279 386.579 228.368 386.73C228.457 386.877 228.572 386.978 228.713 387.033C228.857 387.085 229.012 387.11 229.18 387.11C229.304 387.11 229.412 387.102 229.504 387.085C229.597 387.067 229.669 387.054 229.72 387.043L229.998 388.313C229.909 388.348 229.782 388.382 229.617 388.416C229.453 388.454 229.247 388.474 229.001 388.478C228.596 388.485 228.219 388.413 227.869 388.262C227.52 388.111 227.237 387.878 227.021 387.563C226.805 387.247 226.697 386.851 226.697 386.375V378.586ZM231.12 388.375V380.478H232.657V388.375H231.12ZM231.897 379.259C231.629 379.259 231.4 379.17 231.208 378.992C231.019 378.81 230.925 378.594 230.925 378.344C230.925 378.09 231.019 377.874 231.208 377.696C231.4 377.515 231.629 377.424 231.897 377.424C232.164 377.424 232.392 377.515 232.58 377.696C232.772 377.874 232.868 378.09 232.868 378.344C232.868 378.594 232.772 378.81 232.58 378.992C232.392 379.17 232.164 379.259 231.897 379.259ZM237.618 388.534C236.877 388.534 236.231 388.365 235.679 388.025C235.128 387.686 234.699 387.211 234.394 386.601C234.089 385.991 233.936 385.278 233.936 384.462C233.936 383.643 234.089 382.927 234.394 382.313C234.699 381.7 235.128 381.223 235.679 380.884C236.231 380.545 236.877 380.375 237.618 380.375C238.358 380.375 239.004 380.545 239.556 380.884C240.108 381.223 240.536 381.7 240.841 382.313C241.146 382.927 241.299 383.643 241.299 384.462C241.299 385.278 241.146 385.991 240.841 386.601C240.536 387.211 240.108 387.686 239.556 388.025C239.004 388.365 238.358 388.534 237.618 388.534ZM237.623 387.244C238.103 387.244 238.5 387.117 238.816 386.863C239.131 386.61 239.364 386.272 239.515 385.851C239.669 385.429 239.746 384.965 239.746 384.457C239.746 383.953 239.669 383.491 239.515 383.069C239.364 382.644 239.131 382.303 238.816 382.046C238.5 381.789 238.103 381.66 237.623 381.66C237.14 381.66 236.739 381.789 236.42 382.046C236.104 382.303 235.87 382.644 235.715 383.069C235.565 383.491 235.489 383.953 235.489 384.457C235.489 384.965 235.565 385.429 235.715 385.851C235.87 386.272 236.104 386.61 236.42 386.863C236.739 387.117 237.14 387.244 237.623 387.244ZM244.118 383.686V388.375H242.581V380.478H244.056V381.763H244.154C244.336 381.345 244.62 381.009 245.007 380.755C245.398 380.502 245.89 380.375 246.483 380.375C247.021 380.375 247.492 380.488 247.897 380.714C248.301 380.937 248.615 381.27 248.838 381.712C249.061 382.154 249.172 382.701 249.172 383.352V388.375H247.635V383.537C247.635 382.965 247.486 382.517 247.187 382.195C246.889 381.869 246.48 381.707 245.959 381.707C245.602 381.707 245.285 381.784 245.007 381.938C244.733 382.092 244.515 382.318 244.354 382.617C244.197 382.911 244.118 383.268 244.118 383.686Z" fill="#FF3E1B"/>
<path d="M277.562 249H154.562V356H277.562V249Z" stroke="#FF3E1B" stroke-linejoin="round"/>
<path d="M154.562 273.692H277.562" stroke="#FF3E1B" stroke-linejoin="round"/>
<rect x="200.217" y="296.023" width="31.5445" height="31.6666" rx="0.5" stroke="#FF3E1B"/>
<rect x="206.133" y="301.961" width="19.7101" height="19.7879" rx="0.5" stroke="#FF3E1B"/>
<rect x="206.556" y="285.416" width="3.64881" height="10.0293" rx="0.5" stroke="#FF3E1B"/>
<rect x="206.556" y="328.265" width="3.64881" height="10.0293" rx="0.5" stroke="#FF3E1B"/>
<rect x="242.326" y="302.386" width="3.66626" height="9.9881" rx="0.5" transform="rotate(90 242.326 302.386)" stroke="#FF3E1B"/>
<rect x="199.64" y="302.386" width="3.66626" height="9.9881" rx="0.5" transform="rotate(90 199.64 302.386)" stroke="#FF3E1B"/>
<rect x="214.162" y="285.416" width="3.64881" height="10.0293" rx="0.5" stroke="#FF3E1B"/>
<rect x="214.162" y="328.265" width="3.64881" height="10.0293" rx="0.5" stroke="#FF3E1B"/>
<rect x="242.326" y="310.022" width="3.66626" height="9.9881" rx="0.5" transform="rotate(90 242.326 310.022)" stroke="#FF3E1B"/>
<rect x="199.64" y="310.022" width="3.66626" height="9.9881" rx="0.5" transform="rotate(90 199.64 310.022)" stroke="#FF3E1B"/>
<rect x="221.771" y="285.416" width="3.64881" height="10.0293" rx="0.5" stroke="#FF3E1B"/>
<rect x="221.771" y="328.265" width="3.64881" height="10.0293" rx="0.5" stroke="#FF3E1B"/>
<rect x="242.326" y="317.658" width="3.66626" height="9.9881" rx="0.5" transform="rotate(90 242.326 317.658)" stroke="#FF3E1B"/>
<rect x="199.64" y="317.658" width="3.66626" height="9.9881" rx="0.5" transform="rotate(90 199.64 317.658)" stroke="#FF3E1B"/>
<rect x="162.219" y="257.88" width="7.34909" height="7.38042" stroke="#FF3E1B"/>
<rect x="178.917" y="257.88" width="7.34909" height="7.38042" stroke="#FF3E1B"/>
</svg>
