<svg width="537" height="599" viewBox="0 0 537 599" fill="none" xmlns="http://www.w3.org/2000/svg">
<path fill-rule="evenodd" clip-rule="evenodd" d="M22.0598 307.738C19.5421 310.421 18 314.03 18 318V320.374L19.0423 317.576H20.4183L18 324.067V336.374L19.0423 333.576H20.4183L18 340.067V352.374L19.0423 349.576H20.4183L18 356.067V368.374L19.0423 365.576H20.4183L18 372.067V384.374L19.0423 381.576H20.4183L18 388.067V400.374L19.0423 397.576H20.4183L18 404.067V418.374L19.0423 415.576H20.4183L18 422.067V436.374L19.0423 433.576H20.4183L18.0316 439.982C18.3456 444.84 20.9719 449.068 24.821 451.576H25.7314L25.5625 452.029C26.6237 452.636 27.7661 453.117 28.9695 453.452L29.6685 451.576H31.0445L30.2361 453.746C31.1319 453.913 32.0558 454 33 454H34.0786L34.9816 451.576H36.3576L35.4546 454H39.3917L40.2948 451.576H41.6707L40.7677 454H44.7048L45.6079 451.576H46.9839L46.0808 454H50.0179L50.921 451.576H52.297L51.3939 454H55.3311L56.2341 451.576H57.6101L56.7071 454H60.6442L61.5472 451.576H62.9232L62.0202 454H65.9573L66.8604 451.576H68.2364L67.3333 454H71.2704L72.1735 451.576H73.5495L72.6464 454H76.5836L77.4866 451.576H78.8626L77.9596 454H81.8967L82.7998 451.576H84.1758L83.2727 454H87.2098L88.1129 451.576H89.4889L88.5858 454H90C90.8339 454 91.652 454.068 92.4488 454.199L93.426 451.576H94.802L93.7253 454.466C94.9357 454.776 96.0872 455.232 97.1596 455.816L98.7391 451.576H100.115L98.2834 456.493C99.3848 457.224 100.384 458.096 101.255 459.084L104.052 451.576H105.428L102.193 460.261C103.96 462.722 105 465.739 105 469V469.576H105.428L105 470.726V487.576H105.428L105 488.726V503.576H105.428L105 504.726V519.576H105.428L105 520.726V535.576H105.428L105 536.726V551.576H105.428L105 552.726V567.576H105.428L105 568.726V583.576H105.428L105.015 584.684C105.115 586.9 105.695 588.99 106.654 590.854L109.365 583.576H110.741L107.496 592.288C110.182 596.333 114.78 599 120 599H259C263.45 599 267.448 597.062 270.195 593.984L274 583.77V571.463L271.192 579H269.816L274 567.77V555.463L271.192 563H269.816L274 551.77V539.463L271.192 547H269.816L274 535.77V523.463L271.192 531H269.816L274 519.77V507.463L271.192 515H269.816L274 503.77V491.463L271.192 499H269.816L274 487.77V473.463L271.192 481H269.816L274 469.77V469C274 466.163 273.213 463.511 271.845 461.249L271.192 463H269.816L270.956 459.94C270.135 458.858 269.17 457.891 268.09 457.067L265.879 463H264.503L266.997 456.307C265.959 455.652 264.835 455.12 263.646 454.733L260.566 463H259.19L262.399 454.387C261.307 454.134 260.169 454 259 454H258.606L255.253 463H253.877L257.23 454H253.293L249.94 463H248.564L251.917 454H247.98L244.627 463H243.251L246.604 454H242.666L239.313 463H237.938L241.29 454H237.353L234 463H232.624L235.977 454H232.04L228.687 463H227.311L230.664 454H226.727L223.374 463H221.998L225.351 454H221.414L218.061 463H216.685L220.038 454H216.101L212.748 463H211.372L214.725 454H210.788L207.435 463H206.059L209.412 454H205.475L202.122 463H200.746L204.099 454H202C201.391 454 200.791 453.964 200.201 453.893L196.809 463H195.433L198.905 453.68C197.68 453.423 196.509 453.017 195.414 452.481L191.495 463H190.119L194.27 451.858C190.734 449.727 188.148 446.179 187.3 442L186.182 445H184.806L187 439.11C187 439.074 187 439.037 187 439V424.805L186.182 427H184.806L187 421.112V406.805L186.182 409H184.806L187 403.112V390.805L186.182 393H184.806L187 387.112V374.805L186.182 377H184.806L187 371.112V358.805L186.182 361H184.806L187 355.112V342.805L186.182 345H184.806L187 339.112V326.805L186.182 329H184.806L187 323.112V318C187 316.247 186.699 314.564 186.146 313H184.806L185.433 311.318C184.76 309.968 183.89 308.734 182.861 307.654L180.869 313H179.493L181.846 306.684C180.894 305.854 179.836 305.143 178.695 304.573L175.556 313H174.18L177.516 304.047C176.379 303.597 175.175 303.282 173.923 303.122L170.243 313H168.867L172.588 303.011C172.393 303.004 172.197 303 172 303H168.655L164.93 313H163.554L167.279 303H163.342L159.617 313H158.241L161.966 303H158.029L154.303 313H152.928L156.653 303H152.716L148.99 313H147.614L151.34 303H147.403L143.677 313H142.301L146.027 303H142.09L138.364 313H136.988L140.714 303H136.776L133.051 313H131.675L135.4 303H131.463L127.738 313H126.362L130.087 303H126.15L122.425 313H121.049L124.774 303H120.837L117.112 313H115.736L119.461 303H115.524L111.799 313H110.423L114.148 303H110.211L106.485 313H105.109L108.835 303H104.898L101.172 313H99.7963L103.522 303H99.5846L95.8591 313H94.4831L98.2086 303H94.2715L90.546 313H89.17L92.8955 303H88.9584L85.2329 313H83.8569L87.5824 303H83.6452L79.9198 313H78.5438L82.2692 303H78.3321L74.6066 313H73.2306L76.9561 303H73.019L69.2935 313H67.9175L71.643 303H67.7059L63.9804 313H62.6044L66.3299 303H62.3927L58.6672 313H57.2912L61.0167 303H57.0796L53.3541 313H51.9781L55.7036 303H51.7665L48.041 313H46.665L50.3905 303H46.4534L42.7279 313H41.3519L45.0774 303H41.1402L37.4147 313H36.0387L39.7642 303H35.8271L32.1016 313H30.7256L34.4511 303H33C32.1246 303 31.2667 303.075 30.4324 303.219L26.7885 313H25.4125L28.9298 303.559C27.1734 304.053 25.5475 304.859 24.1157 305.913L21.4754 313H20.0994L22.0598 307.738ZM21.4754 329L25.7314 317.576H24.3554L20.0994 329H21.4754ZM26.7885 329L31.0445 317.576H29.6685L25.4125 329H26.7885ZM32.1016 329L36.3576 317.576H34.9816L30.7256 329H32.1016ZM37.4147 329L41.6707 317.576H40.2948L36.0387 329H37.4147ZM42.7279 329L46.9839 317.576H45.6079L41.3519 329H42.7279ZM48.041 329L52.297 317.576H50.921L46.665 329H48.041ZM53.3541 329L57.6101 317.576H56.2341L51.9781 329H53.3541ZM58.6672 329L62.9232 317.576H61.5472L57.2912 329H58.6672ZM63.9804 329L68.2364 317.576H66.8604L62.6044 329H63.9804ZM69.2935 329L73.5495 317.576H72.1735L67.9175 329H69.2935ZM74.6066 329L78.8626 317.576H77.4866L73.2306 329H74.6066ZM79.9198 329L84.1758 317.576H82.7998L78.5438 329H79.9198ZM85.2329 329L89.4889 317.576H88.1129L83.8569 329H85.2329ZM90.546 329L94.802 317.576H93.426L89.17 329H90.546ZM95.8591 329L100.115 317.576H98.7391L94.4831 329H95.8591ZM101.172 329L105.428 317.576H104.052L99.7963 329H101.172ZM106.485 329L110.741 317.576H109.365L105.109 329H106.485ZM111.799 329L116.054 317.576H114.678L110.423 329H111.799ZM117.112 329L121.368 317.576H119.992L115.736 329H117.112ZM122.425 329L126.681 317.576H125.305L121.049 329H122.425ZM127.738 329L131.994 317.576H130.618L126.362 329H127.738ZM133.051 329L137.307 317.576H135.931L131.675 329H133.051ZM138.364 329L142.62 317.576H141.244L136.988 329H138.364ZM143.677 329L147.933 317.576H146.557L142.301 329H143.677ZM148.99 329L153.246 317.576H151.87L147.614 329H148.99ZM154.303 329L158.56 317.576H157.184L152.928 329H154.303ZM159.617 329L163.873 317.576H162.497L158.241 329H159.617ZM164.93 329L169.186 317.576H167.81L163.554 329H164.93ZM170.243 329L174.499 317.576H173.123L168.867 329H170.243ZM175.556 329L179.812 317.576H178.436L174.18 329H175.556ZM180.869 329L185.125 317.576H183.749L179.493 329H180.869ZM21.4754 345L25.7314 333.576H24.3554L20.0994 345H21.4754ZM26.7885 345L31.0445 333.576H29.6685L25.4125 345H26.7885ZM32.1016 345L36.3576 333.576H34.9816L30.7256 345H32.1016ZM37.4147 345L41.6707 333.576H40.2948L36.0387 345H37.4147ZM42.7279 345L46.9839 333.576H45.6079L41.3519 345H42.7279ZM48.041 345L52.297 333.576H50.921L46.665 345H48.041ZM53.3541 345L57.6101 333.576H56.2341L51.9781 345H53.3541ZM58.6672 345L62.9232 333.576H61.5472L57.2912 345H58.6672ZM63.9804 345L68.2364 333.576H66.8604L62.6044 345H63.9804ZM69.2935 345L73.5495 333.576H72.1735L67.9175 345H69.2935ZM74.6066 345L78.8626 333.576H77.4866L73.2306 345H74.6066ZM79.9198 345L84.1758 333.576H82.7998L78.5438 345H79.9198ZM85.2329 345L89.4889 333.576H88.1129L83.8569 345H85.2329ZM90.546 345L94.802 333.576H93.426L89.17 345H90.546ZM95.8591 345L100.115 333.576H98.7391L94.4831 345H95.8591ZM101.172 345L105.428 333.576H104.052L99.7963 345H101.172ZM106.485 345L110.741 333.576H109.365L105.109 345H106.485ZM111.799 345L116.054 333.576H114.678L110.423 345H111.799ZM117.112 345L121.368 333.576H119.992L115.736 345H117.112ZM122.425 345L126.681 333.576H125.305L121.049 345H122.425ZM127.738 345L131.994 333.576H130.618L126.362 345H127.738ZM133.051 345L137.307 333.576H135.931L131.675 345H133.051ZM138.364 345L142.62 333.576H141.244L136.988 345H138.364ZM143.677 345L147.933 333.576H146.557L142.301 345H143.677ZM148.99 345L153.246 333.576H151.87L147.614 345H148.99ZM154.303 345L158.56 333.576H157.184L152.928 345H154.303ZM159.617 345L163.873 333.576H162.497L158.241 345H159.617ZM164.93 345L169.186 333.576H167.81L163.554 345H164.93ZM170.243 345L174.499 333.576H173.123L168.867 345H170.243ZM175.556 345L179.812 333.576H178.436L174.18 345H175.556ZM180.869 345L185.125 333.576H183.749L179.493 345H180.869ZM21.4754 361L25.7314 349.576H24.3554L20.0994 361H21.4754ZM26.7885 361L31.0445 349.576H29.6685L25.4125 361H26.7885ZM32.1016 361L36.3576 349.576H34.9816L30.7256 361H32.1016ZM37.4147 361L41.6707 349.576H40.2948L36.0387 361H37.4147ZM42.7279 361L46.9839 349.576H45.6079L41.3519 361H42.7279ZM48.041 361L52.297 349.576H50.921L46.665 361H48.041ZM53.3541 361L57.6101 349.576H56.2341L51.9781 361H53.3541ZM58.6672 361L62.9232 349.576H61.5472L57.2912 361H58.6672ZM63.9804 361L68.2364 349.576H66.8604L62.6044 361H63.9804ZM69.2935 361L73.5495 349.576H72.1735L67.9175 361H69.2935ZM74.6066 361L78.8626 349.576H77.4866L73.2306 361H74.6066ZM79.9198 361L84.1758 349.576H82.7998L78.5438 361H79.9198ZM85.2329 361L89.4889 349.576H88.1129L83.8569 361H85.2329ZM90.546 361L94.802 349.576H93.426L89.17 361H90.546ZM95.8591 361L100.115 349.576H98.7391L94.4831 361H95.8591ZM101.172 361L105.428 349.576H104.052L99.7963 361H101.172ZM106.485 361L110.741 349.576H109.365L105.109 361H106.485ZM111.799 361L116.054 349.576H114.678L110.423 361H111.799ZM117.112 361L121.368 349.576H119.992L115.736 361H117.112ZM122.425 361L126.681 349.576H125.305L121.049 361H122.425ZM127.738 361L131.994 349.576H130.618L126.362 361H127.738ZM133.051 361L137.307 349.576H135.931L131.675 361H133.051ZM138.364 361L142.62 349.576H141.244L136.988 361H138.364ZM143.677 361L147.933 349.576H146.557L142.301 361H143.677ZM148.99 361L153.246 349.576H151.87L147.614 361H148.99ZM154.303 361L158.56 349.576H157.184L152.928 361H154.303ZM159.617 361L163.873 349.576H162.497L158.241 361H159.617ZM164.93 361L169.186 349.576H167.81L163.554 361H164.93ZM170.243 361L174.499 349.576H173.123L168.867 361H170.243ZM175.556 361L179.812 349.576H178.436L174.18 361H175.556ZM180.869 361L185.125 349.576H183.749L179.493 361H180.869ZM21.4754 377L25.7314 365.576H24.3554L20.0994 377H21.4754ZM26.7885 377L31.0445 365.576H29.6685L25.4125 377H26.7885ZM32.1016 377L36.3576 365.576H34.9816L30.7256 377H32.1016ZM37.4147 377L41.6707 365.576H40.2948L36.0387 377H37.4147ZM42.7279 377L46.9839 365.576H45.6079L41.3519 377H42.7279ZM48.041 377L52.297 365.576H50.921L46.665 377H48.041ZM53.3541 377L57.6101 365.576H56.2341L51.9781 377H53.3541ZM58.6672 377L62.9232 365.576H61.5472L57.2912 377H58.6672ZM63.9804 377L68.2364 365.576H66.8604L62.6044 377H63.9804ZM69.2935 377L73.5495 365.576H72.1735L67.9175 377H69.2935ZM74.6066 377L78.8626 365.576H77.4866L73.2306 377H74.6066ZM79.9198 377L84.1758 365.576H82.7998L78.5438 377H79.9198ZM85.2329 377L89.4889 365.576H88.1129L83.8569 377H85.2329ZM90.546 377L94.802 365.576H93.426L89.17 377H90.546ZM95.8591 377L100.115 365.576H98.7391L94.4831 377H95.8591ZM101.172 377L105.428 365.576H104.052L99.7963 377H101.172ZM106.485 377L110.741 365.576H109.365L105.109 377H106.485ZM111.799 377L116.054 365.576H114.678L110.423 377H111.799ZM117.112 377L121.368 365.576H119.992L115.736 377H117.112ZM122.425 377L126.681 365.576H125.305L121.049 377H122.425ZM127.738 377L131.994 365.576H130.618L126.362 377H127.738ZM133.051 377L137.307 365.576H135.931L131.675 377H133.051ZM138.364 377L142.62 365.576H141.244L136.988 377H138.364ZM143.677 377L147.933 365.576H146.557L142.301 377H143.677ZM148.99 377L153.246 365.576H151.87L147.614 377H148.99ZM154.303 377L158.56 365.576H157.184L152.928 377H154.303ZM159.617 377L163.873 365.576H162.497L158.241 377H159.617ZM164.93 377L169.186 365.576H167.81L163.554 377H164.93ZM170.243 377L174.499 365.576H173.123L168.867 377H170.243ZM175.556 377L179.812 365.576H178.436L174.18 377H175.556ZM180.869 377L185.125 365.576H183.749L179.493 377H180.869ZM21.4754 393L25.7314 381.576H24.3554L20.0994 393H21.4754ZM26.7885 393L31.0445 381.576H29.6685L25.4125 393H26.7885ZM32.1016 393L36.3576 381.576H34.9816L30.7256 393H32.1016ZM37.4147 393L41.6707 381.576H40.2948L36.0387 393H37.4147ZM42.7279 393L46.9839 381.576H45.6079L41.3519 393H42.7279ZM48.041 393L52.297 381.576H50.921L46.665 393H48.041ZM53.3541 393L57.6101 381.576H56.2341L51.9781 393H53.3541ZM58.6672 393L62.9232 381.576H61.5472L57.2912 393H58.6672ZM63.9804 393L68.2364 381.576H66.8604L62.6044 393H63.9804ZM69.2935 393L73.5495 381.576H72.1735L67.9175 393H69.2935ZM74.6066 393L78.8626 381.576H77.4866L73.2306 393H74.6066ZM79.9198 393L84.1758 381.576H82.7998L78.5438 393H79.9198ZM85.2329 393L89.4889 381.576H88.1129L83.8569 393H85.2329ZM90.546 393L94.802 381.576H93.426L89.17 393H90.546ZM95.8591 393L100.115 381.576H98.7391L94.4831 393H95.8591ZM101.172 393L105.428 381.576H104.052L99.7963 393H101.172ZM106.485 393L110.741 381.576H109.365L105.109 393H106.485ZM111.799 393L116.054 381.576H114.678L110.423 393H111.799ZM117.112 393L121.368 381.576H119.992L115.736 393H117.112ZM122.425 393L126.681 381.576H125.305L121.049 393H122.425ZM127.738 393L131.994 381.576H130.618L126.362 393H127.738ZM133.051 393L137.307 381.576H135.931L131.675 393H133.051ZM138.364 393L142.62 381.576H141.244L136.988 393H138.364ZM143.677 393L147.933 381.576H146.557L142.301 393H143.677ZM148.99 393L153.246 381.576H151.87L147.614 393H148.99ZM154.303 393L158.56 381.576H157.184L152.928 393H154.303ZM159.617 393L163.873 381.576H162.497L158.241 393H159.617ZM164.93 393L169.186 381.576H167.81L163.554 393H164.93ZM170.243 393L174.499 381.576H173.123L168.867 393H170.243ZM175.556 393L179.812 381.576H178.436L174.18 393H175.556ZM180.869 393L185.125 381.576H183.749L179.493 393H180.869ZM21.4754 409L25.7314 397.576H24.3554L20.0994 409H21.4754ZM26.7885 409L31.0445 397.576H29.6685L25.4125 409H26.7885ZM32.1016 409L36.3576 397.576H34.9816L30.7256 409H32.1016ZM37.4147 409L41.6707 397.576H40.2948L36.0387 409H37.4147ZM42.7279 409L46.9839 397.576H45.6079L41.3519 409H42.7279ZM48.041 409L52.297 397.576H50.921L46.665 409H48.041ZM53.3541 409L57.6101 397.576H56.2341L51.9781 409H53.3541ZM58.6672 409L62.9232 397.576H61.5472L57.2912 409H58.6672ZM63.9804 409L68.2364 397.576H66.8604L62.6044 409H63.9804ZM69.2935 409L73.5495 397.576H72.1735L67.9175 409H69.2935ZM74.6066 409L78.8626 397.576H77.4866L73.2306 409H74.6066ZM79.9198 409L84.1758 397.576H82.7998L78.5438 409H79.9198ZM85.2329 409L89.4889 397.576H88.1129L83.8569 409H85.2329ZM90.546 409L94.802 397.576H93.426L89.17 409H90.546ZM95.8591 409L100.115 397.576H98.7391L94.4831 409H95.8591ZM101.172 409L105.428 397.576H104.052L99.7963 409H101.172ZM106.485 409L110.741 397.576H109.365L105.109 409H106.485ZM111.799 409L116.054 397.576H114.678L110.423 409H111.799ZM117.112 409L121.368 397.576H119.992L115.736 409H117.112ZM122.425 409L126.681 397.576H125.305L121.049 409H122.425ZM127.738 409L131.994 397.576H130.618L126.362 409H127.738ZM133.051 409L137.307 397.576H135.931L131.675 409H133.051ZM138.364 409L142.62 397.576H141.244L136.988 409H138.364ZM143.677 409L147.933 397.576H146.557L142.301 409H143.677ZM148.99 409L153.246 397.576H151.87L147.614 409H148.99ZM154.303 409L158.56 397.576H157.184L152.928 409H154.303ZM159.617 409L163.873 397.576H162.497L158.241 409H159.617ZM164.93 409L169.186 397.576H167.81L163.554 409H164.93ZM170.243 409L174.499 397.576H173.123L168.867 409H170.243ZM175.556 409L179.812 397.576H178.436L174.18 409H175.556ZM180.869 409L185.125 397.576H183.749L179.493 409H180.869ZM21.4754 427L25.7314 415.576H24.3554L20.0994 427H21.4754ZM26.7885 427L31.0445 415.576H29.6685L25.4125 427H26.7885ZM32.1016 427L36.3576 415.576H34.9816L30.7256 427H32.1016ZM37.4147 427L41.6707 415.576H40.2948L36.0387 427H37.4147ZM42.7279 427L46.9839 415.576H45.6079L41.3519 427H42.7279ZM48.041 427L52.297 415.576H50.921L46.665 427H48.041ZM53.3541 427L57.6101 415.576H56.2341L51.9781 427H53.3541ZM58.6672 427L62.9232 415.576H61.5472L57.2912 427H58.6672ZM63.9804 427L68.2364 415.576H66.8604L62.6044 427H63.9804ZM69.2935 427L73.5495 415.576H72.1735L67.9175 427H69.2935ZM74.6066 427L78.8626 415.576H77.4866L73.2306 427H74.6066ZM79.9198 427L84.1758 415.576H82.7998L78.5438 427H79.9198ZM85.2329 427L89.4889 415.576H88.1129L83.8569 427H85.2329ZM90.546 427L94.802 415.576H93.426L89.17 427H90.546ZM95.8591 427L100.115 415.576H98.7391L94.4831 427H95.8591ZM101.172 427L105.428 415.576H104.052L99.7963 427H101.172ZM106.485 427L110.741 415.576H109.365L105.109 427H106.485ZM111.799 427L116.054 415.576H114.678L110.423 427H111.799ZM117.112 427L121.368 415.576H119.992L115.736 427H117.112ZM122.425 427L126.681 415.576H125.305L121.049 427H122.425ZM127.738 427L131.994 415.576H130.618L126.362 427H127.738ZM133.051 427L137.307 415.576H135.931L131.675 427H133.051ZM138.364 427L142.62 415.576H141.244L136.988 427H138.364ZM143.677 427L147.933 415.576H146.557L142.301 427H143.677ZM148.99 427L153.246 415.576H151.87L147.614 427H148.99ZM154.303 427L158.56 415.576H157.184L152.928 427H154.303ZM159.617 427L163.873 415.576H162.497L158.241 427H159.617ZM164.93 427L169.186 415.576H167.81L163.554 427H164.93ZM170.243 427L174.499 415.576H173.123L168.867 427H170.243ZM175.556 427L179.812 415.576H178.436L174.18 427H175.556ZM180.869 427L185.125 415.576H183.749L179.493 427H180.869ZM21.4754 445L25.7314 433.576H24.3554L20.0994 445H21.4754ZM26.7885 445L31.0445 433.576H29.6685L25.4125 445H26.7885ZM32.1016 445L36.3576 433.576H34.9816L30.7256 445H32.1016ZM37.4147 445L41.6707 433.576H40.2948L36.0387 445H37.4147ZM42.7279 445L46.9839 433.576H45.6079L41.3519 445H42.7279ZM48.041 445L52.297 433.576H50.921L46.665 445H48.041ZM53.3541 445L57.6101 433.576H56.2341L51.9781 445H53.3541ZM58.6672 445L62.9232 433.576H61.5472L57.2912 445H58.6672ZM63.9804 445L68.2364 433.576H66.8604L62.6044 445H63.9804ZM69.2935 445L73.5495 433.576H72.1735L67.9175 445H69.2935ZM74.6066 445L78.8626 433.576H77.4866L73.2306 445H74.6066ZM79.9198 445L84.1758 433.576H82.7998L78.5438 445H79.9198ZM85.2329 445L89.4889 433.576H88.1129L83.8569 445H85.2329ZM90.546 445L94.802 433.576H93.426L89.17 445H90.546ZM95.8591 445L100.115 433.576H98.7391L94.4831 445H95.8591ZM101.172 445L105.428 433.576H104.052L99.7963 445H101.172ZM106.485 445L110.741 433.576H109.365L105.109 445H106.485ZM111.799 445L116.054 433.576H114.678L110.423 445H111.799ZM117.112 445L121.368 433.576H119.992L115.736 445H117.112ZM122.425 445L126.681 433.576H125.305L121.049 445H122.425ZM127.738 445L131.994 433.576H130.618L126.362 445H127.738ZM133.051 445L137.307 433.576H135.931L131.675 445H133.051ZM138.364 445L142.62 433.576H141.244L136.988 445H138.364ZM143.677 445L147.933 433.576H146.557L142.301 445H143.677ZM148.99 445L153.246 433.576H151.87L147.614 445H148.99ZM154.303 445L158.56 433.576H157.184L152.928 445H154.303ZM159.617 445L163.873 433.576H162.497L158.241 445H159.617ZM164.93 445L169.186 433.576H167.81L163.554 445H164.93ZM170.243 445L174.499 433.576H173.123L168.867 445H170.243ZM175.556 445L179.812 433.576H178.436L174.18 445H175.556ZM180.869 445L185.125 433.576H183.749L179.493 445H180.869ZM106.485 463L110.741 451.576H109.365L105.109 463H106.485ZM111.799 463L116.054 451.576H114.678L110.423 463H111.799ZM117.112 463L121.368 451.576H119.992L115.736 463H117.112ZM122.425 463L126.681 451.576H125.305L121.049 463H122.425ZM127.738 463L131.994 451.576H130.618L126.362 463H127.738ZM133.051 463L137.307 451.576H135.931L131.675 463H133.051ZM138.364 463L142.62 451.576H141.244L136.988 463H138.364ZM143.677 463L147.933 451.576H146.557L142.301 463H143.677ZM148.99 463L153.246 451.576H151.87L147.614 463H148.99ZM154.303 463L158.56 451.576H157.184L152.928 463H154.303ZM159.617 463L163.873 451.576H162.497L158.241 463H159.617ZM164.93 463L169.186 451.576H167.81L163.554 463H164.93ZM170.243 463L174.499 451.576H173.123L168.867 463H170.243ZM175.556 463L179.812 451.576H178.436L174.18 463H175.556ZM180.869 463L185.125 451.576H183.749L179.493 463H180.869ZM186.182 463L190.438 451.576H189.062L184.806 463H186.182ZM106.485 481L110.741 469.576H109.365L105.109 481H106.485ZM111.799 481L116.054 469.576H114.678L110.423 481H111.799ZM117.112 481L121.368 469.576H119.992L115.736 481H117.112ZM122.425 481L126.681 469.576H125.305L121.049 481H122.425ZM127.738 481L131.994 469.576H130.618L126.362 481H127.738ZM133.051 481L137.307 469.576H135.931L131.675 481H133.051ZM138.364 481L142.62 469.576H141.244L136.988 481H138.364ZM143.677 481L147.933 469.576H146.557L142.301 481H143.677ZM148.99 481L153.246 469.576H151.87L147.614 481H148.99ZM154.303 481L158.56 469.576H157.184L152.928 481H154.303ZM159.617 481L163.873 469.576H162.497L158.241 481H159.617ZM164.93 481L169.186 469.576H167.81L163.554 481H164.93ZM170.243 481L174.499 469.576H173.123L168.867 481H170.243ZM175.556 481L179.812 469.576H178.436L174.18 481H175.556ZM180.869 481L185.125 469.576H183.749L179.493 481H180.869ZM186.182 481L190.438 469.576H189.062L184.806 481H186.182ZM191.495 481L195.751 469.576H194.375L190.119 481H191.495ZM196.809 481L201.065 469.576H199.689L195.433 481H196.809ZM202.122 481L206.378 469.576H205.002L200.746 481H202.122ZM207.435 481L211.691 469.576H210.315L206.059 481H207.435ZM212.748 481L217.004 469.576H215.628L211.372 481H212.748ZM218.061 481L222.317 469.576H220.941L216.685 481H218.061ZM223.374 481L227.63 469.576H226.254L221.998 481H223.374ZM228.687 481L232.943 469.576H231.567L227.311 481H228.687ZM234 481L238.256 469.576H236.88L232.624 481H234ZM239.313 481L243.57 469.576H242.193L237.938 481H239.313ZM244.627 481L248.883 469.576H247.507L243.251 481H244.627ZM249.94 481L254.196 469.576H252.82L248.564 481H249.94ZM255.253 481L259.509 469.576H258.133L253.877 481H255.253ZM260.566 481L264.822 469.576H263.446L259.19 481H260.566ZM265.879 481L270.135 469.576H268.759L264.503 481H265.879ZM106.485 499L110.741 487.576H109.365L105.109 499H106.485ZM111.799 499L116.054 487.576H114.678L110.423 499H111.799ZM117.112 499L121.368 487.576H119.992L115.736 499H117.112ZM122.425 499L126.681 487.576H125.305L121.049 499H122.425ZM127.738 499L131.994 487.576H130.618L126.362 499H127.738ZM133.051 499L137.307 487.576H135.931L131.675 499H133.051ZM138.364 499L142.62 487.576H141.244L136.988 499H138.364ZM143.677 499L147.933 487.576H146.557L142.301 499H143.677ZM148.99 499L153.246 487.576H151.87L147.614 499H148.99ZM154.303 499L158.56 487.576H157.184L152.928 499H154.303ZM159.617 499L163.873 487.576H162.497L158.241 499H159.617ZM164.93 499L169.186 487.576H167.81L163.554 499H164.93ZM170.243 499L174.499 487.576H173.123L168.867 499H170.243ZM175.556 499L179.812 487.576H178.436L174.18 499H175.556ZM180.869 499L185.125 487.576H183.749L179.493 499H180.869ZM186.182 499L190.438 487.576H189.062L184.806 499H186.182ZM191.495 499L195.751 487.576H194.375L190.119 499H191.495ZM196.809 499L201.065 487.576H199.689L195.433 499H196.809ZM202.122 499L206.378 487.576H205.002L200.746 499H202.122ZM207.435 499L211.691 487.576H210.315L206.059 499H207.435ZM212.748 499L217.004 487.576H215.628L211.372 499H212.748ZM218.061 499L222.317 487.576H220.941L216.685 499H218.061ZM223.374 499L227.63 487.576H226.254L221.998 499H223.374ZM228.687 499L232.943 487.576H231.567L227.311 499H228.687ZM234 499L238.256 487.576H236.88L232.624 499H234ZM239.313 499L243.57 487.576H242.193L237.938 499H239.313ZM244.627 499L248.883 487.576H247.507L243.251 499H244.627ZM249.94 499L254.196 487.576H252.82L248.564 499H249.94ZM255.253 499L259.509 487.576H258.133L253.877 499H255.253ZM260.566 499L264.822 487.576H263.446L259.19 499H260.566ZM265.879 499L270.135 487.576H268.759L264.503 499H265.879ZM106.485 515L110.741 503.576H109.365L105.109 515H106.485ZM111.799 515L116.054 503.576H114.678L110.423 515H111.799ZM117.112 515L121.368 503.576H119.992L115.736 515H117.112ZM122.425 515L126.681 503.576H125.305L121.049 515H122.425ZM127.738 515L131.994 503.576H130.618L126.362 515H127.738ZM133.051 515L137.307 503.576H135.931L131.675 515H133.051ZM138.364 515L142.62 503.576H141.244L136.988 515H138.364ZM143.677 515L147.933 503.576H146.557L142.301 515H143.677ZM148.99 515L153.246 503.576H151.87L147.614 515H148.99ZM154.303 515L158.56 503.576H157.184L152.928 515H154.303ZM159.617 515L163.873 503.576H162.497L158.241 515H159.617ZM164.93 515L169.186 503.576H167.81L163.554 515H164.93ZM170.243 515L174.499 503.576H173.123L168.867 515H170.243ZM175.556 515L179.812 503.576H178.436L174.18 515H175.556ZM180.869 515L185.125 503.576H183.749L179.493 515H180.869ZM186.182 515L190.438 503.576H189.062L184.806 515H186.182ZM191.495 515L195.751 503.576H194.375L190.119 515H191.495ZM196.809 515L201.065 503.576H199.689L195.433 515H196.809ZM202.122 515L206.378 503.576H205.002L200.746 515H202.122ZM207.435 515L211.691 503.576H210.315L206.059 515H207.435ZM212.748 515L217.004 503.576H215.628L211.372 515H212.748ZM218.061 515L222.317 503.576H220.941L216.685 515H218.061ZM223.374 515L227.63 503.576H226.254L221.998 515H223.374ZM228.687 515L232.943 503.576H231.567L227.311 515H228.687ZM234 515L238.256 503.576H236.88L232.624 515H234ZM239.313 515L243.57 503.576H242.193L237.938 515H239.313ZM244.627 515L248.883 503.576H247.507L243.251 515H244.627ZM249.94 515L254.196 503.576H252.82L248.564 515H249.94ZM255.253 515L259.509 503.576H258.133L253.877 515H255.253ZM260.566 515L264.822 503.576H263.446L259.19 515H260.566ZM265.879 515L270.135 503.576H268.759L264.503 515H265.879ZM106.485 531L110.741 519.576H109.365L105.109 531H106.485ZM111.799 531L116.054 519.576H114.678L110.423 531H111.799ZM117.112 531L121.368 519.576H119.992L115.736 531H117.112ZM122.425 531L126.681 519.576H125.305L121.049 531H122.425ZM127.738 531L131.994 519.576H130.618L126.362 531H127.738ZM133.051 531L137.307 519.576H135.931L131.675 531H133.051ZM138.364 531L142.62 519.576H141.244L136.988 531H138.364ZM143.677 531L147.933 519.576H146.557L142.301 531H143.677ZM148.99 531L153.246 519.576H151.87L147.614 531H148.99ZM154.303 531L158.56 519.576H157.184L152.928 531H154.303ZM159.617 531L163.873 519.576H162.497L158.241 531H159.617ZM164.93 531L169.186 519.576H167.81L163.554 531H164.93ZM170.243 531L174.499 519.576H173.123L168.867 531H170.243ZM175.556 531L179.812 519.576H178.436L174.18 531H175.556ZM180.869 531L185.125 519.576H183.749L179.493 531H180.869ZM186.182 531L190.438 519.576H189.062L184.806 531H186.182ZM191.495 531L195.751 519.576H194.375L190.119 531H191.495ZM196.809 531L201.065 519.576H199.689L195.433 531H196.809ZM202.122 531L206.378 519.576H205.002L200.746 531H202.122ZM207.435 531L211.691 519.576H210.315L206.059 531H207.435ZM212.748 531L217.004 519.576H215.628L211.372 531H212.748ZM218.061 531L222.317 519.576H220.941L216.685 531H218.061ZM223.374 531L227.63 519.576H226.254L221.998 531H223.374ZM228.687 531L232.943 519.576H231.567L227.311 531H228.687ZM234 531L238.256 519.576H236.88L232.624 531H234ZM239.313 531L243.57 519.576H242.193L237.938 531H239.313ZM244.627 531L248.883 519.576H247.507L243.251 531H244.627ZM249.94 531L254.196 519.576H252.82L248.564 531H249.94ZM255.253 531L259.509 519.576H258.133L253.877 531H255.253ZM260.566 531L264.822 519.576H263.446L259.19 531H260.566ZM265.879 531L270.135 519.576H268.759L264.503 531H265.879ZM106.485 547L110.741 535.576H109.365L105.109 547H106.485ZM111.799 547L116.054 535.576H114.678L110.423 547H111.799ZM117.112 547L121.368 535.576H119.992L115.736 547H117.112ZM122.425 547L126.681 535.576H125.305L121.049 547H122.425ZM127.738 547L131.994 535.576H130.618L126.362 547H127.738ZM133.051 547L137.307 535.576H135.931L131.675 547H133.051ZM138.364 547L142.62 535.576H141.244L136.988 547H138.364ZM143.677 547L147.933 535.576H146.557L142.301 547H143.677ZM148.99 547L153.246 535.576H151.87L147.614 547H148.99ZM154.303 547L158.56 535.576H157.184L152.928 547H154.303ZM159.617 547L163.873 535.576H162.497L158.241 547H159.617ZM164.93 547L169.186 535.576H167.81L163.554 547H164.93ZM170.243 547L174.499 535.576H173.123L168.867 547H170.243ZM175.556 547L179.812 535.576H178.436L174.18 547H175.556ZM180.869 547L185.125 535.576H183.749L179.493 547H180.869ZM186.182 547L190.438 535.576H189.062L184.806 547H186.182ZM191.495 547L195.751 535.576H194.375L190.119 547H191.495ZM196.809 547L201.065 535.576H199.689L195.433 547H196.809ZM202.122 547L206.378 535.576H205.002L200.746 547H202.122ZM207.435 547L211.691 535.576H210.315L206.059 547H207.435ZM212.748 547L217.004 535.576H215.628L211.372 547H212.748ZM218.061 547L222.317 535.576H220.941L216.685 547H218.061ZM223.374 547L227.63 535.576H226.254L221.998 547H223.374ZM228.687 547L232.943 535.576H231.567L227.311 547H228.687ZM234 547L238.256 535.576H236.88L232.624 547H234ZM239.313 547L243.57 535.576H242.193L237.938 547H239.313ZM244.627 547L248.883 535.576H247.507L243.251 547H244.627ZM249.94 547L254.196 535.576H252.82L248.564 547H249.94ZM255.253 547L259.509 535.576H258.133L253.877 547H255.253ZM260.566 547L264.822 535.576H263.446L259.19 547H260.566ZM265.879 547L270.135 535.576H268.759L264.503 547H265.879ZM106.485 563L110.741 551.576H109.365L105.109 563H106.485ZM111.799 563L116.054 551.576H114.678L110.423 563H111.799ZM117.112 563L121.368 551.576H119.992L115.736 563H117.112ZM122.425 563L126.681 551.576H125.305L121.049 563H122.425ZM127.738 563L131.994 551.576H130.618L126.362 563H127.738ZM133.051 563L137.307 551.576H135.931L131.675 563H133.051ZM138.364 563L142.62 551.576H141.244L136.988 563H138.364ZM143.677 563L147.933 551.576H146.557L142.301 563H143.677ZM148.99 563L153.246 551.576H151.87L147.614 563H148.99ZM154.303 563L158.56 551.576H157.184L152.928 563H154.303ZM159.617 563L163.873 551.576H162.497L158.241 563H159.617ZM164.93 563L169.186 551.576H167.81L163.554 563H164.93ZM170.243 563L174.499 551.576H173.123L168.867 563H170.243ZM175.556 563L179.812 551.576H178.436L174.18 563H175.556ZM180.869 563L185.125 551.576H183.749L179.493 563H180.869ZM186.182 563L190.438 551.576H189.062L184.806 563H186.182ZM191.495 563L195.751 551.576H194.375L190.119 563H191.495ZM196.809 563L201.065 551.576H199.689L195.433 563H196.809ZM202.122 563L206.378 551.576H205.002L200.746 563H202.122ZM207.435 563L211.691 551.576H210.315L206.059 563H207.435ZM212.748 563L217.004 551.576H215.628L211.372 563H212.748ZM218.061 563L222.317 551.576H220.941L216.685 563H218.061ZM223.374 563L227.63 551.576H226.254L221.998 563H223.374ZM228.687 563L232.943 551.576H231.567L227.311 563H228.687ZM234 563L238.256 551.576H236.88L232.624 563H234ZM239.313 563L243.57 551.576H242.193L237.938 563H239.313ZM244.627 563L248.883 551.576H247.507L243.251 563H244.627ZM249.94 563L254.196 551.576H252.82L248.564 563H249.94ZM255.253 563L259.509 551.576H258.133L253.877 563H255.253ZM260.566 563L264.822 551.576H263.446L259.19 563H260.566ZM265.879 563L270.135 551.576H268.759L264.503 563H265.879ZM106.485 579L110.741 567.576H109.365L105.109 579H106.485ZM111.799 579L116.054 567.576H114.678L110.423 579H111.799ZM117.112 579L121.368 567.576H119.992L115.736 579H117.112ZM122.425 579L126.681 567.576H125.305L121.049 579H122.425ZM127.738 579L131.994 567.576H130.618L126.362 579H127.738ZM133.051 579L137.307 567.576H135.931L131.675 579H133.051ZM138.364 579L142.62 567.576H141.244L136.988 579H138.364ZM143.677 579L147.933 567.576H146.557L142.301 579H143.677ZM148.99 579L153.246 567.576H151.87L147.614 579H148.99ZM154.303 579L158.56 567.576H157.184L152.928 579H154.303ZM159.617 579L163.873 567.576H162.497L158.241 579H159.617ZM164.93 579L169.186 567.576H167.81L163.554 579H164.93ZM170.243 579L174.499 567.576H173.123L168.867 579H170.243ZM175.556 579L179.812 567.576H178.436L174.18 579H175.556ZM180.869 579L185.125 567.576H183.749L179.493 579H180.869ZM186.182 579L190.438 567.576H189.062L184.806 579H186.182ZM191.495 579L195.751 567.576H194.375L190.119 579H191.495ZM196.809 579L201.065 567.576H199.689L195.433 579H196.809ZM202.122 579L206.378 567.576H205.002L200.746 579H202.122ZM207.435 579L211.691 567.576H210.315L206.059 579H207.435ZM212.748 579L217.004 567.576H215.628L211.372 579H212.748ZM218.061 579L222.317 567.576H220.941L216.685 579H218.061ZM223.374 579L227.63 567.576H226.254L221.998 579H223.374ZM228.687 579L232.943 567.576H231.567L227.311 579H228.687ZM234 579L238.256 567.576H236.88L232.624 579H234ZM239.313 579L243.57 567.576H242.193L237.938 579H239.313ZM244.627 579L248.883 567.576H247.507L243.251 579H244.627ZM249.94 579L254.196 567.576H252.82L248.564 579H249.94ZM255.253 579L259.509 567.576H258.133L253.877 579H255.253ZM260.566 579L264.822 567.576H263.446L259.19 579H260.566ZM265.879 579L270.135 567.576H268.759L264.503 579H265.879ZM111.799 595L116.054 583.576H114.678L110.423 595H111.799ZM117.112 595L121.368 583.576H119.992L115.736 595H117.112ZM122.425 595L126.681 583.576H125.305L121.049 595H122.425ZM127.738 595L131.994 583.576H130.618L126.362 595H127.738ZM133.051 595L137.307 583.576H135.931L131.675 595H133.051ZM138.364 595L142.62 583.576H141.244L136.988 595H138.364ZM143.677 595L147.933 583.576H146.557L142.301 595H143.677ZM148.99 595L153.246 583.576H151.87L147.614 595H148.99ZM154.303 595L158.56 583.576H157.184L152.928 595H154.303ZM159.617 595L163.873 583.576H162.497L158.241 595H159.617ZM164.93 595L169.186 583.576H167.81L163.554 595H164.93ZM170.243 595L174.499 583.576H173.123L168.867 595H170.243ZM175.556 595L179.812 583.576H178.436L174.18 595H175.556ZM180.869 595L185.125 583.576H183.749L179.493 595H180.869ZM186.182 595L190.438 583.576H189.062L184.806 595H186.182ZM191.495 595L195.751 583.576H194.375L190.119 595H191.495ZM196.809 595L201.065 583.576H199.689L195.433 595H196.809ZM202.122 595L206.378 583.576H205.002L200.746 595H202.122ZM207.435 595L211.691 583.576H210.315L206.059 595H207.435ZM212.748 595L217.004 583.576H215.628L211.372 595H212.748ZM218.061 595L222.317 583.576H220.941L216.685 595H218.061ZM223.374 595L227.63 583.576H226.254L221.998 595H223.374ZM228.687 595L232.943 583.576H231.567L227.311 595H228.687ZM234 595L238.256 583.576H236.88L232.624 595H234ZM239.313 595L243.57 583.576H242.193L237.938 595H239.313ZM244.627 595L248.883 583.576H247.507L243.251 595H244.627ZM249.94 595L254.196 583.576H252.82L248.564 595H249.94ZM255.253 595L259.509 583.576H258.133L253.877 595H255.253ZM260.566 595L264.822 583.576H263.446L259.19 595H260.566ZM265.879 595L270.135 583.576H268.759L264.503 595H265.879Z" fill="#414040"/>
<path fill-rule="evenodd" clip-rule="evenodd" d="M536 318C536 309.716 529.284 303 521 303H382C373.716 303 367 309.716 367 318V439C367 447.284 360.284 454 352 454H294C285.716 454 279 460.716 279 469V584C279 592.284 285.716 599 294 599H521C529.284 599 536 592.284 536 584V454V318Z" fill="#414040"/>
<path fill-rule="evenodd" clip-rule="evenodd" d="M279 202H120C111.716 202 105 208.716 105 217V283C105 291.284 111.716 298 120 298H264C272.284 298 279 304.716 279 313V434C279 442.284 285.716 449 294 449H347C355.284 449 362 442.284 362 434V217C362 208.716 355.284 202 347 202H279Z" fill="#414040"/>
<rect x="192" y="303" width="82" height="146" rx="15" fill="#FF3E1B"/>
<mask id="path-5-inside-1_621_6975" fill="white">
<path fill-rule="evenodd" clip-rule="evenodd" d="M537 67C537 58.7157 530.284 52 522 52H294C285.716 52 279 58.7157 279 67V182C279 190.284 285.716 197 294 197H352C360.284 197 367 203.716 367 212V283C367 291.284 373.716 298 382 298H522C530.284 298 537 291.284 537 283V197V67Z"/>
</mask>
<path fill-rule="evenodd" clip-rule="evenodd" d="M537 67C537 58.7157 530.284 52 522 52H294C285.716 52 279 58.7157 279 67V182C279 190.284 285.716 197 294 197H352C360.284 197 367 203.716 367 212V283C367 291.284 373.716 298 382 298H522C530.284 298 537 291.284 537 283V197V67Z" fill="#212121"/>
<path d="M537.5 197V194.969H536.5V197H537.5ZM537.5 190.906V186.844H536.5V190.906H537.5ZM537.5 182.781V178.719H536.5V182.781H537.5ZM537.5 174.656V170.594H536.5V174.656H537.5ZM537.5 166.531V162.469H536.5V166.531H537.5ZM537.5 158.406V154.344H536.5V158.406H537.5ZM537.5 150.281V146.219H536.5V150.281H537.5ZM537.5 142.156V138.094H536.5V142.156H537.5ZM537.5 134.031V129.969H536.5V134.031H537.5ZM537.5 125.906V121.844H536.5V125.906H537.5ZM537.5 117.781V113.719H536.5V117.781H537.5ZM537.5 109.656V105.594H536.5V109.656H537.5ZM537.5 101.531V97.4688H536.5V101.531H537.5ZM537.5 93.4062V89.3438H536.5V93.4062H537.5ZM537.5 85.2812V81.2188H536.5V85.2812H537.5ZM537.5 77.1562V73.0938H536.5V77.1562H537.5ZM537.5 69.0312V67H536.5V69.0312H537.5ZM537.5 67C537.5 66.3143 537.455 65.6388 537.369 64.9762L536.377 65.1055C536.458 65.7253 536.5 66.3577 536.5 67H537.5ZM536.324 61.0667C535.801 59.8063 535.117 58.63 534.297 57.5636L533.505 58.1729C534.271 59.1708 534.911 60.2712 535.4 61.4497L536.324 61.0667ZM531.436 54.7025C530.37 53.883 529.194 53.199 527.933 52.6763L527.55 53.6001C528.729 54.0888 529.829 54.7286 530.827 55.4955L531.436 54.7025ZM524.024 51.631C523.361 51.5446 522.686 51.5 522 51.5V52.5C522.642 52.5 523.275 52.5417 523.894 52.6226L524.024 51.631ZM522 51.5H520.034V52.5H522V51.5ZM516.103 51.5H512.172V52.5H516.103V51.5ZM508.241 51.5H504.31V52.5H508.241V51.5ZM500.379 51.5H496.448V52.5H500.379V51.5ZM492.517 51.5H488.586V52.5H492.517V51.5ZM484.655 51.5H480.724V52.5H484.655V51.5ZM476.793 51.5H472.862V52.5H476.793V51.5ZM468.931 51.5H465V52.5H468.931V51.5ZM461.069 51.5H457.138V52.5H461.069V51.5ZM453.207 51.5H449.276V52.5H453.207V51.5ZM445.345 51.5H441.414V52.5H445.345V51.5ZM437.483 51.5H433.552V52.5H437.483V51.5ZM429.621 51.5H425.69V52.5H429.621V51.5ZM421.759 51.5H417.828V52.5H421.759V51.5ZM413.897 51.5H409.965V52.5H413.897V51.5ZM406.034 51.5H402.103V52.5H406.034V51.5ZM398.172 51.5H394.241V52.5H398.172V51.5ZM390.31 51.5H386.379V52.5H390.31V51.5ZM382.448 51.5H378.517V52.5H382.448V51.5ZM374.586 51.5H370.655V52.5H374.586V51.5ZM366.724 51.5H362.793V52.5H366.724V51.5ZM358.862 51.5H354.931V52.5H358.862V51.5ZM351 51.5H347.069V52.5H351V51.5ZM343.138 51.5H339.207V52.5H343.138V51.5ZM335.276 51.5H331.345V52.5H335.276V51.5ZM327.414 51.5H323.483V52.5H327.414V51.5ZM319.552 51.5H315.621V52.5H319.552V51.5ZM311.69 51.5H307.759V52.5H311.69V51.5ZM303.828 51.5H299.897V52.5H303.828V51.5ZM295.966 51.5H294V52.5H295.966V51.5ZM294 51.5C293.314 51.5 292.639 51.5446 291.976 51.631L292.106 52.6226C292.725 52.5417 293.358 52.5 294 52.5V51.5ZM288.067 52.6763C286.806 53.199 285.63 53.883 284.564 54.7025L285.173 55.4955C286.171 54.7286 287.271 54.0888 288.45 53.6001L288.067 52.6763ZM281.703 57.5636C280.883 58.63 280.199 59.8063 279.676 61.0667L280.6 61.4497C281.089 60.2712 281.729 59.1708 282.495 58.1729L281.703 57.5636ZM278.631 64.9762C278.545 65.6388 278.5 66.3143 278.5 67H279.5C279.5 66.3577 279.542 65.7253 279.623 65.1055L278.631 64.9762ZM278.5 67V69.0536H279.5V67H278.5ZM278.5 73.1607V77.2679H279.5V73.1607H278.5ZM278.5 81.375V85.4821H279.5V81.375H278.5ZM278.5 89.5893V93.6964H279.5V89.5893H278.5ZM278.5 97.8036V101.911H279.5V97.8036H278.5ZM278.5 106.018V110.125H279.5V106.018H278.5ZM278.5 114.232V118.339H279.5V114.232H278.5ZM278.5 122.446V126.554H279.5V122.446H278.5ZM278.5 130.661V134.768H279.5V130.661H278.5ZM278.5 138.875V142.982H279.5V138.875H278.5ZM278.5 147.089V151.196H279.5V147.089H278.5ZM278.5 155.304V159.411H279.5V155.304H278.5ZM278.5 163.518V167.625H279.5V163.518H278.5ZM278.5 171.732V175.839H279.5V171.732H278.5ZM278.5 179.946V182H279.5V179.946H278.5ZM278.5 182C278.5 182.686 278.545 183.361 278.631 184.024L279.623 183.894C279.542 183.275 279.5 182.642 279.5 182H278.5ZM279.676 187.933C280.199 189.194 280.883 190.37 281.703 191.436L282.495 190.827C281.729 189.829 281.089 188.729 280.6 187.55L279.676 187.933ZM284.564 194.297C285.63 195.117 286.806 195.801 288.067 196.324L288.45 195.4C287.271 194.911 286.171 194.271 285.173 193.505L284.564 194.297ZM291.976 197.369C292.639 197.455 293.314 197.5 294 197.5V196.5C293.358 196.5 292.725 196.458 292.106 196.377L291.976 197.369ZM294 197.5H296.071V196.5H294V197.5ZM300.214 197.5H304.357V196.5H300.214V197.5ZM308.5 197.5H312.643V196.5H308.5V197.5ZM316.786 197.5H320.929V196.5H316.786V197.5ZM325.071 197.5H329.214V196.5H325.071V197.5ZM333.357 197.5H337.5V196.5H333.357V197.5ZM341.643 197.5H345.786V196.5H341.643V197.5ZM349.929 197.5H352V196.5H349.929V197.5ZM352 197.5C352.642 197.5 353.275 197.542 353.894 197.623L354.024 196.631C353.361 196.545 352.686 196.5 352 196.5V197.5ZM357.55 198.6C358.729 199.089 359.829 199.729 360.827 200.495L361.436 199.703C360.37 198.883 359.194 198.199 357.933 197.676L357.55 198.6ZM363.505 203.173C364.271 204.171 364.911 205.271 365.4 206.45L366.324 206.067C365.801 204.806 365.117 203.63 364.297 202.564L363.505 203.173ZM366.377 210.106C366.458 210.725 366.5 211.358 366.5 212H367.5C367.5 211.314 367.455 210.639 367.369 209.976L366.377 210.106ZM366.5 212V213.972H367.5V212H366.5ZM366.5 217.917V221.861H367.5V217.917H366.5ZM366.5 225.806V229.75H367.5V225.806H366.5ZM366.5 233.694V237.639H367.5V233.694H366.5ZM366.5 241.583V245.528H367.5V241.583H366.5ZM366.5 249.472V253.417H367.5V249.472H366.5ZM366.5 257.361V261.306H367.5V257.361H366.5ZM366.5 265.25V269.194H367.5V265.25H366.5ZM366.5 273.139V277.083H367.5V273.139H366.5ZM366.5 281.028V283H367.5V281.028H366.5ZM366.5 283C366.5 283.686 366.545 284.361 366.631 285.024L367.623 284.894C367.542 284.275 367.5 283.642 367.5 283H366.5ZM367.676 288.933C368.199 290.194 368.883 291.37 369.703 292.436L370.495 291.827C369.729 290.829 369.089 289.729 368.6 288.55L367.676 288.933ZM372.564 295.297C373.63 296.117 374.806 296.801 376.067 297.324L376.45 296.4C375.271 295.911 374.171 295.271 373.173 294.505L372.564 295.297ZM379.976 298.369C380.639 298.455 381.314 298.5 382 298.5V297.5C381.358 297.5 380.725 297.458 380.106 297.377L379.976 298.369ZM382 298.5H383.944V297.5H382V298.5ZM387.833 298.5H391.722V297.5H387.833V298.5ZM395.611 298.5H399.5V297.5H395.611V298.5ZM403.389 298.5H407.278V297.5H403.389V298.5ZM411.167 298.5H415.056V297.5H411.167V298.5ZM418.944 298.5H422.833V297.5H418.944V298.5ZM426.722 298.5H430.611V297.5H426.722V298.5ZM434.5 298.5H438.389V297.5H434.5V298.5ZM442.278 298.5H446.167V297.5H442.278V298.5ZM450.056 298.5H453.944V297.5H450.056V298.5ZM457.833 298.5H461.722V297.5H457.833V298.5ZM465.611 298.5H469.5V297.5H465.611V298.5ZM473.389 298.5H477.278V297.5H473.389V298.5ZM481.167 298.5H485.056V297.5H481.167V298.5ZM488.944 298.5H492.833V297.5H488.944V298.5ZM496.722 298.5H500.611V297.5H496.722V298.5ZM504.5 298.5H508.389V297.5H504.5V298.5ZM512.278 298.5H516.167V297.5H512.278V298.5ZM520.055 298.5H522V297.5H520.055V298.5ZM522 298.5C522.686 298.5 523.361 298.455 524.024 298.369L523.894 297.377C523.275 297.458 522.642 297.5 522 297.5V298.5ZM527.933 297.324C529.194 296.801 530.37 296.117 531.436 295.297L530.827 294.505C529.829 295.271 528.729 295.911 527.55 296.4L527.933 297.324ZM534.297 292.436C535.117 291.37 535.801 290.194 536.324 288.933L535.4 288.55C534.911 289.729 534.271 290.829 533.505 291.827L534.297 292.436ZM537.369 285.024C537.455 284.361 537.5 283.686 537.5 283H536.5C536.5 283.642 536.458 284.275 536.377 284.894L537.369 285.024ZM537.5 283V281.045H536.5V283H537.5ZM537.5 277.136V273.227H536.5V277.136H537.5ZM537.5 269.318V265.409H536.5V269.318H537.5ZM537.5 261.5V257.591H536.5V261.5H537.5ZM537.5 253.682V249.773H536.5V253.682H537.5ZM537.5 245.864V241.955H536.5V245.864H537.5ZM537.5 238.045V234.136H536.5V238.045H537.5ZM537.5 230.227V226.318H536.5V230.227H537.5ZM537.5 222.409V218.5H536.5V222.409H537.5ZM537.5 214.591V210.682H536.5V214.591H537.5ZM537.5 206.773V202.864H536.5V206.773H537.5ZM537.5 198.955V197H536.5V198.955H537.5ZM538 197V194.969H536V197H538ZM538 190.906V186.844H536V190.906H538ZM538 182.781V178.719H536V182.781H538ZM538 174.656V170.594H536V174.656H538ZM538 166.531V162.469H536V166.531H538ZM538 158.406V154.344H536V158.406H538ZM538 150.281V146.219H536V150.281H538ZM538 142.156V138.094H536V142.156H538ZM538 134.031V129.969H536V134.031H538ZM538 125.906V121.844H536V125.906H538ZM538 117.781V113.719H536V117.781H538ZM538 109.656V105.594H536V109.656H538ZM538 101.531V97.4688H536V101.531H538ZM538 93.4062V89.3438H536V93.4062H538ZM538 85.2812V81.2188H536V85.2812H538ZM538 77.1562V73.0938H536V77.1562H538ZM538 69.0312V67H536V69.0312H538ZM538 67C538 66.2926 537.954 65.5955 537.865 64.9115L535.882 65.1702C535.96 65.7686 536 66.3794 536 67H538ZM536.786 60.8751C536.246 59.5738 535.54 58.3596 534.694 57.2589L533.108 58.4776C533.849 59.4412 534.466 60.5036 534.938 61.6412L536.786 60.8751ZM531.741 54.3061C530.64 53.4603 529.426 52.7541 528.125 52.2145L527.359 54.0619C528.496 54.5337 529.559 55.1514 530.522 55.8919L531.741 54.3061ZM524.088 51.1352C523.404 51.046 522.707 51 522 51V53C522.621 53 523.231 53.0403 523.83 53.1184L524.088 51.1352ZM522 51H520.034V53H522V51ZM516.103 51H512.172V53H516.103V51ZM508.241 51H504.31V53H508.241V51ZM500.379 51H496.448V53H500.379V51ZM492.517 51H488.586V53H492.517V51ZM484.655 51H480.724V53H484.655V51ZM476.793 51H472.862V53H476.793V51ZM468.931 51H465V53H468.931V51ZM461.069 51H457.138V53H461.069V51ZM453.207 51H449.276V53H453.207V51ZM445.345 51H441.414V53H445.345V51ZM437.483 51H433.552V53H437.483V51ZM429.621 51H425.69V53H429.621V51ZM421.759 51H417.828V53H421.759V51ZM413.897 51H409.965V53H413.897V51ZM406.034 51H402.103V53H406.034V51ZM398.172 51H394.241V53H398.172V51ZM390.31 51H386.379V53H390.31V51ZM382.448 51H378.517V53H382.448V51ZM374.586 51H370.655V53H374.586V51ZM366.724 51H362.793V53H366.724V51ZM358.862 51H354.931V53H358.862V51ZM351 51H347.069V53H351V51ZM343.138 51H339.207V53H343.138V51ZM335.276 51H331.345V53H335.276V51ZM327.414 51H323.483V53H327.414V51ZM319.552 51H315.621V53H319.552V51ZM311.69 51H307.759V53H311.69V51ZM303.828 51H299.897V53H303.828V51ZM295.966 51H294V53H295.966V51ZM294 51C293.293 51 292.595 51.046 291.912 51.1352L292.17 53.1184C292.769 53.0403 293.379 53 294 53V51ZM287.875 52.2145C286.574 52.7541 285.36 53.4603 284.259 54.3061L285.478 55.8919C286.441 55.1514 287.504 54.5337 288.641 54.0619L287.875 52.2145ZM281.306 57.2589C280.46 58.3596 279.754 59.5738 279.214 60.8751L281.062 61.6412C281.534 60.5036 282.151 59.4412 282.892 58.4776L281.306 57.2589ZM278.135 64.9115C278.046 65.5955 278 66.2926 278 67H280C280 66.3794 280.04 65.7686 280.118 65.1702L278.135 64.9115ZM278 67V69.0536H280V67H278ZM278 73.1607V77.2679H280V73.1607H278ZM278 81.375V85.4821H280V81.375H278ZM278 89.5893V93.6964H280V89.5893H278ZM278 97.8036V101.911H280V97.8036H278ZM278 106.018V110.125H280V106.018H278ZM278 114.232V118.339H280V114.232H278ZM278 122.446V126.554H280V122.446H278ZM278 130.661V134.768H280V130.661H278ZM278 138.875V142.982H280V138.875H278ZM278 147.089V151.196H280V147.089H278ZM278 155.304V159.411H280V155.304H278ZM278 163.518V167.625H280V163.518H278ZM278 171.732V175.839H280V171.732H278ZM278 179.946V182H280V179.946H278ZM278 182C278 182.707 278.046 183.405 278.135 184.088L280.118 183.83C280.04 183.231 280 182.621 280 182H278ZM279.214 188.125C279.754 189.426 280.46 190.64 281.306 191.741L282.892 190.522C282.151 189.559 281.534 188.496 281.062 187.359L279.214 188.125ZM284.259 194.694C285.36 195.54 286.574 196.246 287.875 196.786L288.641 194.938C287.504 194.466 286.441 193.849 285.478 193.108L284.259 194.694ZM291.912 197.865C292.595 197.954 293.293 198 294 198V196C293.379 196 292.769 195.96 292.17 195.882L291.912 197.865ZM294 198H296.071V196H294V198ZM300.214 198H304.357V196H300.214V198ZM308.5 198H312.643V196H308.5V198ZM316.786 198H320.929V196H316.786V198ZM325.071 198H329.214V196H325.071V198ZM333.357 198H337.5V196H333.357V198ZM341.643 198H345.786V196H341.643V198ZM349.929 198H352V196H349.929V198ZM352 198C352.621 198 353.231 198.04 353.83 198.118L354.088 196.135C353.405 196.046 352.707 196 352 196V198ZM357.359 199.062C358.496 199.534 359.559 200.151 360.522 200.892L361.741 199.306C360.64 198.46 359.426 197.754 358.125 197.214L357.359 199.062ZM363.108 203.478C363.849 204.441 364.466 205.504 364.938 206.641L366.786 205.875C366.246 204.574 365.54 203.36 364.694 202.259L363.108 203.478ZM365.882 210.17C365.96 210.769 366 211.379 366 212H368C368 211.293 367.954 210.595 367.865 209.912L365.882 210.17ZM366 212V213.972H368V212H366ZM366 217.917V221.861H368V217.917H366ZM366 225.806V229.75H368V225.806H366ZM366 233.694V237.639H368V233.694H366ZM366 241.583V245.528H368V241.583H366ZM366 249.472V253.417H368V249.472H366ZM366 257.361V261.306H368V257.361H366ZM366 265.25V269.194H368V265.25H366ZM366 273.139V277.083H368V273.139H366ZM366 281.028V283H368V281.028H366ZM366 283C366 283.707 366.046 284.405 366.135 285.088L368.118 284.83C368.04 284.231 368 283.621 368 283H366ZM367.214 289.125C367.754 290.426 368.46 291.64 369.306 292.741L370.892 291.522C370.151 290.559 369.534 289.496 369.062 288.359L367.214 289.125ZM372.259 295.694C373.36 296.54 374.574 297.246 375.875 297.786L376.641 295.938C375.504 295.466 374.441 294.849 373.478 294.108L372.259 295.694ZM379.912 298.865C380.595 298.954 381.293 299 382 299V297C381.379 297 380.769 296.96 380.17 296.882L379.912 298.865ZM382 299H383.944V297H382V299ZM387.833 299H391.722V297H387.833V299ZM395.611 299H399.5V297H395.611V299ZM403.389 299H407.278V297H403.389V299ZM411.167 299H415.056V297H411.167V299ZM418.944 299H422.833V297H418.944V299ZM426.722 299H430.611V297H426.722V299ZM434.5 299H438.389V297H434.5V299ZM442.278 299H446.167V297H442.278V299ZM450.056 299H453.944V297H450.056V299ZM457.833 299H461.722V297H457.833V299ZM465.611 299H469.5V297H465.611V299ZM473.389 299H477.278V297H473.389V299ZM481.167 299H485.056V297H481.167V299ZM488.944 299H492.833V297H488.944V299ZM496.722 299H500.611V297H496.722V299ZM504.5 299H508.389V297H504.5V299ZM512.278 299H516.167V297H512.278V299ZM520.055 299H522V297H520.055V299ZM522 299C522.707 299 523.405 298.954 524.088 298.865L523.83 296.882C523.231 296.96 522.621 297 522 297V299ZM528.125 297.786C529.426 297.246 530.64 296.54 531.741 295.694L530.522 294.108C529.559 294.849 528.496 295.466 527.359 295.938L528.125 297.786ZM534.694 292.741C535.54 291.64 536.246 290.426 536.786 289.125L534.938 288.359C534.466 289.496 533.849 290.559 533.108 291.522L534.694 292.741ZM537.865 285.088C537.954 284.405 538 283.707 538 283H536C536 283.621 535.96 284.231 535.882 284.83L537.865 285.088ZM538 283V281.045H536V283H538ZM538 277.136V273.227H536V277.136H538ZM538 269.318V265.409H536V269.318H538ZM538 261.5V257.591H536V261.5H538ZM538 253.682V249.773H536V253.682H538ZM538 245.864V241.955H536V245.864H538ZM538 238.045V234.136H536V238.045H538ZM538 230.227V226.318H536V230.227H538ZM538 222.409V218.5H536V222.409H538ZM538 214.591V210.682H536V214.591H538ZM538 206.773V202.864H536V206.773H538ZM538 198.955V197H536V198.955H538Z" fill="#F6F6F6" fill-opacity="0.5" mask="url(#path-5-inside-1_621_6975)"/>
<path d="M96 228V195H131" stroke="#FF3E1B"/>
<path d="M88.5 594V467H1V356.5" stroke="#FF3E1B"/>
<path d="M289.68 35.024L289.184 37.584H291.376V38.656H288.976L288.32 42H287.184L287.84 38.656H285.552L284.928 42H283.808L284.416 38.656H282.4V37.584H284.624L285.136 35.024H282.992V33.968H285.328L285.968 30.576H287.12L286.48 33.968H288.784L289.424 30.576H290.528L289.888 33.968H291.92V35.024H289.68ZM285.76 37.584H288.048L288.544 35.024H286.256L285.76 37.584ZM300.024 35.024L299.528 37.584H301.72V38.656H299.32L298.664 42H297.528L298.184 38.656H295.896L295.272 42H294.152L294.76 38.656H292.744V37.584H294.968L295.48 35.024H293.336V33.968H295.672L296.312 30.576H297.464L296.824 33.968H299.128L299.768 30.576H300.872L300.232 33.968H302.264V35.024H300.024ZM296.104 37.584H298.392L298.888 35.024H296.6L296.104 37.584ZM310.368 35.024L309.872 37.584H312.064V38.656H309.664L309.008 42H307.872L308.528 38.656H306.24L305.616 42H304.496L305.104 38.656H303.088V37.584H305.312L305.824 35.024H303.68V33.968H306.016L306.656 30.576H307.808L307.168 33.968H309.472L310.112 30.576H311.216L310.576 33.968H312.608V35.024H310.368ZM306.448 37.584H308.736L309.232 35.024H306.944L306.448 37.584Z" fill="#FF3E1B"/>
<path d="M67.568 288.528C66.9173 288.517 66.352 288.421 65.872 288.24C65.4027 288.059 65.04 287.776 64.784 287.392C64.528 287.019 64.4 286.549 64.4 285.984V283.632C64.4 283.269 64.3253 282.981 64.176 282.768C64.0267 282.544 63.808 282.384 63.52 282.288C63.232 282.181 62.8747 282.128 62.448 282.128V280.96C62.8747 280.949 63.232 280.896 63.52 280.8C63.808 280.704 64.0267 280.549 64.176 280.336C64.3253 280.112 64.4 279.824 64.4 279.472V277.104C64.4 276.677 64.4747 276.309 64.624 276C64.784 275.68 65.0027 275.419 65.28 275.216C65.568 275.003 65.904 274.843 66.288 274.736C66.672 274.629 67.0987 274.576 67.568 274.576V275.728C67.2053 275.739 66.8907 275.797 66.624 275.904C66.3573 276.011 66.1493 276.171 66 276.384C65.8613 276.597 65.792 276.88 65.792 277.232V279.536C65.792 280.08 65.648 280.517 65.36 280.848C65.072 281.168 64.6347 281.381 64.048 281.488V281.584C64.6453 281.691 65.0827 281.909 65.36 282.24C65.648 282.56 65.792 282.992 65.792 283.536V285.888C65.792 286.229 65.8613 286.507 66 286.72C66.1387 286.944 66.3413 287.104 66.608 287.2C66.8747 287.307 67.1947 287.365 67.568 287.376V288.528ZM73.8701 274.576L69.6141 286H68.2381L72.4941 274.576H73.8701ZM79.1833 273.84L78.8633 276.912L81.9353 276.048L82.1593 277.52L79.2153 277.76L81.1193 280.288L79.7433 281.04L78.3833 278.24L77.1513 281.04L75.7273 280.288L77.5993 277.76L74.6873 277.52L74.9113 276.048L77.9513 276.912L77.6153 273.84H79.1833ZM83.3558 287.376C83.7291 287.365 84.0438 287.307 84.2998 287.2C84.5664 287.093 84.7691 286.928 84.9078 286.704C85.0571 286.491 85.1318 286.213 85.1318 285.872V283.552C85.1318 283.008 85.2758 282.576 85.5638 282.256C85.8518 281.925 86.2891 281.707 86.8758 281.6V281.504C86.2891 281.397 85.8518 281.184 85.5638 280.864C85.2758 280.533 85.1318 280.096 85.1318 279.552V277.216C85.1318 276.864 85.0624 276.581 84.9238 276.368C84.7851 276.155 84.5824 275.995 84.3158 275.888C84.0598 275.781 83.7398 275.728 83.3558 275.728V274.576C83.8464 274.576 84.2838 274.629 84.6678 274.736C85.0624 274.843 85.3984 275.003 85.6758 275.216C85.9531 275.419 86.1611 275.68 86.2998 276C86.4491 276.32 86.5238 276.693 86.5238 277.12V279.456C86.5238 279.819 86.5984 280.112 86.7478 280.336C86.8971 280.549 87.1158 280.709 87.4038 280.816C87.7024 280.912 88.0598 280.96 88.4758 280.96V282.128C88.0598 282.128 87.7024 282.181 87.4038 282.288C87.1158 282.384 86.8971 282.539 86.7478 282.752C86.5984 282.965 86.5238 283.253 86.5238 283.616V286C86.5238 286.565 86.3904 287.035 86.1238 287.408C85.8571 287.781 85.4838 288.059 85.0038 288.24C84.5344 288.432 83.9851 288.528 83.3558 288.528V287.376Z" fill="#FF3E1B"/>
<path d="M536 0V39H403" stroke="#FF3E1B"/>
</svg>
