<svg width="525" height="405" viewBox="0 0 525 405" fill="none" xmlns="http://www.w3.org/2000/svg">
<path fill-rule="evenodd" clip-rule="evenodd" d="M167.88 172C167.88 163.716 174.596 157 182.88 157H208.851H248.822H326.756C335.04 157 341.756 163.716 341.756 172V279C341.756 287.284 335.04 294 326.756 294H263.822C255.538 294 248.822 300.716 248.822 309V390C248.822 398.284 242.107 405 233.822 405H173.876H167.88H15C6.71573 405 0 398.284 0 390V315C0 306.716 6.71571 300 15 300H152.88C161.164 300 167.88 293.284 167.88 285V172Z" fill="#212121"/>
<path d="M439.259 40.528C438.608 40.5173 438.043 40.4213 437.563 40.24C437.093 40.0587 436.731 39.776 436.475 39.392C436.219 39.0187 436.091 38.5493 436.091 37.984V35.632C436.091 35.2693 436.016 34.9813 435.867 34.768C435.717 34.544 435.499 34.384 435.211 34.288C434.923 34.1813 434.565 34.128 434.139 34.128V32.96C434.565 32.9493 434.923 32.896 435.211 32.8C435.499 32.704 435.717 32.5493 435.867 32.336C436.016 32.112 436.091 31.824 436.091 31.472V29.104C436.091 28.6773 436.165 28.3093 436.315 28C436.475 27.68 436.693 27.4187 436.971 27.216C437.259 27.0027 437.595 26.8427 437.979 26.736C438.363 26.6293 438.789 26.576 439.259 26.576V27.728C438.896 27.7387 438.581 27.7973 438.315 27.904C438.048 28.0107 437.84 28.1707 437.691 28.384C437.552 28.5973 437.483 28.88 437.483 29.232V31.536C437.483 32.08 437.339 32.5173 437.051 32.848C436.763 33.168 436.325 33.3813 435.739 33.488V33.584C436.336 33.6907 436.773 33.9093 437.051 34.24C437.339 34.56 437.483 34.992 437.483 35.536V37.888C437.483 38.2293 437.552 38.5067 437.691 38.72C437.829 38.944 438.032 39.104 438.299 39.2C438.565 39.3067 438.885 39.3653 439.259 39.376V40.528ZM440.281 39.376C440.654 39.3653 440.969 39.3067 441.225 39.2C441.491 39.0933 441.694 38.928 441.833 38.704C441.982 38.4907 442.057 38.2133 442.057 37.872V35.552C442.057 35.008 442.201 34.576 442.489 34.256C442.777 33.9253 443.214 33.7067 443.801 33.6V33.504C443.214 33.3973 442.777 33.184 442.489 32.864C442.201 32.5333 442.057 32.096 442.057 31.552V29.216C442.057 28.864 441.987 28.5813 441.849 28.368C441.71 28.1547 441.507 27.9947 441.241 27.888C440.985 27.7813 440.665 27.728 440.281 27.728V26.576C440.771 26.576 441.209 26.6293 441.593 26.736C441.987 26.8427 442.323 27.0027 442.601 27.216C442.878 27.4187 443.086 27.68 443.225 28C443.374 28.32 443.449 28.6933 443.449 29.12V31.456C443.449 31.8187 443.523 32.112 443.673 32.336C443.822 32.5493 444.041 32.7093 444.329 32.816C444.627 32.912 444.985 32.96 445.401 32.96V34.128C444.985 34.128 444.627 34.1813 444.329 34.288C444.041 34.384 443.822 34.5387 443.673 34.752C443.523 34.9653 443.449 35.2533 443.449 35.616V38C443.449 38.5653 443.315 39.0347 443.049 39.408C442.782 39.7813 442.409 40.0587 441.929 40.24C441.459 40.432 440.91 40.528 440.281 40.528V39.376Z" fill="#FF3E1B"/>
<rect x="169.879" width="81.9415" height="64" rx="15" fill="#FF3E1B"/>
<path d="M444.683 60L444.683 284" stroke="#FF3E1B" stroke-linecap="round"/>
<path d="M161.884 187.5V150H203.855" stroke="#FF3E1B"/>
<path d="M272.531 57C263.852 57 256.817 64.0404 256.817 72.7251V133.529C256.817 142.213 263.852 149.254 272.531 149.254H332.243C340.922 149.254 347.957 156.294 347.957 164.979V182.801C347.957 191.485 354.993 198.526 363.671 198.526H419.193C427.872 198.526 434.907 191.485 434.907 182.801V72.7251C434.907 64.0404 427.872 57 419.193 57H272.531Z" fill="#414040"/>
<path d="M433.86 219.492C433.86 210.808 426.824 203.767 418.146 203.767H363.671C354.993 203.767 347.957 210.808 347.957 219.492V285.538C347.957 294.223 340.922 301.263 332.243 301.263H272.531C263.852 301.263 256.817 308.303 256.817 316.988V388.275C256.817 396.96 263.852 404 272.531 404H509.286C517.965 404 525 396.96 525 388.275V316.988C525 308.303 517.965 301.263 509.286 301.263H449.573C440.895 301.263 433.86 294.223 433.86 285.538V219.492Z" fill="#414040"/>
</svg>
