<svg width="356" height="228" viewBox="0 0 356 228" fill="none" xmlns="http://www.w3.org/2000/svg">
<path d="M264 14V41H246" stroke="#FF3E1B" stroke-width="0.8"/>
<path d="M210.344 46.432L207.152 55H206.12L209.312 46.432H210.344ZM214.809 46.432L211.617 55H210.585L213.777 46.432H214.809Z" fill="#FF3E1B"/>
<path d="M60.648 103.896H57.96V93.432H60.648V94.296H58.992V103.032H60.648V103.896ZM65.2932 93.432L62.1012 102H61.0692L64.2612 93.432H65.2932ZM69.2781 92.88L69.0381 95.184L71.3421 94.536L71.5101 95.64L69.3021 95.82L70.7301 97.716L69.6981 98.28L68.6781 96.18L67.7541 98.28L66.6861 97.716L68.0901 95.82L65.9061 95.64L66.0741 94.536L68.3541 95.184L68.1021 92.88H69.2781ZM72.3234 103.032H73.9794V94.296H72.3234V93.432H75.0114V103.896H72.3234V103.032Z" fill="#FF3E1B"/>
<path d="M337.76 6.768L337.388 8.688H339.032V9.492H337.232L336.74 12H335.888L336.38 9.492H334.664L334.196 12H333.356L333.812 9.492H332.3V8.688H333.968L334.352 6.768H332.744V5.976H334.496L334.976 3.432H335.84L335.36 5.976H337.088L337.568 3.432H338.396L337.916 5.976H339.44V6.768H337.76ZM334.82 8.688H336.536L336.908 6.768H335.192L334.82 8.688ZM345.518 6.768L345.146 8.688H346.79V9.492H344.99L344.498 12H343.646L344.138 9.492H342.422L341.954 12H341.114L341.57 9.492H340.058V8.688H341.726L342.11 6.768H340.502V5.976H342.254L342.734 3.432H343.598L343.118 5.976H344.846L345.326 3.432H346.154L345.674 5.976H347.198V6.768H345.518ZM342.578 8.688H344.294L344.666 6.768H342.95L342.578 8.688ZM353.276 6.768L352.904 8.688H354.548V9.492H352.748L352.256 12H351.404L351.896 9.492H350.18L349.712 12H348.872L349.328 9.492H347.816V8.688H349.484L349.868 6.768H348.26V5.976H350.012L350.492 3.432H351.356L350.876 5.976H352.604L353.084 3.432H353.912L353.432 5.976H354.956V6.768H353.276ZM350.336 8.688H352.052L352.424 6.768H350.708L350.336 8.688Z" fill="#FF3E1B"/>
<path d="M1 88V1H123" stroke="#FF3E1B" stroke-width="0.8"/>
<rect x="269.209" y="26" width="86.7878" height="129.936" rx="10" fill="#414040"/>
<path fill-rule="evenodd" clip-rule="evenodd" d="M177.49 64.2456H100.252C94.7296 64.2456 90.2524 68.7228 90.2524 74.2456V145.908C90.2524 151.431 94.7296 155.908 100.252 155.908H167.497C173.02 155.908 177.497 151.431 177.497 145.908V118.825C177.497 113.302 181.974 108.825 187.497 108.825H209.107C214.63 108.825 219.107 104.348 219.107 98.8247V74.2456C219.107 68.7228 214.63 64.2456 209.107 64.2456H177.497H177.49Z" fill="#414040"/>
<path fill-rule="evenodd" clip-rule="evenodd" d="M266.256 121.327C266.256 115.804 261.778 111.327 256.256 111.327H189.512C183.989 111.327 179.512 115.804 179.512 121.327V155.905V155.906V216.531C179.512 222.053 183.989 226.531 189.512 226.531H212.132C217.655 226.531 222.132 222.053 222.132 216.531V165.906C222.132 160.383 226.609 155.906 232.132 155.906H256.256C261.778 155.906 266.256 151.429 266.256 145.906V121.327Z" fill="#414040"/>
<mask id="path-9-inside-1_2022_335" fill="white">
<path fill-rule="evenodd" clip-rule="evenodd" d="M87.7433 121.327C87.7433 115.804 83.2662 111.327 77.7433 111.327H11C5.47715 111.327 1 115.804 1 121.327V158.411V165.423V216.532C1 222.055 5.47715 226.532 11 226.532H166.994C172.517 226.532 176.994 222.055 176.994 216.532V168.411C176.994 162.888 172.517 158.411 166.994 158.411H97.7433C92.2205 158.411 87.7433 153.934 87.7433 148.411V121.327Z"/>
</mask>
<path fill-rule="evenodd" clip-rule="evenodd" d="M87.7433 121.327C87.7433 115.804 83.2662 111.327 77.7433 111.327H11C5.47715 111.327 1 115.804 1 121.327V158.411V165.423V216.532C1 222.055 5.47715 226.532 11 226.532H166.994C172.517 226.532 176.994 222.055 176.994 216.532V168.411C176.994 162.888 172.517 158.411 166.994 158.411H97.7433C92.2205 158.411 87.7433 153.934 87.7433 148.411V121.327Z" fill="#414040"/>
<path d="M1.5 158.411V156.557H0.5V158.411H1.5ZM1.5 152.848V149.14H0.5V152.848H1.5ZM1.5 145.432V141.723H0.5V145.432H1.5ZM1.5 138.015V134.306H0.5V138.015H1.5ZM1.5 130.598V126.89H0.5V130.598H1.5ZM1.5 123.181V121.327H0.5V123.181H1.5ZM1.5 121.327C1.5 120.692 1.56225 120.072 1.68083 119.473L0.699847 119.278C0.568687 119.941 0.5 120.627 0.5 121.327H1.5ZM3.09983 116.049C3.79355 115.013 4.6858 114.121 5.722 113.427L5.16568 112.596C4.02086 113.362 3.0353 114.348 2.26886 115.493L3.09983 116.049ZM9.14542 112.008C9.74483 111.889 10.3649 111.827 11 111.827V110.827C10.2994 110.827 9.61434 110.896 8.95135 111.027L9.14542 112.008ZM11 111.827H13.0857V110.827H11V111.827ZM17.2572 111.827H21.4286V110.827H17.2572V111.827ZM25.6001 111.827H29.7716V110.827H25.6001V111.827ZM33.943 111.827H38.1145V110.827H33.943V111.827ZM42.2859 111.827H46.4574V110.827H42.2859V111.827ZM50.6289 111.827H54.8003V110.827H50.6289V111.827ZM58.9718 111.827H63.1432V110.827H58.9718V111.827ZM67.3147 111.827H71.4862V110.827H67.3147V111.827ZM75.6576 111.827H77.7433V110.827H75.6576V111.827ZM77.7433 111.827C78.3784 111.827 78.9985 111.889 79.5979 112.008L79.792 111.027C79.129 110.896 78.4439 110.827 77.7433 110.827V111.827ZM83.0213 113.427C84.0575 114.121 84.9498 115.013 85.6435 116.049L86.4745 115.493C85.708 114.348 84.7225 113.362 83.5777 112.596L83.0213 113.427ZM87.0625 119.473C87.1811 120.072 87.2433 120.692 87.2433 121.327H88.2433C88.2433 120.627 88.1746 119.941 88.0435 119.278L87.0625 119.473ZM87.2433 121.327V123.584H88.2433V121.327H87.2433ZM87.2433 128.098V132.612H88.2433V128.098H87.2433ZM87.2433 137.126V141.64H88.2433V137.126H87.2433ZM87.2433 146.154V148.411H88.2433V146.154H87.2433ZM87.2433 148.411C87.2433 149.111 87.312 149.797 87.4432 150.46L88.4242 150.265C88.3056 149.666 88.2433 149.046 88.2433 148.411H87.2433ZM89.0122 154.245C89.7786 155.39 90.7642 156.376 91.909 157.142L92.4653 156.311C91.4291 155.617 90.5369 154.725 89.8432 153.689L89.0122 154.245ZM95.6947 158.711C96.3577 158.842 97.0427 158.911 97.7433 158.911V157.911C97.1082 157.911 96.4882 157.849 95.8887 157.73L95.6947 158.711ZM97.7433 158.911H99.6669V157.911H97.7433V158.911ZM103.514 158.911H107.361V157.911H103.514V158.911ZM111.209 158.911H115.056V157.911H111.209V158.911ZM118.903 158.911H122.75V157.911H118.903V158.911ZM126.598 158.911H130.445V157.911H126.598V158.911ZM134.292 158.911H138.139V157.911H134.292V158.911ZM141.987 158.911H145.834V157.911H141.987V158.911ZM149.681 158.911H153.528V157.911H149.681V158.911ZM157.376 158.911H161.223V157.911H157.376V158.911ZM165.07 158.911H166.994V157.911H165.07V158.911ZM166.994 158.911C167.629 158.911 168.249 158.973 168.848 159.092L169.042 158.111C168.379 157.98 167.694 157.911 166.994 157.911V158.911ZM172.272 160.511C173.308 161.204 174.2 162.097 174.894 163.133L175.725 162.577C174.958 161.432 173.973 160.446 172.828 159.68L172.272 160.511ZM176.313 166.556C176.431 167.156 176.494 167.776 176.494 168.411H177.494C177.494 167.71 177.425 167.025 177.294 166.362L176.313 166.556ZM176.494 168.411V170.416H177.494V168.411H176.494ZM176.494 174.426V178.436H177.494V174.426H176.494ZM176.494 182.446V186.456H177.494V182.446H176.494ZM176.494 190.466V194.476H177.494V190.466H176.494ZM176.494 198.486V202.496H177.494V198.486H176.494ZM176.494 206.507V210.517H177.494V206.507H176.494ZM176.494 214.527V216.532H177.494V214.527H176.494ZM176.494 216.532C176.494 217.167 176.431 217.787 176.313 218.386L177.294 218.58C177.425 217.917 177.494 217.232 177.494 216.532H176.494ZM174.894 221.81C174.2 222.846 173.308 223.738 172.272 224.432L172.828 225.263C173.973 224.496 174.958 223.511 175.725 222.366L174.894 221.81ZM168.848 225.851C168.249 225.969 167.629 226.032 166.994 226.032V227.032C167.694 227.032 168.379 226.963 169.042 226.832L168.848 225.851ZM166.994 226.032H164.941V227.032H166.994V226.032ZM160.836 226.032H156.731V227.032H160.836V226.032ZM152.626 226.032H148.521V227.032H152.626V226.032ZM144.416 226.032H140.311V227.032H144.416V226.032ZM136.205 226.032H132.1V227.032H136.205V226.032ZM127.995 226.032H123.89V227.032H127.995V226.032ZM119.785 226.032H115.68V227.032H119.785V226.032ZM111.575 226.032H107.47V227.032H111.575V226.032ZM103.365 226.032H99.2596V227.032H103.365V226.032ZM95.1545 226.032H91.0494V227.032H95.1545V226.032ZM86.9443 226.032H82.8392V227.032H86.9443V226.032ZM78.7341 226.032H74.629V227.032H78.7341V226.032ZM70.5239 226.032H66.4188V227.032H70.5239V226.032ZM62.3137 226.032H58.2086V227.032H62.3137V226.032ZM54.1035 226.032H49.9984V227.032H54.1035V226.032ZM45.8933 226.032H41.7883V227.032H45.8933V226.032ZM37.6832 226.032H33.578V227.032H37.6832V226.032ZM29.4729 226.032H25.3678V227.032H29.4729V226.032ZM21.2627 226.032H17.1576V227.032H21.2627V226.032ZM13.0525 226.032H11V227.032H13.0525V226.032ZM11 226.032C10.3649 226.032 9.74483 225.969 9.14541 225.851L8.95134 226.832C9.61433 226.963 10.2994 227.032 11 227.032V226.032ZM5.722 224.432C4.6858 223.738 3.79355 222.846 3.09983 221.81L2.26886 222.366C3.0353 223.511 4.02086 224.496 5.16568 225.263L5.722 224.432ZM1.68083 218.386C1.56225 217.787 1.5 217.167 1.5 216.532H0.5C0.5 217.232 0.568687 217.917 0.699846 218.58L1.68083 218.386ZM1.5 216.532V214.402H0.5V216.532H1.5ZM1.5 210.143V205.884H0.5V210.143H1.5ZM1.5 201.625V197.366H0.5V201.625H1.5ZM1.5 193.107V188.848H0.5V193.107H1.5ZM1.5 184.589V180.33H0.5V184.589H1.5ZM1.5 176.071V171.812H0.5V176.071H1.5ZM1.5 167.553V165.423H0.5V167.553H1.5ZM1.5 165.423V163.67H0.5V165.423H1.5ZM1.5 160.164V158.411H0.5V160.164H1.5ZM2 158.411V156.557H0V158.411H2ZM2 152.848V149.14H0V152.848H2ZM2 145.432V141.723H0V145.432H2ZM2 138.015V134.306H0V138.015H2ZM2 130.598V126.89H0V130.598H2ZM2 123.181V121.327H0V123.181H2ZM2 121.327C2 120.725 2.05903 120.137 2.17133 119.57L0.209353 119.181C0.0719053 119.876 0 120.594 0 121.327H2ZM3.51531 116.327C4.17268 115.345 5.01827 114.5 6.00016 113.842L4.88752 112.181C3.68839 112.983 2.65618 114.016 1.85338 115.215L3.51531 116.327ZM9.24245 112.498C9.81008 112.386 10.3977 112.327 11 112.327V110.327C10.2666 110.327 9.54909 110.399 8.85431 110.537L9.24245 112.498ZM11 112.327H13.0857V110.327H11V112.327ZM17.2572 112.327H21.4286V110.327H17.2572V112.327ZM25.6001 112.327H29.7716V110.327H25.6001V112.327ZM33.943 112.327H38.1145V110.327H33.943V112.327ZM42.2859 112.327H46.4574V110.327H42.2859V112.327ZM50.6289 112.327H54.8003V110.327H50.6289V112.327ZM58.9718 112.327H63.1432V110.327H58.9718V112.327ZM67.3147 112.327H71.4862V110.327H67.3147V112.327ZM75.6576 112.327H77.7433V110.327H75.6576V112.327ZM77.7433 112.327C78.3457 112.327 78.9333 112.386 79.5009 112.498L79.889 110.537C79.1942 110.399 78.4767 110.327 77.7433 110.327V112.327ZM82.7432 113.842C83.7251 114.5 84.5707 115.345 85.228 116.327L86.89 115.215C86.0872 114.016 85.0549 112.983 83.8558 112.181L82.7432 113.842ZM86.572 119.57C86.6843 120.137 86.7433 120.725 86.7433 121.327H88.7433C88.7433 120.594 88.6714 119.876 88.534 119.181L86.572 119.57ZM86.7433 121.327V123.584H88.7433V121.327H86.7433ZM86.7433 128.098V132.612H88.7433V128.098H86.7433ZM86.7433 137.126V141.64H88.7433V137.126H86.7433ZM86.7433 146.154V148.411H88.7433V146.154H86.7433ZM86.7433 148.411C86.7433 149.144 86.8152 149.862 86.9527 150.557L88.9146 150.168C88.8024 149.601 88.7433 149.013 88.7433 148.411H86.7433ZM88.5967 154.523C89.3995 155.722 90.4317 156.755 91.6309 157.557L92.7435 155.896C91.7616 155.238 90.916 154.393 90.2586 153.411L88.5967 154.523ZM95.5976 159.202C96.2924 159.339 97.01 159.411 97.7433 159.411V157.411C97.141 157.411 96.5534 157.352 95.9858 157.24L95.5976 159.202ZM97.7433 159.411H99.6669V157.411H97.7433V159.411ZM103.514 159.411H107.361V157.411H103.514V159.411ZM111.209 159.411H115.056V157.411H111.209V159.411ZM118.903 159.411H122.75V157.411H118.903V159.411ZM126.598 159.411H130.445V157.411H126.598V159.411ZM134.292 159.411H138.139V157.411H134.292V159.411ZM141.987 159.411H145.834V157.411H141.987V159.411ZM149.681 159.411H153.528V157.411H149.681V159.411ZM157.376 159.411H161.223V157.411H157.376V159.411ZM165.07 159.411H166.994V157.411H165.07V159.411ZM166.994 159.411C167.596 159.411 168.184 159.47 168.751 159.582L169.139 157.62C168.445 157.483 167.727 157.411 166.994 157.411V159.411ZM171.993 160.926C172.975 161.584 173.821 162.429 174.478 163.411L176.14 162.298C175.337 161.099 174.305 160.067 173.106 159.264L171.993 160.926ZM175.822 166.653C175.935 167.221 175.994 167.809 175.994 168.411H177.994C177.994 167.678 177.922 166.96 177.784 166.265L175.822 166.653ZM175.994 168.411V170.416H177.994V168.411H175.994ZM175.994 174.426V178.436H177.994V174.426H175.994ZM175.994 182.446V186.456H177.994V182.446H175.994ZM175.994 190.466V194.476H177.994V190.466H175.994ZM175.994 198.486V202.496H177.994V198.486H175.994ZM175.994 206.507V210.517H177.994V206.507H175.994ZM175.994 214.527V216.532H177.994V214.527H175.994ZM175.994 216.532C175.994 217.134 175.935 217.722 175.822 218.289L177.784 218.677C177.922 217.983 177.994 217.265 177.994 216.532H175.994ZM174.478 221.532C173.821 222.513 172.975 223.359 171.993 224.016L173.106 225.678C174.305 224.876 175.337 223.843 176.14 222.644L174.478 221.532ZM168.751 225.36C168.184 225.473 167.596 225.532 166.994 225.532V227.532C167.727 227.532 168.445 227.46 169.139 227.322L168.751 225.36ZM166.994 225.532H164.941V227.532H166.994V225.532ZM160.836 225.532H156.731V227.532H160.836V225.532ZM152.626 225.532H148.521V227.532H152.626V225.532ZM144.416 225.532H140.311V227.532H144.416V225.532ZM136.205 225.532H132.1V227.532H136.205V225.532ZM127.995 225.532H123.89V227.532H127.995V225.532ZM119.785 225.532H115.68V227.532H119.785V225.532ZM111.575 225.532H107.47V227.532H111.575V225.532ZM103.365 225.532H99.2596V227.532H103.365V225.532ZM95.1545 225.532H91.0494V227.532H95.1545V225.532ZM86.9443 225.532H82.8392V227.532H86.9443V225.532ZM78.7341 225.532H74.629V227.532H78.7341V225.532ZM70.5239 225.532H66.4188V227.532H70.5239V225.532ZM62.3137 225.532H58.2086V227.532H62.3137V225.532ZM54.1035 225.532H49.9984V227.532H54.1035V225.532ZM45.8933 225.532H41.7883V227.532H45.8933V225.532ZM37.6832 225.532H33.578V227.532H37.6832V225.532ZM29.4729 225.532H25.3678V227.532H29.4729V225.532ZM21.2627 225.532H17.1576V227.532H21.2627V225.532ZM13.0525 225.532H11V227.532H13.0525V225.532ZM11 225.532C10.3976 225.532 9.81008 225.473 9.24245 225.36L8.85431 227.322C9.54908 227.46 10.2666 227.532 11 227.532V225.532ZM6.00016 224.016C5.01827 223.359 4.17267 222.513 3.51531 221.532L1.85338 222.644C2.65618 223.843 3.68839 224.876 4.88752 225.678L6.00016 224.016ZM2.17133 218.289C2.05903 217.722 2 217.134 2 216.532H0C0 217.265 0.0719053 217.983 0.209352 218.677L2.17133 218.289ZM2 216.532V214.402H0V216.532H2ZM2 210.143V205.884H0V210.143H2ZM2 201.625V197.366H0V201.625H2ZM2 193.107V188.848H0V193.107H2ZM2 184.589V180.33H0V184.589H2ZM2 176.071V171.812H0V176.071H2ZM2 167.553V165.423H0V167.553H2ZM2 165.423V163.67H0V165.423H2ZM2 160.164V158.411H0V160.164H2Z" fill="#F6F6F6" fill-opacity="0.5" mask="url(#path-9-inside-1_2022_335)"/>
<path fill-rule="evenodd" clip-rule="evenodd" d="M230.064 162.95C230.301 162.315 229.618 161.797 229.114 162.249C227.62 163.591 226.397 165.227 225.537 167.067C225.48 167.188 225.569 167.325 225.702 167.325C225.831 167.325 225.92 167.453 225.875 167.573L224.341 171.689C224.24 171.963 224.173 172.249 224.156 172.54C224.14 172.829 224.131 173.121 224.131 173.414V179.436C224.131 179.847 224.703 179.95 224.846 179.565C224.9 179.421 225.038 179.325 225.192 179.325H225.271C225.609 179.325 225.842 179.661 225.725 179.977L224.233 183.981C224.166 184.161 224.131 184.352 224.131 184.544V191.436C224.131 191.847 224.703 191.95 224.846 191.565C224.9 191.421 225.038 191.325 225.192 191.325H225.271C225.609 191.325 225.842 191.661 225.725 191.977L224.233 195.981C224.166 196.161 224.131 196.352 224.131 196.544V203.436C224.131 203.847 224.703 203.95 224.846 203.565C224.9 203.421 225.038 203.325 225.192 203.325H225.271C225.609 203.325 225.842 203.661 225.725 203.977L224.336 207.705C224.201 208.068 224.131 208.452 224.131 208.839V212.036C224.131 213.205 224.265 214.343 224.518 215.435C224.562 215.625 224.819 215.638 224.887 215.455C224.916 215.377 224.991 215.325 225.075 215.325H225.271C225.609 215.325 225.842 215.661 225.725 215.977L225.327 217.044C225.218 217.337 225.218 217.662 225.342 217.95C225.36 217.991 225.377 218.032 225.395 218.073C225.92 219.265 227.521 219.082 227.976 217.86L228.803 215.64C228.874 215.45 229.054 215.325 229.256 215.325C229.593 215.325 229.827 215.661 229.709 215.977L227.915 220.792C227.722 221.312 227.817 221.9 228.197 222.304C228.918 223.072 230.144 222.737 230.511 221.75L232.788 215.64C232.858 215.45 233.039 215.325 233.241 215.325C233.578 215.325 233.812 215.661 233.694 215.977L230.799 223.748C230.767 223.835 230.684 223.893 230.591 223.893C230.379 223.893 230.29 224.157 230.463 224.279C232.911 226.016 235.902 227.036 239.131 227.036H341.001C344.239 227.036 347.238 226.01 349.69 224.265C349.855 224.147 349.77 223.893 349.566 223.893C349.417 223.893 349.314 223.744 349.366 223.604L352.333 215.64C352.404 215.45 352.584 215.325 352.786 215.325C353.124 215.325 353.357 215.661 353.24 215.977L352.582 217.742C351.948 219.443 353.556 220.446 354.379 218.828C355.416 216.789 356.001 214.481 356.001 212.036V211.654C356.001 210.771 354.775 210.55 354.467 211.377L354.393 211.578C354.322 211.767 354.141 211.893 353.94 211.893C353.602 211.893 353.369 211.556 353.486 211.24L355.9 204.762C355.967 204.582 356.001 204.392 356.001 204.2V199.654C356.001 198.771 354.775 198.55 354.467 199.377L354.393 199.578C354.322 199.767 354.141 199.893 353.94 199.893C353.602 199.893 353.369 199.556 353.486 199.24L355.9 192.762C355.967 192.582 356.001 192.392 356.001 192.2V187.654C356.001 186.771 354.775 186.55 354.467 187.377L354.393 187.578C354.322 187.767 354.141 187.893 353.94 187.893C353.602 187.893 353.369 187.556 353.486 187.24L355.694 181.314C355.897 180.769 356.001 180.192 356.001 179.611V173.414C356.001 172.94 355.406 172.858 355.241 173.302L354.393 175.578C354.322 175.767 354.141 175.893 353.94 175.893C353.602 175.893 353.369 175.556 353.486 175.24L355.133 170.819C355.4 170.104 355.456 169.319 355.211 168.596C354.498 166.493 353.332 164.6 351.828 163.033C351.414 162.6 350.707 162.775 350.498 163.337L350.408 163.578C350.337 163.767 350.157 163.893 349.955 163.893C349.618 163.893 349.384 163.556 349.502 163.24L349.843 162.324C350.021 161.846 349.869 161.304 349.448 161.017C349.374 160.967 349.3 160.917 349.225 160.868C348.465 160.369 347.473 160.76 347.155 161.612L346.423 163.578C346.352 163.767 346.172 163.893 345.97 163.893C345.633 163.893 345.399 163.556 345.517 163.24L346.363 160.968C346.647 160.206 346.29 159.35 345.515 159.105C344.792 158.878 344.035 159.291 343.771 160.001L342.438 163.578C342.368 163.767 342.187 163.893 341.985 163.893C341.648 163.893 341.414 163.556 341.532 163.24L342.473 160.715C342.882 159.616 342.174 158.414 341.001 158.414C340.626 158.414 340.29 158.648 340.159 158.999L338.453 163.578C338.383 163.767 338.202 163.893 338 163.893C337.663 163.893 337.429 163.556 337.547 163.24L338.65 160.281C338.986 159.377 338.318 158.414 337.353 158.414C336.775 158.414 336.258 158.773 336.057 159.315L334.468 163.578C334.398 163.767 334.217 163.893 334.015 163.893C333.678 163.893 333.444 163.556 333.562 163.24L334.665 160.281C335.002 159.377 334.333 158.414 333.368 158.414C332.791 158.414 332.274 158.773 332.072 159.315L330.484 163.578C330.413 163.767 330.232 163.893 330.03 163.893C329.693 163.893 329.46 163.556 329.577 163.24L330.68 160.281C331.017 159.377 330.348 158.414 329.383 158.414C328.806 158.414 328.289 158.773 328.087 159.315L326.499 163.578C326.428 163.767 326.248 163.893 326.046 163.893C325.708 163.893 325.475 163.556 325.592 163.24L326.695 160.281C327.032 159.377 326.363 158.414 325.399 158.414C324.821 158.414 324.304 158.773 324.102 159.315L322.514 163.578C322.443 163.767 322.263 163.893 322.061 163.893C321.724 163.893 321.49 163.556 321.608 163.24L322.71 160.281C323.047 159.377 322.379 158.414 321.414 158.414C320.836 158.414 320.319 158.773 320.117 159.315L318.529 163.578C318.459 163.767 318.278 163.893 318.076 163.893C317.739 163.893 317.505 163.556 317.623 163.24L318.725 160.281C319.062 159.377 318.394 158.414 317.429 158.414C316.851 158.414 316.334 158.773 316.132 159.315L314.544 163.578C314.474 163.767 314.293 163.893 314.091 163.893C313.754 163.893 313.52 163.556 313.638 163.24L314.741 160.281C315.077 159.377 314.409 158.414 313.444 158.414C312.866 158.414 312.349 158.773 312.148 159.315L310.559 163.578C310.489 163.767 310.308 163.893 310.106 163.893C309.769 163.893 309.535 163.556 309.653 163.24L310.756 160.281C311.093 159.377 310.424 158.414 309.459 158.414C308.881 158.414 308.364 158.773 308.163 159.315L306.575 163.578C306.504 163.767 306.323 163.893 306.121 163.893C305.784 163.893 305.551 163.556 305.668 163.24L306.771 160.281C307.108 159.377 306.439 158.414 305.474 158.414C304.897 158.414 304.38 158.773 304.178 159.315L302.59 163.578C302.519 163.767 302.338 163.893 302.137 163.893C301.799 163.893 301.566 163.556 301.683 163.24L302.786 160.281C303.123 159.377 302.454 158.414 301.49 158.414C300.912 158.414 300.395 158.773 300.193 159.315L298.605 163.578C298.534 163.767 298.354 163.893 298.152 163.893C297.815 163.893 297.581 163.556 297.699 163.24L298.801 160.281C299.138 159.377 298.469 158.414 297.505 158.414C296.927 158.414 296.41 158.773 296.208 159.315L294.62 163.578C294.549 163.767 294.369 163.893 294.167 163.893C293.83 163.893 293.596 163.556 293.714 163.24L294.816 160.281C295.153 159.377 294.485 158.414 293.52 158.414C292.942 158.414 292.425 158.773 292.223 159.315L290.635 163.578C290.565 163.767 290.384 163.893 290.182 163.893C289.845 163.893 289.611 163.556 289.729 163.24L290.832 160.281C291.168 159.377 290.5 158.414 289.535 158.414C288.957 158.414 288.44 158.773 288.239 159.315L286.65 163.578C286.58 163.767 286.399 163.893 286.197 163.893C285.86 163.893 285.626 163.556 285.744 163.24L286.847 160.281C287.183 159.377 286.515 158.414 285.55 158.414C284.972 158.414 284.455 158.773 284.254 159.315L282.665 163.578C282.595 163.767 282.414 163.893 282.212 163.893C281.875 163.893 281.642 163.556 281.759 163.24L282.862 160.281C283.199 159.377 282.53 158.414 281.565 158.414C280.988 158.414 280.471 158.773 280.269 159.315L278.681 163.578C278.61 163.767 278.429 163.893 278.227 163.893C277.89 163.893 277.657 163.556 277.774 163.24L278.877 160.281C279.214 159.377 278.545 158.414 277.581 158.414C277.003 158.414 276.486 158.773 276.284 159.315L274.696 163.578C274.625 163.767 274.445 163.893 274.243 163.893C273.905 163.893 273.672 163.556 273.79 163.24L274.892 160.281C275.229 159.377 274.56 158.414 273.596 158.414C273.018 158.414 272.501 158.773 272.299 159.315L270.711 163.578C270.64 163.767 270.46 163.893 270.258 163.893C269.921 163.893 269.687 163.556 269.805 163.24L270.907 160.281C271.244 159.377 270.576 158.414 269.611 158.414C269.033 158.414 268.516 158.773 268.314 159.315L266.726 163.578C266.656 163.767 266.475 163.893 266.273 163.893C265.936 163.893 265.702 163.556 265.82 163.24L266.922 160.281C267.259 159.377 266.591 158.414 265.626 158.414C265.048 158.414 264.531 158.773 264.329 159.315L262.741 163.578C262.671 163.767 262.49 163.893 262.288 163.893C261.951 163.893 261.717 163.556 261.835 163.24L262.938 160.281C263.274 159.377 262.606 158.414 261.641 158.414C261.063 158.414 260.546 158.773 260.345 159.315L258.756 163.578C258.686 163.767 258.505 163.893 258.303 163.893C257.966 163.893 257.732 163.556 257.85 163.24L258.953 160.281C259.29 159.377 258.621 158.414 257.656 158.414C257.078 158.414 256.562 158.773 256.36 159.315L254.772 163.578C254.701 163.767 254.52 163.893 254.318 163.893C253.981 163.893 253.748 163.556 253.865 163.24L254.968 160.281C255.305 159.377 254.636 158.414 253.671 158.414C253.094 158.414 252.577 158.773 252.375 159.315L250.787 163.578C250.716 163.767 250.536 163.893 250.334 163.893C249.996 163.893 249.763 163.556 249.88 163.24L250.983 160.281C251.32 159.377 250.651 158.414 249.687 158.414C249.109 158.414 248.592 158.773 248.39 159.315L246.802 163.578C246.731 163.767 246.551 163.893 246.349 163.893C246.012 163.893 245.778 163.556 245.896 163.24L246.998 160.281C247.335 159.377 246.666 158.414 245.702 158.414C245.124 158.414 244.607 158.773 244.405 159.315L242.817 163.578C242.747 163.767 242.566 163.893 242.364 163.893C242.027 163.893 241.793 163.556 241.911 163.24L243.013 160.281C243.35 159.377 242.682 158.414 241.717 158.414C241.139 158.414 240.622 158.773 240.42 159.315L238.832 163.578C238.762 163.767 238.581 163.893 238.379 163.893C238.042 163.893 237.808 163.556 237.926 163.24L239.517 158.97C239.617 158.701 239.418 158.414 239.131 158.414C237.62 158.414 236.372 159.485 235.845 160.901L234.847 163.578C234.777 163.767 234.596 163.893 234.394 163.893C234.057 163.893 233.823 163.556 233.941 163.24L234.514 161.702C234.968 160.483 233.87 159.302 232.695 159.862C232.334 160.033 232.067 160.345 231.928 160.719L230.862 163.578C230.792 163.767 230.611 163.893 230.409 163.893C230.072 163.893 229.839 163.556 229.956 163.24L230.064 162.95ZM226.425 175.893C226.626 175.893 226.807 175.767 226.878 175.578L229.709 167.977C229.827 167.661 229.593 167.325 229.256 167.325C229.054 167.325 228.874 167.45 228.803 167.64L225.971 175.24C225.854 175.556 226.087 175.893 226.425 175.893ZM230.409 175.893C230.611 175.893 230.792 175.767 230.862 175.578L233.694 167.977C233.812 167.661 233.578 167.325 233.241 167.325C233.039 167.325 232.858 167.45 232.788 167.64L229.956 175.24C229.839 175.556 230.072 175.893 230.409 175.893ZM234.394 175.893C234.596 175.893 234.777 175.767 234.847 175.578L237.679 167.977C237.797 167.661 237.563 167.325 237.226 167.325C237.024 167.325 236.843 167.45 236.773 167.64L233.941 175.24C233.823 175.556 234.057 175.893 234.394 175.893ZM238.379 175.893C238.581 175.893 238.762 175.767 238.832 175.578L241.664 167.977C241.782 167.661 241.548 167.325 241.211 167.325C241.009 167.325 240.828 167.45 240.758 167.64L237.926 175.24C237.808 175.556 238.042 175.893 238.379 175.893ZM242.364 175.893C242.566 175.893 242.747 175.767 242.817 175.578L245.649 167.977C245.766 167.661 245.533 167.325 245.196 167.325C244.994 167.325 244.813 167.45 244.743 167.64L241.911 175.24C241.793 175.556 242.027 175.893 242.364 175.893ZM246.349 175.893C246.551 175.893 246.731 175.767 246.802 175.578L249.634 167.977C249.751 167.661 249.518 167.325 249.18 167.325C248.979 167.325 248.798 167.45 248.727 167.64L245.896 175.24C245.778 175.556 246.012 175.893 246.349 175.893ZM250.334 175.893C250.536 175.893 250.716 175.767 250.787 175.578L253.618 167.977C253.736 167.661 253.502 167.325 253.165 167.325C252.963 167.325 252.783 167.45 252.712 167.64L249.88 175.24C249.763 175.556 249.996 175.893 250.334 175.893ZM254.318 175.893C254.52 175.893 254.701 175.767 254.772 175.578L257.603 167.977C257.721 167.661 257.487 167.325 257.15 167.325C256.948 167.325 256.768 167.45 256.697 167.64L253.865 175.24C253.748 175.556 253.981 175.893 254.318 175.893ZM258.303 175.893C258.505 175.893 258.686 175.767 258.756 175.578L261.588 167.977C261.706 167.661 261.472 167.325 261.135 167.325C260.933 167.325 260.752 167.45 260.682 167.64L257.85 175.24C257.732 175.556 257.966 175.893 258.303 175.893ZM262.288 175.893C262.49 175.893 262.671 175.767 262.741 175.578L265.573 167.977C265.691 167.661 265.457 167.325 265.12 167.325C264.918 167.325 264.737 167.45 264.667 167.64L261.835 175.24C261.717 175.556 261.951 175.893 262.288 175.893ZM266.273 175.893C266.475 175.893 266.656 175.767 266.726 175.578L269.558 167.977C269.675 167.661 269.442 167.325 269.105 167.325C268.903 167.325 268.722 167.45 268.652 167.64L265.82 175.24C265.702 175.556 265.936 175.893 266.273 175.893ZM270.258 175.893C270.46 175.893 270.64 175.767 270.711 175.578L273.543 167.977C273.66 167.661 273.427 167.325 273.09 167.325C272.888 167.325 272.707 167.45 272.636 167.64L269.805 175.24C269.687 175.556 269.921 175.893 270.258 175.893ZM274.243 175.893C274.445 175.893 274.625 175.767 274.696 175.578L277.527 167.977C277.645 167.661 277.412 167.325 277.074 167.325C276.872 167.325 276.692 167.45 276.621 167.64L273.79 175.24C273.672 175.556 273.905 175.893 274.243 175.893ZM278.227 175.893C278.429 175.893 278.61 175.767 278.681 175.578L281.512 167.977C281.63 167.661 281.396 167.325 281.059 167.325C280.857 167.325 280.677 167.45 280.606 167.64L277.774 175.24C277.657 175.556 277.89 175.893 278.227 175.893ZM282.212 175.893C282.414 175.893 282.595 175.767 282.665 175.578L285.497 167.977C285.615 167.661 285.381 167.325 285.044 167.325C284.842 167.325 284.661 167.45 284.591 167.64L281.759 175.24C281.642 175.556 281.875 175.893 282.212 175.893ZM286.197 175.893C286.399 175.893 286.58 175.767 286.65 175.578L289.482 167.977C289.6 167.661 289.366 167.325 289.029 167.325C288.827 167.325 288.646 167.45 288.576 167.64L285.744 175.24C285.626 175.556 285.86 175.893 286.197 175.893ZM290.182 175.893C290.384 175.893 290.565 175.767 290.635 175.578L293.467 167.977C293.585 167.661 293.351 167.325 293.014 167.325C292.812 167.325 292.631 167.45 292.561 167.64L289.729 175.24C289.611 175.556 289.845 175.893 290.182 175.893ZM294.167 175.893C294.369 175.893 294.549 175.767 294.62 175.578L297.452 167.977C297.569 167.661 297.336 167.325 296.999 167.325C296.797 167.325 296.616 167.45 296.545 167.64L293.714 175.24C293.596 175.556 293.83 175.893 294.167 175.893ZM298.152 175.893C298.354 175.893 298.534 175.767 298.605 175.578L301.437 167.977C301.554 167.661 301.321 167.325 300.983 167.325C300.781 167.325 300.601 167.45 300.53 167.64L297.699 175.24C297.581 175.556 297.815 175.893 298.152 175.893ZM302.137 175.893C302.338 175.893 302.519 175.767 302.59 175.578L305.421 167.977C305.539 167.661 305.305 167.325 304.968 167.325C304.766 167.325 304.586 167.45 304.515 167.64L301.683 175.24C301.566 175.556 301.799 175.893 302.137 175.893ZM306.121 175.893C306.323 175.893 306.504 175.767 306.575 175.578L309.406 167.977C309.524 167.661 309.29 167.325 308.953 167.325C308.751 167.325 308.57 167.45 308.5 167.64L305.668 175.24C305.551 175.556 305.784 175.893 306.121 175.893ZM310.106 175.893C310.308 175.893 310.489 175.767 310.559 175.578L313.391 167.977C313.509 167.661 313.275 167.325 312.938 167.325C312.736 167.325 312.555 167.45 312.485 167.64L309.653 175.24C309.535 175.556 309.769 175.893 310.106 175.893ZM314.091 175.893C314.293 175.893 314.474 175.767 314.544 175.578L317.376 167.977C317.494 167.661 317.26 167.325 316.923 167.325C316.721 167.325 316.54 167.45 316.47 167.64L313.638 175.24C313.52 175.556 313.754 175.893 314.091 175.893ZM318.076 175.893C318.278 175.893 318.459 175.767 318.529 175.578L321.361 167.977C321.478 167.661 321.245 167.325 320.908 167.325C320.706 167.325 320.525 167.45 320.455 167.64L317.623 175.24C317.505 175.556 317.739 175.893 318.076 175.893ZM322.061 175.893C322.263 175.893 322.443 175.767 322.514 175.578L325.346 167.977C325.463 167.661 325.23 167.325 324.892 167.325C324.691 167.325 324.51 167.45 324.439 167.64L321.608 175.24C321.49 175.556 321.724 175.893 322.061 175.893ZM326.046 175.893C326.248 175.893 326.428 175.767 326.499 175.578L329.33 167.977C329.448 167.661 329.215 167.325 328.877 167.325C328.675 167.325 328.495 167.45 328.424 167.64L325.592 175.24C325.475 175.556 325.708 175.893 326.046 175.893ZM330.03 175.893C330.232 175.893 330.413 175.767 330.484 175.578L333.315 167.977C333.433 167.661 333.199 167.325 332.862 167.325C332.66 167.325 332.48 167.45 332.409 167.64L329.577 175.24C329.46 175.556 329.693 175.893 330.03 175.893ZM334.015 175.893C334.217 175.893 334.398 175.767 334.468 175.578L337.3 167.977C337.418 167.661 337.184 167.325 336.847 167.325C336.645 167.325 336.464 167.45 336.394 167.64L333.562 175.24C333.444 175.556 333.678 175.893 334.015 175.893ZM338 175.893C338.202 175.893 338.383 175.767 338.453 175.578L341.285 167.977C341.403 167.661 341.169 167.325 340.832 167.325C340.63 167.325 340.449 167.45 340.379 167.64L337.547 175.24C337.429 175.556 337.663 175.893 338 175.893ZM341.985 175.893C342.187 175.893 342.368 175.767 342.438 175.578L345.27 167.977C345.388 167.661 345.154 167.325 344.817 167.325C344.615 167.325 344.434 167.45 344.364 167.64L341.532 175.24C341.414 175.556 341.648 175.893 341.985 175.893ZM345.97 175.893C346.172 175.893 346.352 175.767 346.423 175.578L349.255 167.977C349.372 167.661 349.139 167.325 348.802 167.325C348.6 167.325 348.419 167.45 348.348 167.64L345.517 175.24C345.399 175.556 345.633 175.893 345.97 175.893ZM349.955 175.893C350.157 175.893 350.337 175.767 350.408 175.578L353.24 167.977C353.357 167.661 353.124 167.325 352.786 167.325C352.584 167.325 352.404 167.45 352.333 167.64L349.502 175.24C349.384 175.556 349.618 175.893 349.955 175.893ZM226.425 187.893C226.626 187.893 226.807 187.767 226.878 187.578L229.709 179.977C229.827 179.661 229.593 179.325 229.256 179.325C229.054 179.325 228.874 179.45 228.803 179.64L225.971 187.24C225.854 187.556 226.087 187.893 226.425 187.893ZM230.409 187.893C230.611 187.893 230.792 187.767 230.862 187.578L233.694 179.977C233.812 179.661 233.578 179.325 233.241 179.325C233.039 179.325 232.858 179.45 232.788 179.64L229.956 187.24C229.839 187.556 230.072 187.893 230.409 187.893ZM234.394 187.893C234.596 187.893 234.777 187.767 234.847 187.578L237.679 179.977C237.797 179.661 237.563 179.325 237.226 179.325C237.024 179.325 236.843 179.45 236.773 179.64L233.941 187.24C233.823 187.556 234.057 187.893 234.394 187.893ZM238.379 187.893C238.581 187.893 238.762 187.767 238.832 187.578L241.664 179.977C241.782 179.661 241.548 179.325 241.211 179.325C241.009 179.325 240.828 179.45 240.758 179.64L237.926 187.24C237.808 187.556 238.042 187.893 238.379 187.893ZM242.364 187.893C242.566 187.893 242.747 187.767 242.817 187.578L245.649 179.977C245.766 179.661 245.533 179.325 245.196 179.325C244.994 179.325 244.813 179.45 244.743 179.64L241.911 187.24C241.793 187.556 242.027 187.893 242.364 187.893ZM246.349 187.893C246.551 187.893 246.731 187.767 246.802 187.578L249.634 179.977C249.751 179.661 249.518 179.325 249.18 179.325C248.979 179.325 248.798 179.45 248.727 179.64L245.896 187.24C245.778 187.556 246.012 187.893 246.349 187.893ZM250.334 187.893C250.536 187.893 250.716 187.767 250.787 187.578L253.618 179.977C253.736 179.661 253.502 179.325 253.165 179.325C252.963 179.325 252.783 179.45 252.712 179.64L249.88 187.24C249.763 187.556 249.996 187.893 250.334 187.893ZM254.318 187.893C254.52 187.893 254.701 187.767 254.772 187.578L257.603 179.977C257.721 179.661 257.487 179.325 257.15 179.325C256.948 179.325 256.768 179.45 256.697 179.64L253.865 187.24C253.748 187.556 253.981 187.893 254.318 187.893ZM258.303 187.893C258.505 187.893 258.686 187.767 258.756 187.578L261.588 179.977C261.706 179.661 261.472 179.325 261.135 179.325C260.933 179.325 260.752 179.45 260.682 179.64L257.85 187.24C257.732 187.556 257.966 187.893 258.303 187.893ZM262.288 187.893C262.49 187.893 262.671 187.767 262.741 187.578L265.573 179.977C265.691 179.661 265.457 179.325 265.12 179.325C264.918 179.325 264.737 179.45 264.667 179.64L261.835 187.24C261.717 187.556 261.951 187.893 262.288 187.893ZM266.273 187.893C266.475 187.893 266.656 187.767 266.726 187.578L269.558 179.977C269.675 179.661 269.442 179.325 269.105 179.325C268.903 179.325 268.722 179.45 268.652 179.64L265.82 187.24C265.702 187.556 265.936 187.893 266.273 187.893ZM270.258 187.893C270.46 187.893 270.64 187.767 270.711 187.578L273.543 179.977C273.66 179.661 273.427 179.325 273.09 179.325C272.888 179.325 272.707 179.45 272.636 179.64L269.805 187.24C269.687 187.556 269.921 187.893 270.258 187.893ZM274.243 187.893C274.445 187.893 274.625 187.767 274.696 187.578L277.527 179.977C277.645 179.661 277.412 179.325 277.074 179.325C276.872 179.325 276.692 179.45 276.621 179.64L273.79 187.24C273.672 187.556 273.905 187.893 274.243 187.893ZM278.227 187.893C278.429 187.893 278.61 187.767 278.681 187.578L281.512 179.977C281.63 179.661 281.396 179.325 281.059 179.325C280.857 179.325 280.677 179.45 280.606 179.64L277.774 187.24C277.657 187.556 277.89 187.893 278.227 187.893ZM282.212 187.893C282.414 187.893 282.595 187.767 282.665 187.578L285.497 179.977C285.615 179.661 285.381 179.325 285.044 179.325C284.842 179.325 284.661 179.45 284.591 179.64L281.759 187.24C281.642 187.556 281.875 187.893 282.212 187.893ZM286.197 187.893C286.399 187.893 286.58 187.767 286.65 187.578L289.482 179.977C289.6 179.661 289.366 179.325 289.029 179.325C288.827 179.325 288.646 179.45 288.576 179.64L285.744 187.24C285.626 187.556 285.86 187.893 286.197 187.893ZM290.182 187.893C290.384 187.893 290.565 187.767 290.635 187.578L293.467 179.977C293.585 179.661 293.351 179.325 293.014 179.325C292.812 179.325 292.631 179.45 292.561 179.64L289.729 187.24C289.611 187.556 289.845 187.893 290.182 187.893ZM294.167 187.893C294.369 187.893 294.549 187.767 294.62 187.578L297.452 179.977C297.569 179.661 297.336 179.325 296.999 179.325C296.797 179.325 296.616 179.45 296.545 179.64L293.714 187.24C293.596 187.556 293.83 187.893 294.167 187.893ZM298.152 187.893C298.354 187.893 298.534 187.767 298.605 187.578L301.437 179.977C301.554 179.661 301.321 179.325 300.983 179.325C300.781 179.325 300.601 179.45 300.53 179.64L297.699 187.24C297.581 187.556 297.815 187.893 298.152 187.893ZM302.137 187.893C302.338 187.893 302.519 187.767 302.59 187.578L305.421 179.977C305.539 179.661 305.305 179.325 304.968 179.325C304.766 179.325 304.586 179.45 304.515 179.64L301.683 187.24C301.566 187.556 301.799 187.893 302.137 187.893ZM306.121 187.893C306.323 187.893 306.504 187.767 306.575 187.578L309.406 179.977C309.524 179.661 309.29 179.325 308.953 179.325C308.751 179.325 308.57 179.45 308.5 179.64L305.668 187.24C305.551 187.556 305.784 187.893 306.121 187.893ZM310.106 187.893C310.308 187.893 310.489 187.767 310.559 187.578L313.391 179.977C313.509 179.661 313.275 179.325 312.938 179.325C312.736 179.325 312.555 179.45 312.485 179.64L309.653 187.24C309.535 187.556 309.769 187.893 310.106 187.893ZM314.091 187.893C314.293 187.893 314.474 187.767 314.544 187.578L317.376 179.977C317.494 179.661 317.26 179.325 316.923 179.325C316.721 179.325 316.54 179.45 316.47 179.64L313.638 187.24C313.52 187.556 313.754 187.893 314.091 187.893ZM318.076 187.893C318.278 187.893 318.459 187.767 318.529 187.578L321.361 179.977C321.478 179.661 321.245 179.325 320.908 179.325C320.706 179.325 320.525 179.45 320.455 179.64L317.623 187.24C317.505 187.556 317.739 187.893 318.076 187.893ZM322.061 187.893C322.263 187.893 322.443 187.767 322.514 187.578L325.346 179.977C325.463 179.661 325.23 179.325 324.892 179.325C324.691 179.325 324.51 179.45 324.439 179.64L321.608 187.24C321.49 187.556 321.724 187.893 322.061 187.893ZM326.046 187.893C326.248 187.893 326.428 187.767 326.499 187.578L329.33 179.977C329.448 179.661 329.215 179.325 328.877 179.325C328.675 179.325 328.495 179.45 328.424 179.64L325.592 187.24C325.475 187.556 325.708 187.893 326.046 187.893ZM330.03 187.893C330.232 187.893 330.413 187.767 330.484 187.578L333.315 179.977C333.433 179.661 333.199 179.325 332.862 179.325C332.66 179.325 332.48 179.45 332.409 179.64L329.577 187.24C329.46 187.556 329.693 187.893 330.03 187.893ZM334.015 187.893C334.217 187.893 334.398 187.767 334.468 187.578L337.3 179.977C337.418 179.661 337.184 179.325 336.847 179.325C336.645 179.325 336.464 179.45 336.394 179.64L333.562 187.24C333.444 187.556 333.678 187.893 334.015 187.893ZM338 187.893C338.202 187.893 338.383 187.767 338.453 187.578L341.285 179.977C341.403 179.661 341.169 179.325 340.832 179.325C340.63 179.325 340.449 179.45 340.379 179.64L337.547 187.24C337.429 187.556 337.663 187.893 338 187.893ZM341.985 187.893C342.187 187.893 342.368 187.767 342.438 187.578L345.27 179.977C345.388 179.661 345.154 179.325 344.817 179.325C344.615 179.325 344.434 179.45 344.364 179.64L341.532 187.24C341.414 187.556 341.648 187.893 341.985 187.893ZM345.97 187.893C346.172 187.893 346.352 187.767 346.423 187.578L349.255 179.977C349.372 179.661 349.139 179.325 348.802 179.325C348.6 179.325 348.419 179.45 348.348 179.64L345.517 187.24C345.399 187.556 345.633 187.893 345.97 187.893ZM349.955 187.893C350.157 187.893 350.337 187.767 350.408 187.578L353.24 179.977C353.357 179.661 353.124 179.325 352.786 179.325C352.584 179.325 352.404 179.45 352.333 179.64L349.502 187.24C349.384 187.556 349.618 187.893 349.955 187.893ZM226.425 199.893C226.626 199.893 226.807 199.767 226.878 199.578L229.709 191.977C229.827 191.661 229.593 191.325 229.256 191.325C229.054 191.325 228.874 191.45 228.803 191.64L225.971 199.24C225.854 199.556 226.087 199.893 226.425 199.893ZM230.409 199.893C230.611 199.893 230.792 199.767 230.862 199.578L233.694 191.977C233.812 191.661 233.578 191.325 233.241 191.325C233.039 191.325 232.858 191.45 232.788 191.64L229.956 199.24C229.839 199.556 230.072 199.893 230.409 199.893ZM234.394 199.893C234.596 199.893 234.777 199.767 234.847 199.578L237.679 191.977C237.797 191.661 237.563 191.325 237.226 191.325C237.024 191.325 236.843 191.45 236.773 191.64L233.941 199.24C233.823 199.556 234.057 199.893 234.394 199.893ZM238.379 199.893C238.581 199.893 238.762 199.767 238.832 199.578L241.664 191.977C241.782 191.661 241.548 191.325 241.211 191.325C241.009 191.325 240.828 191.45 240.758 191.64L237.926 199.24C237.808 199.556 238.042 199.893 238.379 199.893ZM242.364 199.893C242.566 199.893 242.747 199.767 242.817 199.578L245.649 191.977C245.766 191.661 245.533 191.325 245.196 191.325C244.994 191.325 244.813 191.45 244.743 191.64L241.911 199.24C241.793 199.556 242.027 199.893 242.364 199.893ZM246.349 199.893C246.551 199.893 246.731 199.767 246.802 199.578L249.634 191.977C249.751 191.661 249.518 191.325 249.18 191.325C248.979 191.325 248.798 191.45 248.727 191.64L245.896 199.24C245.778 199.556 246.012 199.893 246.349 199.893ZM250.334 199.893C250.536 199.893 250.716 199.767 250.787 199.578L253.618 191.977C253.736 191.661 253.502 191.325 253.165 191.325C252.963 191.325 252.783 191.45 252.712 191.64L249.88 199.24C249.763 199.556 249.996 199.893 250.334 199.893ZM254.318 199.893C254.52 199.893 254.701 199.767 254.772 199.578L257.603 191.977C257.721 191.661 257.487 191.325 257.15 191.325C256.948 191.325 256.768 191.45 256.697 191.64L253.865 199.24C253.748 199.556 253.981 199.893 254.318 199.893ZM258.303 199.893C258.505 199.893 258.686 199.767 258.756 199.578L261.588 191.977C261.706 191.661 261.472 191.325 261.135 191.325C260.933 191.325 260.752 191.45 260.682 191.64L257.85 199.24C257.732 199.556 257.966 199.893 258.303 199.893ZM262.288 199.893C262.49 199.893 262.671 199.767 262.741 199.578L265.573 191.977C265.691 191.661 265.457 191.325 265.12 191.325C264.918 191.325 264.737 191.45 264.667 191.64L261.835 199.24C261.717 199.556 261.951 199.893 262.288 199.893ZM266.273 199.893C266.475 199.893 266.656 199.767 266.726 199.578L269.558 191.977C269.675 191.661 269.442 191.325 269.105 191.325C268.903 191.325 268.722 191.45 268.652 191.64L265.82 199.24C265.702 199.556 265.936 199.893 266.273 199.893ZM270.258 199.893C270.46 199.893 270.64 199.767 270.711 199.578L273.543 191.977C273.66 191.661 273.427 191.325 273.09 191.325C272.888 191.325 272.707 191.45 272.636 191.64L269.805 199.24C269.687 199.556 269.921 199.893 270.258 199.893ZM274.243 199.893C274.445 199.893 274.625 199.767 274.696 199.578L277.527 191.977C277.645 191.661 277.412 191.325 277.074 191.325C276.872 191.325 276.692 191.45 276.621 191.64L273.79 199.24C273.672 199.556 273.905 199.893 274.243 199.893ZM278.227 199.893C278.429 199.893 278.61 199.767 278.681 199.578L281.512 191.977C281.63 191.661 281.396 191.325 281.059 191.325C280.857 191.325 280.677 191.45 280.606 191.64L277.774 199.24C277.657 199.556 277.89 199.893 278.227 199.893ZM282.212 199.893C282.414 199.893 282.595 199.767 282.665 199.578L285.497 191.977C285.615 191.661 285.381 191.325 285.044 191.325C284.842 191.325 284.661 191.45 284.591 191.64L281.759 199.24C281.642 199.556 281.875 199.893 282.212 199.893ZM286.197 199.893C286.399 199.893 286.58 199.767 286.65 199.578L289.482 191.977C289.6 191.661 289.366 191.325 289.029 191.325C288.827 191.325 288.646 191.45 288.576 191.64L285.744 199.24C285.626 199.556 285.86 199.893 286.197 199.893ZM290.182 199.893C290.384 199.893 290.565 199.767 290.635 199.578L293.467 191.977C293.585 191.661 293.351 191.325 293.014 191.325C292.812 191.325 292.631 191.45 292.561 191.64L289.729 199.24C289.611 199.556 289.845 199.893 290.182 199.893ZM294.167 199.893C294.369 199.893 294.549 199.767 294.62 199.578L297.452 191.977C297.569 191.661 297.336 191.325 296.999 191.325C296.797 191.325 296.616 191.45 296.545 191.64L293.714 199.24C293.596 199.556 293.83 199.893 294.167 199.893ZM298.152 199.893C298.354 199.893 298.534 199.767 298.605 199.578L301.437 191.977C301.554 191.661 301.321 191.325 300.983 191.325C300.781 191.325 300.601 191.45 300.53 191.64L297.699 199.24C297.581 199.556 297.815 199.893 298.152 199.893ZM302.137 199.893C302.338 199.893 302.519 199.767 302.59 199.578L305.421 191.977C305.539 191.661 305.305 191.325 304.968 191.325C304.766 191.325 304.586 191.45 304.515 191.64L301.683 199.24C301.566 199.556 301.799 199.893 302.137 199.893ZM306.121 199.893C306.323 199.893 306.504 199.767 306.575 199.578L309.406 191.977C309.524 191.661 309.29 191.325 308.953 191.325C308.751 191.325 308.57 191.45 308.5 191.64L305.668 199.24C305.551 199.556 305.784 199.893 306.121 199.893ZM310.106 199.893C310.308 199.893 310.489 199.767 310.559 199.578L313.391 191.977C313.509 191.661 313.275 191.325 312.938 191.325C312.736 191.325 312.555 191.45 312.485 191.64L309.653 199.24C309.535 199.556 309.769 199.893 310.106 199.893ZM314.091 199.893C314.293 199.893 314.474 199.767 314.544 199.578L317.376 191.977C317.494 191.661 317.26 191.325 316.923 191.325C316.721 191.325 316.54 191.45 316.47 191.64L313.638 199.24C313.52 199.556 313.754 199.893 314.091 199.893ZM318.076 199.893C318.278 199.893 318.459 199.767 318.529 199.578L321.361 191.977C321.478 191.661 321.245 191.325 320.908 191.325C320.706 191.325 320.525 191.45 320.455 191.64L317.623 199.24C317.505 199.556 317.739 199.893 318.076 199.893ZM322.061 199.893C322.263 199.893 322.443 199.767 322.514 199.578L325.346 191.977C325.463 191.661 325.23 191.325 324.892 191.325C324.691 191.325 324.51 191.45 324.439 191.64L321.608 199.24C321.49 199.556 321.724 199.893 322.061 199.893ZM326.046 199.893C326.248 199.893 326.428 199.767 326.499 199.578L329.33 191.977C329.448 191.661 329.215 191.325 328.877 191.325C328.675 191.325 328.495 191.45 328.424 191.64L325.592 199.24C325.475 199.556 325.708 199.893 326.046 199.893ZM330.03 199.893C330.232 199.893 330.413 199.767 330.484 199.578L333.315 191.977C333.433 191.661 333.199 191.325 332.862 191.325C332.66 191.325 332.48 191.45 332.409 191.64L329.577 199.24C329.46 199.556 329.693 199.893 330.03 199.893ZM334.015 199.893C334.217 199.893 334.398 199.767 334.468 199.578L337.3 191.977C337.418 191.661 337.184 191.325 336.847 191.325C336.645 191.325 336.464 191.45 336.394 191.64L333.562 199.24C333.444 199.556 333.678 199.893 334.015 199.893ZM338 199.893C338.202 199.893 338.383 199.767 338.453 199.578L341.285 191.977C341.403 191.661 341.169 191.325 340.832 191.325C340.63 191.325 340.449 191.45 340.379 191.64L337.547 199.24C337.429 199.556 337.663 199.893 338 199.893ZM341.985 199.893C342.187 199.893 342.368 199.767 342.438 199.578L345.27 191.977C345.388 191.661 345.154 191.325 344.817 191.325C344.615 191.325 344.434 191.45 344.364 191.64L341.532 199.24C341.414 199.556 341.648 199.893 341.985 199.893ZM345.97 199.893C346.172 199.893 346.352 199.767 346.423 199.578L349.255 191.977C349.372 191.661 349.139 191.325 348.802 191.325C348.6 191.325 348.419 191.45 348.348 191.64L345.517 199.24C345.399 199.556 345.633 199.893 345.97 199.893ZM349.955 199.893C350.157 199.893 350.337 199.767 350.408 199.578L353.24 191.977C353.357 191.661 353.124 191.325 352.786 191.325C352.584 191.325 352.404 191.45 352.333 191.64L349.502 199.24C349.384 199.556 349.618 199.893 349.955 199.893ZM226.425 211.893C226.626 211.893 226.807 211.767 226.878 211.578L229.709 203.977C229.827 203.661 229.593 203.325 229.256 203.325C229.054 203.325 228.874 203.45 228.803 203.64L225.971 211.24C225.854 211.556 226.087 211.893 226.425 211.893ZM230.409 211.893C230.611 211.893 230.792 211.767 230.862 211.578L233.694 203.977C233.812 203.661 233.578 203.325 233.241 203.325C233.039 203.325 232.858 203.45 232.788 203.64L229.956 211.24C229.839 211.556 230.072 211.893 230.409 211.893ZM234.394 211.893C234.596 211.893 234.777 211.767 234.847 211.578L237.679 203.977C237.797 203.661 237.563 203.325 237.226 203.325C237.024 203.325 236.843 203.45 236.773 203.64L233.941 211.24C233.823 211.556 234.057 211.893 234.394 211.893ZM238.379 211.893C238.581 211.893 238.762 211.767 238.832 211.578L241.664 203.977C241.782 203.661 241.548 203.325 241.211 203.325C241.009 203.325 240.828 203.45 240.758 203.64L237.926 211.24C237.808 211.556 238.042 211.893 238.379 211.893ZM242.364 211.893C242.566 211.893 242.747 211.767 242.817 211.578L245.649 203.977C245.766 203.661 245.533 203.325 245.196 203.325C244.994 203.325 244.813 203.45 244.743 203.64L241.911 211.24C241.793 211.556 242.027 211.893 242.364 211.893ZM246.349 211.893C246.551 211.893 246.731 211.767 246.802 211.578L249.634 203.977C249.751 203.661 249.518 203.325 249.18 203.325C248.979 203.325 248.798 203.45 248.727 203.64L245.896 211.24C245.778 211.556 246.012 211.893 246.349 211.893ZM250.334 211.893C250.536 211.893 250.716 211.767 250.787 211.578L253.618 203.977C253.736 203.661 253.502 203.325 253.165 203.325C252.963 203.325 252.783 203.45 252.712 203.64L249.88 211.24C249.763 211.556 249.996 211.893 250.334 211.893ZM254.318 211.893C254.52 211.893 254.701 211.767 254.772 211.578L257.603 203.977C257.721 203.661 257.487 203.325 257.15 203.325C256.948 203.325 256.768 203.45 256.697 203.64L253.865 211.24C253.748 211.556 253.981 211.893 254.318 211.893ZM258.303 211.893C258.505 211.893 258.686 211.767 258.756 211.578L261.588 203.977C261.706 203.661 261.472 203.325 261.135 203.325C260.933 203.325 260.752 203.45 260.682 203.64L257.85 211.24C257.732 211.556 257.966 211.893 258.303 211.893ZM262.288 211.893C262.49 211.893 262.671 211.767 262.741 211.578L265.573 203.977C265.691 203.661 265.457 203.325 265.12 203.325C264.918 203.325 264.737 203.45 264.667 203.64L261.835 211.24C261.717 211.556 261.951 211.893 262.288 211.893ZM266.273 211.893C266.475 211.893 266.656 211.767 266.726 211.578L269.558 203.977C269.675 203.661 269.442 203.325 269.105 203.325C268.903 203.325 268.722 203.45 268.652 203.64L265.82 211.24C265.702 211.556 265.936 211.893 266.273 211.893ZM270.258 211.893C270.46 211.893 270.64 211.767 270.711 211.578L273.543 203.977C273.66 203.661 273.427 203.325 273.09 203.325C272.888 203.325 272.707 203.45 272.636 203.64L269.805 211.24C269.687 211.556 269.921 211.893 270.258 211.893ZM274.243 211.893C274.445 211.893 274.625 211.767 274.696 211.578L277.527 203.977C277.645 203.661 277.412 203.325 277.074 203.325C276.872 203.325 276.692 203.45 276.621 203.64L273.79 211.24C273.672 211.556 273.905 211.893 274.243 211.893ZM278.227 211.893C278.429 211.893 278.61 211.767 278.681 211.578L281.512 203.977C281.63 203.661 281.396 203.325 281.059 203.325C280.857 203.325 280.677 203.45 280.606 203.64L277.774 211.24C277.657 211.556 277.89 211.893 278.227 211.893ZM282.212 211.893C282.414 211.893 282.595 211.767 282.665 211.578L285.497 203.977C285.615 203.661 285.381 203.325 285.044 203.325C284.842 203.325 284.661 203.45 284.591 203.64L281.759 211.24C281.642 211.556 281.875 211.893 282.212 211.893ZM286.197 211.893C286.399 211.893 286.58 211.767 286.65 211.578L289.482 203.977C289.6 203.661 289.366 203.325 289.029 203.325C288.827 203.325 288.646 203.45 288.576 203.64L285.744 211.24C285.626 211.556 285.86 211.893 286.197 211.893ZM290.182 211.893C290.384 211.893 290.565 211.767 290.635 211.578L293.467 203.977C293.585 203.661 293.351 203.325 293.014 203.325C292.812 203.325 292.631 203.45 292.561 203.64L289.729 211.24C289.611 211.556 289.845 211.893 290.182 211.893ZM294.167 211.893C294.369 211.893 294.549 211.767 294.62 211.578L297.452 203.977C297.569 203.661 297.336 203.325 296.999 203.325C296.797 203.325 296.616 203.45 296.545 203.64L293.714 211.24C293.596 211.556 293.83 211.893 294.167 211.893ZM298.152 211.893C298.354 211.893 298.534 211.767 298.605 211.578L301.437 203.977C301.554 203.661 301.321 203.325 300.983 203.325C300.781 203.325 300.601 203.45 300.53 203.64L297.699 211.24C297.581 211.556 297.815 211.893 298.152 211.893ZM302.137 211.893C302.338 211.893 302.519 211.767 302.59 211.578L305.421 203.977C305.539 203.661 305.305 203.325 304.968 203.325C304.766 203.325 304.586 203.45 304.515 203.64L301.683 211.24C301.566 211.556 301.799 211.893 302.137 211.893ZM306.121 211.893C306.323 211.893 306.504 211.767 306.575 211.578L309.406 203.977C309.524 203.661 309.29 203.325 308.953 203.325C308.751 203.325 308.57 203.45 308.5 203.64L305.668 211.24C305.551 211.556 305.784 211.893 306.121 211.893ZM310.106 211.893C310.308 211.893 310.489 211.767 310.559 211.578L313.391 203.977C313.509 203.661 313.275 203.325 312.938 203.325C312.736 203.325 312.555 203.45 312.485 203.64L309.653 211.24C309.535 211.556 309.769 211.893 310.106 211.893ZM314.091 211.893C314.293 211.893 314.474 211.767 314.544 211.578L317.376 203.977C317.494 203.661 317.26 203.325 316.923 203.325C316.721 203.325 316.54 203.45 316.47 203.64L313.638 211.24C313.52 211.556 313.754 211.893 314.091 211.893ZM318.076 211.893C318.278 211.893 318.459 211.767 318.529 211.578L321.361 203.977C321.478 203.661 321.245 203.325 320.908 203.325C320.706 203.325 320.525 203.45 320.455 203.64L317.623 211.24C317.505 211.556 317.739 211.893 318.076 211.893ZM322.061 211.893C322.263 211.893 322.443 211.767 322.514 211.578L325.346 203.977C325.463 203.661 325.23 203.325 324.892 203.325C324.691 203.325 324.51 203.45 324.439 203.64L321.608 211.24C321.49 211.556 321.724 211.893 322.061 211.893ZM326.046 211.893C326.248 211.893 326.428 211.767 326.499 211.578L329.33 203.977C329.448 203.661 329.215 203.325 328.877 203.325C328.675 203.325 328.495 203.45 328.424 203.64L325.592 211.24C325.475 211.556 325.708 211.893 326.046 211.893ZM330.03 211.893C330.232 211.893 330.413 211.767 330.484 211.578L333.315 203.977C333.433 203.661 333.199 203.325 332.862 203.325C332.66 203.325 332.48 203.45 332.409 203.64L329.577 211.24C329.46 211.556 329.693 211.893 330.03 211.893ZM334.015 211.893C334.217 211.893 334.398 211.767 334.468 211.578L337.3 203.977C337.418 203.661 337.184 203.325 336.847 203.325C336.645 203.325 336.464 203.45 336.394 203.64L333.562 211.24C333.444 211.556 333.678 211.893 334.015 211.893ZM338 211.893C338.202 211.893 338.383 211.767 338.453 211.578L341.285 203.977C341.403 203.661 341.169 203.325 340.832 203.325C340.63 203.325 340.449 203.45 340.379 203.64L337.547 211.24C337.429 211.556 337.663 211.893 338 211.893ZM341.985 211.893C342.187 211.893 342.368 211.767 342.438 211.578L345.27 203.977C345.388 203.661 345.154 203.325 344.817 203.325C344.615 203.325 344.434 203.45 344.364 203.64L341.532 211.24C341.414 211.556 341.648 211.893 341.985 211.893ZM345.97 211.893C346.172 211.893 346.352 211.767 346.423 211.578L349.255 203.977C349.372 203.661 349.139 203.325 348.802 203.325C348.6 203.325 348.419 203.45 348.348 203.64L345.517 211.24C345.399 211.556 345.633 211.893 345.97 211.893ZM349.955 211.893C350.157 211.893 350.337 211.767 350.408 211.578L353.24 203.977C353.357 203.661 353.124 203.325 352.786 203.325C352.584 203.325 352.404 203.45 352.333 203.64L349.502 211.24C349.384 211.556 349.618 211.893 349.955 211.893ZM234.394 223.893C234.596 223.893 234.777 223.767 234.847 223.578L237.679 215.977C237.797 215.661 237.563 215.325 237.226 215.325C237.024 215.325 236.843 215.45 236.773 215.64L233.941 223.24C233.823 223.556 234.057 223.893 234.394 223.893ZM238.379 223.893C238.581 223.893 238.762 223.767 238.832 223.578L241.664 215.977C241.782 215.661 241.548 215.325 241.211 215.325C241.009 215.325 240.828 215.45 240.758 215.64L237.926 223.24C237.808 223.556 238.042 223.893 238.379 223.893ZM242.364 223.893C242.566 223.893 242.747 223.767 242.817 223.578L245.649 215.977C245.766 215.661 245.533 215.325 245.196 215.325C244.994 215.325 244.813 215.45 244.743 215.64L241.911 223.24C241.793 223.556 242.027 223.893 242.364 223.893ZM246.349 223.893C246.551 223.893 246.731 223.767 246.802 223.578L249.634 215.977C249.751 215.661 249.518 215.325 249.18 215.325C248.979 215.325 248.798 215.45 248.727 215.64L245.896 223.24C245.778 223.556 246.012 223.893 246.349 223.893ZM250.334 223.893C250.536 223.893 250.716 223.767 250.787 223.578L253.618 215.977C253.736 215.661 253.502 215.325 253.165 215.325C252.963 215.325 252.783 215.45 252.712 215.64L249.88 223.24C249.763 223.556 249.996 223.893 250.334 223.893ZM254.318 223.893C254.52 223.893 254.701 223.767 254.772 223.578L257.603 215.977C257.721 215.661 257.487 215.325 257.15 215.325C256.948 215.325 256.768 215.45 256.697 215.64L253.865 223.24C253.748 223.556 253.981 223.893 254.318 223.893ZM258.303 223.893C258.505 223.893 258.686 223.767 258.756 223.578L261.588 215.977C261.706 215.661 261.472 215.325 261.135 215.325C260.933 215.325 260.752 215.45 260.682 215.64L257.85 223.24C257.732 223.556 257.966 223.893 258.303 223.893ZM262.288 223.893C262.49 223.893 262.671 223.767 262.741 223.578L265.573 215.977C265.691 215.661 265.457 215.325 265.12 215.325C264.918 215.325 264.737 215.45 264.667 215.64L261.835 223.24C261.717 223.556 261.951 223.893 262.288 223.893ZM266.273 223.893C266.475 223.893 266.656 223.767 266.726 223.578L269.558 215.977C269.675 215.661 269.442 215.325 269.105 215.325C268.903 215.325 268.722 215.45 268.652 215.64L265.82 223.24C265.702 223.556 265.936 223.893 266.273 223.893ZM270.258 223.893C270.46 223.893 270.64 223.767 270.711 223.578L273.543 215.977C273.66 215.661 273.427 215.325 273.09 215.325C272.888 215.325 272.707 215.45 272.636 215.64L269.805 223.24C269.687 223.556 269.921 223.893 270.258 223.893ZM274.243 223.893C274.445 223.893 274.625 223.767 274.696 223.578L277.527 215.977C277.645 215.661 277.412 215.325 277.074 215.325C276.872 215.325 276.692 215.45 276.621 215.64L273.79 223.24C273.672 223.556 273.905 223.893 274.243 223.893ZM278.227 223.893C278.429 223.893 278.61 223.767 278.681 223.578L281.512 215.977C281.63 215.661 281.396 215.325 281.059 215.325C280.857 215.325 280.677 215.45 280.606 215.64L277.774 223.24C277.657 223.556 277.89 223.893 278.227 223.893ZM282.212 223.893C282.414 223.893 282.595 223.767 282.665 223.578L285.497 215.977C285.615 215.661 285.381 215.325 285.044 215.325C284.842 215.325 284.661 215.45 284.591 215.64L281.759 223.24C281.642 223.556 281.875 223.893 282.212 223.893ZM286.197 223.893C286.399 223.893 286.58 223.767 286.65 223.578L289.482 215.977C289.6 215.661 289.366 215.325 289.029 215.325C288.827 215.325 288.646 215.45 288.576 215.64L285.744 223.24C285.626 223.556 285.86 223.893 286.197 223.893ZM290.182 223.893C290.384 223.893 290.565 223.767 290.635 223.578L293.467 215.977C293.585 215.661 293.351 215.325 293.014 215.325C292.812 215.325 292.631 215.45 292.561 215.64L289.729 223.24C289.611 223.556 289.845 223.893 290.182 223.893ZM294.167 223.893C294.369 223.893 294.549 223.767 294.62 223.578L297.452 215.977C297.569 215.661 297.336 215.325 296.999 215.325C296.797 215.325 296.616 215.45 296.545 215.64L293.714 223.24C293.596 223.556 293.83 223.893 294.167 223.893ZM298.152 223.893C298.354 223.893 298.534 223.767 298.605 223.578L301.437 215.977C301.554 215.661 301.321 215.325 300.983 215.325C300.781 215.325 300.601 215.45 300.53 215.64L297.699 223.24C297.581 223.556 297.815 223.893 298.152 223.893ZM302.137 223.893C302.338 223.893 302.519 223.767 302.59 223.578L305.421 215.977C305.539 215.661 305.305 215.325 304.968 215.325C304.766 215.325 304.586 215.45 304.515 215.64L301.683 223.24C301.566 223.556 301.799 223.893 302.137 223.893ZM306.121 223.893C306.323 223.893 306.504 223.767 306.575 223.578L309.406 215.977C309.524 215.661 309.29 215.325 308.953 215.325C308.751 215.325 308.57 215.45 308.5 215.64L305.668 223.24C305.551 223.556 305.784 223.893 306.121 223.893ZM310.106 223.893C310.308 223.893 310.489 223.767 310.559 223.578L313.391 215.977C313.509 215.661 313.275 215.325 312.938 215.325C312.736 215.325 312.555 215.45 312.485 215.64L309.653 223.24C309.535 223.556 309.769 223.893 310.106 223.893ZM314.091 223.893C314.293 223.893 314.474 223.767 314.544 223.578L317.376 215.977C317.494 215.661 317.26 215.325 316.923 215.325C316.721 215.325 316.54 215.45 316.47 215.64L313.638 223.24C313.52 223.556 313.754 223.893 314.091 223.893ZM318.076 223.893C318.278 223.893 318.459 223.767 318.529 223.578L321.361 215.977C321.478 215.661 321.245 215.325 320.908 215.325C320.706 215.325 320.525 215.45 320.455 215.64L317.623 223.24C317.505 223.556 317.739 223.893 318.076 223.893ZM322.061 223.893C322.263 223.893 322.443 223.767 322.514 223.578L325.346 215.977C325.463 215.661 325.23 215.325 324.892 215.325C324.691 215.325 324.51 215.45 324.439 215.64L321.608 223.24C321.49 223.556 321.724 223.893 322.061 223.893ZM326.046 223.893C326.248 223.893 326.428 223.767 326.499 223.578L329.33 215.977C329.448 215.661 329.215 215.325 328.877 215.325C328.675 215.325 328.495 215.45 328.424 215.64L325.592 223.24C325.475 223.556 325.708 223.893 326.046 223.893ZM330.03 223.893C330.232 223.893 330.413 223.767 330.484 223.578L333.315 215.977C333.433 215.661 333.199 215.325 332.862 215.325C332.66 215.325 332.48 215.45 332.409 215.64L329.577 223.24C329.46 223.556 329.693 223.893 330.03 223.893ZM334.015 223.893C334.217 223.893 334.398 223.767 334.468 223.578L337.3 215.977C337.418 215.661 337.184 215.325 336.847 215.325C336.645 215.325 336.464 215.45 336.394 215.64L333.562 223.24C333.444 223.556 333.678 223.893 334.015 223.893ZM338 223.893C338.202 223.893 338.383 223.767 338.453 223.578L341.285 215.977C341.403 215.661 341.169 215.325 340.832 215.325C340.63 215.325 340.449 215.45 340.379 215.64L337.547 223.24C337.429 223.556 337.663 223.893 338 223.893ZM341.985 223.893C342.187 223.893 342.368 223.767 342.438 223.578L345.27 215.977C345.388 215.661 345.154 215.325 344.817 215.325C344.615 215.325 344.434 215.45 344.364 215.64L341.532 223.24C341.414 223.556 341.648 223.893 341.985 223.893ZM345.97 223.893C346.172 223.893 346.352 223.767 346.423 223.578L349.255 215.977C349.372 215.661 349.139 215.325 348.802 215.325C348.6 215.325 348.419 215.45 348.348 215.64L345.517 223.24C345.399 223.556 345.633 223.893 345.97 223.893Z" fill="#414040"/>
<rect x="221.644" y="48.554" width="44.6197" height="60.3101" rx="10" fill="#FF3E1B"/>
</svg>
