<svg width="724" height="457" viewBox="0 0 724 457" fill="none" xmlns="http://www.w3.org/2000/svg">
<rect x="547" y="47" width="177" height="265" rx="15" fill="#414040"/>
<path fill-rule="evenodd" clip-rule="evenodd" d="M359.945 125H197.023C188.739 125 182.023 131.716 182.023 140V296.942C182.023 305.226 188.739 311.942 197.023 311.942H344.955C353.24 311.942 359.955 305.226 359.955 296.942V230.917C359.955 222.633 366.671 215.917 374.955 215.917H429.821C438.105 215.917 444.821 209.201 444.821 200.917V140C444.821 131.716 438.105 125 429.821 125H359.955H359.945Z" fill="#414040"/>
<path fill-rule="evenodd" clip-rule="evenodd" d="M540.964 236.023C540.964 227.739 534.248 221.023 525.964 221.023H379.055C370.77 221.023 364.055 227.739 364.055 236.023V311.939V311.941V440.977C364.055 449.261 370.77 455.977 379.055 455.977H435.975C444.26 455.977 450.975 449.261 450.975 440.977V326.941C450.975 318.656 457.691 311.941 465.975 311.941H525.964C534.248 311.941 540.964 305.225 540.964 296.941V236.023Z" fill="#414040"/>
<mask id="path-4-inside-1_2020_333" fill="white">
<path fill-rule="evenodd" clip-rule="evenodd" d="M176.909 236.023C176.909 227.739 170.194 221.023 161.909 221.023H15C6.71573 221.023 0 227.739 0 236.023V317.049V331.35V440.979C0 449.263 6.71572 455.979 15 455.979H343.932C352.216 455.979 358.932 449.263 358.932 440.979V332.049C358.932 323.765 352.216 317.049 343.932 317.049H191.909C183.625 317.049 176.909 310.333 176.909 302.049V236.023Z"/>
</mask>
<path fill-rule="evenodd" clip-rule="evenodd" d="M176.909 236.023C176.909 227.739 170.194 221.023 161.909 221.023H15C6.71573 221.023 0 227.739 0 236.023V317.049V331.35V440.979C0 449.263 6.71572 455.979 15 455.979H343.932C352.216 455.979 358.932 449.263 358.932 440.979V332.049C358.932 323.765 352.216 317.049 343.932 317.049H191.909C183.625 317.049 176.909 310.333 176.909 302.049V236.023Z" fill="#414040"/>
<path d="M0.5 317.049V315.024H-0.5V317.049H0.5ZM0.5 310.972V306.921H-0.5V310.972H0.5ZM0.5 302.87V298.818H-0.5V302.87H0.5ZM0.5 294.767V290.716H-0.5V294.767H0.5ZM0.5 286.665V282.613H-0.5V286.665H0.5ZM0.5 278.562V274.511H-0.5V278.562H0.5ZM0.5 270.459V266.408H-0.5V270.459H0.5ZM0.5 262.357V258.306H-0.5V262.357H0.5ZM0.5 254.254V250.203H-0.5V254.254H0.5ZM0.5 246.152V242.1H-0.5V246.152H0.5ZM0.5 238.049V236.023H-0.5V238.049H0.5ZM0.5 236.023C0.5 235.381 0.541735 234.749 0.622584 234.129L-0.369015 234C-0.455445 234.662 -0.5 235.338 -0.5 236.023H0.5ZM1.60007 230.473C2.08879 229.295 2.7286 228.194 3.49547 227.196L2.70255 226.587C1.88304 227.653 1.19901 228.83 0.676345 230.09L1.60007 230.473ZM6.1729 224.519C7.17083 223.752 8.27116 223.112 9.44971 222.624L9.06665 221.7C7.80627 222.222 6.63 222.906 5.56357 223.726L6.1729 224.519ZM13.1055 221.646C13.7253 221.565 14.3577 221.523 15 221.523V220.523C14.3143 220.523 13.6388 220.568 12.9762 220.654L13.1055 221.646ZM15 221.523H17.0404V220.523H15V221.523ZM21.1212 221.523H25.202V220.523H21.1212V221.523ZM29.2829 221.523H33.3637V220.523H29.2829V221.523ZM37.4445 221.523H41.5253V220.523H37.4445V221.523ZM45.6061 221.523H49.6869V220.523H45.6061V221.523ZM53.7677 221.523H57.8486V220.523H53.7677V221.523ZM61.9294 221.523H66.0102V220.523H61.9294V221.523ZM70.091 221.523H74.1718V220.523H70.091V221.523ZM78.2526 221.523H82.3334V220.523H78.2526V221.523ZM86.4143 221.523H90.4951V220.523H86.4143V221.523ZM94.5759 221.523H98.6567V220.523H94.5759V221.523ZM102.738 221.523H106.818V220.523H102.738V221.523ZM110.899 221.523H114.98V220.523H110.899V221.523ZM119.061 221.523H123.142V220.523H119.061V221.523ZM127.222 221.523H131.303V220.523H127.222V221.523ZM135.384 221.523H139.465V220.523H135.384V221.523ZM143.546 221.523H147.627V220.523H143.546V221.523ZM151.707 221.523H155.788V220.523H151.707V221.523ZM159.869 221.523H161.909V220.523H159.869V221.523ZM161.909 221.523C162.552 221.523 163.184 221.565 163.804 221.646L163.933 220.654C163.271 220.568 162.595 220.523 161.909 220.523V221.523ZM167.46 222.624C168.638 223.112 169.739 223.752 170.736 224.519L171.346 223.726C170.279 222.906 169.103 222.222 167.843 221.7L167.46 222.624ZM173.414 227.196C174.181 228.194 174.821 229.295 175.309 230.473L176.233 230.09C175.71 228.83 175.026 227.653 174.207 226.587L173.414 227.196ZM176.287 234.129C176.368 234.749 176.409 235.381 176.409 236.023H177.409C177.409 235.338 177.365 234.662 177.278 234L176.287 234.129ZM176.409 236.023V238.087H177.409V236.023H176.409ZM176.409 242.213V246.34H177.409V242.213H176.409ZM176.409 250.467V254.593H177.409V250.467H176.409ZM176.409 258.72V262.846H177.409V258.72H176.409ZM176.409 266.973V271.1H177.409V266.973H176.409ZM176.409 275.226V279.353H177.409V275.226H176.409ZM176.409 283.479V287.606H177.409V283.479H176.409ZM176.409 291.733V295.859H177.409V291.733H176.409ZM176.409 299.986V302.049H177.409V299.986H176.409ZM176.409 302.049C176.409 302.735 176.454 303.41 176.54 304.073L177.532 303.944C177.451 303.324 177.409 302.691 177.409 302.049H176.409ZM177.586 307.983C178.108 309.243 178.792 310.419 179.612 311.486L180.405 310.876C179.638 309.878 178.998 308.778 178.509 307.599L177.586 307.983ZM182.473 314.347C183.539 315.166 184.716 315.85 185.976 316.373L186.359 315.449C185.181 314.96 184.08 314.321 183.082 313.554L182.473 314.347ZM189.886 317.418C190.548 317.505 191.224 317.549 191.909 317.549V316.549C191.267 316.549 190.635 316.507 190.015 316.427L189.886 317.418ZM191.909 317.549H193.91V316.549H191.909V317.549ZM197.91 317.549H201.911V316.549H197.91V317.549ZM205.911 317.549H209.912V316.549H205.911V317.549ZM213.913 317.549H217.913V316.549H213.913V317.549ZM221.914 317.549H225.914V316.549H221.914V317.549ZM229.915 317.549H233.916V316.549H229.915V317.549ZM237.916 317.549H241.917V316.549H237.916V317.549ZM245.917 317.549H249.918V316.549H245.917V317.549ZM253.918 317.549H257.919V316.549H253.918V317.549ZM261.92 317.549H265.92V316.549H261.92V317.549ZM269.921 317.549H273.921V316.549H269.921V317.549ZM277.922 317.549H281.923V316.549H277.922V317.549ZM285.923 317.549H289.924V316.549H285.923V317.549ZM293.924 317.549H297.925V316.549H293.924V317.549ZM301.926 317.549H305.926V316.549H301.926V317.549ZM309.927 317.549H313.927V316.549H309.927V317.549ZM317.928 317.549H321.928V316.549H317.928V317.549ZM325.929 317.549H329.93V316.549H325.929V317.549ZM333.93 317.549H337.931V316.549H333.93V317.549ZM341.931 317.549H343.932V316.549H341.931V317.549ZM343.932 317.549C344.574 317.549 345.206 317.591 345.826 317.672L345.956 316.68C345.293 316.594 344.617 316.549 343.932 316.549V317.549ZM349.482 318.649C350.661 319.138 351.761 319.778 352.759 320.545L353.368 319.752C352.302 318.932 351.125 318.248 349.865 317.726L349.482 318.649ZM355.436 323.222C356.203 324.22 356.843 325.32 357.332 326.499L358.255 326.116C357.733 324.855 357.049 323.679 356.229 322.613L355.436 323.222ZM358.309 330.155C358.39 330.775 358.432 331.407 358.432 332.049H359.432C359.432 331.363 359.387 330.688 359.301 330.025L358.309 330.155ZM358.432 332.049V333.994H359.432V332.049H358.432ZM358.432 337.885V341.775H359.432V337.885H358.432ZM358.432 345.665V349.556H359.432V345.665H358.432ZM358.432 353.446V357.336H359.432V353.446H358.432ZM358.432 361.227V365.117H359.432V361.227H358.432ZM358.432 369.007V372.898H359.432V369.007H358.432ZM358.432 376.788V380.678H359.432V376.788H358.432ZM358.432 384.569V388.459H359.432V384.569H358.432ZM358.432 392.35V396.24H359.432V392.35H358.432ZM358.432 400.13V404.021H359.432V400.13H358.432ZM358.432 407.911V411.801H359.432V407.911H358.432ZM358.432 415.692V419.582H359.432V415.692H358.432ZM358.432 423.472V427.363H359.432V423.472H358.432ZM358.432 431.253V435.143H359.432V431.253H358.432ZM358.432 439.034V440.979H359.432V439.034H358.432ZM358.432 440.979C358.432 441.621 358.39 442.253 358.309 442.873L359.301 443.003C359.387 442.34 359.432 441.665 359.432 440.979H358.432ZM357.332 446.529C356.843 447.708 356.203 448.808 355.436 449.806L356.229 450.415C357.049 449.349 357.733 448.173 358.255 446.912L357.332 446.529ZM352.759 452.483C351.761 453.25 350.661 453.89 349.482 454.379L349.865 455.302C351.125 454.78 352.302 454.096 353.368 453.276L352.759 452.483ZM345.826 455.356C345.206 455.437 344.574 455.479 343.932 455.479V456.479C344.617 456.479 345.293 456.434 345.956 456.348L345.826 455.356ZM343.932 455.479H341.926V456.479H343.932V455.479ZM337.915 455.479H333.903V456.479H337.915V455.479ZM329.892 455.479H325.881V456.479H329.892V455.479ZM321.869 455.479H317.858V456.479H321.869V455.479ZM313.846 455.479H309.835V456.479H313.846V455.479ZM305.824 455.479H301.812V456.479H305.824V455.479ZM297.801 455.479H293.79V456.479H297.801V455.479ZM289.778 455.479H285.767V456.479H289.778V455.479ZM281.756 455.479H277.744V456.479H281.756V455.479ZM273.733 455.479H269.722V456.479H273.733V455.479ZM265.71 455.479H261.699V456.479H265.71V455.479ZM257.687 455.479H253.676V456.479H257.687V455.479ZM249.665 455.479H245.653V456.479H249.665V455.479ZM241.642 455.479H237.631V456.479H241.642V455.479ZM233.619 455.479H229.608V456.479H233.619V455.479ZM225.597 455.479H221.585V456.479H225.597V455.479ZM217.574 455.479H213.562V456.479H217.574V455.479ZM209.551 455.479H205.54V456.479H209.551V455.479ZM201.528 455.479H197.517V456.479H201.528V455.479ZM193.506 455.479H189.494V456.479H193.506V455.479ZM185.483 455.479H181.472V456.479H185.483V455.479ZM177.46 455.479H173.449V456.479H177.46V455.479ZM169.437 455.479H165.426V456.479H169.437V455.479ZM161.415 455.479H157.403V456.479H161.415V455.479ZM153.392 455.479H149.381V456.479H153.392V455.479ZM145.369 455.479H141.358V456.479H145.369V455.479ZM137.346 455.479H133.335V456.479H137.346V455.479ZM129.324 455.479H125.312V456.479H129.324V455.479ZM121.301 455.479H117.29V456.479H121.301V455.479ZM113.278 455.479H109.267V456.479H113.278V455.479ZM105.256 455.479H101.244V456.479H105.256V455.479ZM97.2328 455.479H93.2214V456.479H97.2328V455.479ZM89.2101 455.479H85.1987V456.479H89.2101V455.479ZM81.1873 455.479H77.176V456.479H81.1873V455.479ZM73.1646 455.479H69.1533V456.479H73.1646V455.479ZM65.1419 455.479H61.1306V456.479H65.1419V455.479ZM57.1192 455.479H53.1079V456.479H57.1192V455.479ZM49.0965 455.479H45.0852V456.479H49.0965V455.479ZM41.0738 455.479H37.0625V456.479H41.0738V455.479ZM33.0511 455.479H29.0398V456.479H33.0511V455.479ZM25.0284 455.479H21.0171V456.479H25.0284V455.479ZM17.0057 455.479H15V456.479H17.0057V455.479ZM15 455.479C14.3577 455.479 13.7253 455.437 13.1055 455.356L12.9762 456.348C13.6388 456.434 14.3143 456.479 15 456.479V455.479ZM9.4497 454.379C8.27116 453.89 7.17083 453.25 6.1729 452.483L5.56357 453.276C6.63 454.096 7.80627 454.78 9.06665 455.302L9.4497 454.379ZM3.49547 449.806C2.7286 448.808 2.08879 447.708 1.60007 446.529L0.676345 446.912C1.199 448.173 1.88304 449.349 2.70255 450.415L3.49547 449.806ZM0.622584 442.873C0.541735 442.253 0.5 441.621 0.5 440.979H-0.5C-0.5 441.665 -0.455445 442.34 -0.369016 443.003L0.622584 442.873ZM0.5 440.979V439.021H-0.5V440.979H0.5ZM0.5 435.106V431.191H-0.5V435.106H0.5ZM0.5 427.275V423.36H-0.5V427.275H0.5ZM0.5 419.445V415.529H-0.5V419.445H0.5ZM0.5 411.614V407.699H-0.5V411.614H0.5ZM0.5 403.783V399.868H-0.5V403.783H0.5ZM0.5 395.953V392.037H-0.5V395.953H0.5ZM0.5 388.122V384.207H-0.5V388.122H0.5ZM0.5 380.291V376.376H-0.5V380.291H0.5ZM0.5 372.461V368.545H-0.5V372.461H0.5ZM0.5 364.63V360.715H-0.5V364.63H0.5ZM0.5 356.799V352.884H-0.5V356.799H0.5ZM0.5 348.969V345.054H-0.5V348.969H0.5ZM0.5 341.138V337.223H-0.5V341.138H0.5ZM0.5 333.308V331.35H-0.5V333.308H0.5ZM0.5 331.35V329.562H-0.5V331.35H0.5ZM0.5 325.987V322.412H-0.5V325.987H0.5ZM0.5 318.837V317.049H-0.5V318.837H0.5ZM1 317.049V315.024H-1V317.049H1ZM1 310.972V306.921H-1V310.972H1ZM1 302.87V298.818H-1V302.87H1ZM1 294.767V290.716H-1V294.767H1ZM1 286.665V282.613H-1V286.665H1ZM1 278.562V274.511H-1V278.562H1ZM1 270.459V266.408H-1V270.459H1ZM1 262.357V258.306H-1V262.357H1ZM1 254.254V250.203H-1V254.254H1ZM1 246.152V242.1H-1V246.152H1ZM1 238.049V236.023H-1V238.049H1ZM1 236.023C1 235.403 1.04032 234.792 1.11838 234.194L-0.864815 233.935C-0.954034 234.619 -1 235.316 -1 236.023H1ZM2.06193 230.665C2.53369 229.527 3.15138 228.465 3.89193 227.501L2.30609 226.282C1.46027 227.383 0.754111 228.597 0.214482 229.899L2.06193 230.665ZM6.47756 224.915C7.44124 224.175 8.50361 223.557 9.64123 223.085L8.87512 221.238C7.57382 221.778 6.35958 222.484 5.25891 223.33L6.47756 224.915ZM13.1702 222.142C13.7686 222.064 14.3794 222.023 15 222.023V220.023C14.2926 220.023 13.5955 220.069 12.9115 220.159L13.1702 222.142ZM15 222.023H17.0404V220.023H15V222.023ZM21.1212 222.023H25.202V220.023H21.1212V222.023ZM29.2829 222.023H33.3637V220.023H29.2829V222.023ZM37.4445 222.023H41.5253V220.023H37.4445V222.023ZM45.6061 222.023H49.6869V220.023H45.6061V222.023ZM53.7677 222.023H57.8486V220.023H53.7677V222.023ZM61.9294 222.023H66.0102V220.023H61.9294V222.023ZM70.091 222.023H74.1718V220.023H70.091V222.023ZM78.2526 222.023H82.3334V220.023H78.2526V222.023ZM86.4143 222.023H90.4951V220.023H86.4143V222.023ZM94.5759 222.023H98.6567V220.023H94.5759V222.023ZM102.738 222.023H106.818V220.023H102.738V222.023ZM110.899 222.023H114.98V220.023H110.899V222.023ZM119.061 222.023H123.142V220.023H119.061V222.023ZM127.222 222.023H131.303V220.023H127.222V222.023ZM135.384 222.023H139.465V220.023H135.384V222.023ZM143.546 222.023H147.627V220.023H143.546V222.023ZM151.707 222.023H155.788V220.023H151.707V222.023ZM159.869 222.023H161.909V220.023H159.869V222.023ZM161.909 222.023C162.53 222.023 163.141 222.064 163.739 222.142L163.998 220.159C163.314 220.069 162.617 220.023 161.909 220.023V222.023ZM167.268 223.085C168.406 223.557 169.468 224.175 170.432 224.915L171.65 223.33C170.55 222.484 169.336 221.778 168.034 221.238L167.268 223.085ZM173.017 227.501C173.758 228.465 174.376 229.527 174.847 230.665L176.695 229.899C176.155 228.597 175.449 227.383 174.603 226.282L173.017 227.501ZM175.791 234.194C175.869 234.792 175.909 235.403 175.909 236.023H177.909C177.909 235.316 177.863 234.619 177.774 233.935L175.791 234.194ZM175.909 236.023V238.087H177.909V236.023H175.909ZM175.909 242.213V246.34H177.909V242.213H175.909ZM175.909 250.467V254.593H177.909V250.467H175.909ZM175.909 258.72V262.846H177.909V258.72H175.909ZM175.909 266.973V271.1H177.909V266.973H175.909ZM175.909 275.226V279.353H177.909V275.226H175.909ZM175.909 283.479V287.606H177.909V283.479H175.909ZM175.909 291.733V295.859H177.909V291.733H175.909ZM175.909 299.986V302.049H177.909V299.986H175.909ZM175.909 302.049C175.909 302.757 175.955 303.454 176.045 304.138L178.028 303.879C177.95 303.281 177.909 302.67 177.909 302.049H175.909ZM177.124 308.174C177.663 309.475 178.37 310.69 179.215 311.79L180.801 310.572C180.061 309.608 179.443 308.546 178.971 307.408L177.124 308.174ZM182.168 314.743C183.269 315.589 184.483 316.295 185.784 316.835L186.551 314.987C185.413 314.515 184.351 313.898 183.387 313.157L182.168 314.743ZM189.821 317.914C190.505 318.003 191.202 318.049 191.909 318.049V316.049C191.289 316.049 190.678 316.009 190.08 315.931L189.821 317.914ZM191.909 318.049H193.91V316.049H191.909V318.049ZM197.91 318.049H201.911V316.049H197.91V318.049ZM205.911 318.049H209.912V316.049H205.911V318.049ZM213.913 318.049H217.913V316.049H213.913V318.049ZM221.914 318.049H225.914V316.049H221.914V318.049ZM229.915 318.049H233.916V316.049H229.915V318.049ZM237.916 318.049H241.917V316.049H237.916V318.049ZM245.917 318.049H249.918V316.049H245.917V318.049ZM253.918 318.049H257.919V316.049H253.918V318.049ZM261.92 318.049H265.92V316.049H261.92V318.049ZM269.921 318.049H273.921V316.049H269.921V318.049ZM277.922 318.049H281.923V316.049H277.922V318.049ZM285.923 318.049H289.924V316.049H285.923V318.049ZM293.924 318.049H297.925V316.049H293.924V318.049ZM301.926 318.049H305.926V316.049H301.926V318.049ZM309.927 318.049H313.927V316.049H309.927V318.049ZM317.928 318.049H321.928V316.049H317.928V318.049ZM325.929 318.049H329.93V316.049H325.929V318.049ZM333.93 318.049H337.931V316.049H333.93V318.049ZM341.931 318.049H343.932V316.049H341.931V318.049ZM343.932 318.049C344.552 318.049 345.163 318.089 345.762 318.168L346.02 316.184C345.336 316.095 344.639 316.049 343.932 316.049V318.049ZM349.29 319.111C350.428 319.583 351.49 320.201 352.454 320.941L353.673 319.355C352.572 318.509 351.358 317.803 350.057 317.264L349.29 319.111ZM355.04 323.527C355.78 324.49 356.398 325.553 356.87 326.69L358.717 325.924C358.178 324.623 357.471 323.409 356.626 322.308L355.04 323.527ZM357.813 330.219C357.891 330.818 357.932 331.429 357.932 332.049H359.932C359.932 331.342 359.886 330.645 359.797 329.961L357.813 330.219ZM357.932 332.049V333.994H359.932V332.049H357.932ZM357.932 337.885V341.775H359.932V337.885H357.932ZM357.932 345.665V349.556H359.932V345.665H357.932ZM357.932 353.446V357.336H359.932V353.446H357.932ZM357.932 361.227V365.117H359.932V361.227H357.932ZM357.932 369.007V372.898H359.932V369.007H357.932ZM357.932 376.788V380.678H359.932V376.788H357.932ZM357.932 384.569V388.459H359.932V384.569H357.932ZM357.932 392.35V396.24H359.932V392.35H357.932ZM357.932 400.13V404.021H359.932V400.13H357.932ZM357.932 407.911V411.801H359.932V407.911H357.932ZM357.932 415.692V419.582H359.932V415.692H357.932ZM357.932 423.472V427.363H359.932V423.472H357.932ZM357.932 431.253V435.143H359.932V431.253H357.932ZM357.932 439.034V440.979H359.932V439.034H357.932ZM357.932 440.979C357.932 441.599 357.891 442.21 357.813 442.809L359.797 443.067C359.886 442.383 359.932 441.686 359.932 440.979H357.932ZM356.87 446.338C356.398 447.475 355.78 448.538 355.04 449.501L356.626 450.72C357.471 449.619 358.178 448.405 358.717 447.104L356.87 446.338ZM352.454 452.087C351.49 452.827 350.428 453.445 349.29 453.917L350.057 455.764C351.358 455.225 352.572 454.519 353.673 453.673L352.454 452.087ZM345.762 454.86C345.163 454.938 344.552 454.979 343.932 454.979V456.979C344.639 456.979 345.336 456.933 346.02 456.844L345.762 454.86ZM343.932 454.979H341.926V456.979H343.932V454.979ZM337.915 454.979H333.903V456.979H337.915V454.979ZM329.892 454.979H325.881V456.979H329.892V454.979ZM321.869 454.979H317.858V456.979H321.869V454.979ZM313.846 454.979H309.835V456.979H313.846V454.979ZM305.824 454.979H301.812V456.979H305.824V454.979ZM297.801 454.979H293.79V456.979H297.801V454.979ZM289.778 454.979H285.767V456.979H289.778V454.979ZM281.756 454.979H277.744V456.979H281.756V454.979ZM273.733 454.979H269.722V456.979H273.733V454.979ZM265.71 454.979H261.699V456.979H265.71V454.979ZM257.687 454.979H253.676V456.979H257.687V454.979ZM249.665 454.979H245.653V456.979H249.665V454.979ZM241.642 454.979H237.631V456.979H241.642V454.979ZM233.619 454.979H229.608V456.979H233.619V454.979ZM225.597 454.979H221.585V456.979H225.597V454.979ZM217.574 454.979H213.562V456.979H217.574V454.979ZM209.551 454.979H205.54V456.979H209.551V454.979ZM201.528 454.979H197.517V456.979H201.528V454.979ZM193.506 454.979H189.494V456.979H193.506V454.979ZM185.483 454.979H181.472V456.979H185.483V454.979ZM177.46 454.979H173.449V456.979H177.46V454.979ZM169.437 454.979H165.426V456.979H169.437V454.979ZM161.415 454.979H157.403V456.979H161.415V454.979ZM153.392 454.979H149.381V456.979H153.392V454.979ZM145.369 454.979H141.358V456.979H145.369V454.979ZM137.346 454.979H133.335V456.979H137.346V454.979ZM129.324 454.979H125.312V456.979H129.324V454.979ZM121.301 454.979H117.29V456.979H121.301V454.979ZM113.278 454.979H109.267V456.979H113.278V454.979ZM105.256 454.979H101.244V456.979H105.256V454.979ZM97.2328 454.979H93.2214V456.979H97.2328V454.979ZM89.2101 454.979H85.1987V456.979H89.2101V454.979ZM81.1873 454.979H77.176V456.979H81.1873V454.979ZM73.1646 454.979H69.1533V456.979H73.1646V454.979ZM65.1419 454.979H61.1306V456.979H65.1419V454.979ZM57.1192 454.979H53.1079V456.979H57.1192V454.979ZM49.0965 454.979H45.0852V456.979H49.0965V454.979ZM41.0738 454.979H37.0625V456.979H41.0738V454.979ZM33.0511 454.979H29.0398V456.979H33.0511V454.979ZM25.0284 454.979H21.0171V456.979H25.0284V454.979ZM17.0057 454.979H15V456.979H17.0057V454.979ZM15 454.979C14.3794 454.979 13.7686 454.938 13.1702 454.86L12.9115 456.844C13.5955 456.933 14.2926 456.979 15 456.979V454.979ZM9.64123 453.917C8.50361 453.445 7.44124 452.827 6.47756 452.087L5.25891 453.673C6.35958 454.519 7.57382 455.225 8.87512 455.764L9.64123 453.917ZM3.89193 449.501C3.15138 448.538 2.53369 447.475 2.06193 446.338L0.214482 447.104C0.754111 448.405 1.46026 449.619 2.30609 450.72L3.89193 449.501ZM1.11838 442.809C1.04032 442.21 1 441.599 1 440.979H-1C-1 441.686 -0.954034 442.383 -0.864815 443.067L1.11838 442.809ZM1 440.979V439.021H-1V440.979H1ZM1 435.106V431.191H-1V435.106H1ZM1 427.275V423.36H-1V427.275H1ZM1 419.445V415.529H-1V419.445H1ZM1 411.614V407.699H-1V411.614H1ZM1 403.783V399.868H-1V403.783H1ZM1 395.953V392.037H-1V395.953H1ZM1 388.122V384.207H-1V388.122H1ZM1 380.291V376.376H-1V380.291H1ZM1 372.461V368.545H-1V372.461H1ZM1 364.63V360.715H-1V364.63H1ZM1 356.799V352.884H-1V356.799H1ZM1 348.969V345.054H-1V348.969H1ZM1 341.138V337.223H-1V341.138H1ZM1 333.308V331.35H-1V333.308H1ZM1 331.35V329.562H-1V331.35H1ZM1 325.987V322.412H-1V325.987H1ZM1 318.837V317.049H-1V318.837H1Z" fill="#F6F6F6" fill-opacity="0.5" mask="url(#path-4-inside-1_2020_333)"/>
<path fill-rule="evenodd" clip-rule="evenodd" d="M462.363 319.175C459.074 321.146 456.604 324.341 455.58 328.13H455.737L455.327 329.23C455.153 330.144 455.062 331.087 455.062 332.051V344.13H455.737L455.062 345.941V360.13H455.737L455.062 361.941V376.13H455.737L455.062 377.941V392.13H455.737L455.062 393.941V408.13H455.737L455.062 409.941V426.13H455.737L455.062 427.941V442.002C455.062 442.724 455.114 443.435 455.212 444.13H455.737L455.38 445.088C455.761 446.907 456.47 448.604 457.444 450.116L459.674 444.13H461.05L458.351 451.375C459.191 452.423 460.168 453.356 461.256 454.146L464.988 444.13H466.364L462.36 454.876C464.611 456.226 467.246 457.002 470.062 457.002H709.006C711.464 457.002 713.785 456.41 715.833 455.362L720.018 444.13H721.394L717.608 454.292C721.476 451.579 724.006 447.086 724.006 442.002V433.38L722.451 437.554H721.075L724.006 429.686V415.38L722.451 419.554H721.075L724.006 411.686V399.38L722.451 403.554H721.075L724.006 395.686V383.38L722.451 387.554H721.075L724.006 379.686V367.38L722.451 371.554H721.075L724.006 363.686V351.38L722.451 355.554H721.075L724.006 347.686V335.38L722.451 339.554H721.075L724.002 331.697C723.932 328.678 722.97 325.879 721.368 323.554H721.075L721.176 323.281C720.372 322.167 719.419 321.168 718.345 320.312L717.138 323.554H715.762L717.262 319.526C716.235 318.847 715.12 318.292 713.938 317.881L711.824 323.554H710.448L712.7 317.509C711.518 317.21 710.281 317.051 709.006 317.051H708.934L706.511 323.554H705.135L707.558 317.051H703.621L701.198 323.554H699.822L702.245 317.051H698.308L695.885 323.554H694.509L696.932 317.051H692.995L690.572 323.554H689.196L691.619 317.051H687.681L685.259 323.554H683.883L686.305 317.051H682.368L679.946 323.554H678.57L680.992 317.051H677.055L674.633 323.554H673.257L675.679 317.051H671.742L669.319 323.554H667.943L670.366 317.051H666.429L664.006 323.554H662.63L665.053 317.051H661.116L658.693 323.554H657.317L659.74 317.051H655.803L653.38 323.554H652.004L654.427 317.051H650.49L648.067 323.554H646.691L649.114 317.051H645.176L642.754 323.554H641.378L643.8 317.051H639.863L637.441 323.554H636.065L638.487 317.051H634.55L632.128 323.554H630.752L633.174 317.051H629.237L626.814 323.554H625.438L627.861 317.051H623.924L621.501 323.554H620.125L622.548 317.051H618.611L616.188 323.554H614.812L617.235 317.051H613.298L610.875 323.554H609.499L611.922 317.051H607.985L605.562 323.554H604.186L606.609 317.051H602.671L600.249 323.554H598.873L601.295 317.051H597.358L594.936 323.554H593.56L595.982 317.051H592.045L589.623 323.554H588.247L590.669 317.051H586.732L584.309 323.554H582.933L585.356 317.051H581.419L578.996 323.554H577.62L580.043 317.051H576.106L573.683 323.554H572.307L574.73 317.051H570.793L568.37 323.554H566.994L569.417 317.051H565.48L563.057 323.554H561.681L564.104 317.051H560.166L557.744 323.554H556.368L558.79 317.051H554.853L552.431 323.554H551.055L553.477 317.051H549.54L547.118 323.554H545.742L548.164 317.051H544.227L541.804 323.554H540.428L542.851 317.051H538.914L536.491 323.554H535.115L537.538 317.051H533.601L531.178 323.554H529.802L532.225 317.051H528.288L525.865 323.554H524.489L526.912 317.051H522.975L520.552 323.554H519.176L521.599 317.051H517.661L515.239 323.554H513.863L516.285 317.051H512.348L509.926 323.554H508.55L510.972 317.051H507.035L504.613 323.554H503.237L505.659 317.051H501.722L499.299 323.554H497.923L500.346 317.051H496.409L493.986 323.554H492.61L495.033 317.051H491.096L488.673 323.554H487.297L489.72 317.051H485.783L483.36 323.554H481.984L484.407 317.051H480.47L478.047 323.554H476.671L479.094 317.051H475.156L472.734 323.554H471.358L473.78 317.051H470.062C469.989 317.051 469.916 317.051 469.843 317.052L467.421 323.554H466.045L468.435 317.138C466.897 317.304 465.428 317.702 464.066 318.298L462.108 323.554H460.732L462.363 319.175ZM456.794 339.554L461.05 328.13H459.674L455.418 339.554H456.794ZM462.108 339.554L466.364 328.13H464.988L460.732 339.554H462.108ZM467.421 339.554L471.677 328.13H470.301L466.045 339.554H467.421ZM472.734 339.554L476.99 328.13H475.614L471.358 339.554H472.734ZM478.047 339.554L482.303 328.13H480.927L476.671 339.554H478.047ZM483.36 339.554L487.616 328.13H486.24L481.984 339.554H483.36ZM488.673 339.554L492.929 328.13H491.553L487.297 339.554H488.673ZM493.986 339.554L498.242 328.13H496.866L492.61 339.554H493.986ZM499.299 339.554L503.555 328.13H502.179L497.923 339.554H499.299ZM504.613 339.554L508.869 328.13H507.493L503.237 339.554H504.613ZM509.926 339.554L514.182 328.13H512.806L508.55 339.554H509.926ZM515.239 339.554L519.495 328.13H518.119L513.863 339.554H515.239ZM520.552 339.554L524.808 328.13H523.432L519.176 339.554H520.552ZM525.865 339.554L530.121 328.13H528.745L524.489 339.554H525.865ZM531.178 339.554L535.434 328.13H534.058L529.802 339.554H531.178ZM536.491 339.554L540.747 328.13H539.371L535.115 339.554H536.491ZM541.804 339.554L546.06 328.13H544.684L540.428 339.554H541.804ZM547.118 339.554L551.374 328.13H549.998L545.742 339.554H547.118ZM552.431 339.554L556.687 328.13H555.311L551.055 339.554H552.431ZM557.744 339.554L562 328.13H560.624L556.368 339.554H557.744ZM563.057 339.554L567.313 328.13H565.937L561.681 339.554H563.057ZM568.37 339.554L572.626 328.13H571.25L566.994 339.554H568.37ZM573.683 339.554L577.939 328.13H576.563L572.307 339.554H573.683ZM578.996 339.554L583.252 328.13H581.876L577.62 339.554H578.996ZM584.309 339.554L588.565 328.13H587.189L582.933 339.554H584.309ZM589.623 339.554L593.879 328.13H592.503L588.247 339.554H589.623ZM594.936 339.554L599.192 328.13H597.816L593.56 339.554H594.936ZM600.249 339.554L604.505 328.13H603.129L598.873 339.554H600.249ZM605.562 339.554L609.818 328.13H608.442L604.186 339.554H605.562ZM610.875 339.554L615.131 328.13H613.755L609.499 339.554H610.875ZM616.188 339.554L620.444 328.13H619.068L614.812 339.554H616.188ZM621.501 339.554L625.757 328.13H624.381L620.125 339.554H621.501ZM626.814 339.554L631.07 328.13H629.694L625.438 339.554H626.814ZM632.128 339.554L636.384 328.13H635.008L630.752 339.554H632.128ZM637.441 339.554L641.697 328.13H640.321L636.065 339.554H637.441ZM642.754 339.554L647.01 328.13H645.634L641.378 339.554H642.754ZM648.067 339.554L652.323 328.13H650.947L646.691 339.554H648.067ZM653.38 339.554L657.636 328.13H656.26L652.004 339.554H653.38ZM658.693 339.554L662.949 328.13H661.573L657.317 339.554H658.693ZM664.006 339.554L668.262 328.13H666.886L662.63 339.554H664.006ZM669.319 339.554L673.575 328.13H672.199L667.943 339.554H669.319ZM674.633 339.554L678.889 328.13H677.513L673.257 339.554H674.633ZM679.946 339.554L684.202 328.13H682.826L678.57 339.554H679.946ZM685.259 339.554L689.515 328.13H688.139L683.883 339.554H685.259ZM690.572 339.554L694.828 328.13H693.452L689.196 339.554H690.572ZM695.885 339.554L700.141 328.13H698.765L694.509 339.554H695.885ZM701.198 339.554L705.454 328.13H704.078L699.822 339.554H701.198ZM706.511 339.554L710.767 328.13H709.391L705.135 339.554H706.511ZM711.824 339.554L716.08 328.13H714.704L710.448 339.554H711.824ZM717.138 339.554L721.394 328.13H720.018L715.762 339.554H717.138ZM456.794 355.554L461.05 344.13H459.674L455.418 355.554H456.794ZM462.108 355.554L466.364 344.13H464.988L460.732 355.554H462.108ZM467.421 355.554L471.677 344.13H470.301L466.045 355.554H467.421ZM472.734 355.554L476.99 344.13H475.614L471.358 355.554H472.734ZM478.047 355.554L482.303 344.13H480.927L476.671 355.554H478.047ZM483.36 355.554L487.616 344.13H486.24L481.984 355.554H483.36ZM488.673 355.554L492.929 344.13H491.553L487.297 355.554H488.673ZM493.986 355.554L498.242 344.13H496.866L492.61 355.554H493.986ZM499.299 355.554L503.555 344.13H502.179L497.923 355.554H499.299ZM504.613 355.554L508.869 344.13H507.493L503.237 355.554H504.613ZM509.926 355.554L514.182 344.13H512.806L508.55 355.554H509.926ZM515.239 355.554L519.495 344.13H518.119L513.863 355.554H515.239ZM520.552 355.554L524.808 344.13H523.432L519.176 355.554H520.552ZM525.865 355.554L530.121 344.13H528.745L524.489 355.554H525.865ZM531.178 355.554L535.434 344.13H534.058L529.802 355.554H531.178ZM536.491 355.554L540.747 344.13H539.371L535.115 355.554H536.491ZM541.804 355.554L546.06 344.13H544.684L540.428 355.554H541.804ZM547.118 355.554L551.374 344.13H549.998L545.742 355.554H547.118ZM552.431 355.554L556.687 344.13H555.311L551.055 355.554H552.431ZM557.744 355.554L562 344.13H560.624L556.368 355.554H557.744ZM563.057 355.554L567.313 344.13H565.937L561.681 355.554H563.057ZM568.37 355.554L572.626 344.13H571.25L566.994 355.554H568.37ZM573.683 355.554L577.939 344.13H576.563L572.307 355.554H573.683ZM578.996 355.554L583.252 344.13H581.876L577.62 355.554H578.996ZM584.309 355.554L588.565 344.13H587.189L582.933 355.554H584.309ZM589.623 355.554L593.879 344.13H592.503L588.247 355.554H589.623ZM594.936 355.554L599.192 344.13H597.816L593.56 355.554H594.936ZM600.249 355.554L604.505 344.13H603.129L598.873 355.554H600.249ZM605.562 355.554L609.818 344.13H608.442L604.186 355.554H605.562ZM610.875 355.554L615.131 344.13H613.755L609.499 355.554H610.875ZM616.188 355.554L620.444 344.13H619.068L614.812 355.554H616.188ZM621.501 355.554L625.757 344.13H624.381L620.125 355.554H621.501ZM626.814 355.554L631.07 344.13H629.694L625.438 355.554H626.814ZM632.128 355.554L636.384 344.13H635.008L630.752 355.554H632.128ZM637.441 355.554L641.697 344.13H640.321L636.065 355.554H637.441ZM642.754 355.554L647.01 344.13H645.634L641.378 355.554H642.754ZM648.067 355.554L652.323 344.13H650.947L646.691 355.554H648.067ZM653.38 355.554L657.636 344.13H656.26L652.004 355.554H653.38ZM658.693 355.554L662.949 344.13H661.573L657.317 355.554H658.693ZM664.006 355.554L668.262 344.13H666.886L662.63 355.554H664.006ZM669.319 355.554L673.575 344.13H672.199L667.943 355.554H669.319ZM674.633 355.554L678.889 344.13H677.513L673.257 355.554H674.633ZM679.946 355.554L684.202 344.13H682.826L678.57 355.554H679.946ZM685.259 355.554L689.515 344.13H688.139L683.883 355.554H685.259ZM690.572 355.554L694.828 344.13H693.452L689.196 355.554H690.572ZM695.885 355.554L700.141 344.13H698.765L694.509 355.554H695.885ZM701.198 355.554L705.454 344.13H704.078L699.822 355.554H701.198ZM706.511 355.554L710.767 344.13H709.391L705.135 355.554H706.511ZM711.824 355.554L716.08 344.13H714.704L710.448 355.554H711.824ZM717.138 355.554L721.394 344.13H720.018L715.762 355.554H717.138ZM456.794 371.554L461.05 360.13H459.674L455.418 371.554H456.794ZM462.108 371.554L466.364 360.13H464.988L460.732 371.554H462.108ZM467.421 371.554L471.677 360.13H470.301L466.045 371.554H467.421ZM472.734 371.554L476.99 360.13H475.614L471.358 371.554H472.734ZM478.047 371.554L482.303 360.13H480.927L476.671 371.554H478.047ZM483.36 371.554L487.616 360.13H486.24L481.984 371.554H483.36ZM488.673 371.554L492.929 360.13H491.553L487.297 371.554H488.673ZM493.986 371.554L498.242 360.13H496.866L492.61 371.554H493.986ZM499.299 371.554L503.555 360.13H502.179L497.923 371.554H499.299ZM504.613 371.554L508.869 360.13H507.493L503.237 371.554H504.613ZM509.926 371.554L514.182 360.13H512.806L508.55 371.554H509.926ZM515.239 371.554L519.495 360.13H518.119L513.863 371.554H515.239ZM520.552 371.554L524.808 360.13H523.432L519.176 371.554H520.552ZM525.865 371.554L530.121 360.13H528.745L524.489 371.554H525.865ZM531.178 371.554L535.434 360.13H534.058L529.802 371.554H531.178ZM536.491 371.554L540.747 360.13H539.371L535.115 371.554H536.491ZM541.804 371.554L546.06 360.13H544.684L540.428 371.554H541.804ZM547.118 371.554L551.374 360.13H549.998L545.742 371.554H547.118ZM552.431 371.554L556.687 360.13H555.311L551.055 371.554H552.431ZM557.744 371.554L562 360.13H560.624L556.368 371.554H557.744ZM563.057 371.554L567.313 360.13H565.937L561.681 371.554H563.057ZM568.37 371.554L572.626 360.13H571.25L566.994 371.554H568.37ZM573.683 371.554L577.939 360.13H576.563L572.307 371.554H573.683ZM578.996 371.554L583.252 360.13H581.876L577.62 371.554H578.996ZM584.309 371.554L588.565 360.13H587.189L582.933 371.554H584.309ZM589.623 371.554L593.879 360.13H592.503L588.247 371.554H589.623ZM594.936 371.554L599.192 360.13H597.816L593.56 371.554H594.936ZM600.249 371.554L604.505 360.13H603.129L598.873 371.554H600.249ZM605.562 371.554L609.818 360.13H608.442L604.186 371.554H605.562ZM610.875 371.554L615.131 360.13H613.755L609.499 371.554H610.875ZM616.188 371.554L620.444 360.13H619.068L614.812 371.554H616.188ZM621.501 371.554L625.757 360.13H624.381L620.125 371.554H621.501ZM626.814 371.554L631.07 360.13H629.694L625.438 371.554H626.814ZM632.128 371.554L636.384 360.13H635.008L630.752 371.554H632.128ZM637.441 371.554L641.697 360.13H640.321L636.065 371.554H637.441ZM642.754 371.554L647.01 360.13H645.634L641.378 371.554H642.754ZM648.067 371.554L652.323 360.13H650.947L646.691 371.554H648.067ZM653.38 371.554L657.636 360.13H656.26L652.004 371.554H653.38ZM658.693 371.554L662.949 360.13H661.573L657.317 371.554H658.693ZM664.006 371.554L668.262 360.13H666.886L662.63 371.554H664.006ZM669.319 371.554L673.575 360.13H672.199L667.943 371.554H669.319ZM674.633 371.554L678.889 360.13H677.513L673.257 371.554H674.633ZM679.946 371.554L684.202 360.13H682.826L678.57 371.554H679.946ZM685.259 371.554L689.515 360.13H688.139L683.883 371.554H685.259ZM690.572 371.554L694.828 360.13H693.452L689.196 371.554H690.572ZM695.885 371.554L700.141 360.13H698.765L694.509 371.554H695.885ZM701.198 371.554L705.454 360.13H704.078L699.822 371.554H701.198ZM706.511 371.554L710.767 360.13H709.391L705.135 371.554H706.511ZM711.824 371.554L716.08 360.13H714.704L710.448 371.554H711.824ZM717.138 371.554L721.394 360.13H720.018L715.762 371.554H717.138ZM456.794 387.554L461.05 376.13H459.674L455.418 387.554H456.794ZM462.108 387.554L466.364 376.13H464.988L460.732 387.554H462.108ZM467.421 387.554L471.677 376.13H470.301L466.045 387.554H467.421ZM472.734 387.554L476.99 376.13H475.614L471.358 387.554H472.734ZM478.047 387.554L482.303 376.13H480.927L476.671 387.554H478.047ZM483.36 387.554L487.616 376.13H486.24L481.984 387.554H483.36ZM488.673 387.554L492.929 376.13H491.553L487.297 387.554H488.673ZM493.986 387.554L498.242 376.13H496.866L492.61 387.554H493.986ZM499.299 387.554L503.555 376.13H502.179L497.923 387.554H499.299ZM504.613 387.554L508.869 376.13H507.493L503.237 387.554H504.613ZM509.926 387.554L514.182 376.13H512.806L508.55 387.554H509.926ZM515.239 387.554L519.495 376.13H518.119L513.863 387.554H515.239ZM520.552 387.554L524.808 376.13H523.432L519.176 387.554H520.552ZM525.865 387.554L530.121 376.13H528.745L524.489 387.554H525.865ZM531.178 387.554L535.434 376.13H534.058L529.802 387.554H531.178ZM536.491 387.554L540.747 376.13H539.371L535.115 387.554H536.491ZM541.804 387.554L546.06 376.13H544.684L540.428 387.554H541.804ZM547.118 387.554L551.374 376.13H549.998L545.742 387.554H547.118ZM552.431 387.554L556.687 376.13H555.311L551.055 387.554H552.431ZM557.744 387.554L562 376.13H560.624L556.368 387.554H557.744ZM563.057 387.554L567.313 376.13H565.937L561.681 387.554H563.057ZM568.37 387.554L572.626 376.13H571.25L566.994 387.554H568.37ZM573.683 387.554L577.939 376.13H576.563L572.307 387.554H573.683ZM578.996 387.554L583.252 376.13H581.876L577.62 387.554H578.996ZM584.309 387.554L588.565 376.13H587.189L582.933 387.554H584.309ZM589.623 387.554L593.879 376.13H592.503L588.247 387.554H589.623ZM594.936 387.554L599.192 376.13H597.816L593.56 387.554H594.936ZM600.249 387.554L604.505 376.13H603.129L598.873 387.554H600.249ZM605.562 387.554L609.818 376.13H608.442L604.186 387.554H605.562ZM610.875 387.554L615.131 376.13H613.755L609.499 387.554H610.875ZM616.188 387.554L620.444 376.13H619.068L614.812 387.554H616.188ZM621.501 387.554L625.757 376.13H624.381L620.125 387.554H621.501ZM626.814 387.554L631.07 376.13H629.694L625.438 387.554H626.814ZM632.128 387.554L636.384 376.13H635.008L630.752 387.554H632.128ZM637.441 387.554L641.697 376.13H640.321L636.065 387.554H637.441ZM642.754 387.554L647.01 376.13H645.634L641.378 387.554H642.754ZM648.067 387.554L652.323 376.13H650.947L646.691 387.554H648.067ZM653.38 387.554L657.636 376.13H656.26L652.004 387.554H653.38ZM658.693 387.554L662.949 376.13H661.573L657.317 387.554H658.693ZM664.006 387.554L668.262 376.13H666.886L662.63 387.554H664.006ZM669.319 387.554L673.575 376.13H672.199L667.943 387.554H669.319ZM674.633 387.554L678.889 376.13H677.513L673.257 387.554H674.633ZM679.946 387.554L684.202 376.13H682.826L678.57 387.554H679.946ZM685.259 387.554L689.515 376.13H688.139L683.883 387.554H685.259ZM690.572 387.554L694.828 376.13H693.452L689.196 387.554H690.572ZM695.885 387.554L700.141 376.13H698.765L694.509 387.554H695.885ZM701.198 387.554L705.454 376.13H704.078L699.822 387.554H701.198ZM706.511 387.554L710.767 376.13H709.391L705.135 387.554H706.511ZM711.824 387.554L716.08 376.13H714.704L710.448 387.554H711.824ZM717.138 387.554L721.394 376.13H720.018L715.762 387.554H717.138ZM456.794 403.554L461.05 392.13H459.674L455.418 403.554H456.794ZM462.108 403.554L466.364 392.13H464.988L460.732 403.554H462.108ZM467.421 403.554L471.677 392.13H470.301L466.045 403.554H467.421ZM472.734 403.554L476.99 392.13H475.614L471.358 403.554H472.734ZM478.047 403.554L482.303 392.13H480.927L476.671 403.554H478.047ZM483.36 403.554L487.616 392.13H486.24L481.984 403.554H483.36ZM488.673 403.554L492.929 392.13H491.553L487.297 403.554H488.673ZM493.986 403.554L498.242 392.13H496.866L492.61 403.554H493.986ZM499.299 403.554L503.555 392.13H502.179L497.923 403.554H499.299ZM504.613 403.554L508.869 392.13H507.493L503.237 403.554H504.613ZM509.926 403.554L514.182 392.13H512.806L508.55 403.554H509.926ZM515.239 403.554L519.495 392.13H518.119L513.863 403.554H515.239ZM520.552 403.554L524.808 392.13H523.432L519.176 403.554H520.552ZM525.865 403.554L530.121 392.13H528.745L524.489 403.554H525.865ZM531.178 403.554L535.434 392.13H534.058L529.802 403.554H531.178ZM536.491 403.554L540.747 392.13H539.371L535.115 403.554H536.491ZM541.804 403.554L546.06 392.13H544.684L540.428 403.554H541.804ZM547.118 403.554L551.374 392.13H549.998L545.742 403.554H547.118ZM552.431 403.554L556.687 392.13H555.311L551.055 403.554H552.431ZM557.744 403.554L562 392.13H560.624L556.368 403.554H557.744ZM563.057 403.554L567.313 392.13H565.937L561.681 403.554H563.057ZM568.37 403.554L572.626 392.13H571.25L566.994 403.554H568.37ZM573.683 403.554L577.939 392.13H576.563L572.307 403.554H573.683ZM578.996 403.554L583.252 392.13H581.876L577.62 403.554H578.996ZM584.309 403.554L588.565 392.13H587.189L582.933 403.554H584.309ZM589.623 403.554L593.879 392.13H592.503L588.247 403.554H589.623ZM594.936 403.554L599.192 392.13H597.816L593.56 403.554H594.936ZM600.249 403.554L604.505 392.13H603.129L598.873 403.554H600.249ZM605.562 403.554L609.818 392.13H608.442L604.186 403.554H605.562ZM610.875 403.554L615.131 392.13H613.755L609.499 403.554H610.875ZM616.188 403.554L620.444 392.13H619.068L614.812 403.554H616.188ZM621.501 403.554L625.757 392.13H624.381L620.125 403.554H621.501ZM626.814 403.554L631.07 392.13H629.694L625.438 403.554H626.814ZM632.128 403.554L636.384 392.13H635.008L630.752 403.554H632.128ZM637.441 403.554L641.697 392.13H640.321L636.065 403.554H637.441ZM642.754 403.554L647.01 392.13H645.634L641.378 403.554H642.754ZM648.067 403.554L652.323 392.13H650.947L646.691 403.554H648.067ZM653.38 403.554L657.636 392.13H656.26L652.004 403.554H653.38ZM658.693 403.554L662.949 392.13H661.573L657.317 403.554H658.693ZM664.006 403.554L668.262 392.13H666.886L662.63 403.554H664.006ZM669.319 403.554L673.575 392.13H672.199L667.943 403.554H669.319ZM674.633 403.554L678.889 392.13H677.513L673.257 403.554H674.633ZM679.946 403.554L684.202 392.13H682.826L678.57 403.554H679.946ZM685.259 403.554L689.515 392.13H688.139L683.883 403.554H685.259ZM690.572 403.554L694.828 392.13H693.452L689.196 403.554H690.572ZM695.885 403.554L700.141 392.13H698.765L694.509 403.554H695.885ZM701.198 403.554L705.454 392.13H704.078L699.822 403.554H701.198ZM706.511 403.554L710.767 392.13H709.391L705.135 403.554H706.511ZM711.824 403.554L716.08 392.13H714.704L710.448 403.554H711.824ZM717.138 403.554L721.394 392.13H720.018L715.762 403.554H717.138ZM456.794 419.554L461.05 408.13H459.674L455.418 419.554H456.794ZM462.108 419.554L466.364 408.13H464.988L460.732 419.554H462.108ZM467.421 419.554L471.677 408.13H470.301L466.045 419.554H467.421ZM472.734 419.554L476.99 408.13H475.614L471.358 419.554H472.734ZM478.047 419.554L482.303 408.13H480.927L476.671 419.554H478.047ZM483.36 419.554L487.616 408.13H486.24L481.984 419.554H483.36ZM488.673 419.554L492.929 408.13H491.553L487.297 419.554H488.673ZM493.986 419.554L498.242 408.13H496.866L492.61 419.554H493.986ZM499.299 419.554L503.555 408.13H502.179L497.923 419.554H499.299ZM504.613 419.554L508.869 408.13H507.493L503.237 419.554H504.613ZM509.926 419.554L514.182 408.13H512.806L508.55 419.554H509.926ZM515.239 419.554L519.495 408.13H518.119L513.863 419.554H515.239ZM520.552 419.554L524.808 408.13H523.432L519.176 419.554H520.552ZM525.865 419.554L530.121 408.13H528.745L524.489 419.554H525.865ZM531.178 419.554L535.434 408.13H534.058L529.802 419.554H531.178ZM536.491 419.554L540.747 408.13H539.371L535.115 419.554H536.491ZM541.804 419.554L546.06 408.13H544.684L540.428 419.554H541.804ZM547.118 419.554L551.374 408.13H549.998L545.742 419.554H547.118ZM552.431 419.554L556.687 408.13H555.311L551.055 419.554H552.431ZM557.744 419.554L562 408.13H560.624L556.368 419.554H557.744ZM563.057 419.554L567.313 408.13H565.937L561.681 419.554H563.057ZM568.37 419.554L572.626 408.13H571.25L566.994 419.554H568.37ZM573.683 419.554L577.939 408.13H576.563L572.307 419.554H573.683ZM578.996 419.554L583.252 408.13H581.876L577.62 419.554H578.996ZM584.309 419.554L588.565 408.13H587.189L582.933 419.554H584.309ZM589.623 419.554L593.879 408.13H592.503L588.247 419.554H589.623ZM594.936 419.554L599.192 408.13H597.816L593.56 419.554H594.936ZM600.249 419.554L604.505 408.13H603.129L598.873 419.554H600.249ZM605.562 419.554L609.818 408.13H608.442L604.186 419.554H605.562ZM610.875 419.554L615.131 408.13H613.755L609.499 419.554H610.875ZM616.188 419.554L620.444 408.13H619.068L614.812 419.554H616.188ZM621.501 419.554L625.757 408.13H624.381L620.125 419.554H621.501ZM626.814 419.554L631.07 408.13H629.694L625.438 419.554H626.814ZM632.128 419.554L636.384 408.13H635.008L630.752 419.554H632.128ZM637.441 419.554L641.697 408.13H640.321L636.065 419.554H637.441ZM642.754 419.554L647.01 408.13H645.634L641.378 419.554H642.754ZM648.067 419.554L652.323 408.13H650.947L646.691 419.554H648.067ZM653.38 419.554L657.636 408.13H656.26L652.004 419.554H653.38ZM658.693 419.554L662.949 408.13H661.573L657.317 419.554H658.693ZM664.006 419.554L668.262 408.13H666.886L662.63 419.554H664.006ZM669.319 419.554L673.575 408.13H672.199L667.943 419.554H669.319ZM674.633 419.554L678.889 408.13H677.513L673.257 419.554H674.633ZM679.946 419.554L684.202 408.13H682.826L678.57 419.554H679.946ZM685.259 419.554L689.515 408.13H688.139L683.883 419.554H685.259ZM690.572 419.554L694.828 408.13H693.452L689.196 419.554H690.572ZM695.885 419.554L700.141 408.13H698.765L694.509 419.554H695.885ZM701.198 419.554L705.454 408.13H704.078L699.822 419.554H701.198ZM706.511 419.554L710.767 408.13H709.391L705.135 419.554H706.511ZM711.824 419.554L716.08 408.13H714.704L710.448 419.554H711.824ZM717.138 419.554L721.394 408.13H720.018L715.762 419.554H717.138ZM456.794 437.554L461.05 426.13H459.674L455.418 437.554H456.794ZM462.108 437.554L466.364 426.13H464.988L460.732 437.554H462.108ZM467.421 437.554L471.677 426.13H470.301L466.045 437.554H467.421ZM472.734 437.554L476.99 426.13H475.614L471.358 437.554H472.734ZM478.047 437.554L482.303 426.13H480.927L476.671 437.554H478.047ZM483.36 437.554L487.616 426.13H486.24L481.984 437.554H483.36ZM488.673 437.554L492.929 426.13H491.553L487.297 437.554H488.673ZM493.986 437.554L498.242 426.13H496.866L492.61 437.554H493.986ZM499.299 437.554L503.555 426.13H502.179L497.923 437.554H499.299ZM504.613 437.554L508.869 426.13H507.493L503.237 437.554H504.613ZM509.926 437.554L514.182 426.13H512.806L508.55 437.554H509.926ZM515.239 437.554L519.495 426.13H518.119L513.863 437.554H515.239ZM520.552 437.554L524.808 426.13H523.432L519.176 437.554H520.552ZM525.865 437.554L530.121 426.13H528.745L524.489 437.554H525.865ZM531.178 437.554L535.434 426.13H534.058L529.802 437.554H531.178ZM536.491 437.554L540.747 426.13H539.371L535.115 437.554H536.491ZM541.804 437.554L546.06 426.13H544.684L540.428 437.554H541.804ZM547.118 437.554L551.374 426.13H549.998L545.742 437.554H547.118ZM552.431 437.554L556.687 426.13H555.311L551.055 437.554H552.431ZM557.744 437.554L562 426.13H560.624L556.368 437.554H557.744ZM563.057 437.554L567.313 426.13H565.937L561.681 437.554H563.057ZM568.37 437.554L572.626 426.13H571.25L566.994 437.554H568.37ZM573.683 437.554L577.939 426.13H576.563L572.307 437.554H573.683ZM578.996 437.554L583.252 426.13H581.876L577.62 437.554H578.996ZM584.309 437.554L588.565 426.13H587.189L582.933 437.554H584.309ZM589.623 437.554L593.879 426.13H592.503L588.247 437.554H589.623ZM594.936 437.554L599.192 426.13H597.816L593.56 437.554H594.936ZM600.249 437.554L604.505 426.13H603.129L598.873 437.554H600.249ZM605.562 437.554L609.818 426.13H608.442L604.186 437.554H605.562ZM610.875 437.554L615.131 426.13H613.755L609.499 437.554H610.875ZM616.188 437.554L620.444 426.13H619.068L614.812 437.554H616.188ZM621.501 437.554L625.757 426.13H624.381L620.125 437.554H621.501ZM626.814 437.554L631.07 426.13H629.694L625.438 437.554H626.814ZM632.128 437.554L636.384 426.13H635.008L630.752 437.554H632.128ZM637.441 437.554L641.697 426.13H640.321L636.065 437.554H637.441ZM642.754 437.554L647.01 426.13H645.634L641.378 437.554H642.754ZM648.067 437.554L652.323 426.13H650.947L646.691 437.554H648.067ZM653.38 437.554L657.636 426.13H656.26L652.004 437.554H653.38ZM658.693 437.554L662.949 426.13H661.573L657.317 437.554H658.693ZM664.006 437.554L668.262 426.13H666.886L662.63 437.554H664.006ZM669.319 437.554L673.575 426.13H672.199L667.943 437.554H669.319ZM674.633 437.554L678.889 426.13H677.513L673.257 437.554H674.633ZM679.946 437.554L684.202 426.13H682.826L678.57 437.554H679.946ZM685.259 437.554L689.515 426.13H688.139L683.883 437.554H685.259ZM690.572 437.554L694.828 426.13H693.452L689.196 437.554H690.572ZM695.885 437.554L700.141 426.13H698.765L694.509 437.554H695.885ZM701.198 437.554L705.454 426.13H704.078L699.822 437.554H701.198ZM706.511 437.554L710.767 426.13H709.391L705.135 437.554H706.511ZM711.824 437.554L716.08 426.13H714.704L710.448 437.554H711.824ZM717.138 437.554L721.394 426.13H720.018L715.762 437.554H717.138ZM467.421 455.554L471.677 444.13H470.301L466.045 455.554H467.421ZM472.734 455.554L476.99 444.13H475.614L471.358 455.554H472.734ZM478.047 455.554L482.303 444.13H480.927L476.671 455.554H478.047ZM483.36 455.554L487.616 444.13H486.24L481.984 455.554H483.36ZM488.673 455.554L492.929 444.13H491.553L487.297 455.554H488.673ZM493.986 455.554L498.242 444.13H496.866L492.61 455.554H493.986ZM499.299 455.554L503.555 444.13H502.179L497.923 455.554H499.299ZM504.613 455.554L508.869 444.13H507.493L503.237 455.554H504.613ZM509.926 455.554L514.182 444.13H512.806L508.55 455.554H509.926ZM515.239 455.554L519.495 444.13H518.119L513.863 455.554H515.239ZM520.552 455.554L524.808 444.13H523.432L519.176 455.554H520.552ZM525.865 455.554L530.121 444.13H528.745L524.489 455.554H525.865ZM531.178 455.554L535.434 444.13H534.058L529.802 455.554H531.178ZM536.491 455.554L540.747 444.13H539.371L535.115 455.554H536.491ZM541.804 455.554L546.06 444.13H544.684L540.428 455.554H541.804ZM547.118 455.554L551.374 444.13H549.998L545.742 455.554H547.118ZM552.431 455.554L556.687 444.13H555.311L551.055 455.554H552.431ZM557.744 455.554L562 444.13H560.624L556.368 455.554H557.744ZM563.057 455.554L567.313 444.13H565.937L561.681 455.554H563.057ZM568.37 455.554L572.626 444.13H571.25L566.994 455.554H568.37ZM573.683 455.554L577.939 444.13H576.563L572.307 455.554H573.683ZM578.996 455.554L583.252 444.13H581.876L577.62 455.554H578.996ZM584.309 455.554L588.565 444.13H587.189L582.933 455.554H584.309ZM589.623 455.554L593.879 444.13H592.503L588.247 455.554H589.623ZM594.936 455.554L599.192 444.13H597.816L593.56 455.554H594.936ZM600.249 455.554L604.505 444.13H603.129L598.873 455.554H600.249ZM605.562 455.554L609.818 444.13H608.442L604.186 455.554H605.562ZM610.875 455.554L615.131 444.13H613.755L609.499 455.554H610.875ZM616.188 455.554L620.444 444.13H619.068L614.812 455.554H616.188ZM621.501 455.554L625.757 444.13H624.381L620.125 455.554H621.501ZM626.814 455.554L631.07 444.13H629.694L625.438 455.554H626.814ZM632.128 455.554L636.384 444.13H635.008L630.752 455.554H632.128ZM637.441 455.554L641.697 444.13H640.321L636.065 455.554H637.441ZM642.754 455.554L647.01 444.13H645.634L641.378 455.554H642.754ZM648.067 455.554L652.323 444.13H650.947L646.691 455.554H648.067ZM653.38 455.554L657.636 444.13H656.26L652.004 455.554H653.38ZM658.693 455.554L662.949 444.13H661.573L657.317 455.554H658.693ZM664.006 455.554L668.262 444.13H666.886L662.63 455.554H664.006ZM669.319 455.554L673.575 444.13H672.199L667.943 455.554H669.319ZM674.633 455.554L678.889 444.13H677.513L673.257 455.554H674.633ZM679.946 455.554L684.202 444.13H682.826L678.57 455.554H679.946ZM685.259 455.554L689.515 444.13H688.139L683.883 455.554H685.259ZM690.572 455.554L694.828 444.13H693.452L689.196 455.554H690.572ZM695.885 455.554L700.141 444.13H698.765L694.509 455.554H695.885ZM701.198 455.554L705.454 444.13H704.078L699.822 455.554H701.198ZM706.511 455.554L710.767 444.13H709.391L705.135 455.554H706.511ZM711.824 455.554L716.08 444.13H714.704L710.448 455.554H711.824Z" fill="#414040"/>
<rect x="450" y="93" width="91" height="123" rx="15" fill="#FF3E1B"/>
<path d="M699.68 8.024L699.184 10.584H701.376V11.656H698.976L698.32 15H697.184L697.84 11.656H695.552L694.928 15H693.808L694.416 11.656H692.4V10.584H694.624L695.136 8.024H692.992V6.968H695.328L695.968 3.576H697.12L696.48 6.968H698.784L699.424 3.576H700.528L699.888 6.968H701.92V8.024H699.68ZM695.76 10.584H698.048L698.544 8.024H696.256L695.76 10.584ZM710.024 8.024L709.528 10.584H711.72V11.656H709.32L708.664 15H707.528L708.184 11.656H705.896L705.272 15H704.152L704.76 11.656H702.744V10.584H704.968L705.48 8.024H703.336V6.968H705.672L706.312 3.576H707.464L706.824 6.968H709.128L709.768 3.576H710.872L710.232 6.968H712.264V8.024H710.024ZM706.104 10.584H708.392L708.888 8.024H706.6L706.104 10.584ZM720.368 8.024L719.872 10.584H722.064V11.656H719.664L719.008 15H717.872L718.528 11.656H716.24L715.616 15H714.496L715.104 11.656H713.088V10.584H715.312L715.824 8.024H713.68V6.968H716.016L716.656 3.576H717.808L717.168 6.968H719.472L720.112 3.576H721.216L720.576 6.968H722.608V8.024H720.368ZM716.448 10.584H718.736L719.232 8.024H716.944L716.448 10.584Z" fill="#FF3E1B"/>
</svg>
