<svg width="1422" height="468" viewBox="0 0 1422 468" fill="none" xmlns="http://www.w3.org/2000/svg">
<rect width="84" height="113" rx="15" transform="matrix(-1 0 0 1 887 72)" fill="#FF3E1B"/>
<path fill-rule="evenodd" clip-rule="evenodd" d="M1065 252C1065 243.716 1058.28 237 1050 237H909C900.716 237 894 243.716 894 252V364C894 372.284 887.284 379 879 379H729C720.716 379 714 385.716 714 394V453C714 461.284 720.716 468 729 468H961C969.284 468 976 461.284 976 453V398C976 389.716 982.716 383 991 383H1050C1058.28 383 1065 376.284 1065 368V252Z" fill="#414040"/>
<rect x="714" y="190" width="175" height="184" rx="15" fill="#414040"/>
<rect x="535" y="96" width="174" height="230" rx="15" fill="#414040"/>
<path fill-rule="evenodd" clip-rule="evenodd" d="M353 143H194C185.716 143 179 149.716 179 158V311C179 319.284 185.716 326 194 326H338C346.284 326 353 319.284 353 311V247C353 238.716 359.716 232 368 232H421C429.284 232 436 225.284 436 217V158C436 149.716 429.284 143 421 143H353Z" fill="#414040"/>
<path fill-rule="evenodd" clip-rule="evenodd" d="M530 252C530 243.716 523.284 237 515 237H372C363.716 237 357 243.716 357 252V326V452C357 460.284 363.716 467 372 467H427C435.284 467 442 460.284 442 452V341C442 332.716 448.716 326 457 326H515C523.284 326 530 319.284 530 311V252Z" fill="#414040"/>
<mask id="path-7-inside-1_2006_251" fill="white">
<path fill-rule="evenodd" clip-rule="evenodd" d="M174 252C174 243.716 167.284 237 159 237H16C7.71573 237 1 243.716 1 252V331V345V452C1 460.284 7.71573 467 16 467H337C345.284 467 352 460.284 352 452V346C352 337.716 345.284 331 337 331H189C180.716 331 174 324.284 174 316V252Z"/>
</mask>
<path fill-rule="evenodd" clip-rule="evenodd" d="M174 252C174 243.716 167.284 237 159 237H16C7.71573 237 1 243.716 1 252V331V345V452C1 460.284 7.71573 467 16 467H337C345.284 467 352 460.284 352 452V346C352 337.716 345.284 331 337 331H189C180.716 331 174 324.284 174 316V252Z" fill="#414040"/>
<path d="M1.5 331V329.025H0.5V331H1.5ZM1.5 325.075V321.125H0.5V325.075H1.5ZM1.5 317.175V313.225H0.5V317.175H1.5ZM1.5 309.275V305.325H0.5V309.275H1.5ZM1.5 301.375V297.425H0.5V301.375H1.5ZM1.5 293.475V289.525H0.5V293.475H1.5ZM1.5 285.575V281.625H0.5V285.575H1.5ZM1.5 277.675V273.725H0.5V277.675H1.5ZM1.5 269.775V265.825H0.5V269.775H1.5ZM1.5 261.875V257.925H0.5V261.875H1.5ZM1.5 253.975V252H0.5V253.975H1.5ZM1.5 252C1.5 251.358 1.54173 250.725 1.62258 250.106L0.630985 249.976C0.544555 250.639 0.5 251.314 0.5 252H1.5ZM2.60007 246.45C3.08879 245.271 3.7286 244.171 4.49547 243.173L3.70255 242.564C2.88304 243.63 2.19901 244.806 1.67634 246.067L2.60007 246.45ZM7.1729 240.495C8.17083 239.729 9.27117 239.089 10.4497 238.6L10.0667 237.676C8.80627 238.199 7.63 238.883 6.56358 239.703L7.1729 240.495ZM14.1055 237.623C14.7253 237.542 15.3577 237.5 16 237.5V236.5C15.3143 236.5 14.6388 236.545 13.9762 236.631L14.1055 237.623ZM16 237.5H17.9861V236.5H16V237.5ZM21.9583 237.5H25.9306V236.5H21.9583V237.5ZM29.9028 237.5H33.875V236.5H29.9028V237.5ZM37.8472 237.5H41.8194V236.5H37.8472V237.5ZM45.7917 237.5H49.7639V236.5H45.7917V237.5ZM53.7361 237.5H57.7083V236.5H53.7361V237.5ZM61.6805 237.5H65.6528V236.5H61.6805V237.5ZM69.625 237.5H73.5972V236.5H69.625V237.5ZM77.5694 237.5H81.5417V236.5H77.5694V237.5ZM85.5139 237.5H89.4861V236.5H85.5139V237.5ZM93.4583 237.5H97.4305V236.5H93.4583V237.5ZM101.403 237.5H105.375V236.5H101.403V237.5ZM109.347 237.5H113.319V236.5H109.347V237.5ZM117.292 237.5H121.264V236.5H117.292V237.5ZM125.236 237.5H129.208V236.5H125.236V237.5ZM133.181 237.5H137.153V236.5H133.181V237.5ZM141.125 237.5H145.097V236.5H141.125V237.5ZM149.069 237.5H153.042V236.5H149.069V237.5ZM157.014 237.5H159V236.5H157.014V237.5ZM159 237.5C159.642 237.5 160.275 237.542 160.894 237.623L161.024 236.631C160.361 236.545 159.686 236.5 159 236.5V237.5ZM164.55 238.6C165.729 239.089 166.829 239.729 167.827 240.495L168.436 239.703C167.37 238.883 166.194 238.199 164.933 237.676L164.55 238.6ZM170.505 243.173C171.271 244.171 171.911 245.271 172.4 246.45L173.324 246.067C172.801 244.806 172.117 243.63 171.297 242.564L170.505 243.173ZM173.377 250.106C173.458 250.725 173.5 251.358 173.5 252H174.5C174.5 251.314 174.455 250.639 174.369 249.976L173.377 250.106ZM173.5 252V254H174.5V252H173.5ZM173.5 258V262H174.5V258H173.5ZM173.5 266V270H174.5V266H173.5ZM173.5 274V278H174.5V274H173.5ZM173.5 282V286H174.5V282H173.5ZM173.5 290V294H174.5V290H173.5ZM173.5 298V302H174.5V298H173.5ZM173.5 306V310H174.5V306H173.5ZM173.5 314V316H174.5V314H173.5ZM173.5 316C173.5 316.686 173.545 317.361 173.631 318.024L174.623 317.894C174.542 317.275 174.5 316.642 174.5 316H173.5ZM174.676 321.933C175.199 323.194 175.883 324.37 176.703 325.436L177.495 324.827C176.729 323.829 176.089 322.729 175.6 321.55L174.676 321.933ZM179.564 328.297C180.63 329.117 181.806 329.801 183.067 330.324L183.45 329.4C182.271 328.911 181.171 328.271 180.173 327.505L179.564 328.297ZM186.976 331.369C187.639 331.455 188.314 331.5 189 331.5V330.5C188.358 330.5 187.725 330.458 187.106 330.377L186.976 331.369ZM189 331.5H190.947V330.5H189V331.5ZM194.842 331.5H198.737V330.5H194.842V331.5ZM202.632 331.5H206.526V330.5H202.632V331.5ZM210.421 331.5H214.316V330.5H210.421V331.5ZM218.211 331.5H222.105V330.5H218.211V331.5ZM226 331.5H229.895V330.5H226V331.5ZM233.789 331.5H237.684V330.5H233.789V331.5ZM241.579 331.5H245.474V330.5H241.579V331.5ZM249.368 331.5H253.263V330.5H249.368V331.5ZM257.158 331.5H261.053V330.5H257.158V331.5ZM264.947 331.5H268.842V330.5H264.947V331.5ZM272.737 331.5H276.632V330.5H272.737V331.5ZM280.526 331.5H284.421V330.5H280.526V331.5ZM288.316 331.5H292.211V330.5H288.316V331.5ZM296.105 331.5H300V330.5H296.105V331.5ZM303.895 331.5H307.789V330.5H303.895V331.5ZM311.684 331.5H315.579V330.5H311.684V331.5ZM319.474 331.5H323.368V330.5H319.474V331.5ZM327.263 331.5H331.158V330.5H327.263V331.5ZM335.053 331.5H337V330.5H335.053V331.5ZM337 331.5C337.642 331.5 338.275 331.542 338.894 331.623L339.024 330.631C338.361 330.545 337.686 330.5 337 330.5V331.5ZM342.55 332.6C343.729 333.089 344.829 333.729 345.827 334.495L346.436 333.703C345.37 332.883 344.194 332.199 342.933 331.676L342.55 332.6ZM348.505 337.173C349.271 338.171 349.911 339.271 350.4 340.45L351.324 340.067C350.801 338.806 350.117 337.63 349.297 336.564L348.505 337.173ZM351.377 344.106C351.458 344.725 351.5 345.358 351.5 346H352.5C352.5 345.314 352.455 344.639 352.369 343.976L351.377 344.106ZM351.5 346V348.038H352.5V346H351.5ZM351.5 352.115V356.192H352.5V352.115H351.5ZM351.5 360.269V364.346H352.5V360.269H351.5ZM351.5 368.423V372.5H352.5V368.423H351.5ZM351.5 376.577V380.654H352.5V376.577H351.5ZM351.5 384.731V388.808H352.5V384.731H351.5ZM351.5 392.885V396.962H352.5V392.885H351.5ZM351.5 401.038V405.115H352.5V401.038H351.5ZM351.5 409.192V413.269H352.5V409.192H351.5ZM351.5 417.346V421.423H352.5V417.346H351.5ZM351.5 425.5V429.577H352.5V425.5H351.5ZM351.5 433.654V437.731H352.5V433.654H351.5ZM351.5 441.808V445.885H352.5V441.808H351.5ZM351.5 449.962V452H352.5V449.962H351.5ZM351.5 452C351.5 452.642 351.458 453.275 351.377 453.894L352.369 454.024C352.455 453.361 352.5 452.686 352.5 452H351.5ZM350.4 457.55C349.911 458.729 349.271 459.829 348.505 460.827L349.297 461.436C350.117 460.37 350.801 459.194 351.324 457.933L350.4 457.55ZM345.827 463.505C344.829 464.271 343.729 464.911 342.55 465.4L342.933 466.324C344.194 465.801 345.37 465.117 346.436 464.297L345.827 463.505ZM338.894 466.377C338.275 466.458 337.642 466.5 337 466.5V467.5C337.686 467.5 338.361 467.455 339.024 467.369L338.894 466.377ZM337 466.5H334.994V467.5H337V466.5ZM330.981 466.5H326.969V467.5H330.981V466.5ZM322.956 466.5H318.944V467.5H322.956V466.5ZM314.931 466.5H310.919V467.5H314.931V466.5ZM306.906 466.5H302.894V467.5H306.906V466.5ZM298.881 466.5H294.869V467.5H298.881V466.5ZM290.856 466.5H286.844V467.5H290.856V466.5ZM282.831 466.5H278.819V467.5H282.831V466.5ZM274.806 466.5H270.794V467.5H274.806V466.5ZM266.781 466.5H262.769V467.5H266.781V466.5ZM258.756 466.5H254.744V467.5H258.756V466.5ZM250.731 466.5H246.719V467.5H250.731V466.5ZM242.706 466.5H238.694V467.5H242.706V466.5ZM234.681 466.5H230.669V467.5H234.681V466.5ZM226.656 466.5H222.644V467.5H226.656V466.5ZM218.631 466.5H214.619V467.5H218.631V466.5ZM210.606 466.5H206.594V467.5H210.606V466.5ZM202.581 466.5H198.569V467.5H202.581V466.5ZM194.556 466.5H190.544V467.5H194.556V466.5ZM186.531 466.5H182.519V467.5H186.531V466.5ZM178.506 466.5H174.494V467.5H178.506V466.5ZM170.481 466.5H166.469V467.5H170.481V466.5ZM162.456 466.5H158.444V467.5H162.456V466.5ZM154.431 466.5H150.419V467.5H154.431V466.5ZM146.406 466.5H142.394V467.5H146.406V466.5ZM138.381 466.5H134.369V467.5H138.381V466.5ZM130.356 466.5H126.344V467.5H130.356V466.5ZM122.331 466.5H118.319V467.5H122.331V466.5ZM114.306 466.5H110.294V467.5H114.306V466.5ZM106.281 466.5H102.269V467.5H106.281V466.5ZM98.2564 466.5H94.2439V467.5H98.2564V466.5ZM90.2314 466.5H86.2189V467.5H90.2314V466.5ZM82.2064 466.5H78.1939V467.5H82.2064V466.5ZM74.1814 466.5H70.1689V467.5H74.1814V466.5ZM66.1563 466.5H62.1438V467.5H66.1563V466.5ZM58.1313 466.5H54.1188V467.5H58.1313V466.5ZM50.1063 466.5H46.0938V467.5H50.1063V466.5ZM42.0813 466.5H38.0688V467.5H42.0813V466.5ZM34.0562 466.5H30.0437V467.5H34.0562V466.5ZM26.0312 466.5H22.0187V467.5H26.0312V466.5ZM18.0062 466.5H16V467.5H18.0062V466.5ZM16 466.5C15.3577 466.5 14.7253 466.458 14.1055 466.377L13.9762 467.369C14.6388 467.455 15.3143 467.5 16 467.5V466.5ZM10.4497 465.4C9.27117 464.911 8.17083 464.271 7.1729 463.505L6.56357 464.297C7.63 465.117 8.80627 465.801 10.0667 466.324L10.4497 465.4ZM4.49547 460.827C3.7286 459.829 3.08879 458.729 2.60007 457.55L1.67635 457.933C2.19901 459.194 2.88304 460.37 3.70255 461.436L4.49547 460.827ZM1.62258 453.894C1.54173 453.275 1.5 452.642 1.5 452H0.5C0.5 452.686 0.544555 453.361 0.630985 454.024L1.62258 453.894ZM1.5 452V449.942H0.5V452H1.5ZM1.5 445.827V441.712H0.5V445.827H1.5ZM1.5 437.596V433.481H0.5V437.596H1.5ZM1.5 429.365V425.25H0.5V429.365H1.5ZM1.5 421.135V417.019H0.5V421.135H1.5ZM1.5 412.904V408.788H0.5V412.904H1.5ZM1.5 404.673V400.558H0.5V404.673H1.5ZM1.5 396.442V392.327H0.5V396.442H1.5ZM1.5 388.212V384.096H0.5V388.212H1.5ZM1.5 379.981V375.865H0.5V379.981H1.5ZM1.5 371.75V367.635H0.5V371.75H1.5ZM1.5 363.519V359.404H0.5V363.519H1.5ZM1.5 355.288V351.173H0.5V355.288H1.5ZM1.5 347.058V345H0.5V347.058H1.5ZM1.5 345V343.25H0.5V345H1.5ZM1.5 339.75V336.25H0.5V339.75H1.5ZM1.5 332.75V331H0.5V332.75H1.5ZM2 331V329.025H0V331H2ZM2 325.075V321.125H0V325.075H2ZM2 317.175V313.225H0V317.175H2ZM2 309.275V305.325H0V309.275H2ZM2 301.375V297.425H0V301.375H2ZM2 293.475V289.525H0V293.475H2ZM2 285.575V281.625H0V285.575H2ZM2 277.675V273.725H0V277.675H2ZM2 269.775V265.825H0V269.775H2ZM2 261.875V257.925H0V261.875H2ZM2 253.975V252H0V253.975H2ZM2 252C2 251.379 2.04032 250.769 2.11838 250.17L0.135185 249.912C0.0459656 250.595 0 251.293 0 252H2ZM3.06193 246.641C3.53369 245.504 4.15138 244.441 4.89193 243.478L3.30609 242.259C2.46027 243.36 1.75411 244.574 1.21448 245.875L3.06193 246.641ZM7.47757 240.892C8.44125 240.151 9.50361 239.534 10.6412 239.062L9.87513 237.214C8.57382 237.754 7.35959 238.46 6.25891 239.306L7.47757 240.892ZM14.1702 238.118C14.7686 238.04 15.3794 238 16 238V236C15.2926 236 14.5955 236.046 13.9115 236.135L14.1702 238.118ZM16 238H17.9861V236H16V238ZM21.9583 238H25.9306V236H21.9583V238ZM29.9028 238H33.875V236H29.9028V238ZM37.8472 238H41.8194V236H37.8472V238ZM45.7917 238H49.7639V236H45.7917V238ZM53.7361 238H57.7083V236H53.7361V238ZM61.6805 238H65.6528V236H61.6805V238ZM69.625 238H73.5972V236H69.625V238ZM77.5694 238H81.5417V236H77.5694V238ZM85.5139 238H89.4861V236H85.5139V238ZM93.4583 238H97.4305V236H93.4583V238ZM101.403 238H105.375V236H101.403V238ZM109.347 238H113.319V236H109.347V238ZM117.292 238H121.264V236H117.292V238ZM125.236 238H129.208V236H125.236V238ZM133.181 238H137.153V236H133.181V238ZM141.125 238H145.097V236H141.125V238ZM149.069 238H153.042V236H149.069V238ZM157.014 238H159V236H157.014V238ZM159 238C159.621 238 160.231 238.04 160.83 238.118L161.088 236.135C160.405 236.046 159.707 236 159 236V238ZM164.359 239.062C165.496 239.534 166.559 240.151 167.522 240.892L168.741 239.306C167.64 238.46 166.426 237.754 165.125 237.214L164.359 239.062ZM170.108 243.478C170.849 244.441 171.466 245.504 171.938 246.641L173.786 245.875C173.246 244.574 172.54 243.36 171.694 242.259L170.108 243.478ZM172.882 250.17C172.96 250.769 173 251.379 173 252H175C175 251.293 174.954 250.595 174.865 249.912L172.882 250.17ZM173 252V254H175V252H173ZM173 258V262H175V258H173ZM173 266V270H175V266H173ZM173 274V278H175V274H173ZM173 282V286H175V282H173ZM173 290V294H175V290H173ZM173 298V302H175V298H173ZM173 306V310H175V306H173ZM173 314V316H175V314H173ZM173 316C173 316.707 173.046 317.405 173.135 318.088L175.118 317.83C175.04 317.231 175 316.621 175 316H173ZM174.214 322.125C174.754 323.426 175.46 324.64 176.306 325.741L177.892 324.522C177.151 323.559 176.534 322.496 176.062 321.359L174.214 322.125ZM179.259 328.694C180.36 329.54 181.574 330.246 182.875 330.786L183.641 328.938C182.504 328.466 181.441 327.849 180.478 327.108L179.259 328.694ZM186.912 331.865C187.595 331.954 188.293 332 189 332V330C188.379 330 187.769 329.96 187.17 329.882L186.912 331.865ZM189 332H190.947V330H189V332ZM194.842 332H198.737V330H194.842V332ZM202.632 332H206.526V330H202.632V332ZM210.421 332H214.316V330H210.421V332ZM218.211 332H222.105V330H218.211V332ZM226 332H229.895V330H226V332ZM233.789 332H237.684V330H233.789V332ZM241.579 332H245.474V330H241.579V332ZM249.368 332H253.263V330H249.368V332ZM257.158 332H261.053V330H257.158V332ZM264.947 332H268.842V330H264.947V332ZM272.737 332H276.632V330H272.737V332ZM280.526 332H284.421V330H280.526V332ZM288.316 332H292.211V330H288.316V332ZM296.105 332H300V330H296.105V332ZM303.895 332H307.789V330H303.895V332ZM311.684 332H315.579V330H311.684V332ZM319.474 332H323.368V330H319.474V332ZM327.263 332H331.158V330H327.263V332ZM335.053 332H337V330H335.053V332ZM337 332C337.621 332 338.231 332.04 338.83 332.118L339.089 330.135C338.405 330.046 337.707 330 337 330V332ZM342.359 333.062C343.496 333.534 344.559 334.151 345.522 334.892L346.741 333.306C345.64 332.46 344.426 331.754 343.125 331.214L342.359 333.062ZM348.108 337.478C348.849 338.441 349.466 339.504 349.938 340.641L351.786 339.875C351.246 338.574 350.54 337.36 349.694 336.259L348.108 337.478ZM350.882 344.17C350.96 344.769 351 345.379 351 346H353C353 345.293 352.954 344.595 352.865 343.912L350.882 344.17ZM351 346V348.038H353V346H351ZM351 352.115V356.192H353V352.115H351ZM351 360.269V364.346H353V360.269H351ZM351 368.423V372.5H353V368.423H351ZM351 376.577V380.654H353V376.577H351ZM351 384.731V388.808H353V384.731H351ZM351 392.885V396.962H353V392.885H351ZM351 401.038V405.115H353V401.038H351ZM351 409.192V413.269H353V409.192H351ZM351 417.346V421.423H353V417.346H351ZM351 425.5V429.577H353V425.5H351ZM351 433.654V437.731H353V433.654H351ZM351 441.808V445.885H353V441.808H351ZM351 449.962V452H353V449.962H351ZM351 452C351 452.621 350.96 453.231 350.882 453.83L352.865 454.088C352.954 453.405 353 452.707 353 452H351ZM349.938 457.359C349.466 458.496 348.849 459.559 348.108 460.522L349.694 461.741C350.54 460.64 351.246 459.426 351.786 458.125L349.938 457.359ZM345.522 463.108C344.559 463.849 343.496 464.466 342.359 464.938L343.125 466.786C344.426 466.246 345.64 465.54 346.741 464.694L345.522 463.108ZM338.83 465.882C338.231 465.96 337.621 466 337 466V468C337.707 468 338.405 467.954 339.088 467.865L338.83 465.882ZM337 466H334.994V468H337V466ZM330.981 466H326.969V468H330.981V466ZM322.956 466H318.944V468H322.956V466ZM314.931 466H310.919V468H314.931V466ZM306.906 466H302.894V468H306.906V466ZM298.881 466H294.869V468H298.881V466ZM290.856 466H286.844V468H290.856V466ZM282.831 466H278.819V468H282.831V466ZM274.806 466H270.794V468H274.806V466ZM266.781 466H262.769V468H266.781V466ZM258.756 466H254.744V468H258.756V466ZM250.731 466H246.719V468H250.731V466ZM242.706 466H238.694V468H242.706V466ZM234.681 466H230.669V468H234.681V466ZM226.656 466H222.644V468H226.656V466ZM218.631 466H214.619V468H218.631V466ZM210.606 466H206.594V468H210.606V466ZM202.581 466H198.569V468H202.581V466ZM194.556 466H190.544V468H194.556V466ZM186.531 466H182.519V468H186.531V466ZM178.506 466H174.494V468H178.506V466ZM170.481 466H166.469V468H170.481V466ZM162.456 466H158.444V468H162.456V466ZM154.431 466H150.419V468H154.431V466ZM146.406 466H142.394V468H146.406V466ZM138.381 466H134.369V468H138.381V466ZM130.356 466H126.344V468H130.356V466ZM122.331 466H118.319V468H122.331V466ZM114.306 466H110.294V468H114.306V466ZM106.281 466H102.269V468H106.281V466ZM98.2564 466H94.2439V468H98.2564V466ZM90.2314 466H86.2189V468H90.2314V466ZM82.2064 466H78.1939V468H82.2064V466ZM74.1814 466H70.1689V468H74.1814V466ZM66.1563 466H62.1438V468H66.1563V466ZM58.1313 466H54.1188V468H58.1313V466ZM50.1063 466H46.0938V468H50.1063V466ZM42.0813 466H38.0688V468H42.0813V466ZM34.0562 466H30.0437V468H34.0562V466ZM26.0312 466H22.0187V468H26.0312V466ZM18.0062 466H16V468H18.0062V466ZM16 466C15.3794 466 14.7686 465.96 14.1702 465.882L13.9115 467.865C14.5955 467.954 15.2926 468 16 468V466ZM10.6412 464.938C9.50361 464.466 8.44124 463.849 7.47756 463.108L6.25891 464.694C7.35958 465.54 8.57382 466.246 9.87513 466.786L10.6412 464.938ZM4.89193 460.522C4.15138 459.559 3.53369 458.496 3.06193 457.359L1.21448 458.125C1.75411 459.426 2.46027 460.64 3.30609 461.741L4.89193 460.522ZM2.11838 453.83C2.04032 453.231 2 452.621 2 452H0C0 452.707 0.0459656 453.405 0.135185 454.088L2.11838 453.83ZM2 452V449.942H0V452H2ZM2 445.827V441.712H0V445.827H2ZM2 437.596V433.481H0V437.596H2ZM2 429.365V425.25H0V429.365H2ZM2 421.135V417.019H0V421.135H2ZM2 412.904V408.788H0V412.904H2ZM2 404.673V400.558H0V404.673H2ZM2 396.442V392.327H0V396.442H2ZM2 388.212V384.096H0V388.212H2ZM2 379.981V375.865H0V379.981H2ZM2 371.75V367.635H0V371.75H2ZM2 363.519V359.404H0V363.519H2ZM2 355.288V351.173H0V355.288H2ZM2 347.058V345H0V347.058H2ZM2 345V343.25H0V345H2ZM2 339.75V336.25H0V339.75H2ZM2 332.75V331H0V332.75H2Z" fill="#F6F6F6" fill-opacity="0.5" mask="url(#path-7-inside-1_2006_251)"/>
<path fill-rule="evenodd" clip-rule="evenodd" d="M1421 205C1421 196.716 1414.28 190 1406 190H1174C1165.72 190 1159 196.716 1159 205V368C1159 376.284 1165.72 383 1174 383H1233C1241.28 383 1248 389.716 1248 398V452C1248 460.284 1254.72 467 1263 467H1406C1414.28 467 1421 460.284 1421 452V383V205Z" fill="#414040"/>
<mask id="path-10-inside-2_2006_251" fill="white">
<path fill-rule="evenodd" clip-rule="evenodd" d="M1154 299C1154 290.716 1147.28 284 1139 284H1085C1076.72 284 1070 290.716 1070 299V373C1070 381.284 1063.28 388 1055 388H996C987.716 388 981 394.716 981 403V452C981 460.284 987.716 467 996 467H1228C1236.28 467 1243 460.284 1243 452V403C1243 394.716 1236.28 388 1228 388H1169C1160.72 388 1154 381.284 1154 373V299Z"/>
</mask>
<path fill-rule="evenodd" clip-rule="evenodd" d="M1154 299C1154 290.716 1147.28 284 1139 284H1085C1076.72 284 1070 290.716 1070 299V373C1070 381.284 1063.28 388 1055 388H996C987.716 388 981 394.716 981 403V452C981 460.284 987.716 467 996 467H1228C1236.28 467 1243 460.284 1243 452V403C1243 394.716 1236.28 388 1228 388H1169C1160.72 388 1154 381.284 1154 373V299Z" fill="#414040"/>
<path d="M1169 387.5C1168.03 387.5 1167.08 387.405 1166.17 387.224L1165.98 388.205C1166.95 388.399 1167.97 388.5 1169 388.5V387.5ZM1160.94 385.058C1159.36 383.999 1158 382.638 1156.94 381.056L1156.11 381.612C1157.24 383.302 1158.7 384.757 1160.39 385.889L1160.94 385.058ZM1154.78 375.83C1154.59 374.915 1154.5 373.969 1154.5 373H1153.5C1153.5 374.035 1153.6 375.046 1153.8 376.024L1154.78 375.83ZM1154.5 373V370.357H1153.5V373H1154.5ZM1154.5 365.071V359.786H1153.5V365.071H1154.5ZM1154.5 354.5V349.214H1153.5V354.5H1154.5ZM1154.5 343.929V338.643H1153.5V343.929H1154.5ZM1154.5 333.357V328.071H1153.5V333.357H1154.5ZM1154.5 322.786V317.5H1153.5V322.786H1154.5ZM1154.5 312.214V306.929H1153.5V312.214H1154.5ZM1154.5 301.643V299H1153.5V301.643H1154.5ZM1154.5 299C1154.5 297.965 1154.4 296.954 1154.2 295.976L1153.22 296.17C1153.41 297.085 1153.5 298.031 1153.5 299H1154.5ZM1151.89 290.388C1150.76 288.698 1149.3 287.243 1147.61 286.111L1147.06 286.942C1148.64 288.001 1150 289.362 1151.06 290.944L1151.89 290.388ZM1142.02 283.795C1141.05 283.601 1140.03 283.5 1139 283.5V284.5C1139.97 284.5 1140.92 284.595 1141.83 284.776L1142.02 283.795ZM1139 283.5H1136.3V284.5H1139V283.5ZM1130.9 283.5H1125.5V284.5H1130.9V283.5ZM1120.1 283.5H1114.7V284.5H1120.1V283.5ZM1109.3 283.5H1103.9V284.5H1109.3V283.5ZM1098.5 283.5H1093.1V284.5H1098.5V283.5ZM1087.7 283.5H1085V284.5H1087.7V283.5ZM1085 283.5C1083.97 283.5 1082.95 283.601 1081.98 283.795L1082.17 284.776C1083.08 284.595 1084.03 284.5 1085 284.5V283.5ZM1076.39 286.111C1074.7 287.243 1073.24 288.698 1072.11 290.388L1072.94 290.944C1074 289.362 1075.36 288.001 1076.94 286.942L1076.39 286.111ZM1069.8 295.976C1069.6 296.954 1069.5 297.965 1069.5 299H1070.5C1070.5 298.031 1070.59 297.085 1070.78 296.17L1069.8 295.976ZM1069.5 299V301.643H1070.5V299H1069.5ZM1069.5 306.929V312.214H1070.5V306.929H1069.5ZM1069.5 317.5V322.786H1070.5V317.5H1069.5ZM1069.5 328.071V333.357H1070.5V328.071H1069.5ZM1069.5 338.643V343.929H1070.5V338.643H1069.5ZM1069.5 349.214V354.5H1070.5V349.214H1069.5ZM1069.5 359.786V365.071H1070.5V359.786H1069.5ZM1069.5 370.357V373H1070.5V370.357H1069.5ZM1069.5 373C1069.5 373.969 1069.41 374.915 1069.22 375.83L1070.2 376.024C1070.4 375.046 1070.5 374.035 1070.5 373H1069.5ZM1067.06 381.056C1066 382.638 1064.64 383.999 1063.06 385.058L1063.61 385.889C1065.3 384.757 1066.76 383.302 1067.89 381.612L1067.06 381.056ZM1057.83 387.224C1056.92 387.405 1055.97 387.5 1055 387.5V388.5C1056.03 388.5 1057.05 388.399 1058.02 388.205L1057.83 387.224ZM1055 387.5H1052.54V388.5H1055V387.5ZM1047.62 387.5H1042.71V388.5H1047.62V387.5ZM1037.79 387.5H1032.88V388.5H1037.79V387.5ZM1027.96 387.5H1023.04V388.5H1027.96V387.5ZM1018.12 387.5H1013.21V388.5H1018.12V387.5ZM1008.29 387.5H1003.37V388.5H1008.29V387.5ZM998.458 387.5H996V388.5H998.458V387.5ZM996 387.5C994.965 387.5 993.954 387.601 992.976 387.795L993.17 388.776C994.085 388.595 995.031 388.5 996 388.5V387.5ZM987.388 390.111C985.698 391.243 984.243 392.698 983.111 394.388L983.942 394.944C985.001 393.362 986.362 392.001 987.944 390.942L987.388 390.111ZM980.795 399.976C980.601 400.954 980.5 401.965 980.5 403H981.5C981.5 402.031 981.595 401.085 981.776 400.17L980.795 399.976ZM980.5 403V405.45H981.5V403H980.5ZM980.5 410.35V415.25H981.5V410.35H980.5ZM980.5 420.15V425.05H981.5V420.15H980.5ZM980.5 429.95V434.85H981.5V429.95H980.5ZM980.5 439.75V444.65H981.5V439.75H980.5ZM980.5 449.55V452H981.5V449.55H980.5ZM980.5 452C980.5 453.035 980.601 454.046 980.795 455.024L981.776 454.83C981.595 453.915 981.5 452.969 981.5 452H980.5ZM983.111 460.612C984.243 462.302 985.698 463.757 987.388 464.889L987.944 464.058C986.362 462.999 985.001 461.638 983.942 460.056L983.111 460.612ZM992.976 467.205C993.954 467.399 994.965 467.5 996 467.5V466.5C995.031 466.5 994.085 466.405 993.17 466.224L992.976 467.205ZM996 467.5H998.522V466.5H996V467.5ZM1003.57 467.5H1008.61V466.5H1003.57V467.5ZM1013.65 467.5H1018.7V466.5H1013.65V467.5ZM1023.74 467.5H1028.78V466.5H1023.74V467.5ZM1033.83 467.5H1038.87V466.5H1033.83V467.5ZM1043.91 467.5H1048.96V466.5H1043.91V467.5ZM1054 467.5H1059.04V466.5H1054V467.5ZM1064.09 467.5H1069.13V466.5H1064.09V467.5ZM1074.17 467.5H1079.22V466.5H1074.17V467.5ZM1084.26 467.5H1089.3V466.5H1084.26V467.5ZM1094.35 467.5H1099.39V466.5H1094.35V467.5ZM1104.43 467.5H1109.48V466.5H1104.43V467.5ZM1114.52 467.5H1119.57V466.5H1114.52V467.5ZM1124.61 467.5H1129.65V466.5H1124.61V467.5ZM1134.7 467.5H1139.74V466.5H1134.7V467.5ZM1144.78 467.5H1149.83V466.5H1144.78V467.5ZM1154.87 467.5H1159.91V466.5H1154.87V467.5ZM1164.96 467.5H1170V466.5H1164.96V467.5ZM1175.04 467.5H1180.09V466.5H1175.04V467.5ZM1185.13 467.5H1190.17V466.5H1185.13V467.5ZM1195.22 467.5H1200.26V466.5H1195.22V467.5ZM1205.3 467.5H1210.35V466.5H1205.3V467.5ZM1215.39 467.5H1220.43V466.5H1215.39V467.5ZM1225.48 467.5H1228V466.5H1225.48V467.5ZM1228 467.5C1229.03 467.5 1230.05 467.399 1231.02 467.205L1230.83 466.224C1229.92 466.405 1228.97 466.5 1228 466.5V467.5ZM1236.61 464.889C1238.3 463.757 1239.76 462.302 1240.89 460.612L1240.06 460.056C1239 461.638 1237.64 462.999 1236.06 464.058L1236.61 464.889ZM1243.2 455.024C1243.4 454.046 1243.5 453.035 1243.5 452H1242.5C1242.5 452.969 1242.4 453.915 1242.22 454.83L1243.2 455.024ZM1243.5 452V449.55H1242.5V452H1243.5ZM1243.5 444.65V439.75H1242.5V444.65H1243.5ZM1243.5 434.85V429.95H1242.5V434.85H1243.5ZM1243.5 425.05V420.15H1242.5V425.05H1243.5ZM1243.5 415.25V410.35H1242.5V415.25H1243.5ZM1243.5 405.45V403H1242.5V405.45H1243.5ZM1243.5 403C1243.5 401.965 1243.4 400.954 1243.2 399.976L1242.22 400.17C1242.4 401.085 1242.5 402.031 1242.5 403H1243.5ZM1240.89 394.388C1239.76 392.698 1238.3 391.243 1236.61 390.111L1236.06 390.942C1237.64 392.001 1239 393.362 1240.06 394.944L1240.89 394.388ZM1231.02 387.795C1230.05 387.601 1229.03 387.5 1228 387.5V388.5C1228.97 388.5 1229.92 388.595 1230.83 388.776L1231.02 387.795ZM1228 387.5H1225.54V388.5H1228V387.5ZM1220.62 387.5H1215.71V388.5H1220.62V387.5ZM1210.79 387.5H1205.88V388.5H1210.79V387.5ZM1200.96 387.5H1196.04V388.5H1200.96V387.5ZM1191.12 387.5H1186.21V388.5H1191.12V387.5ZM1181.29 387.5H1176.38V388.5H1181.29V387.5ZM1171.46 387.5H1169V388.5H1171.46V387.5ZM1169 387C1168.06 387 1167.15 386.908 1166.27 386.733L1165.88 388.695C1166.89 388.895 1167.93 389 1169 389V387ZM1161.22 384.643C1159.69 383.62 1158.38 382.305 1157.36 380.778L1155.7 381.891C1156.86 383.635 1158.37 385.137 1160.11 386.304L1161.22 384.643ZM1155.27 375.733C1155.09 374.85 1155 373.936 1155 373H1153C1153 374.067 1153.1 375.111 1153.3 376.121L1155.27 375.733ZM1155 373V370.357H1153V373H1155ZM1155 365.071V359.786H1153V365.071H1155ZM1155 354.5V349.214H1153V354.5H1155ZM1155 343.929V338.643H1153V343.929H1155ZM1155 333.357V328.071H1153V333.357H1155ZM1155 322.786V317.5H1153V322.786H1155ZM1155 312.214V306.929H1153V312.214H1155ZM1155 301.643V299H1153V301.643H1155ZM1155 299C1155 297.933 1154.9 296.889 1154.7 295.879L1152.73 296.267C1152.91 297.15 1153 298.064 1153 299H1155ZM1152.3 290.109C1151.14 288.365 1149.63 286.863 1147.89 285.696L1146.78 287.357C1148.31 288.38 1149.62 289.695 1150.64 291.222L1152.3 290.109ZM1142.12 283.305C1141.11 283.105 1140.07 283 1139 283V285C1139.94 285 1140.85 285.092 1141.73 285.266L1142.12 283.305ZM1139 283H1136.3V285H1139V283ZM1130.9 283H1125.5V285H1130.9V283ZM1120.1 283H1114.7V285H1120.1V283ZM1109.3 283H1103.9V285H1109.3V283ZM1098.5 283H1093.1V285H1098.5V283ZM1087.7 283H1085V285H1087.7V283ZM1085 283C1083.93 283 1082.89 283.105 1081.88 283.305L1082.27 285.266C1083.15 285.092 1084.06 285 1085 285V283ZM1076.11 285.696C1074.37 286.863 1072.86 288.365 1071.7 290.109L1073.36 291.222C1074.38 289.695 1075.69 288.38 1077.22 287.357L1076.11 285.696ZM1069.3 295.878C1069.1 296.889 1069 297.933 1069 299H1071C1071 298.064 1071.09 297.15 1071.27 296.267L1069.3 295.878ZM1069 299V301.643H1071V299H1069ZM1069 306.929V312.214H1071V306.929H1069ZM1069 317.5V322.786H1071V317.5H1069ZM1069 328.071V333.357H1071V328.071H1069ZM1069 338.643V343.929H1071V338.643H1069ZM1069 349.214V354.5H1071V349.214H1069ZM1069 359.786V365.071H1071V359.786H1069ZM1069 370.357V373H1071V370.357H1069ZM1069 373C1069 373.936 1068.91 374.85 1068.73 375.733L1070.7 376.121C1070.9 375.111 1071 374.067 1071 373H1069ZM1066.64 380.778C1065.62 382.305 1064.31 383.62 1062.78 384.643L1063.89 386.304C1065.63 385.137 1067.14 383.635 1068.3 381.891L1066.64 380.778ZM1057.73 386.733C1056.85 386.908 1055.94 387 1055 387V389C1056.07 389 1057.11 388.895 1058.12 388.695L1057.73 386.733ZM1055 387H1052.54V389H1055V387ZM1047.62 387H1042.71V389H1047.62V387ZM1037.79 387H1032.88V389H1037.79V387ZM1027.96 387H1023.04V389H1027.96V387ZM1018.12 387H1013.21V389H1018.12V387ZM1008.29 387H1003.37V389H1008.29V387ZM998.458 387H996V389H998.458V387ZM996 387C994.933 387 993.889 387.105 992.879 387.305L993.267 389.267C994.15 389.092 995.064 389 996 389V387ZM987.109 389.696C985.365 390.863 983.863 392.365 982.696 394.109L984.357 395.222C985.38 393.695 986.695 392.38 988.222 391.357L987.109 389.696ZM980.305 399.878C980.105 400.889 980 401.933 980 403H982C982 402.064 982.092 401.15 982.266 400.267L980.305 399.878ZM980 403V405.45H982V403H980ZM980 410.35V415.25H982V410.35H980ZM980 420.15V425.05H982V420.15H980ZM980 429.95V434.85H982V429.95H980ZM980 439.75V444.65H982V439.75H980ZM980 449.55V452H982V449.55H980ZM980 452C980 453.067 980.105 454.111 980.305 455.122L982.266 454.733C982.092 453.85 982 452.936 982 452H980ZM982.696 460.891C983.863 462.635 985.365 464.137 987.109 465.304L988.222 463.643C986.695 462.62 985.38 461.305 984.357 459.778L982.696 460.891ZM992.879 467.695C993.889 467.895 994.933 468 996 468V466C995.064 466 994.15 465.908 993.267 465.734L992.879 467.695ZM996 468H998.522V466H996V468ZM1003.57 468H1008.61V466H1003.57V468ZM1013.65 468H1018.7V466H1013.65V468ZM1023.74 468H1028.78V466H1023.74V468ZM1033.83 468H1038.87V466H1033.83V468ZM1043.91 468H1048.96V466H1043.91V468ZM1054 468H1059.04V466H1054V468ZM1064.09 468H1069.13V466H1064.09V468ZM1074.17 468H1079.22V466H1074.17V468ZM1084.26 468H1089.3V466H1084.26V468ZM1094.35 468H1099.39V466H1094.35V468ZM1104.43 468H1109.48V466H1104.43V468ZM1114.52 468H1119.57V466H1114.52V468ZM1124.61 468H1129.65V466H1124.61V468ZM1134.7 468H1139.74V466H1134.7V468ZM1144.78 468H1149.83V466H1144.78V468ZM1154.87 468H1159.91V466H1154.87V468ZM1164.96 468H1170V466H1164.96V468ZM1175.04 468H1180.09V466H1175.04V468ZM1185.13 468H1190.17V466H1185.13V468ZM1195.22 468H1200.26V466H1195.22V468ZM1205.3 468H1210.35V466H1205.3V468ZM1215.39 468H1220.43V466H1215.39V468ZM1225.48 468H1228V466H1225.48V468ZM1228 468C1229.07 468 1230.11 467.895 1231.12 467.695L1230.73 465.734C1229.85 465.908 1228.94 466 1228 466V468ZM1236.89 465.304C1238.63 464.137 1240.14 462.635 1241.3 460.891L1239.64 459.778C1238.62 461.305 1237.31 462.62 1235.78 463.643L1236.89 465.304ZM1243.7 455.122C1243.9 454.111 1244 453.067 1244 452H1242C1242 452.936 1241.91 453.85 1241.73 454.733L1243.7 455.122ZM1244 452V449.55H1242V452H1244ZM1244 444.65V439.75H1242V444.65H1244ZM1244 434.85V429.95H1242V434.85H1244ZM1244 425.05V420.15H1242V425.05H1244ZM1244 415.25V410.35H1242V415.25H1244ZM1244 405.45V403H1242V405.45H1244ZM1244 403C1244 401.933 1243.9 400.889 1243.7 399.879L1241.73 400.267C1241.91 401.15 1242 402.064 1242 403H1244ZM1241.3 394.109C1240.14 392.365 1238.63 390.863 1236.89 389.696L1235.78 391.357C1237.31 392.38 1238.62 393.695 1239.64 395.222L1241.3 394.109ZM1231.12 387.305C1230.11 387.105 1229.07 387 1228 387V389C1228.94 389 1229.85 389.092 1230.73 389.267L1231.12 387.305ZM1228 387H1225.54V389H1228V387ZM1220.62 387H1215.71V389H1220.62V387ZM1210.79 387H1205.88V389H1210.79V387ZM1200.96 387H1196.04V389H1200.96V387ZM1191.12 387H1186.21V389H1191.12V387ZM1181.29 387H1176.38V389H1181.29V387ZM1171.46 387H1169V389H1171.46V387Z" fill="#F6F6F6" fill-opacity="0.5" mask="url(#path-10-inside-2_2006_251)"/>
<path d="M1159.5 147.5V184H1183" stroke="#FF3E1B"/>
<path fill-rule="evenodd" clip-rule="evenodd" d="M1070 96H907C898.716 96 892 102.716 892 111V217C892 225.284 898.716 232 907 232H1055C1063.28 232 1070 238.716 1070 247V264C1070 272.284 1076.72 279 1085 279H1139C1147.28 279 1154 272.284 1154 264V111C1154 102.716 1147.28 96 1139 96H1076H1070Z" fill="#414040"/>
<path d="M139.864 219.528H136.28V205.576H139.864V206.728H137.656V218.376H139.864V219.528ZM146.058 205.576L141.802 217H140.426L144.682 205.576H146.058ZM151.371 204.84L151.051 207.912L154.123 207.048L154.347 208.52L151.403 208.76L153.307 211.288L151.931 212.04L150.571 209.24L149.339 212.04L147.915 211.288L149.787 208.76L146.875 208.52L147.099 207.048L150.139 207.912L149.803 204.84H151.371ZM155.431 218.376H157.639V206.728H155.431V205.576H159.015V219.528H155.431V218.376Z" fill="#FF3E1B"/>
<path d="M509.792 214.576L505.536 226H504.16L508.416 214.576H509.792ZM515.745 214.576L511.489 226H510.113L514.369 214.576H515.745Z" fill="#FF3E1B"/>
<path fill-rule="evenodd" clip-rule="evenodd" d="M453.686 332.901C450.06 334.93 447.363 338.421 446.393 342.576H446.792L446.074 344.504C446.025 344.996 446 345.495 446 346V358.576H446.792L446 360.702V374.576H446.792L446 376.702V390.576H446.792L446 392.702V406.576H446.792L446 408.702V422.576H446.792L446 424.702V440.576H446.792L446 442.702V453C446 456.557 447.238 459.824 449.306 462.395L450.729 458.576H452.105L450.275 463.487C451.179 464.412 452.202 465.22 453.319 465.887L456.042 458.576H457.418L454.464 466.505C455.561 467.037 456.733 467.439 457.959 467.692L461.355 458.576H462.731L459.258 467.9C459.829 467.966 460.411 468 461 468H463.158L466.669 458.576H468.045L464.534 468H468.471L471.982 458.576H473.358L469.847 468H473.784L477.295 458.576H478.671L475.16 468H479.097L482.608 458.576H483.984L480.473 468H484.41L487.921 458.576H489.297L485.786 468H489.723L493.234 458.576H494.61L491.099 468H495.036L498.547 458.576H499.923L496.412 468H500.349L503.86 458.576H505.236L501.725 468H505.663L509.174 458.576H510.549L507.039 468H510.976L514.487 458.576H515.863L512.352 468H516.289L519.8 458.576H521.176L517.665 468H521.602L525.113 458.576H526.489L522.978 468H526.915L530.426 458.576H531.802L528.291 468H532.228L535.739 458.576H537.115L533.604 468H537.541L541.052 458.576H542.428L538.917 468H542.854L546.365 458.576H547.741L544.23 468H548.168L551.678 458.576H553.054L549.544 468H553.481L556.992 458.576H558.368L554.857 468H558.794L562.305 458.576H563.681L560.17 468H564.107L567.618 458.576H568.994L565.483 468H569.42L572.931 458.576H574.307L570.796 468H574.733L578.244 458.576H579.62L576.109 468H580.046L583.557 458.576H584.933L581.422 468H585.359L588.87 458.576H590.246L586.735 468H590.673L594.184 458.576H595.56L592.049 468H595.986L599.497 458.576H600.873L597.362 468H601.299L604.81 458.576H606.186L602.675 468H606.612L610.123 458.576H611.499L607.988 468H611.925L615.436 458.576H616.812L613.301 468H617.238L620.749 458.576H622.125L618.614 468H622.551L626.062 458.576H627.438L623.927 468H627.864L631.375 458.576H632.751L629.24 468H633.178L636.689 458.576H638.065L634.554 468H638.491L642.002 458.576H643.378L639.867 468H643.804L647.315 458.576H648.691L645.18 468H649.117L652.628 458.576H654.004L650.493 468H654.43L657.941 458.576H659.317L655.806 468H659.743L663.254 458.576H664.63L661.119 468H665.056L668.567 458.576H669.943L666.432 468H670.369L673.88 458.576H675.256L671.745 468H675.683L679.193 458.576H680.57L677.059 468H680.996L684.507 458.576H685.883L682.372 468H686.309L689.82 458.576H691.196L687.685 468H691.622L695.133 458.576H696.509L692.998 468H694C695.045 468 696.066 467.893 697.051 467.69L700.446 458.576H701.822L698.576 467.289C700.399 466.706 702.071 465.783 703.517 464.595L705.759 458.576H707.135L705.728 462.352C707.776 459.788 709 456.537 709 453V449.832L708.192 452H706.816L709 446.138V431.832L708.192 434H706.816L709 428.138V415.832L708.192 418H706.816L709 412.138V399.832L708.192 402H706.816L709 396.138V383.832L708.192 386H706.816L709 380.138V367.832L708.192 370H706.816L709 364.138V351.832L708.192 354H706.816L709 348.138V346C709 341.581 707.089 337.608 704.048 334.863L702.879 338H701.503L702.995 333.995C702.001 333.249 700.912 332.624 699.749 332.141L697.566 338H696.19L698.538 331.699C697.365 331.327 696.13 331.095 694.852 331.024L692.253 338H690.877L693.485 331H689.548L686.94 338H685.564L688.172 331H684.234L681.627 338H680.251L682.858 331H678.921L676.313 338H674.938L677.545 331H673.608L671 338H669.624L672.232 331H668.295L665.687 338H664.311L666.919 331H662.982L660.374 338H658.998L661.606 331H657.669L655.061 338H653.685L656.293 331H652.356L649.748 338H648.372L650.98 331H647.043L644.435 338H643.059L645.667 331H641.729L639.122 338H637.746L640.353 331H636.416L633.809 338H632.433L635.04 331H631.103L628.495 338H627.119L629.727 331H625.79L623.182 338H621.806L624.414 331H620.477L617.869 338H616.493L619.101 331H615.164L612.556 338H611.18L613.788 331H609.851L607.243 338H605.867L608.475 331H604.538L601.93 338H600.554L603.162 331H599.224L596.617 338H595.241L597.848 331H593.911L591.303 338H589.928L592.535 331H588.598L585.99 338H584.614L587.222 331H583.285L580.677 338H579.301L581.909 331H577.972L575.364 338H573.988L576.596 331H572.659L570.051 338H568.675L571.283 331H567.346L564.738 338H563.362L565.97 331H562.033L559.425 338H558.049L560.657 331H556.719L554.112 338H552.736L555.343 331H551.406L548.799 338H547.423L550.03 331H546.093L543.485 338H542.109L544.717 331H540.78L538.172 338H536.796L539.404 331H535.467L532.859 338H531.483L534.091 331H530.154L527.546 338H526.17L528.778 331H524.841L522.233 338H520.857L523.465 331H519.528L516.92 338H515.544L518.152 331H514.214L511.607 338H510.231L512.838 331H508.901L506.293 338H504.917L507.525 331H503.588L500.98 338H499.604L502.212 331H498.275L495.667 338H494.291L496.899 331H492.962L490.354 338H488.978L491.586 331H487.649L485.041 338H483.665L486.273 331H482.336L479.728 338H478.352L480.96 331H477.023L474.415 338H473.039L475.647 331H471.709L469.102 338H467.726L470.333 331H466.396L463.788 338H462.413L465.02 331H461.083L458.475 338H457.099L459.686 331.057C458.169 331.188 456.716 331.546 455.362 332.096L453.162 338H451.786L453.686 332.901ZM447.849 354L452.105 342.576H450.729L446.473 354H447.849ZM453.162 354L457.418 342.576H456.042L451.786 354H453.162ZM458.475 354L462.731 342.576H461.355L457.099 354H458.475ZM463.788 354L468.045 342.576H466.669L462.413 354H463.788ZM469.102 354L473.358 342.576H471.982L467.726 354H469.102ZM474.415 354L478.671 342.576H477.295L473.039 354H474.415ZM479.728 354L483.984 342.576H482.608L478.352 354H479.728ZM485.041 354L489.297 342.576H487.921L483.665 354H485.041ZM490.354 354L494.61 342.576H493.234L488.978 354H490.354ZM495.667 354L499.923 342.576H498.547L494.291 354H495.667ZM500.98 354L505.236 342.576H503.86L499.604 354H500.98ZM506.293 354L510.549 342.576H509.174L504.917 354H506.293ZM511.607 354L515.863 342.576H514.487L510.231 354H511.607ZM516.92 354L521.176 342.576H519.8L515.544 354H516.92ZM522.233 354L526.489 342.576H525.113L520.857 354H522.233ZM527.546 354L531.802 342.576H530.426L526.17 354H527.546ZM532.859 354L537.115 342.576H535.739L531.483 354H532.859ZM538.172 354L542.428 342.576H541.052L536.796 354H538.172ZM543.485 354L547.741 342.576H546.365L542.109 354H543.485ZM548.799 354L553.054 342.576H551.678L547.423 354H548.799ZM554.112 354L558.368 342.576H556.992L552.736 354H554.112ZM559.425 354L563.681 342.576H562.305L558.049 354H559.425ZM564.738 354L568.994 342.576H567.618L563.362 354H564.738ZM570.051 354L574.307 342.576H572.931L568.675 354H570.051ZM575.364 354L579.62 342.576H578.244L573.988 354H575.364ZM580.677 354L584.933 342.576H583.557L579.301 354H580.677ZM585.99 354L590.246 342.576H588.87L584.614 354H585.99ZM591.303 354L595.56 342.576H594.184L589.928 354H591.303ZM596.617 354L600.873 342.576H599.497L595.241 354H596.617ZM601.93 354L606.186 342.576H604.81L600.554 354H601.93ZM607.243 354L611.499 342.576H610.123L605.867 354H607.243ZM612.556 354L616.812 342.576H615.436L611.18 354H612.556ZM617.869 354L622.125 342.576H620.749L616.493 354H617.869ZM623.182 354L627.438 342.576H626.062L621.806 354H623.182ZM628.495 354L632.751 342.576H631.375L627.119 354H628.495ZM633.809 354L638.065 342.576H636.689L632.433 354H633.809ZM639.122 354L643.378 342.576H642.002L637.746 354H639.122ZM644.435 354L648.691 342.576H647.315L643.059 354H644.435ZM649.748 354L654.004 342.576H652.628L648.372 354H649.748ZM655.061 354L659.317 342.576H657.941L653.685 354H655.061ZM660.374 354L664.63 342.576H663.254L658.998 354H660.374ZM665.687 354L669.943 342.576H668.567L664.311 354H665.687ZM671 354L675.256 342.576H673.88L669.624 354H671ZM676.313 354L680.57 342.576H679.193L674.938 354H676.313ZM681.627 354L685.883 342.576H684.507L680.251 354H681.627ZM686.94 354L691.196 342.576H689.82L685.564 354H686.94ZM692.253 354L696.509 342.576H695.133L690.877 354H692.253ZM697.566 354L701.822 342.576H700.446L696.19 354H697.566ZM702.879 354L707.135 342.576H705.759L701.503 354H702.879ZM447.849 370L452.105 358.576H450.729L446.473 370H447.849ZM453.162 370L457.418 358.576H456.042L451.786 370H453.162ZM458.475 370L462.731 358.576H461.355L457.099 370H458.475ZM463.788 370L468.045 358.576H466.669L462.413 370H463.788ZM469.102 370L473.358 358.576H471.982L467.726 370H469.102ZM474.415 370L478.671 358.576H477.295L473.039 370H474.415ZM479.728 370L483.984 358.576H482.608L478.352 370H479.728ZM485.041 370L489.297 358.576H487.921L483.665 370H485.041ZM490.354 370L494.61 358.576H493.234L488.978 370H490.354ZM495.667 370L499.923 358.576H498.547L494.291 370H495.667ZM500.98 370L505.236 358.576H503.86L499.604 370H500.98ZM506.293 370L510.549 358.576H509.174L504.917 370H506.293ZM511.607 370L515.863 358.576H514.487L510.231 370H511.607ZM516.92 370L521.176 358.576H519.8L515.544 370H516.92ZM522.233 370L526.489 358.576H525.113L520.857 370H522.233ZM527.546 370L531.802 358.576H530.426L526.17 370H527.546ZM532.859 370L537.115 358.576H535.739L531.483 370H532.859ZM538.172 370L542.428 358.576H541.052L536.796 370H538.172ZM543.485 370L547.741 358.576H546.365L542.109 370H543.485ZM548.799 370L553.054 358.576H551.678L547.423 370H548.799ZM554.112 370L558.368 358.576H556.992L552.736 370H554.112ZM559.425 370L563.681 358.576H562.305L558.049 370H559.425ZM564.738 370L568.994 358.576H567.618L563.362 370H564.738ZM570.051 370L574.307 358.576H572.931L568.675 370H570.051ZM575.364 370L579.62 358.576H578.244L573.988 370H575.364ZM580.677 370L584.933 358.576H583.557L579.301 370H580.677ZM585.99 370L590.246 358.576H588.87L584.614 370H585.99ZM591.303 370L595.56 358.576H594.184L589.928 370H591.303ZM596.617 370L600.873 358.576H599.497L595.241 370H596.617ZM601.93 370L606.186 358.576H604.81L600.554 370H601.93ZM607.243 370L611.499 358.576H610.123L605.867 370H607.243ZM612.556 370L616.812 358.576H615.436L611.18 370H612.556ZM617.869 370L622.125 358.576H620.749L616.493 370H617.869ZM623.182 370L627.438 358.576H626.062L621.806 370H623.182ZM628.495 370L632.751 358.576H631.375L627.119 370H628.495ZM633.809 370L638.065 358.576H636.689L632.433 370H633.809ZM639.122 370L643.378 358.576H642.002L637.746 370H639.122ZM644.435 370L648.691 358.576H647.315L643.059 370H644.435ZM649.748 370L654.004 358.576H652.628L648.372 370H649.748ZM655.061 370L659.317 358.576H657.941L653.685 370H655.061ZM660.374 370L664.63 358.576H663.254L658.998 370H660.374ZM665.687 370L669.943 358.576H668.567L664.311 370H665.687ZM671 370L675.256 358.576H673.88L669.624 370H671ZM676.313 370L680.57 358.576H679.193L674.938 370H676.313ZM681.627 370L685.883 358.576H684.507L680.251 370H681.627ZM686.94 370L691.196 358.576H689.82L685.564 370H686.94ZM692.253 370L696.509 358.576H695.133L690.877 370H692.253ZM697.566 370L701.822 358.576H700.446L696.19 370H697.566ZM702.879 370L707.135 358.576H705.759L701.503 370H702.879ZM447.849 386L452.105 374.576H450.729L446.473 386H447.849ZM453.162 386L457.418 374.576H456.042L451.786 386H453.162ZM458.475 386L462.731 374.576H461.355L457.099 386H458.475ZM463.788 386L468.045 374.576H466.669L462.413 386H463.788ZM469.102 386L473.358 374.576H471.982L467.726 386H469.102ZM474.415 386L478.671 374.576H477.295L473.039 386H474.415ZM479.728 386L483.984 374.576H482.608L478.352 386H479.728ZM485.041 386L489.297 374.576H487.921L483.665 386H485.041ZM490.354 386L494.61 374.576H493.234L488.978 386H490.354ZM495.667 386L499.923 374.576H498.547L494.291 386H495.667ZM500.98 386L505.236 374.576H503.86L499.604 386H500.98ZM506.293 386L510.549 374.576H509.174L504.917 386H506.293ZM511.607 386L515.863 374.576H514.487L510.231 386H511.607ZM516.92 386L521.176 374.576H519.8L515.544 386H516.92ZM522.233 386L526.489 374.576H525.113L520.857 386H522.233ZM527.546 386L531.802 374.576H530.426L526.17 386H527.546ZM532.859 386L537.115 374.576H535.739L531.483 386H532.859ZM538.172 386L542.428 374.576H541.052L536.796 386H538.172ZM543.485 386L547.741 374.576H546.365L542.109 386H543.485ZM548.799 386L553.054 374.576H551.678L547.423 386H548.799ZM554.112 386L558.368 374.576H556.992L552.736 386H554.112ZM559.425 386L563.681 374.576H562.305L558.049 386H559.425ZM564.738 386L568.994 374.576H567.618L563.362 386H564.738ZM570.051 386L574.307 374.576H572.931L568.675 386H570.051ZM575.364 386L579.62 374.576H578.244L573.988 386H575.364ZM580.677 386L584.933 374.576H583.557L579.301 386H580.677ZM585.99 386L590.246 374.576H588.87L584.614 386H585.99ZM591.303 386L595.56 374.576H594.184L589.928 386H591.303ZM596.617 386L600.873 374.576H599.497L595.241 386H596.617ZM601.93 386L606.186 374.576H604.81L600.554 386H601.93ZM607.243 386L611.499 374.576H610.123L605.867 386H607.243ZM612.556 386L616.812 374.576H615.436L611.18 386H612.556ZM617.869 386L622.125 374.576H620.749L616.493 386H617.869ZM623.182 386L627.438 374.576H626.062L621.806 386H623.182ZM628.495 386L632.751 374.576H631.375L627.119 386H628.495ZM633.809 386L638.065 374.576H636.689L632.433 386H633.809ZM639.122 386L643.378 374.576H642.002L637.746 386H639.122ZM644.435 386L648.691 374.576H647.315L643.059 386H644.435ZM649.748 386L654.004 374.576H652.628L648.372 386H649.748ZM655.061 386L659.317 374.576H657.941L653.685 386H655.061ZM660.374 386L664.63 374.576H663.254L658.998 386H660.374ZM665.687 386L669.943 374.576H668.567L664.311 386H665.687ZM671 386L675.256 374.576H673.88L669.624 386H671ZM676.313 386L680.57 374.576H679.193L674.938 386H676.313ZM681.627 386L685.883 374.576H684.507L680.251 386H681.627ZM686.94 386L691.196 374.576H689.82L685.564 386H686.94ZM692.253 386L696.509 374.576H695.133L690.877 386H692.253ZM697.566 386L701.822 374.576H700.446L696.19 386H697.566ZM702.879 386L707.135 374.576H705.759L701.503 386H702.879ZM447.849 402L452.105 390.576H450.729L446.473 402H447.849ZM453.162 402L457.418 390.576H456.042L451.786 402H453.162ZM458.475 402L462.731 390.576H461.355L457.099 402H458.475ZM463.788 402L468.045 390.576H466.669L462.413 402H463.788ZM469.102 402L473.358 390.576H471.982L467.726 402H469.102ZM474.415 402L478.671 390.576H477.295L473.039 402H474.415ZM479.728 402L483.984 390.576H482.608L478.352 402H479.728ZM485.041 402L489.297 390.576H487.921L483.665 402H485.041ZM490.354 402L494.61 390.576H493.234L488.978 402H490.354ZM495.667 402L499.923 390.576H498.547L494.291 402H495.667ZM500.98 402L505.236 390.576H503.86L499.604 402H500.98ZM506.293 402L510.549 390.576H509.174L504.917 402H506.293ZM511.607 402L515.863 390.576H514.487L510.231 402H511.607ZM516.92 402L521.176 390.576H519.8L515.544 402H516.92ZM522.233 402L526.489 390.576H525.113L520.857 402H522.233ZM527.546 402L531.802 390.576H530.426L526.17 402H527.546ZM532.859 402L537.115 390.576H535.739L531.483 402H532.859ZM538.172 402L542.428 390.576H541.052L536.796 402H538.172ZM543.485 402L547.741 390.576H546.365L542.109 402H543.485ZM548.799 402L553.054 390.576H551.678L547.423 402H548.799ZM554.112 402L558.368 390.576H556.992L552.736 402H554.112ZM559.425 402L563.681 390.576H562.305L558.049 402H559.425ZM564.738 402L568.994 390.576H567.618L563.362 402H564.738ZM570.051 402L574.307 390.576H572.931L568.675 402H570.051ZM575.364 402L579.62 390.576H578.244L573.988 402H575.364ZM580.677 402L584.933 390.576H583.557L579.301 402H580.677ZM585.99 402L590.246 390.576H588.87L584.614 402H585.99ZM591.303 402L595.56 390.576H594.184L589.928 402H591.303ZM596.617 402L600.873 390.576H599.497L595.241 402H596.617ZM601.93 402L606.186 390.576H604.81L600.554 402H601.93ZM607.243 402L611.499 390.576H610.123L605.867 402H607.243ZM612.556 402L616.812 390.576H615.436L611.18 402H612.556ZM617.869 402L622.125 390.576H620.749L616.493 402H617.869ZM623.182 402L627.438 390.576H626.062L621.806 402H623.182ZM628.495 402L632.751 390.576H631.375L627.119 402H628.495ZM633.809 402L638.065 390.576H636.689L632.433 402H633.809ZM639.122 402L643.378 390.576H642.002L637.746 402H639.122ZM644.435 402L648.691 390.576H647.315L643.059 402H644.435ZM649.748 402L654.004 390.576H652.628L648.372 402H649.748ZM655.061 402L659.317 390.576H657.941L653.685 402H655.061ZM660.374 402L664.63 390.576H663.254L658.998 402H660.374ZM665.687 402L669.943 390.576H668.567L664.311 402H665.687ZM671 402L675.256 390.576H673.88L669.624 402H671ZM676.313 402L680.57 390.576H679.193L674.938 402H676.313ZM681.627 402L685.883 390.576H684.507L680.251 402H681.627ZM686.94 402L691.196 390.576H689.82L685.564 402H686.94ZM692.253 402L696.509 390.576H695.133L690.877 402H692.253ZM697.566 402L701.822 390.576H700.446L696.19 402H697.566ZM702.879 402L707.135 390.576H705.759L701.503 402H702.879ZM447.849 418L452.105 406.576H450.729L446.473 418H447.849ZM453.162 418L457.418 406.576H456.042L451.786 418H453.162ZM458.475 418L462.731 406.576H461.355L457.099 418H458.475ZM463.788 418L468.045 406.576H466.669L462.413 418H463.788ZM469.102 418L473.358 406.576H471.982L467.726 418H469.102ZM474.415 418L478.671 406.576H477.295L473.039 418H474.415ZM479.728 418L483.984 406.576H482.608L478.352 418H479.728ZM485.041 418L489.297 406.576H487.921L483.665 418H485.041ZM490.354 418L494.61 406.576H493.234L488.978 418H490.354ZM495.667 418L499.923 406.576H498.547L494.291 418H495.667ZM500.98 418L505.236 406.576H503.86L499.604 418H500.98ZM506.293 418L510.549 406.576H509.174L504.917 418H506.293ZM511.607 418L515.863 406.576H514.487L510.231 418H511.607ZM516.92 418L521.176 406.576H519.8L515.544 418H516.92ZM522.233 418L526.489 406.576H525.113L520.857 418H522.233ZM527.546 418L531.802 406.576H530.426L526.17 418H527.546ZM532.859 418L537.115 406.576H535.739L531.483 418H532.859ZM538.172 418L542.428 406.576H541.052L536.796 418H538.172ZM543.485 418L547.741 406.576H546.365L542.109 418H543.485ZM548.799 418L553.054 406.576H551.678L547.423 418H548.799ZM554.112 418L558.368 406.576H556.992L552.736 418H554.112ZM559.425 418L563.681 406.576H562.305L558.049 418H559.425ZM564.738 418L568.994 406.576H567.618L563.362 418H564.738ZM570.051 418L574.307 406.576H572.931L568.675 418H570.051ZM575.364 418L579.62 406.576H578.244L573.988 418H575.364ZM580.677 418L584.933 406.576H583.557L579.301 418H580.677ZM585.99 418L590.246 406.576H588.87L584.614 418H585.99ZM591.303 418L595.56 406.576H594.184L589.928 418H591.303ZM596.617 418L600.873 406.576H599.497L595.241 418H596.617ZM601.93 418L606.186 406.576H604.81L600.554 418H601.93ZM607.243 418L611.499 406.576H610.123L605.867 418H607.243ZM612.556 418L616.812 406.576H615.436L611.18 418H612.556ZM617.869 418L622.125 406.576H620.749L616.493 418H617.869ZM623.182 418L627.438 406.576H626.062L621.806 418H623.182ZM628.495 418L632.751 406.576H631.375L627.119 418H628.495ZM633.809 418L638.065 406.576H636.689L632.433 418H633.809ZM639.122 418L643.378 406.576H642.002L637.746 418H639.122ZM644.435 418L648.691 406.576H647.315L643.059 418H644.435ZM649.748 418L654.004 406.576H652.628L648.372 418H649.748ZM655.061 418L659.317 406.576H657.941L653.685 418H655.061ZM660.374 418L664.63 406.576H663.254L658.998 418H660.374ZM665.687 418L669.943 406.576H668.567L664.311 418H665.687ZM671 418L675.256 406.576H673.88L669.624 418H671ZM676.313 418L680.57 406.576H679.193L674.938 418H676.313ZM681.627 418L685.883 406.576H684.507L680.251 418H681.627ZM686.94 418L691.196 406.576H689.82L685.564 418H686.94ZM692.253 418L696.509 406.576H695.133L690.877 418H692.253ZM697.566 418L701.822 406.576H700.446L696.19 418H697.566ZM702.879 418L707.135 406.576H705.759L701.503 418H702.879ZM447.849 434L452.105 422.576H450.729L446.473 434H447.849ZM453.162 434L457.418 422.576H456.042L451.786 434H453.162ZM458.475 434L462.731 422.576H461.355L457.099 434H458.475ZM463.788 434L468.045 422.576H466.669L462.413 434H463.788ZM469.102 434L473.358 422.576H471.982L467.726 434H469.102ZM474.415 434L478.671 422.576H477.295L473.039 434H474.415ZM479.728 434L483.984 422.576H482.608L478.352 434H479.728ZM485.041 434L489.297 422.576H487.921L483.665 434H485.041ZM490.354 434L494.61 422.576H493.234L488.978 434H490.354ZM495.667 434L499.923 422.576H498.547L494.291 434H495.667ZM500.98 434L505.236 422.576H503.86L499.604 434H500.98ZM506.293 434L510.549 422.576H509.174L504.917 434H506.293ZM511.607 434L515.863 422.576H514.487L510.231 434H511.607ZM516.92 434L521.176 422.576H519.8L515.544 434H516.92ZM522.233 434L526.489 422.576H525.113L520.857 434H522.233ZM527.546 434L531.802 422.576H530.426L526.17 434H527.546ZM532.859 434L537.115 422.576H535.739L531.483 434H532.859ZM538.172 434L542.428 422.576H541.052L536.796 434H538.172ZM543.485 434L547.741 422.576H546.365L542.109 434H543.485ZM548.799 434L553.054 422.576H551.678L547.423 434H548.799ZM554.112 434L558.368 422.576H556.992L552.736 434H554.112ZM559.425 434L563.681 422.576H562.305L558.049 434H559.425ZM564.738 434L568.994 422.576H567.618L563.362 434H564.738ZM570.051 434L574.307 422.576H572.931L568.675 434H570.051ZM575.364 434L579.62 422.576H578.244L573.988 434H575.364ZM580.677 434L584.933 422.576H583.557L579.301 434H580.677ZM585.99 434L590.246 422.576H588.87L584.614 434H585.99ZM591.303 434L595.56 422.576H594.184L589.928 434H591.303ZM596.617 434L600.873 422.576H599.497L595.241 434H596.617ZM601.93 434L606.186 422.576H604.81L600.554 434H601.93ZM607.243 434L611.499 422.576H610.123L605.867 434H607.243ZM612.556 434L616.812 422.576H615.436L611.18 434H612.556ZM617.869 434L622.125 422.576H620.749L616.493 434H617.869ZM623.182 434L627.438 422.576H626.062L621.806 434H623.182ZM628.495 434L632.751 422.576H631.375L627.119 434H628.495ZM633.809 434L638.065 422.576H636.689L632.433 434H633.809ZM639.122 434L643.378 422.576H642.002L637.746 434H639.122ZM644.435 434L648.691 422.576H647.315L643.059 434H644.435ZM649.748 434L654.004 422.576H652.628L648.372 434H649.748ZM655.061 434L659.317 422.576H657.941L653.685 434H655.061ZM660.374 434L664.63 422.576H663.254L658.998 434H660.374ZM665.687 434L669.943 422.576H668.567L664.311 434H665.687ZM671 434L675.256 422.576H673.88L669.624 434H671ZM676.313 434L680.57 422.576H679.193L674.938 434H676.313ZM681.627 434L685.883 422.576H684.507L680.251 434H681.627ZM686.94 434L691.196 422.576H689.82L685.564 434H686.94ZM692.253 434L696.509 422.576H695.133L690.877 434H692.253ZM697.566 434L701.822 422.576H700.446L696.19 434H697.566ZM702.879 434L707.135 422.576H705.759L701.503 434H702.879ZM447.849 452L452.105 440.576H450.729L446.473 452H447.849ZM453.162 452L457.418 440.576H456.042L451.786 452H453.162ZM458.475 452L462.731 440.576H461.355L457.099 452H458.475ZM463.788 452L468.045 440.576H466.669L462.413 452H463.788ZM469.102 452L473.358 440.576H471.982L467.726 452H469.102ZM474.415 452L478.671 440.576H477.295L473.039 452H474.415ZM479.728 452L483.984 440.576H482.608L478.352 452H479.728ZM485.041 452L489.297 440.576H487.921L483.665 452H485.041ZM490.354 452L494.61 440.576H493.234L488.978 452H490.354ZM495.667 452L499.923 440.576H498.547L494.291 452H495.667ZM500.98 452L505.236 440.576H503.86L499.604 452H500.98ZM506.293 452L510.549 440.576H509.174L504.917 452H506.293ZM511.607 452L515.863 440.576H514.487L510.231 452H511.607ZM516.92 452L521.176 440.576H519.8L515.544 452H516.92ZM522.233 452L526.489 440.576H525.113L520.857 452H522.233ZM527.546 452L531.802 440.576H530.426L526.17 452H527.546ZM532.859 452L537.115 440.576H535.739L531.483 452H532.859ZM538.172 452L542.428 440.576H541.052L536.796 452H538.172ZM543.485 452L547.741 440.576H546.365L542.109 452H543.485ZM548.799 452L553.054 440.576H551.678L547.423 452H548.799ZM554.112 452L558.368 440.576H556.992L552.736 452H554.112ZM559.425 452L563.681 440.576H562.305L558.049 452H559.425ZM564.738 452L568.994 440.576H567.618L563.362 452H564.738ZM570.051 452L574.307 440.576H572.931L568.675 452H570.051ZM575.364 452L579.62 440.576H578.244L573.988 452H575.364ZM580.677 452L584.933 440.576H583.557L579.301 452H580.677ZM585.99 452L590.246 440.576H588.87L584.614 452H585.99ZM591.303 452L595.56 440.576H594.184L589.928 452H591.303ZM596.617 452L600.873 440.576H599.497L595.241 452H596.617ZM601.93 452L606.186 440.576H604.81L600.554 452H601.93ZM607.243 452L611.499 440.576H610.123L605.867 452H607.243ZM612.556 452L616.812 440.576H615.436L611.18 452H612.556ZM617.869 452L622.125 440.576H620.749L616.493 452H617.869ZM623.182 452L627.438 440.576H626.062L621.806 452H623.182ZM628.495 452L632.751 440.576H631.375L627.119 452H628.495ZM633.809 452L638.065 440.576H636.689L632.433 452H633.809ZM639.122 452L643.378 440.576H642.002L637.746 452H639.122ZM644.435 452L648.691 440.576H647.315L643.059 452H644.435ZM649.748 452L654.004 440.576H652.628L648.372 452H649.748ZM655.061 452L659.317 440.576H657.941L653.685 452H655.061ZM660.374 452L664.63 440.576H663.254L658.998 452H660.374ZM665.687 452L669.943 440.576H668.567L664.311 452H665.687ZM671 452L675.256 440.576H673.88L669.624 452H671ZM676.313 452L680.57 440.576H679.193L674.938 452H676.313ZM681.627 452L685.883 440.576H684.507L680.251 452H681.627ZM686.94 452L691.196 440.576H689.82L685.564 452H686.94ZM692.253 452L696.509 440.576H695.133L690.877 452H692.253ZM697.566 452L701.822 440.576H700.446L696.19 452H697.566ZM702.879 452L707.135 440.576H705.759L701.503 452H702.879Z" fill="#414040"/>
<path d="M1250.68 60.024L1250.18 62.584H1252.38V63.656H1249.98L1249.32 67H1248.18L1248.84 63.656H1246.55L1245.93 67H1244.81L1245.42 63.656H1243.4V62.584H1245.62L1246.14 60.024H1243.99V58.968H1246.33L1246.97 55.576H1248.12L1247.48 58.968H1249.78L1250.42 55.576H1251.53L1250.89 58.968H1252.92V60.024H1250.68ZM1246.76 62.584H1249.05L1249.54 60.024H1247.26L1246.76 62.584ZM1261.02 60.024L1260.53 62.584H1262.72V63.656H1260.32L1259.66 67H1258.53L1259.18 63.656H1256.9L1256.27 67H1255.15L1255.76 63.656H1253.74V62.584H1255.97L1256.48 60.024H1254.34V58.968H1256.67L1257.31 55.576H1258.46L1257.82 58.968H1260.13L1260.77 55.576H1261.87L1261.23 58.968H1263.26V60.024H1261.02ZM1257.1 62.584H1259.39L1259.89 60.024H1257.6L1257.1 62.584ZM1271.37 60.024L1270.87 62.584H1273.06V63.656H1270.66L1270.01 67H1268.87L1269.53 63.656H1267.24L1266.62 67H1265.5L1266.1 63.656H1264.09V62.584H1266.31L1266.82 60.024H1264.68V58.968H1267.02L1267.66 55.576H1268.81L1268.17 58.968H1270.47L1271.11 55.576H1272.22L1271.58 58.968H1273.61V60.024H1271.37ZM1267.45 62.584H1269.74L1270.23 60.024H1267.94L1267.45 62.584Z" fill="#FF3E1B"/>
<path d="M914.568 46.528C913.917 46.5173 913.352 46.4213 912.872 46.24C912.403 46.0587 912.04 45.776 911.784 45.392C911.528 45.0187 911.4 44.5493 911.4 43.984V41.632C911.4 41.2693 911.325 40.9813 911.176 40.768C911.027 40.544 910.808 40.384 910.52 40.288C910.232 40.1813 909.875 40.128 909.448 40.128V38.96C909.875 38.9493 910.232 38.896 910.52 38.8C910.808 38.704 911.027 38.5493 911.176 38.336C911.325 38.112 911.4 37.824 911.4 37.472V35.104C911.4 34.6773 911.475 34.3093 911.624 34C911.784 33.68 912.003 33.4187 912.28 33.216C912.568 33.0027 912.904 32.8427 913.288 32.736C913.672 32.6293 914.099 32.576 914.568 32.576V33.728C914.205 33.7387 913.891 33.7973 913.624 33.904C913.357 34.0107 913.149 34.1707 913 34.384C912.861 34.5973 912.792 34.88 912.792 35.232V37.536C912.792 38.08 912.648 38.5173 912.36 38.848C912.072 39.168 911.635 39.3813 911.048 39.488V39.584C911.645 39.6907 912.083 39.9093 912.36 40.24C912.648 40.56 912.792 40.992 912.792 41.536V43.888C912.792 44.2293 912.861 44.5067 913 44.72C913.139 44.944 913.341 45.104 913.608 45.2C913.875 45.3067 914.195 45.3653 914.568 45.376V46.528ZM920.87 32.576L916.614 44H915.238L919.494 32.576H920.87ZM926.183 31.84L925.863 34.912L928.935 34.048L929.159 35.52L926.215 35.76L928.119 38.288L926.743 39.04L925.383 36.24L924.151 39.04L922.727 38.288L924.599 35.76L921.687 35.52L921.911 34.048L924.951 34.912L924.615 31.84H926.183ZM930.356 45.376C930.729 45.3653 931.044 45.3067 931.3 45.2C931.566 45.0933 931.769 44.928 931.908 44.704C932.057 44.4907 932.132 44.2133 932.132 43.872V41.552C932.132 41.008 932.276 40.576 932.564 40.256C932.852 39.9253 933.289 39.7067 933.876 39.6V39.504C933.289 39.3973 932.852 39.184 932.564 38.864C932.276 38.5333 932.132 38.096 932.132 37.552V35.216C932.132 34.864 932.062 34.5813 931.924 34.368C931.785 34.1547 931.582 33.9947 931.316 33.888C931.06 33.7813 930.74 33.728 930.356 33.728V32.576C930.846 32.576 931.284 32.6293 931.668 32.736C932.062 32.8427 932.398 33.0027 932.676 33.216C932.953 33.4187 933.161 33.68 933.3 34C933.449 34.32 933.524 34.6933 933.524 35.12V37.456C933.524 37.8187 933.598 38.112 933.748 38.336C933.897 38.5493 934.116 38.7093 934.404 38.816C934.702 38.912 935.06 38.96 935.476 38.96V40.128C935.06 40.128 934.702 40.1813 934.404 40.288C934.116 40.384 933.897 40.5387 933.748 40.752C933.598 40.9653 933.524 41.2533 933.524 41.616V44C933.524 44.5653 933.39 45.0347 933.124 45.408C932.857 45.7813 932.484 46.0587 932.004 46.24C931.534 46.432 930.985 46.528 930.356 46.528V45.376Z" fill="#FF3E1B"/>
<path d="M410 129H450V211" stroke="#FF3E1B"/>
<path d="M1 223V147H143" stroke="#FF3E1B"/>
<path d="M1421 156V59.6881M1145 1H1421V59.6881M1421 59.6881H1282.58" stroke="#FF3E1B"/>
<path d="M684 84H720.5V123H746.5" stroke="#FF3E1B"/>
</svg>
