<svg width="97" height="61" viewBox="0 0 97 61" fill="none" xmlns="http://www.w3.org/2000/svg">
<mask id="path-1-inside-1_533_2628" fill="white">
<path fill-rule="evenodd" clip-rule="evenodd" d="M57.2971 24.4597C57.2971 22.2506 55.5063 20.4597 53.2971 20.4597H43.423C41.2139 20.4597 39.423 22.2506 39.423 24.4597V36.7314C39.423 38.9406 37.6322 40.7314 35.423 40.7314H24.4578C22.2486 40.7314 20.4578 42.5223 20.4578 44.7314V57.0004C20.4578 59.2095 22.2486 61.0004 24.4578 61.0004H72.2599C74.469 61.0004 76.2599 59.2095 76.2599 57.0004V44.7314C76.2599 42.5223 74.469 40.7314 72.2599 40.7314H61.2971C59.088 40.7314 57.2971 38.9406 57.2971 36.7314V24.4597Z"/>
</mask>
<path fill-rule="evenodd" clip-rule="evenodd" d="M57.2971 24.4597C57.2971 22.2506 55.5063 20.4597 53.2971 20.4597H43.423C41.2139 20.4597 39.423 22.2506 39.423 24.4597V36.7314C39.423 38.9406 37.6322 40.7314 35.423 40.7314H24.4578C22.2486 40.7314 20.4578 42.5223 20.4578 44.7314V57.0004C20.4578 59.2095 22.2486 61.0004 24.4578 61.0004H72.2599C74.469 61.0004 76.2599 59.2095 76.2599 57.0004V44.7314C76.2599 42.5223 74.469 40.7314 72.2599 40.7314H61.2971C59.088 40.7314 57.2971 38.9406 57.2971 36.7314V24.4597Z" fill="#FF3E1B"/>
<path d="M43.423 21.4597H53.2971V19.4597H43.423V21.4597ZM40.423 36.7314V24.4597H38.423V36.7314H40.423ZM24.4578 41.7314H35.423V39.7314H24.4578V41.7314ZM21.4578 57.0004V44.7314H19.4578V57.0004H21.4578ZM72.2599 60.0004H24.4578V62.0004H72.2599V60.0004ZM75.2599 44.7314V57.0004H77.2599V44.7314H75.2599ZM61.2971 41.7314H72.2599V39.7314H61.2971V41.7314ZM56.2971 24.4597V36.7314H58.2971V24.4597H56.2971ZM61.2971 39.7314C59.6403 39.7314 58.2971 38.3883 58.2971 36.7314H56.2971C56.2971 39.4929 58.5357 41.7314 61.2971 41.7314V39.7314ZM77.2599 44.7314C77.2599 41.97 75.0213 39.7314 72.2599 39.7314V41.7314C73.9168 41.7314 75.2599 43.0746 75.2599 44.7314H77.2599ZM72.2599 62.0004C75.0213 62.0004 77.2599 59.7618 77.2599 57.0004H75.2599C75.2599 58.6572 73.9168 60.0004 72.2599 60.0004V62.0004ZM19.4578 57.0004C19.4578 59.7618 21.6963 62.0004 24.4578 62.0004V60.0004C22.8009 60.0004 21.4578 58.6572 21.4578 57.0004H19.4578ZM24.4578 39.7314C21.6963 39.7314 19.4578 41.97 19.4578 44.7314H21.4578C21.4578 43.0746 22.8009 41.7314 24.4578 41.7314V39.7314ZM38.423 36.7314C38.423 38.3883 37.0799 39.7314 35.423 39.7314V41.7314C38.1844 41.7314 40.423 39.4929 40.423 36.7314H38.423ZM53.2971 21.4597C54.954 21.4597 56.2971 22.8029 56.2971 24.4597H58.2971C58.2971 21.6983 56.0586 19.4597 53.2971 19.4597V21.4597ZM43.423 19.4597C40.6616 19.4597 38.423 21.6983 38.423 24.4597H40.423C40.423 22.8029 41.7662 21.4597 43.423 21.4597V19.4597Z" fill="#FF3E1B" mask="url(#path-1-inside-1_533_2628)"/>
<path d="M79.1011 50.2863L96 50.2606M96 50.2606L92.1316 46.411M96 50.2606L92.1316 54.1219" stroke="#FF3E1B"/>
<path d="M48.8255 17.8421L48.7997 1M48.7997 1L44.9372 4.85542M48.7997 1L52.674 4.85542" stroke="#FF3E1B"/>
<path d="M17.8989 50.632L1 50.6578M1 50.6578L4.86842 54.5073M1 50.6578L4.86842 46.7964" stroke="#FF3E1B"/>
</svg>
