<svg width="95" height="60" viewBox="0 0 95 60" fill="none" xmlns="http://www.w3.org/2000/svg">
<path d="M83.9946 0.499268C85.9276 0.499268 87.4946 2.06627 87.4946 3.99927V55.9303C87.4946 57.8633 85.9276 59.4303 83.9946 59.4303H35.8567C33.9237 59.4303 32.3567 57.8633 32.3567 55.9303V35.8613C32.3567 33.9283 33.9237 32.3613 35.8567 32.3613H55.9257C58.4109 32.3613 60.4257 30.3466 60.4257 27.8613V3.99927C60.4257 2.06627 61.9927 0.499268 63.9257 0.499268H83.9946Z" fill="#FF3E1B" stroke="#FF3E1B"/>
<path d="M4 59.4309C2.067 59.4309 0.5 57.8639 0.5 55.9309V3.99988C0.5 2.06688 2.067 0.499878 4 0.499878H52.1379C54.0709 0.499878 55.6379 2.06688 55.6379 3.99988V24.0688C55.6379 26.0018 54.0709 27.5688 52.1379 27.5688H32.069C29.5837 27.5688 27.569 29.5836 27.569 32.0688V55.9309C27.569 57.8639 26.002 59.4309 24.069 59.4309H4Z" stroke="#FF3E1B"/>
</svg>
