<svg width="606" height="359" viewBox="0 0 606 359" fill="none" xmlns="http://www.w3.org/2000/svg">
<rect y="279" width="169" height="80" rx="15" fill="#414040"/>
<path fill-rule="evenodd" clip-rule="evenodd" d="M328 193C336.284 193 343 199.716 343 208V344C343 352.284 336.284 359 328 359H189C180.716 359 174 352.284 174 344V289C174 280.716 167.284 274 159 274H102C93.7157 274 87 267.284 87 259V208C87 199.716 93.7157 193 102 193H328Z" fill="#414040"/>
<path d="M363 108C354.716 108 348 114.716 348 123V259C348 267.284 354.716 274 363 274H415C423.284 274 430 267.284 430 259V203C430 194.716 436.716 188 445 188H502C510.284 188 517 181.284 517 173V123C517 114.716 510.284 108 502 108H363Z" fill="#414040"/>
<rect x="524" y="23" width="82" height="165" rx="15" fill="#414040"/>
<rect x="436" y="23" width="82" height="80" rx="15" fill="#FF3E1B"/>
<path d="M605.5 210.429H606V215.286H605.5V220.143H606V225H605.5V229.857H606V234.714H605.5V239.571H606V244.429H605.5V249.286H606V254.143H605.5V259H606V263.857H605.5V268.714H606V273.571H605.5V278.429H606V283.286H605.5V288.143H606V293H605.5V297.857H606V302.714H605.5V307.571H606V312.429H605.5V317.286H606V322.143H605.5V327H606V331.857H605.5V336.714H606V341.571H605.5V344C605.5 344.969 605.405 345.915 605.224 346.83L605.714 346.927C605.325 348.895 604.551 350.725 603.473 352.334L603.058 352.056C601.999 353.638 600.638 354.999 599.056 356.058L599.334 356.473C597.725 357.551 595.895 358.325 593.927 358.714L593.83 358.224C592.915 358.405 591.969 358.5 591 358.5H588.522V359H583.565V358.5H578.609V359H573.652V358.5H568.696V359H563.739V358.5H558.783V359H553.826V358.5H548.87V359H543.913V358.5H538.957V359H534V358.5H529.043V359H524.087V358.5H519.13V359H514.174V358.5H509.217V359H504.261V358.5H499.304V359H494.348V358.5H489.391V359H484.435V358.5H479.478V359H474.522V358.5H469.565V359H464.609V358.5H459.652V359H454.696V358.5H449.739V359H444.783V358.5H439.826V359H434.87V358.5H429.913V359H424.957V358.5H420V359H415.043V358.5H410.087V359H405.13V358.5H400.174V359H395.217V358.5H390.261V359H385.304V358.5H380.348V359H375.391V358.5H370.435V359H365.478V358.5H363C362.031 358.5 361.085 358.405 360.17 358.224L360.073 358.714C358.105 358.325 356.275 357.551 354.666 356.473L354.944 356.058C353.362 354.999 352.001 353.638 350.942 352.056L350.527 352.334C349.449 350.725 348.675 348.895 348.286 346.927L348.776 346.83C348.595 345.915 348.5 344.969 348.5 344V341.5H348V336.5H348.5V331.5H348V326.5H348.5V321.5H348V316.5H348.5V311.5H348V306.5H348.5V301.5H348V296.5H348.5V294C348.5 293.031 348.595 292.085 348.776 291.17L348.286 291.073C348.675 289.105 349.449 287.275 350.527 285.666L350.942 285.944C352.001 284.362 353.362 283.001 354.944 281.942L354.666 281.527C356.275 280.449 358.105 279.675 360.073 279.286L360.17 279.776C361.085 279.595 362.031 279.5 363 279.5H365.417V279H370.25V279.5H375.083V279H379.917V279.5H384.75V279H389.583V279.5H394.417V279H399.25V279.5H404.083V279H408.917V279.5H413.75V279H418.583V279.5H421C422.035 279.5 423.046 279.399 424.024 279.205L423.927 278.714C425.895 278.325 427.725 277.551 429.334 276.473L429.612 276.889C431.302 275.757 432.757 274.302 433.889 272.612L433.473 272.334C434.551 270.725 435.325 268.895 435.714 266.927L436.205 267.024C436.399 266.046 436.5 265.035 436.5 264V261.667H436V257H436.5V252.333H436V247.667H436.5V243H436V238.333H436.5V233.667H436V229H436.5V224.333H436V219.667H436.5V215H436V210.333H436.5V208C436.5 207.031 436.595 206.085 436.776 205.17L436.286 205.073C436.675 203.105 437.449 201.275 438.527 199.666L438.942 199.944C440.001 198.362 441.362 197.001 442.944 195.942L442.666 195.527C444.275 194.449 446.105 193.675 448.073 193.286L448.17 193.776C449.085 193.595 450.031 193.5 451 193.5H453.5V193H458.5V193.5H463.5V193H468.5V193.5H473.5V193H478.5V193.5H483.5V193H488.5V193.5H493.5V193H498.5V193.5H503.5V193H508.5V193.5H513.5V193H518.5V193.5H523.5V193H528.5V193.5H533.5V193H538.5V193.5H543.5V193H548.5V193.5H553.5V193H558.5V193.5H563.5V193H568.5V193.5H573.5V193H578.5V193.5H583.5V193H588.5V193.5H591C591.969 193.5 592.915 193.595 593.83 193.776L593.927 193.286C595.895 193.675 597.725 194.449 599.334 195.527L599.056 195.942C600.638 197.001 601.999 198.362 603.058 199.944L603.473 199.666C604.551 201.275 605.325 203.105 605.714 205.073L605.224 205.17C605.405 206.085 605.5 207.031 605.5 208V210.429Z" stroke="#F6F6F6" stroke-opacity="0.5" stroke-dasharray="5 5"/>
<path d="M76.5 252V183.5H149" stroke="#FF3E1B"/>
<path d="M585.792 3.576L581.536 15H580.16L584.416 3.576H585.792ZM591.105 2.84L590.785 5.912L593.857 5.048L594.081 6.52L591.137 6.76L593.041 9.288L591.665 10.04L590.305 7.24L589.073 10.04L587.649 9.288L589.521 6.76L586.609 6.52L586.833 5.048L589.873 5.912L589.537 2.84H591.105Z" fill="#FF3E1B"/>
<path d="M441 9H573" stroke="#FF3E1B"/>
<path d="M422.5 69.5V98.5H187.5" stroke="#FF3E1B"/>
</svg>
