<svg width="1439" height="258" viewBox="0 0 1439 258" fill="none" xmlns="http://www.w3.org/2000/svg">
<path fill-rule="evenodd" clip-rule="evenodd" d="M543.722 247.003C543.722 250.945 546.918 254.141 550.861 254.141H700.557C704.5 254.141 707.696 250.945 707.696 247.003V228.207C707.696 224.264 704.5 221.068 700.557 221.068H636.851C632.909 221.068 629.712 217.872 629.712 213.93V120.284C629.712 116.341 632.909 113.145 636.851 113.145H700.557C704.5 113.145 707.696 109.949 707.696 106.006V87.2106C707.696 83.268 704.5 80.0719 700.557 80.0719H636.851C632.909 80.0719 629.712 76.8759 629.712 72.9333V43.8655C629.712 41.7767 629.828 40.152 630.061 38.9915C630.23 38.1438 630.462 37.42 630.755 36.82C630.961 36.3976 631.259 36.018 631.653 35.7612C632.094 35.4733 632.605 35.2891 633.185 35.2087C633.651 35.1442 634.122 35.1103 634.587 35.0444C635.672 34.8907 637.064 34.8139 638.764 34.8139H707.696H788.543C790.076 34.8139 791.297 34.8764 792.205 35.0016C792.783 35.0812 793.369 35.1332 793.943 35.2356C794.705 35.3713 795.342 35.6949 795.854 36.2064C796.403 36.7555 796.735 37.4489 796.851 38.2866C796.916 38.7523 796.95 39.223 797.016 39.6885C797.169 40.7735 797.246 42.1658 797.246 43.8655V213.93C797.246 217.872 794.05 221.068 790.107 221.068H739.979C736.036 221.068 732.84 224.264 732.84 228.207V247.003C732.84 250.945 736.036 254.141 739.979 254.141H889.327C893.27 254.141 896.466 250.945 896.466 247.003V228.207C896.466 224.264 893.27 221.068 889.327 221.068H839.199C835.256 221.068 832.06 217.872 832.06 213.93V53.9615C832.06 35.3941 827.882 21.8167 819.527 13.2293C811.404 4.40976 798.871 0 781.928 0H707.696H645.379C628.204 0 615.439 4.40976 607.083 13.2293C598.96 21.8167 594.898 35.3941 594.898 53.9615V72.9333C594.898 76.8759 591.702 80.0719 587.76 80.0719H550.861C546.918 80.0719 543.722 83.268 543.722 87.2106V106.006C543.722 109.949 546.918 113.145 550.861 113.145H587.76C591.702 113.145 594.898 116.341 594.898 120.284V213.93C594.898 217.872 591.702 221.068 587.76 221.068H550.861C546.918 221.068 543.722 224.264 543.722 228.207V247.003ZM322.812 233.601C337.201 217.587 344.396 195.422 344.396 167.107C344.396 139.023 337.085 116.975 322.464 100.96C308.074 84.7138 288.23 76.5905 262.932 76.5905C237.634 76.5905 217.674 84.7138 203.052 100.96C188.43 116.975 181.119 139.023 181.119 167.107C181.119 195.422 188.43 217.587 203.052 233.601C217.674 249.616 237.634 257.623 262.932 257.623C288.462 257.623 308.422 249.616 322.812 233.601ZM298.442 120.804C306.565 131.248 310.627 146.682 310.627 167.107C310.627 187.299 306.565 202.617 298.442 213.061C290.551 223.505 278.714 228.727 262.932 228.727C247.382 228.727 235.545 223.505 227.422 213.061C219.298 202.617 215.237 187.299 215.237 167.107C215.237 146.915 219.182 131.596 227.074 121.152C235.197 110.476 247.15 105.138 262.932 105.138C278.714 105.138 290.551 110.36 298.442 120.804ZM0 247.003C0 250.945 3.19606 254.141 7.13862 254.141H156.835C160.777 254.141 163.973 250.945 163.973 247.003V228.207C163.973 224.264 160.777 221.068 156.835 221.068H89.9957C86.0531 221.068 82.857 217.872 82.857 213.93V174.069C82.857 161.536 83.3212 151.44 84.2496 143.781C85.178 135.89 87.1508 129.856 90.168 125.678C93.4173 121.268 97.9431 118.367 103.745 116.975C109.548 115.582 117.439 114.886 127.419 114.886H156.835C160.777 114.886 163.973 111.69 163.973 107.747V87.2106C163.973 83.268 160.777 80.0719 156.835 80.0719H131.945C122.197 80.0719 113.957 81.5805 107.227 84.5977C100.496 87.6149 94.9258 92.1407 90.5161 98.1751C88.1925 101.531 80.1466 100.46 79.7846 96.3939L78.7635 84.9267C78.5188 82.1785 76.2163 80.0719 73.4573 80.0719H66.8427H63.3613H48.0432H7.13863C3.19607 80.0719 0 83.268 0 87.2106V106.006C0 109.949 3.19607 113.145 7.13862 113.145H40.9045C44.8471 113.145 48.0432 116.341 48.0432 120.284V213.93C48.0432 217.872 44.8471 221.068 40.9045 221.068H7.13863C3.19607 221.068 0 224.264 0 228.207V247.003ZM525.524 167.107C525.524 195.422 518.329 217.587 503.939 233.601C489.549 249.616 469.589 257.623 444.059 257.623C418.761 257.623 398.801 249.616 384.179 233.601C383.386 232.732 383.503 231.382 384.409 230.633L406.039 212.758C406.803 212.126 407.94 212.278 408.549 213.061C416.672 223.505 428.509 228.727 444.059 228.727C459.841 228.727 471.678 223.505 479.569 213.061C487.693 202.617 491.754 187.299 491.754 167.107C491.754 160.16 491.284 153.79 490.345 147.998C489.918 145.371 490.834 142.679 492.886 140.983L509.599 127.171C513.231 124.169 518.721 125.458 520.182 129.938C523.743 140.858 525.524 153.247 525.524 167.107ZM494.422 102.669C497.67 99.985 497.915 95.0535 494.615 92.4337C481.309 81.8716 464.457 76.5905 444.059 76.5905C418.761 76.5905 398.801 84.7138 384.179 100.96C369.558 116.975 362.247 139.023 362.247 167.107C362.247 178 363.329 187.983 365.493 197.056C366.643 201.879 372.418 203.499 376.24 200.341L394.279 185.433C396.171 183.869 397.11 181.444 396.884 179C396.538 175.243 396.364 171.279 396.364 167.107C396.364 146.915 400.31 131.596 408.201 121.152C416.324 110.476 428.277 105.138 444.059 105.138C455.235 105.138 464.432 107.756 471.651 112.994C474.681 115.192 478.881 115.514 481.766 113.129L494.422 102.669ZM921.615 221.068C917.672 221.068 914.476 224.264 914.476 228.207V247.003C914.476 250.945 917.672 254.141 921.615 254.141H1070.96C1074.91 254.141 1078.1 250.945 1078.1 247.003V228.207C1078.1 224.264 1074.91 221.068 1070.96 221.068H1022.58C1018.63 221.068 1015.44 217.872 1015.44 213.93V134.033C1015.44 115.93 1011.14 102.469 1002.56 93.6493C993.968 84.5977 980.971 80.0719 963.564 80.0719H921.615C917.672 80.0719 914.476 83.268 914.476 87.2106V107.747C914.476 111.69 917.672 114.886 921.615 114.886H971.919C973.453 114.886 974.674 114.948 975.582 115.073C976.16 115.153 976.745 115.205 977.32 115.307C978.082 115.443 978.719 115.767 979.23 116.278C979.779 116.827 980.112 117.521 980.228 118.359C980.292 118.824 980.326 119.295 980.392 119.76C980.546 120.845 980.623 122.238 980.623 123.937V213.93C980.623 217.872 977.427 221.068 973.484 221.068H921.615ZM985.324 27.8511C981.382 27.8511 978.186 31.0472 978.186 34.9897V54.4819C978.186 58.4245 981.382 61.6206 985.324 61.6206H1007.6C1011.54 61.6206 1014.74 58.4245 1014.74 54.4819V34.9897C1014.74 31.0472 1011.54 27.8511 1007.6 27.8511H985.324ZM1123.61 254.141C1127.55 254.141 1130.75 250.945 1130.75 247.003V181.38C1130.75 164.205 1132.26 150.512 1135.28 140.3C1138.52 130.088 1142.47 122.313 1147.11 116.975C1151.99 111.404 1157.21 107.807 1162.78 106.182C1168.58 104.326 1174.03 103.397 1179.14 103.397C1187.03 103.397 1193.88 104.906 1199.68 107.923C1205.48 110.708 1210.24 114.886 1213.95 120.456C1217.67 125.794 1220.34 132.525 1221.96 140.648C1223.82 148.539 1224.75 157.591 1224.75 167.803V247.003C1224.75 250.945 1227.94 254.141 1231.89 254.141H1252.42C1256.36 254.141 1259.56 250.945 1259.56 247.003V162.581C1259.56 149.816 1258.05 138.211 1255.04 127.767C1252.25 117.091 1247.96 108.039 1242.15 100.612C1236.58 92.953 1229.39 87.0347 1220.57 82.857C1211.98 78.6794 1201.89 76.5905 1190.28 76.5905C1168.7 76.5905 1152.45 82.9731 1141.54 95.7382C1138.63 99.1487 1130.75 97.1804 1130.75 92.6943V85.5079C1130.75 82.5057 1128.32 80.0719 1125.31 80.0719H1103.07C1099.13 80.0719 1095.94 83.268 1095.94 87.2106V247.003C1095.94 250.945 1099.13 254.141 1103.07 254.141H1123.61ZM1318.73 175.81C1314.6 175.81 1311.31 179.302 1311.86 183.388C1313.53 195.744 1317.25 205.634 1323.03 213.061C1331.15 223.505 1342.99 228.727 1358.54 228.727C1370.14 228.727 1379.54 226.058 1386.73 220.72C1392.95 216.25 1397.63 209.747 1400.75 201.209C1401.86 198.182 1404.64 196.002 1407.86 196.002H1427.83C1432.44 196.002 1435.86 200.319 1434.41 204.698C1429.33 220.075 1421.1 232.379 1409.71 241.608C1396.25 252.285 1379.19 257.623 1358.54 257.623C1333.24 257.623 1313.28 249.616 1298.66 233.601C1284.03 217.587 1276.72 195.422 1276.72 167.107C1276.72 139.023 1284.03 116.975 1298.66 100.96C1313.28 84.7138 1333.24 76.5905 1358.54 76.5905C1383.83 76.5905 1403.68 84.7138 1418.07 100.96C1432.69 116.975 1440 139.023 1440 167.107L1439.93 168.957C1439.77 172.785 1436.62 175.81 1432.79 175.81H1318.73ZM1313.43 141.985C1312.43 146.204 1315.8 150.048 1320.13 150.048H1396.92C1401.26 150.048 1404.63 146.199 1403.63 141.98C1401.61 133.479 1398.41 126.42 1394.05 120.804C1386.15 110.36 1374.32 105.138 1358.54 105.138C1342.75 105.138 1330.8 110.476 1322.68 121.152C1318.47 126.714 1315.39 133.659 1313.43 141.985Z" fill="#414040"/>
</svg>
